<svg width="18" height="18" viewBox="0 0 18 18" fill="none" xmlns="http://www.w3.org/2000/svg">
<path d="M14.505 10.8675L13.755 9.6225C13.5975 9.345 13.455 8.82 13.455 8.5125V6.615C13.455 4.8525 12.42 3.33 10.9275 2.6175C10.5375 1.9275 9.81746 1.5 8.99246 1.5C8.17496 1.5 7.43996 1.9425 7.04996 2.64C5.58746 3.3675 4.57496 4.875 4.57496 6.615V8.5125C4.57496 8.82 4.43246 9.345 4.27496 9.615L3.51746 10.8675C3.21746 11.37 3.14996 11.925 3.33746 12.435C3.51746 12.9375 3.94496 13.3275 4.49996 13.515C5.95496 14.01 7.48496 14.25 9.01496 14.25C10.545 14.25 12.075 14.01 13.53 13.5225C14.055 13.35 14.46 12.9525 14.655 12.435C14.85 11.9175 14.7975 11.3475 14.505 10.8675Z" fill="#EFDA9C"/>
<path d="M11.1223 15.0075C10.8073 15.8775 9.97477 16.5 8.99977 16.5C8.40727 16.5 7.82227 16.26 7.40977 15.8325C7.16977 15.6075 6.98977 15.3075 6.88477 15C6.98227 15.015 7.07977 15.0225 7.18477 15.0375C7.35727 15.06 7.53727 15.0825 7.71727 15.0975C8.14477 15.135 8.57977 15.1575 9.01477 15.1575C9.44227 15.1575 9.86977 15.135 10.2898 15.0975C10.4473 15.0825 10.6048 15.075 10.7548 15.0525C10.8748 15.0375 10.9948 15.0225 11.1223 15.0075Z" fill="#EFDA9C"/>
</svg>
