<svg width="18" height="18" viewBox="0 0 18 18" fill="none" xmlns="http://www.w3.org/2000/svg">
<path d="M8.9549 1.65688L7.1474 5.86438H5.3399C5.0399 5.86438 4.7474 5.88688 4.4624 5.94688L5.2124 4.14689L5.2424 4.07939L5.2874 3.95939C5.3099 3.90689 5.3249 3.86188 5.3474 3.82438C6.2174 1.80688 7.1924 1.17688 8.9549 1.65688Z" fill="#E687A3"/>
<path d="M14.0473 6.06813L14.0323 6.06063C13.5823 5.93313 13.1248 5.86563 12.6598 5.86563H7.96484L9.65234 1.94312L9.67484 1.89062C9.77984 1.92813 9.89234 1.98063 10.0048 2.01813L11.6623 2.71562C12.5848 3.09812 13.2298 3.49563 13.6273 3.97563C13.6948 4.06563 13.7548 4.14812 13.8148 4.24563C13.8823 4.35062 13.9348 4.45563 13.9648 4.56813C13.9948 4.63563 14.0173 4.69562 14.0323 4.76312C14.1448 5.14562 14.1523 5.58063 14.0473 6.06813Z" fill="#E687A3"/>
<path d="M9.39014 13.2436H9.57764C9.80264 13.2436 9.99014 13.0411 9.99014 12.7936C9.99014 12.4786 9.90014 12.4336 9.70514 12.3586L9.39014 12.2461V13.2436Z" fill="#E687A3"/>
<path d="M13.7177 7.13828C13.3802 7.04078 13.0277 6.98828 12.6602 6.98828H5.34018C4.83018 6.98828 4.35018 7.08578 3.90018 7.28078C2.59518 7.84328 1.68018 9.14078 1.68018 10.6483V12.1108C1.68018 12.2908 1.69518 12.4633 1.71768 12.6433C1.88268 15.0283 3.15768 16.3033 5.54268 16.4608C5.71518 16.4833 5.88768 16.4983 6.07518 16.4983H11.9252C14.7002 16.4983 16.1627 15.1783 16.3052 12.5533C16.3127 12.4108 16.3202 12.2608 16.3202 12.1108V10.6483C16.3202 8.99078 15.2177 7.59578 13.7177 7.13828ZM9.96018 11.6233C10.3052 11.7433 10.7702 11.9983 10.7702 12.7933C10.7702 13.4758 10.2377 14.0233 9.57768 14.0233H9.39018V14.1883C9.39018 14.4058 9.21768 14.5783 9.00018 14.5783C8.78268 14.5783 8.61018 14.4058 8.61018 14.1883V14.0233H8.54268C7.82268 14.0233 7.23018 13.4158 7.23018 12.6658C7.23018 12.4483 7.40268 12.2758 7.62018 12.2758C7.83768 12.2758 8.01018 12.4483 8.01018 12.6658C8.01018 12.9808 8.25018 13.2433 8.54268 13.2433H8.61018V11.9758L8.04018 11.7733C7.69518 11.6533 7.23018 11.3983 7.23018 10.6033C7.23018 9.92078 7.76268 9.37328 8.42268 9.37328H8.61018V9.20828C8.61018 8.99078 8.78268 8.81828 9.00018 8.81828C9.21768 8.81828 9.39018 8.99078 9.39018 9.20828V9.37328H9.45767C10.1777 9.37328 10.7702 9.98078 10.7702 10.7308C10.7702 10.9483 10.5977 11.1208 10.3802 11.1208C10.1627 11.1208 9.99018 10.9483 9.99018 10.7308C9.99018 10.4158 9.75018 10.1533 9.45767 10.1533H9.39018V11.4208L9.96018 11.6233Z" fill="#E687A3"/>
<path d="M8.00977 10.6063C8.00977 10.9213 8.09977 10.9663 8.29477 11.0413L8.60977 11.1537V10.1563H8.42227C8.18977 10.1562 8.00977 10.3588 8.00977 10.6063Z" fill="#E687A3"/>
</svg>
