<svg width="100" height="100" viewBox="0 0 100 100" fill="none" xmlns="http://www.w3.org/2000/svg">
<g clip-path="url(#clip0_3113_24773)">
<path d="M60.6205 23.7795L54.7205 8.26953L43.5905 23.5795L31.4205 9.74953L27.1405 25.7895L9.64047 21.7195L20.7805 41.1895L0.480469 46.3695L19.1305 56.5795L8.69047 70.4495L27.1005 66.1895L21.8805 90.7795L42.4805 70.9995L49.0805 86.6595L59.3805 75.1195L72.4105 90.4695L74.3405 71.9195L97.0205 76.3595L81.2405 60.8195L95.7905 53.8295L82.3905 47.8095L99.2905 35.3695L76.8105 36.6595L83.8905 17.2695L68.5505 28.0395L66.8605 17.0695L60.6205 23.7795Z" fill="#6AB5D2" stroke="#1E1E1C" strokeLinecap="round" strokeLinejoin="round"/>
<path d="M54.8475 16.5273H16.7409C16.2519 16.5273 15.8555 16.9238 15.8555 17.4127V78.0712C15.8555 78.5602 16.2519 78.9565 16.7409 78.9565H54.8475C55.3364 78.9565 55.7328 78.5602 55.7328 78.0712V17.4127C55.7328 16.9238 55.3364 16.5273 54.8475 16.5273Z" fill="black"/>
<path d="M80.2113 48.8055L60.9488 36.7402V44.4714H48.5219C47.9401 44.4714 47.382 44.7025 46.9706 45.1139C46.5592 45.5254 46.3281 46.0834 46.3281 46.6652V52.259C46.3281 52.8408 46.5592 53.3988 46.9706 53.8103C47.382 54.2217 47.9401 54.4527 48.5219 54.4527H60.9488V61.4381L80.2113 48.8055Z" fill="black"/>
<path d="M37.0564 88.0653L17.4461 79.6414C16.9738 79.439 16.5714 79.1026 16.2887 78.6738C16.0059 78.2447 15.8553 77.7421 15.8555 77.2286V20.5171C15.8557 20.0821 15.9639 19.6541 16.1703 19.2712C16.3767 18.8884 16.675 18.5628 17.0383 18.3236C17.4016 18.0844 17.8186 17.9392 18.2519 17.9008C18.6852 17.8625 19.1212 17.9323 19.5209 18.104L38.2521 26.1502C39.9375 26.874 41.3734 28.0763 42.382 29.6082C43.3906 31.1399 43.9274 32.9341 43.9264 34.7681V83.5462C43.9254 84.3611 43.7222 85.1633 43.3351 85.8802C42.948 86.5974 42.3889 87.2071 41.7081 87.6551C41.0272 88.1029 40.2458 88.3749 39.4339 88.4465C38.6221 88.5179 37.8051 88.3872 37.0564 88.0653Z" fill="black"/>
<path d="M58.9178 13H20.8112C20.3222 13 19.9258 13.3964 19.9258 13.8853V74.5437C19.9258 75.0327 20.3222 75.429 20.8112 75.429H58.9178C59.4067 75.429 59.803 75.0327 59.803 74.5437V13.8853C59.803 13.3964 59.4067 13 58.9178 13Z" fill="#9277AA" stroke="black" stroke-width="2.09042" stroke-miterlimit="10"/>
<path d="M84.284 45.2782L65.0232 33.2129V40.9331H52.5964C52.0145 40.9331 51.4565 41.1642 51.0451 41.5756C50.6336 41.987 50.4023 42.5451 50.4023 43.1266V48.7206C50.4023 49.3024 50.6336 49.8605 51.0451 50.2719C51.4565 50.6833 52.0145 50.9144 52.5964 50.9144H65.0232V57.8998L84.284 45.2782Z" fill="#F2EE98" stroke="black" stroke-width="2.09042" stroke-miterlimit="10"/>
<path d="M41.1267 84.5368L21.5164 76.1132C21.0443 75.91 20.642 75.5733 20.3593 75.144C20.0767 74.7149 19.9259 74.2124 19.9258 73.6986V16.9887C19.9259 16.5538 20.0339 16.1257 20.2401 15.7429C20.4463 15.36 20.7444 15.0343 21.1075 14.795C21.4707 14.5557 21.8875 14.4102 22.3207 14.3717C22.7539 14.3331 23.1899 14.4027 23.5896 14.5741L42.3224 22.6217C44.0077 23.3455 45.4439 24.5477 46.4525 26.0796C47.4611 27.6115 47.9982 29.4057 47.9967 31.2399V80.0179C47.9954 80.8326 47.792 81.6345 47.4049 82.3512C47.0175 83.0681 46.4584 83.6778 45.7776 84.1256C45.097 84.5734 44.3158 84.8454 43.5039 84.917C42.6923 84.9889 41.8756 84.8581 41.1267 84.5368Z" fill="#F2EE98" stroke="black" stroke-width="2.09042" stroke-miterlimit="10"/>
</g>
</svg>
