<svg width="100" height="101" viewBox="0 0 100 101" fill="none" xmlns="http://www.w3.org/2000/svg">
<path d="M74.5761 48.4685V55.2932C74.2701 55.9687 73.7317 56.3138 73.0182 56.479C71.3427 56.8669 69.6783 57.2964 68.0004 57.6904C67.6798 57.7663 67.4925 57.8936 67.3701 58.2228C67.0678 59.0341 66.7227 59.8295 66.3641 60.6176C66.3056 60.7236 66.2787 60.8441 66.2865 60.9648C66.2943 61.0856 66.3365 61.2016 66.4082 61.2992C67.2012 62.5951 67.9796 63.9008 68.758 65.2053C69.3295 66.1635 69.261 66.7497 68.4814 67.5304C67.2061 68.8088 65.9277 70.0859 64.6459 71.3618C63.8687 72.1352 63.2519 72.2123 62.312 71.6519C61.0184 70.8821 59.7248 70.1149 58.441 69.3268C58.3429 69.2559 58.2267 69.2146 58.1059 69.2076C57.9851 69.2007 57.8648 69.2284 57.7593 69.2876C56.8953 69.6817 56.0068 70.0219 55.144 70.4232C54.9336 70.5212 54.7692 70.6966 54.685 70.9127C54.2542 72.5562 53.8369 74.2045 53.4612 75.8614C53.2898 76.6226 52.9888 77.2381 52.2435 77.5649H45.4059C44.6593 77.2394 44.3595 76.6226 44.1881 75.8627C43.821 74.2217 43.3878 72.5941 42.9961 70.958C42.9723 70.8218 42.9105 70.6951 42.8178 70.5925C42.7251 70.4899 42.6054 70.4155 42.4723 70.378C41.6462 70.0647 40.8336 69.7159 40.0246 69.3525C39.737 69.2228 39.5204 69.2142 39.2402 69.3868C38.0029 70.1491 36.7509 70.8883 35.5013 71.6323C34.5357 72.2062 33.9312 72.1291 33.1271 71.3288C31.8698 70.0782 30.6145 68.8255 29.3613 67.5707C28.5242 66.7337 28.4581 66.15 29.0786 65.1233C29.8129 63.8923 30.5472 62.6588 31.3011 61.4338C31.3733 61.3356 31.416 61.2189 31.4243 61.0973C31.4325 60.9757 31.4059 60.8543 31.3476 60.7473C30.9621 59.8993 30.6292 59.0255 30.2388 58.1775C30.1393 57.9662 29.9609 57.8023 29.7419 57.721C28.0959 57.2915 26.4449 56.8742 24.7842 56.4973C24.0229 56.3272 23.4049 56.0262 23.0781 55.2822V48.4685C23.3841 47.793 23.9226 47.4479 24.6373 47.2827C26.3115 46.8948 27.9759 46.4616 29.655 46.0725C29.8074 46.0483 29.9494 45.9805 30.0641 45.8773C30.1787 45.7742 30.2611 45.6401 30.3012 45.4912C30.546 44.8022 30.8299 44.1231 31.1335 43.4574C31.2004 43.3357 31.2314 43.1975 31.223 43.0589C31.2145 42.9203 31.1669 42.7869 31.0857 42.6742C30.229 41.2645 29.3723 39.8437 28.5291 38.4242C27.9686 37.4869 28.0396 36.8542 28.8069 36.0906C30.0838 34.8114 31.3627 33.5347 32.6437 32.2604C33.422 31.487 34.0327 31.4111 34.9751 31.9728C36.3397 32.7866 37.7043 33.5979 39.059 34.4202C39.1767 34.5078 39.3171 34.5595 39.4635 34.5691C39.6099 34.5786 39.7559 34.5456 39.8839 34.4741C40.7284 34.0763 41.5899 33.7141 42.4613 33.3727C42.6012 33.3306 42.7263 33.25 42.8224 33.14C42.9185 33.0301 42.9817 32.8953 43.0047 32.7511C43.4216 31.0012 43.8528 29.2545 44.2983 27.5111C44.5431 26.5627 45.0424 26.1809 46.0239 26.1797C47.8825 26.1797 49.7419 26.1797 51.6022 26.1797C52.6155 26.1797 53.1112 26.5529 53.3596 27.5344C53.8018 29.2786 54.2334 31.0252 54.6544 32.7743C54.6762 32.9106 54.736 33.0381 54.8269 33.1419C54.9178 33.2458 55.0362 33.322 55.1684 33.3617C55.9811 33.6627 56.7839 33.998 57.5672 34.3664C57.6958 34.4373 57.842 34.4696 57.9885 34.4597C58.135 34.4497 58.2755 34.3978 58.3933 34.3101C59.6905 33.5184 60.9988 32.7413 62.3096 31.9642C63.258 31.4001 63.8565 31.4747 64.6349 32.2518C65.9036 33.5147 67.1711 34.7792 68.4373 36.0453C69.2659 36.8738 69.3368 37.444 68.7347 38.4487C67.9527 39.752 67.1755 41.0577 66.3788 42.3524C66.3036 42.4584 66.2597 42.5835 66.2521 42.7133C66.2445 42.8432 66.2736 42.9725 66.336 43.0866C66.7093 43.9053 67.0299 44.7472 67.4093 45.5622C67.5064 45.7729 67.6821 45.9372 67.8988 46.0199C69.5461 46.4506 71.1971 46.8679 72.8578 47.2436C73.6325 47.4247 74.2493 47.7245 74.5761 48.4685ZM48.7763 62.4189C54.559 62.3785 59.3283 57.8911 59.3711 51.9402C59.414 46.1704 54.8564 41.4101 48.8914 41.366C47.5063 41.3482 46.1315 41.6056 44.8468 42.1233C43.5621 42.6411 42.393 43.4087 41.4073 44.3819C40.4217 45.355 39.6391 46.5142 39.1051 47.7922C38.5711 49.0701 38.2963 50.4414 38.2966 51.8264C38.255 57.5938 42.8162 62.2929 48.7763 62.4165V62.4189Z" fill="black"/>
<path d="M76.9767 45.5032V52.3279C76.6708 53.0034 76.1323 53.3484 75.4188 53.5136C73.7433 53.9003 72.0789 54.3298 70.401 54.7251C70.0804 54.801 69.8932 54.927 69.7708 55.2562C69.4685 56.0675 69.1234 56.863 68.7648 57.651C68.7063 57.7572 68.6794 57.8779 68.6872 57.9989C68.695 58.1199 68.7372 58.2361 68.8088 58.3339C69.6019 59.6285 70.3803 60.9343 71.1586 62.24C71.7302 63.1969 71.6616 63.7831 70.882 64.5651C69.606 65.8451 68.3275 67.1222 67.0465 68.3965C66.2694 69.1699 65.6525 69.2531 64.7114 68.6865C63.419 67.9168 62.1255 67.1495 60.8416 66.3615C60.7434 66.2911 60.6271 66.2501 60.5065 66.2432C60.3858 66.2363 60.2656 66.2637 60.16 66.3223C59.2959 66.7163 58.4074 67.0565 57.5446 67.4579C57.3343 67.5559 57.1699 67.7312 57.0857 67.9474C56.6549 69.5921 56.2376 71.2392 55.8618 72.8973C55.6905 73.6573 55.3894 74.274 54.6441 74.5995H47.8065C47.06 74.274 46.7601 73.6585 46.5827 72.8973C46.2155 71.2563 45.7823 69.6288 45.3907 67.9927C45.3666 67.8567 45.3047 67.7303 45.212 67.6279C45.1194 67.5255 44.9998 67.4513 44.8668 67.4139C44.0408 67.1006 43.2281 66.7506 42.4192 66.3872C42.2986 66.318 42.1608 66.2846 42.022 66.2906C41.8831 66.2967 41.7488 66.3421 41.6347 66.4214C40.3974 67.185 39.1454 67.9229 37.8959 68.667C36.9303 69.2409 36.3257 69.1638 35.5216 68.3647C34.2643 67.1124 33.009 65.8593 31.7558 64.6054C30.9187 63.7684 30.8527 63.1859 31.4731 62.158C32.2075 60.9269 32.9417 59.6934 33.6956 58.4685C33.7678 58.3703 33.8105 58.2536 33.8188 58.132C33.827 58.0104 33.8004 57.889 33.7422 57.782C33.3566 56.9339 33.0238 56.0614 32.6333 55.2121C32.5341 55.0009 32.3556 54.8373 32.1365 54.7569C30.4904 54.3262 28.8394 53.9089 27.1787 53.5332C26.4162 53.3631 25.7994 53.0633 25.4727 52.3193V45.4946C25.7786 44.8179 26.3171 44.4728 27.0318 44.3076C28.706 43.9209 30.3705 43.4865 32.0496 43.0973C32.2019 43.0731 32.344 43.0054 32.4586 42.9022C32.5733 42.7991 32.6556 42.665 32.6958 42.5161C32.9405 41.8271 33.2245 41.148 33.528 40.4823C33.5947 40.3607 33.6256 40.2228 33.6171 40.0844C33.6087 39.946 33.5612 39.8128 33.4802 39.7003C32.6174 38.2906 31.7669 36.8698 30.9236 35.4503C30.3631 34.5117 30.4341 33.8803 31.2015 33.1167C32.4783 31.8367 33.7572 30.5599 35.0382 29.2865C35.8165 28.5131 36.4272 28.4372 37.3635 28.9989C38.7281 29.8114 40.0927 30.6227 41.4474 31.4463C41.5652 31.5336 41.7056 31.5852 41.8519 31.5947C41.9982 31.6043 42.1442 31.5714 42.2723 31.5001C43.1168 31.1024 43.9784 30.739 44.8497 30.3988C44.9897 30.357 45.115 30.2764 45.2111 30.1664C45.3073 30.0564 45.3704 29.9215 45.3931 29.7772C45.8092 28.0273 46.2498 26.281 46.6855 24.5372C46.9303 23.5888 47.4308 23.2083 48.4123 23.207C50.2717 23.207 52.1312 23.207 53.9906 23.207C55.0039 23.207 55.4996 23.5741 55.748 24.5604C56.1894 26.3055 56.621 28.0521 57.0428 29.8004C57.0646 29.9367 57.1244 30.0642 57.2153 30.1681C57.3062 30.272 57.4246 30.3481 57.5568 30.3878C58.3695 30.6888 59.1723 31.0241 59.9556 31.3937C60.0842 31.4646 60.2304 31.497 60.3769 31.487C60.5234 31.477 60.6639 31.4251 60.7817 31.3374C62.0789 30.5444 63.3872 29.7674 64.698 28.9903C65.6464 28.4262 66.2449 28.5008 67.0233 29.2791C68.2928 30.542 69.5603 31.8065 70.8257 33.0726C71.6543 33.9011 71.7253 34.4701 71.1231 35.4748C70.3411 36.7781 69.5639 38.085 68.7672 39.3785C68.6923 39.4847 68.6485 39.6097 68.6409 39.7395C68.6334 39.8692 68.6623 39.9985 68.7244 40.1127C69.0977 40.9301 69.4183 41.7721 69.7977 42.587C69.8951 42.7977 70.0707 42.9623 70.2872 43.0459C71.9345 43.4755 73.5855 43.894 75.2462 44.2697C76.0332 44.4581 76.65 44.7604 76.9767 45.5032ZM51.177 59.4536C56.9596 59.4132 61.7289 54.9258 61.7717 48.9761C61.8146 43.2062 57.257 38.4448 51.292 38.4019C49.9071 38.3841 48.5324 38.6415 47.2477 39.1591C45.9631 39.6767 44.794 40.4443 43.8084 41.4173C42.8228 42.3903 42.0402 43.5494 41.5061 44.8272C40.9721 46.105 40.6971 47.4761 40.6972 48.8611C40.6556 54.6272 45.2132 59.3226 51.177 59.445V59.4536Z" fill="#E687A3" stroke="black" stroke-width="2" stroke-miterlimit="10"/>
</svg>
