<svg width="100" height="100" viewBox="0 0 100 100" fill="none" xmlns="http://www.w3.org/2000/svg">
<path d="M77.12 80.8605C76.0391 81.8667 74.6028 82.4023 73.127 82.3498C71.6512 82.2973 70.2567 81.6609 69.25 80.5805L51.75 61.7905L60.88 55.3105L77.4 73.0005C78.403 74.081 78.9368 75.5151 78.8843 76.9884C78.8318 78.4617 78.1974 79.8542 77.12 80.8605Z" fill="black"/>
<path d="M45.3101 19.7207C40.6223 19.7187 36.0391 21.107 32.1404 23.71C28.2416 26.313 25.2024 30.0137 23.407 34.3442C21.6117 38.6746 21.1409 43.4402 22.0543 48.0382C22.9676 52.6362 25.224 56.8601 28.5381 60.1756C31.8522 63.4911 36.0752 65.7493 40.6728 66.6646C45.2704 67.5799 50.0362 67.1111 54.3674 65.3176C58.6986 63.5241 62.4006 60.4864 65.0052 56.5888C67.6099 52.6911 69.0001 48.1085 69.0001 43.4207C69.0001 37.1368 66.5045 31.1101 62.0621 26.6658C57.6196 22.2215 51.594 19.7234 45.3101 19.7207ZM45.3101 62.4607C41.616 62.4587 38.0054 61.3615 34.9348 59.3077C31.8642 57.2539 29.4715 54.3358 28.0592 50.9223C26.6469 47.5088 26.2784 43.7532 27.0003 40.1303C27.7222 36.5074 29.502 33.1799 32.1149 30.5684C34.7277 27.957 38.0562 26.1789 41.6795 25.4589C45.3028 24.7389 49.0582 25.1095 52.4709 26.5236C55.8837 27.9377 58.8005 30.332 60.8527 33.4037C62.9048 36.4754 64.0001 40.0866 64.0001 43.7807C64.0014 46.235 63.5188 48.6655 62.5799 50.9331C61.641 53.2007 60.2642 55.2609 58.5283 56.9959C56.7923 58.7309 54.7314 60.1066 52.4633 61.0443C50.1952 61.982 47.7644 62.4633 45.3101 62.4607Z" fill="black"/>
<path d="M78.6303 71.5503L65.2003 57.1403C68.9713 52.745 71.0009 47.1201 70.9052 41.3296C70.8094 35.5391 68.595 29.9844 64.6807 25.7161C60.7664 21.4479 55.4237 18.762 49.6631 18.1666C43.9025 17.5711 38.1233 19.1074 33.4188 22.4847C28.7142 25.8621 25.4104 30.8464 24.1323 36.4949C22.8541 42.1435 23.6903 48.0646 26.4826 53.1383C29.2748 58.212 33.8296 62.0866 39.2854 64.0292C44.7412 65.9718 50.7198 65.8477 56.0903 63.6803L70.4703 79.1303C71.4843 80.1758 72.8675 80.7826 74.3235 80.8205C75.7794 80.8585 77.1924 80.3246 78.2595 79.3334C79.3266 78.3421 79.963 76.9723 80.0323 75.5175C80.1016 74.0627 79.5983 72.6386 78.6303 71.5503ZM53.8603 59.5503C51.7424 60.3687 49.4907 60.7858 47.2203 60.7803C42.5356 60.7911 38.0163 59.0496 34.5502 55.8982C31.084 52.7467 28.9217 48.4129 28.4879 43.7484C28.0541 39.0839 29.3803 34.4257 32.2058 30.6892C35.0314 26.9526 39.1521 24.4076 43.7584 23.5544C48.3647 22.7011 53.1236 23.6012 57.1001 26.0777C61.0766 28.5543 63.9833 32.4283 65.2491 36.9387C66.5149 41.4491 66.0483 46.2699 63.9409 50.4538C61.8336 54.6377 58.2379 57.8824 53.8603 59.5503Z" fill="#E687A3" stroke="black" stroke-width="0.9" stroke-miterlimit="10"/>
<path d="M46.0003 54.6202C45.4395 54.5654 44.8967 54.3928 44.4072 54.1136C43.9178 53.8344 43.4929 53.455 43.1603 53.0002C40.5703 50.1502 38.1603 43.5102 38.6703 38.1702C38.7168 36.7309 39.3063 35.3626 40.3203 34.3402C40.6857 33.9993 41.1611 33.8006 41.6603 33.7802C43.7503 33.7802 45.0503 37.9202 45.6603 40.7802C46.3303 38.6302 48.0303 35.3802 52.3203 32.2002C52.8406 31.7459 53.4921 31.4691 54.1803 31.4102C54.9403 31.4102 55.8703 31.8902 55.9903 34.1702C56.3103 39.9002 51.3703 54.0102 46.1803 54.5802L46.0003 54.6202Z" fill="#F2EE98"/>
<path d="M54.2201 31.8809C58.4301 31.8809 52.2201 53.4909 46.2201 54.1509H46.0301C42.7001 54.1509 38.5101 44.9509 39.1701 38.2209C39.1959 36.8948 39.7333 35.63 40.6701 34.6909C40.937 34.4219 41.2921 34.2586 41.6701 34.2309C44.3001 34.2309 45.7201 43.2309 45.7201 43.2309C45.7201 43.2309 45.5801 37.8009 52.6401 32.5609C53.0847 32.1684 53.6403 31.9238 54.2301 31.8609M54.2301 30.9609C53.446 31.0186 52.7003 31.3231 52.1001 31.8309C49.3928 33.7252 47.2223 36.2885 45.8001 39.2709C45.0301 36.4509 43.7101 33.3309 41.6701 33.3309C41.0499 33.3411 40.4553 33.5797 40.0001 34.0009C38.8864 35.0915 38.2408 36.5727 38.2001 38.1309C37.6601 43.5809 40.1401 50.3809 42.8001 53.3109C43.1768 53.8158 43.6573 54.2342 44.2093 54.5378C44.7613 54.8413 45.3719 55.0232 46.0001 55.0709H46.2901C51.8001 54.4609 56.8401 40.2009 56.5001 34.1909C56.3301 31.4009 55.0001 31.0009 54.2201 31.0009L54.2301 30.9609Z" fill="black"/>
</svg>
