<svg width="100" height="100" viewBox="0 0 100 100" fill="none" xmlns="http://www.w3.org/2000/svg">
<g clip-path="url(#clip0_3295_74706)">
<path d="M60.62 23.7795L54.72 8.26953L43.59 23.5795L31.42 9.74953L27.14 25.7895L9.63998 21.7195L20.78 41.1895L0.47998 46.3695L19.13 56.5795L8.68998 70.4495L27.1 66.1895L21.88 90.7795L42.48 70.9995L49.08 86.6595L59.38 75.1195L72.41 90.4695L74.34 71.9195L97.02 76.3595L81.24 60.8195L95.79 53.8295L82.39 47.8095L99.29 35.3695L76.81 36.6595L83.89 17.2695L68.55 28.0395L66.86 17.0695L60.62 23.7795Z" fill="#6AB5D2" stroke="#1E1E1C" strokeLinecap="round" strokeLinejoin="round"/>
<path d="M77.12 80.8586C76.0391 81.8647 74.6028 82.4004 73.127 82.3479C71.6512 82.2954 70.2567 81.659 69.25 80.5786L51.75 61.7886L60.88 55.3086L77.4 72.9986C78.403 74.0791 78.9368 75.5131 78.8843 76.9865C78.8318 78.4598 78.1974 79.8522 77.12 80.8586Z" fill="black"/>
<path d="M45.3101 19.7188C40.6223 19.7168 36.0391 21.1051 32.1404 23.7081C28.2416 26.311 25.2024 30.0118 23.407 34.3422C21.6117 38.6727 21.1409 43.4382 22.0543 48.0363C22.9676 52.6343 25.224 56.8581 28.5381 60.1736C31.8522 63.4892 36.0752 65.7474 40.6728 66.6626C45.2704 67.5779 50.0362 67.1092 54.3674 65.3157C58.6986 63.5222 62.4006 60.4845 65.0052 56.5868C67.6099 52.6891 69.0001 48.1066 69.0001 43.4188C69.0001 37.1349 66.5045 31.1082 62.0621 26.6639C57.6196 22.2195 51.594 19.7214 45.3101 19.7188ZM45.3101 62.4588C41.616 62.4568 38.0054 61.3595 34.9348 59.3057C31.8642 57.252 29.4715 54.3339 28.0592 50.9204C26.6469 47.5069 26.2784 43.7512 27.0003 40.1283C27.7222 36.5054 29.502 33.1779 32.1149 30.5665C34.7277 27.955 38.0562 26.1769 41.6795 25.457C45.3028 24.737 49.0582 25.1075 52.4709 26.5216C55.8837 27.9358 58.8005 30.33 60.8527 33.4017C62.9048 36.4734 64.0001 40.0846 64.0001 43.7788C64.0014 46.2331 63.5188 48.6635 62.5799 50.9311C61.641 53.1988 60.2642 55.259 58.5283 56.994C56.7923 58.729 54.7314 60.1047 52.4633 61.0424C50.1952 61.9801 47.7644 62.4614 45.3101 62.4588Z" fill="black"/>
<path d="M78.6298 71.5503L65.1998 57.1403C68.9708 52.745 71.0004 47.1201 70.9047 41.3296C70.8089 35.5391 68.5945 29.9844 64.6802 25.7161C60.766 21.4479 55.4232 18.762 49.6626 18.1666C43.902 17.5711 38.1228 19.1074 33.4183 22.4847C28.7137 25.8621 25.4099 30.8464 24.1318 36.4949C22.8537 42.1435 23.6898 48.0646 26.4821 53.1383C29.2743 58.212 33.8291 62.0866 39.2849 64.0292C44.7407 65.9718 50.7193 65.8477 56.0898 63.6803L70.4698 79.1303C71.4838 80.1758 72.867 80.7826 74.323 80.8205C75.779 80.8585 77.1919 80.3246 78.259 79.3334C79.3261 78.3421 79.9625 76.9723 80.0318 75.5175C80.1011 74.0627 79.5978 72.6386 78.6298 71.5503ZM53.8598 59.5503C51.7419 60.3687 49.4903 60.7858 47.2198 60.7803C42.5351 60.7911 38.0158 59.0496 34.5497 55.8982C31.0835 52.7467 28.9212 48.4129 28.4874 43.7484C28.0536 39.0839 29.3798 34.4257 32.2053 30.6892C35.0309 26.9526 39.1516 24.4076 43.7579 23.5544C48.3642 22.7011 53.1231 23.6012 57.0996 26.0777C61.0761 28.5543 63.9828 32.4283 65.2486 36.9387C66.5144 41.4491 66.0478 46.2699 63.9405 50.4538C61.8331 54.6377 58.2374 57.8824 53.8598 59.5503Z" fill="#E687A3" stroke="black" stroke-width="0.9" stroke-miterlimit="10"/>
<path d="M45.9998 54.6202C45.4391 54.5654 44.8962 54.3928 44.4068 54.1136C43.9173 53.8344 43.4924 53.455 43.1598 53.0002C40.5698 50.1502 38.1598 43.5102 38.6698 38.1702C38.7163 36.7309 39.3058 35.3626 40.3198 34.3402C40.6852 33.9993 41.1606 33.8006 41.6598 33.7802C43.7498 33.7802 45.0498 37.9202 45.6598 40.7802C46.3298 38.6302 48.0298 35.3802 52.3198 32.2002C52.8401 31.7459 53.4916 31.4691 54.1798 31.4102C54.9398 31.4102 55.8698 31.8902 55.9898 34.1702C56.3098 39.9002 51.3698 54.0102 46.1798 54.5802L45.9998 54.6202Z" fill="#F2EE98"/>
<path d="M54.2201 31.879C58.4301 31.879 52.2201 53.489 46.2201 54.149H46.0301C42.7001 54.149 38.5101 44.949 39.1701 38.219C39.1959 36.8929 39.7333 35.628 40.6701 34.689C40.937 34.42 41.2921 34.2566 41.6701 34.229C44.3001 34.229 45.7201 43.229 45.7201 43.229C45.7201 43.229 45.5801 37.799 52.6401 32.559C53.0847 32.1664 53.6403 31.9218 54.2301 31.859M54.2301 30.959C53.446 31.0166 52.7003 31.3212 52.1001 31.829C49.3928 33.7233 47.2223 36.2865 45.8001 39.269C45.0301 36.449 43.7101 33.329 41.6701 33.329C41.0499 33.3392 40.4553 33.5777 40.0001 33.999C38.8864 35.0896 38.2408 36.5708 38.2001 38.129C37.6601 43.579 40.1401 50.379 42.8001 53.309C43.1768 53.8139 43.6573 54.2322 44.2093 54.5358C44.7613 54.8394 45.3719 55.0212 46.0001 55.069H46.2901C51.8001 54.459 56.8401 40.199 56.5001 34.189C56.3301 31.399 55.0001 30.999 54.2201 30.999L54.2301 30.959Z" fill="black"/>
</g>
<defs>
<clipPath id="clip0_3295_74706">
<rect width="100" height="100" fill="white"/>
</clipPath>
</defs>
</svg>
