<svg width="148" height="110" viewBox="0 0 148 110" fill="none" xmlns="http://www.w3.org/2000/svg">
<path d="M73.9276 102.288C114.47 102.288 147.336 90.0407 147.336 74.933C147.336 59.8253 114.47 47.5781 73.9276 47.5781C33.3854 47.5781 0.519531 59.8253 0.519531 74.933C0.519531 90.0407 33.3854 102.288 73.9276 102.288Z" fill="#EFDA9C"/>
<path d="M125.103 33.9754L124.439 47.9847L123.002 58.0861L122.522 59.4501L120.457 60.6298L112.715 62.252L114.042 62.6575L116.033 63.9478L115.996 66.1229L112.088 65.7911L104.419 62.5469L95.2016 61.4409L99.6629 67.2658L102.391 70.1414L105.488 70.7312L113.084 70.6944L113.71 71.358L114.19 72.3533L113.968 73.1644L108.991 73.4593L103.497 73.5331L100.179 72.4271L97.1557 69.9939L92.0308 63.3211L91.2934 63.6897L87.3483 68.2243L84.4724 72.3902L82.2602 74.6759L76.656 76.9985L76.103 71.2842L73.7433 67.5976L77.0985 64.4271L79.2001 60.4824L80.2693 57.6068L69.9088 55.3579C69.9088 55.3579 67.6598 54.5469 67.586 54.3994C67.5123 54.252 56.5988 43.0077 56.5988 43.0077L54.6078 43.8188L49.5566 46.6575L45.8696 51.5607L45.5378 55.8003L36.9102 58.9708L35.1773 57.9754L28.7988 57.3119L31.4904 48.7588L35.288 41.9754L41.519 36.6667L49.151 30.7312L52.8749 30.2888L55.0134 31.4316L55.5664 31.7266L56.3407 24.2058L58.8847 19.5238L64.5996 12.851L77.4303 2.78642L80.1955 1.34863L88.1594 1.90163L89.155 1.97537L94.538 2.60209L104.198 4.99841L108.254 7.17352L114.78 13.404L121.158 20.6298L124.771 27.2657L125.103 33.9754Z" fill="#69BED9"/>
<path d="M37.2409 78.8407L31.4523 82.4168L22.3454 85.0343L15.3032 85.661L9.25656 83.9283L5.64331 81.0896L3.65234 75.1172L3.6892 70.7301L5.93826 67.1172L11.2844 62.2509L17.7366 59.3384L27.1016 57.4951L32.5953 57.6794L36.8722 58.896L44.6148 55.8361L45.1679 52.7762L47.2695 48.4628L51.2883 44.9605L55.8233 42.9697L67.8798 54.5826L72.1198 55.9098L79.3095 57.4951L77.8715 62.5826L75.77 65.4582L72.9678 67.8546L75.8806 70.9882L76.4336 75.3753L76.618 79.32L76.1018 81.6057L73.0047 85.2555L67.8061 87.7993L60.3214 89.532L53.0212 89.4214L47.3432 88.1311L41.7021 85.9191L38.347 82.5274L37.4252 79.6887L37.2409 78.8407Z" fill="#979B9E"/>
<path d="M74.7004 94.6188L74.9217 90.5635L78.24 85.9552L84.5078 82.9691L94.4996 81.0889C94.4996 81.0889 104.86 82.2686 105.118 82.3792C105.413 82.4898 111.792 85.3654 111.792 85.3654L115.11 88.6465L116.548 92.0382L116.437 99.3377L114.557 103.135L108.989 106.932L99.772 109.034L91.6606 109.218L84.766 107.596L79.088 105.089L75.9909 102.213L74.5898 98.9322L74.7004 94.6188Z" fill="#979B9E"/>
<path d="M95.607 99.7837C104.282 99.7837 111.314 96.4165 111.314 92.2629C111.314 88.1093 104.282 84.7422 95.607 84.7422C86.9325 84.7422 79.9004 88.1093 79.9004 92.2629C79.9004 96.4165 86.9325 99.7837 95.607 99.7837Z" fill="#797D7F"/>
<path d="M88.0859 95.4651L97.8196 97.5297L93.1371 93.8061L106.558 91.5573L93.2109 89.6771L98.4832 86.0273L88.639 88.3499L88.0859 95.4651Z" fill="#9E88B5"/>
<path d="M34.4395 57.6425L36.0617 58.7116L39.675 57.6056L44.9843 55.9835L45.353 51.5595L48.3763 47.2461L51.6208 44.7023L55.824 42.9696L51.6577 38.6562L45.8323 40.3521L41.0392 43.3751L38.9376 47.0986L35.2137 55.5411L34.4395 57.6425Z" fill="#3DA0B7"/>
<path d="M73.2637 67.598L75.439 69.9206C75.439 69.9206 75.8446 70.8054 75.9183 70.9897C75.9921 71.174 78.3886 69.8837 78.3886 69.8837L82.1124 66.9344C82.1124 66.9344 82.4443 65.8284 82.6286 65.5335C82.813 65.2385 82.6286 61.9574 82.5549 61.6256C82.4812 61.2938 81.1538 57.9021 81.1538 57.9021L79.7528 57.5703C79.7528 57.5703 78.7942 61.6256 78.5729 61.7362C78.3517 61.8468 75.9552 64.6118 75.9552 64.6118L73.2637 67.598Z" fill="#3DA0B7"/>
<path d="M88.1222 1.93679C88.0853 1.97365 88.0484 2.01051 88.0484 2.01051C88.0484 2.01051 81.4856 0.683329 77.3561 6.58196C73.2267 12.4806 72.8949 13.1442 72.8949 13.1442L71.3463 20.2594C71.3463 20.2594 68.6917 29.5866 72.01 37.8447L66.1845 38.1765L62.9031 37.5498L55.0129 31.7617L54.9023 31.4668L55.4554 31.7617L54.9023 28.6649L55.6766 25.0889L58.4787 19.0428L64.4885 12.8861L77.3193 2.82158L80.0845 1.38379L88.1222 1.93679Z" fill="#3DA0B7"/>
<path d="M52.5419 30.6162L52.7262 33.3075L48.6705 33.9711L42.1445 35.8144L47.2326 31.1692L50.2928 30.7268L52.5419 30.6162Z" fill="#46A4C0"/>
<path d="M72.6742 67.6759L71.4575 66.6805L71.0519 63.9523L69.614 61.1136L64.0466 57.427L55.8246 55.3625L50.6628 55.0307L45.0586 55.768L45.3535 51.8602L47.787 47.8417L52.8381 44.1551L55.8246 42.9385L67.9917 54.7726C67.9917 54.7726 73.3378 55.768 74.0384 56.0629C74.7389 56.3579 79.2739 57.4639 79.2739 57.4639L78.8315 60.0076L76.8405 64.0629L73.5222 67.5284L72.9692 67.8233" fill="#6B7072"/>
<path d="M52.9108 75.5621L52.8371 81.2395C52.8371 81.2395 59.2893 80.7234 60.6167 80.1704C61.944 79.6174 59.1787 83.7465 65.4098 82.7879L65.2254 88.4653L56.6716 89.7557L50.9567 89.2027L43.0666 86.5852L39.9695 83.9676L37.7573 80.5022L37.6467 78.069L34.2547 75.4146L32.2637 70.8432L32.5586 65.1289L33.6647 69.516L37.6098 72.5022L40.7069 73.5713C40.7069 73.5713 44.6151 75.1197 44.8732 75.1197C45.1682 75.1197 49.9981 75.4515 49.9981 75.4515L52.9108 75.5621Z" fill="#797D7F"/>
<path d="M94.8708 103.798L94.797 109.328C94.797 109.328 92.9166 109.254 92.4005 109.217C91.8843 109.18 87.1649 107.964 86.9068 107.964C86.6487 107.964 82.9986 107.227 82.9986 107.227L78.0212 104.277L74.9241 100.222L74.666 95.7242L74.8872 93.5859L76.6939 97.8624C76.6939 97.8624 78.6848 98.9316 79.5328 99.5952C80.3808 100.259 82.5562 101.254 82.9618 101.549C83.3305 101.844 88.013 103.171 88.2342 103.319C88.4554 103.466 93.0641 104.13 93.0641 104.13L94.8708 103.798Z" fill="#797D7F"/>
<path d="M52.0626 70.7694C59.6986 70.7694 65.8888 68.178 65.8888 64.9814C65.8888 61.7847 59.6986 59.1934 52.0626 59.1934C44.4265 59.1934 38.2363 61.7847 38.2363 64.9814C38.2363 68.178 44.4265 70.7694 52.0626 70.7694Z" fill="#797D7F"/>
<path d="M32.3385 66.235C32.7072 67.8203 32.8547 70.2534 32.4491 70.5852C30.3106 72.3548 26.8817 73.7557 23.0473 74.6405C15.5258 76.3364 8.81547 75.1198 8.07807 71.8756C7.34067 68.6313 12.8343 64.6129 20.3558 62.8802C25.4069 61.7373 30.3475 61.4055 32.8178 63.1382C33.0021 63.2119 32.1173 65.1659 32.3385 66.235Z" fill="#797D7F"/>
<path d="M24.2999 84.7776L23.1569 79.3214L15.9673 80.3905L9.66255 79.8006C9.66255 79.8006 6.34424 77.8836 6.19676 77.8836C6.08615 77.8836 4.31641 76.8145 4.31641 76.8145C4.31641 76.8145 5.68059 81.0172 5.7912 81.2015C5.90181 81.3859 7.96652 83.1186 8.40896 83.4135C8.8514 83.7085 10.1419 84.667 10.8793 84.9251C11.6167 85.1831 15.1193 85.773 15.4143 85.8098C15.7092 85.8467 18.7694 85.4412 19.2856 85.4412C19.8018 85.4412 24.2999 84.7776 24.2999 84.7776Z" fill="#797D7F"/>
<path d="M31.195 71.061C31.195 71.061 30.1258 72.9412 30.7894 76.1117C31.4531 79.2823 33.2966 81.273 33.2966 81.273L37.7579 78.5081L33.9234 75.0426L32.7067 71.9458L32.4486 70.5449L31.195 71.061Z" fill="#797D7F"/>
<path d="M67.4002 41.4234L72.4514 41.0916L81.1158 46.1055L86.8306 50.0502L90.6651 54.4004L97.5598 59.2299L103.348 62.2898L111.312 65.6815C111.312 65.6815 113.93 66.1977 114.078 66.3083C114.262 66.4189 115.368 66.0871 115.368 66.0871L115.294 64.465L114.557 63.1378L107.773 61.2576L98.8134 56.0963L89.5222 48.8705L82.0007 42.7138L75.8434 39.2115L72.4514 38.1055L63.4551 38.1792L67.4002 41.4234Z" fill="#EFCA64"/>
<path d="M88.9336 53.917L90.5559 61.6958L96.197 69.4378L99.9209 72.9401L104.272 73.8986L113.563 73.2719V72.0922L112.899 71.0599L106.668 70.8755L102.612 70.212L101.285 69.2903L96.6026 63.7235L90.7771 55.7603L88.9336 53.917Z" fill="#EFCA64"/>
<path d="M67.291 41.6421L72.674 41.126L80.5273 45.6974L85.4679 49.0523L85.0992 49.4946L74.2594 46.6928L70.7568 44.5177L67.291 41.6421Z" fill="#3DA0B7"/>
<path d="M88.6377 53.3306L94.9425 61.773L104.049 62.5472L95.8642 58.3076L88.4902 51.9297L88.6377 53.3306Z" fill="#3DA0B7"/>
<path d="M55.1231 31.6156C54.7912 28.9981 55.1231 26.3068 56.0817 23.8737C56.9666 21.6248 58.3307 18.9336 60.2111 16.869C64.1562 12.5557 76.3602 2.49114 79.4204 1.53261C82.4806 0.574088 101.505 3.37594 106.114 6.21465C110.723 9.0165 122.116 21.035 123.922 26.823C125.692 32.611 123.627 58.1226 122.153 59.5972C120.678 61.0719 111.94 62.3991 111.94 62.3991" stroke="black" stroke-width="1.46053" stroke-miterlimit="10" strokeLinecap="round" strokeLinejoin="round"/>
<path d="M34.291 58.0129C34.291 58.0129 38.3098 46.658 40.4483 44.1511C42.5868 41.6442 51.1406 38.5106 51.5093 38.5843C51.878 38.658 66.036 53.1097 67.8795 54.5843C69.723 56.059 80.1204 56.5014 81.1527 58.3078C82.1851 60.0774 83.2175 64.2433 82.5538 66.2341C81.8901 68.2249 76.3228 71.2111 76.3228 71.2111" stroke="black" stroke-width="1.46053" stroke-miterlimit="10" strokeLinecap="round" strokeLinejoin="round"/>
<path d="M28.2461 57.4611C28.2461 57.4611 33.0392 44.5948 34.6615 42.4565C36.2838 40.3183 41.3349 36.0049 44.432 35.0464C46.0543 34.5302 48.3034 33.9035 50.0731 33.3874C51.8429 32.8712 53.7601 33.3505 55.1243 34.604C59.4381 38.6224 68.7293 47.286 69.946 48.1339C71.4946 49.2399 81.5969 51.2307 83.2929 52.8897C84.989 54.5118 87.4592 65.0556 87.8279 65.9404C88.1966 66.8252 83.6617 73.2768 83.0717 73.8667C82.4818 74.4566 76.6564 77.0741 76.6564 77.0741" stroke="black" stroke-width="1.46053" stroke-miterlimit="10" strokeLinecap="round" strokeLinejoin="round"/>
<path d="M41.1504 36.5547C41.1504 36.5547 47.9713 30.6929 49.2249 30.6192C53.3912 30.398 51.6215 29.6238 56.9676 33.2367C62.3138 36.8496 69.7246 44.2229 72.2318 45.6976C74.7389 47.1722 84.915 48.7206 86.8323 50.0109C88.7495 51.3013 90.7036 61.7345 90.8511 62.9879C90.9986 64.2414 85.5787 70.6193 85.5787 70.6193" stroke="black" stroke-width="1.46053" stroke-miterlimit="10" strokeLinecap="round" strokeLinejoin="round"/>
<path d="M63.2344 38.1448C63.2344 38.1448 69.1336 38.0342 73.1155 38.2554C75.2908 38.366 81.5588 42.237 87.1261 46.4398C88.7484 47.6564 90.1494 49.2416 91.5136 50.4213C94.2051 52.7071 96.4173 54.2555 96.8967 54.661C98.4452 55.9144 106.262 61.6656 113.636 62.8822C115.184 63.1403 116.069 64.7255 115.332 66.0896C115.332 66.0896 115.221 66.1265 115.037 66.1265C114.004 66.2371 112.972 66.1633 112.013 65.8315C109.617 65.0942 104.455 63.0665 95.1269 57.7209C95.1269 57.7209 88.1585 52.0066 88.1216 51.8223" stroke="black" stroke-width="1.46053" stroke-miterlimit="10" strokeLinecap="round" strokeLinejoin="round"/>
<path d="M67.5117 41.4594C67.5117 41.4594 71.6043 41.2382 72.8579 41.3857C74.1114 41.5331 85.0987 48.3534 85.9836 49.3857C85.9836 49.3857 87.3846 48.8327 87.4584 46.8419" stroke="black" stroke-width="1.46053" stroke-miterlimit="10" strokeLinecap="round" strokeLinejoin="round"/>
<path d="M90.7776 62.0315C90.7776 62.0315 96.64 70.7688 100.032 72.7228C103.461 74.6398 113.6 73.2389 113.6 73.2389C113.6 73.2389 114.116 72.0592 112.568 70.8057C112.568 70.8057 104.641 71.543 102.17 70.2159C99.737 68.8887 88.7129 53.4785 88.7129 53.4785" stroke="black" stroke-width="1.46053" stroke-miterlimit="10" strokeLinecap="round" strokeLinejoin="round"/>
<path d="M94.9434 61.5498L104.05 62.6189" stroke="black" stroke-width="1.46053" stroke-miterlimit="10" strokeLinecap="round" strokeLinejoin="round"/>
<path d="M101.433 69.5508C101.433 69.5508 102.981 70.325 101.027 73.1268" stroke="black" stroke-width="1.46053" stroke-miterlimit="10" strokeLinecap="round" strokeLinejoin="round"/>
<path d="M108.215 71.0225C108.215 71.0225 109.948 71.5755 108.325 73.5663" stroke="black" stroke-width="1.46053" stroke-miterlimit="10" strokeLinecap="round" strokeLinejoin="round"/>
<path d="M95.3848 67.815C95.3848 67.815 97.4126 67.7782 97.3758 65.2344" stroke="black" stroke-width="1.46053" stroke-miterlimit="10" strokeLinecap="round" strokeLinejoin="round"/>
<path d="M90.8145 61.221C90.8145 61.221 92.5473 60.668 92.7317 59.1934" stroke="black" stroke-width="1.46053" stroke-miterlimit="10" strokeLinecap="round" strokeLinejoin="round"/>
<path d="M71.9004 38.2139C71.9004 38.2139 73.3383 39.3567 72.1953 41.2" stroke="black" stroke-width="1.46053" stroke-miterlimit="10" strokeLinecap="round" strokeLinejoin="round"/>
<path d="M80.4517 41.9326C80.4517 41.9326 81.226 43.481 79.6406 44.8819" stroke="black" stroke-width="1.46053" stroke-miterlimit="10" strokeLinecap="round" strokeLinejoin="round"/>
<path d="M116.474 91.707C116.842 92.555 116.621 96.9421 116.621 97.8637C116.621 104.131 107.219 109.219 95.6421 109.219C84.065 109.219 74.6631 104.131 74.6631 97.8637C74.6631 97.0527 74.405 92.9605 74.7 92.1863" stroke="black" stroke-width="1.46053" stroke-miterlimit="10" strokeLinecap="round" strokeLinejoin="round"/>
<path d="M95.645 104.097C107.231 104.097 116.624 99.0137 116.624 92.7426C116.624 86.4715 107.231 81.3877 95.645 81.3877C84.0586 81.3877 74.666 86.4715 74.666 92.7426C74.666 99.0137 84.0586 104.097 95.645 104.097Z" stroke="black" stroke-width="1.46053" stroke-miterlimit="10" strokeLinecap="round" strokeLinejoin="round"/>
<path d="M95.6434 99.9658C104.379 99.9658 111.461 96.5492 111.461 92.3345C111.461 88.1198 104.379 84.7031 95.6434 84.7031C86.9078 84.7031 79.8262 88.1198 79.8262 92.3345C79.8262 96.5492 86.9078 99.9658 95.6434 99.9658Z" stroke="black" stroke-width="0.97364" stroke-miterlimit="10" strokeLinecap="round" strokeLinejoin="round"/>
<path d="M88.4908 88.2762L98.4825 86.3223L92.8783 89.8246L106.668 91.4467L92.8415 93.7693L98.2245 97.5665L87.9746 95.6495L88.4908 88.2762Z" stroke="black" stroke-width="1.46053" stroke-miterlimit="10" strokeLinecap="round" strokeLinejoin="round"/>
<path d="M92.6582 55.5409C92.6582 55.5409 94.4279 55.1353 94.3911 52.9971" stroke="black" stroke-width="1.46053" stroke-miterlimit="10" strokeLinecap="round" strokeLinejoin="round"/>
<path d="M100.4 60.4849C100.4 60.4849 101.912 60.0425 101.801 58.1992" stroke="black" stroke-width="1.46053" stroke-miterlimit="10" strokeLinecap="round" strokeLinejoin="round"/>
<path d="M107.404 64.055C107.404 64.055 109.1 63.4283 108.732 61.4375" stroke="black" stroke-width="1.46053" stroke-miterlimit="10" strokeLinecap="round" strokeLinejoin="round"/>
<path d="M44.9102 55.7641C44.9102 55.6166 44.9102 55.4323 44.9102 55.2479C44.9102 49.4968 49.5189 44.7042 56.0817 43.082" stroke="black" stroke-width="1.46053" stroke-miterlimit="10" strokeLinecap="round" strokeLinejoin="round"/>
<path d="M77.0237 56.8291C76.5812 60.2208 74.4796 63.1701 71.3457 65.1609" stroke="black" stroke-width="1.46053" stroke-miterlimit="10" strokeLinecap="round" strokeLinejoin="round"/>
<path d="M79.42 57.7529C79.1988 59.4488 77.9083 62.693 76.8391 64.0571C75.7699 65.3843 74.4057 66.7115 73.1152 67.6331" stroke="black" stroke-width="1.46053" stroke-miterlimit="10" strokeLinecap="round" strokeLinejoin="round"/>
<path d="M51.8052 75.673C62.5567 75.673 71.2725 71.101 71.2725 65.461C71.2725 59.8211 62.5567 55.249 51.8052 55.249C41.0537 55.249 32.3379 59.8211 32.3379 65.461C32.3379 71.101 41.0537 75.673 51.8052 75.673Z" stroke="black" stroke-width="1.46053" stroke-miterlimit="10" strokeLinecap="round" strokeLinejoin="round"/>
<path d="M71.2725 65.0518C71.2725 65.0518 71.4938 70.1393 71.4938 71.1716C71.4938 76.8122 62.7925 81.3836 52.0264 81.3836C41.2604 81.3836 32.5591 76.8122 32.5591 71.1716C32.5591 70.2499 32.3379 66.1209 32.3379 66.1209" stroke="black" stroke-width="1.46053" stroke-miterlimit="10" strokeLinecap="round" strokeLinejoin="round"/>
<path d="M33.5913 74.711C31.1948 76.2594 28.3558 77.5866 25.185 78.5451C14.8983 81.7156 5.23835 79.9092 3.5792 74.5267C1.92006 69.1442 8.92534 62.2133 19.1752 59.0796C26.033 56.9783 32.5958 57.0889 36.7253 58.969" stroke="black" stroke-width="1.46053" stroke-miterlimit="10" strokeLinecap="round" strokeLinejoin="round"/>
<path d="M38.0166 78.286C35.2513 80.6086 31.4538 82.6362 27.0662 84.0003C16.7795 87.1708 7.11958 85.3643 5.46044 79.9818C5.20235 79.097 3.58008 74.8574 3.58008 74.8574" stroke="black" stroke-width="1.46053" stroke-miterlimit="10" strokeLinecap="round" strokeLinejoin="round"/>
<path d="M71.3461 66.709C74.48 68.5154 76.3973 70.9118 76.3973 73.5662C76.3973 79.2067 67.696 83.7781 56.9299 83.7781C50.7358 83.7781 45.2053 82.2666 41.6289 79.9072" stroke="black" stroke-width="1.46053" stroke-miterlimit="10" strokeLinecap="round" strokeLinejoin="round"/>
<path d="M76.3968 73.1611C76.3968 73.1611 76.618 78.2487 76.618 79.281C76.618 84.9215 67.9167 89.4929 57.1507 89.4929C46.3847 89.4929 37.6834 84.9215 37.6834 79.281C37.6834 78.3593 37.6465 78.1012 37.6465 78.1012" stroke="black" stroke-width="1.46053" stroke-miterlimit="10" strokeLinecap="round" strokeLinejoin="round"/>
<path d="M51.9149 71.0638C59.6527 71.0638 65.9255 68.3899 65.9255 65.0915C65.9255 61.7931 59.6527 59.1191 51.9149 59.1191C44.177 59.1191 37.9043 61.7931 37.9043 65.0915C37.9043 68.3899 44.177 71.0638 51.9149 71.0638Z" stroke="black" stroke-width="0.97364" stroke-miterlimit="10" strokeLinecap="round" strokeLinejoin="round"/>
<path d="M32.5203 70.2514C30.3449 71.9841 27.0266 73.5693 23.1922 74.5647C15.7076 76.5186 8.96035 75.4864 8.14921 72.279C7.33807 69.0716 12.7211 64.9426 20.2057 62.9887C25.3306 61.6615 30.0868 61.7352 32.8521 62.9149" stroke="black" stroke-width="0.97364" stroke-miterlimit="10" strokeLinecap="round" strokeLinejoin="round"/>
<path d="M79.6783 1.89941C79.6783 1.89941 75.1064 9.45703 73.2261 12.4801C71.3457 15.4663 71.3457 20.7013 71.3457 20.7013" stroke="black" stroke-width="1.46053" stroke-miterlimit="10" strokeLinecap="round" strokeLinejoin="round"/>
<path d="M124.143 27.9648C124.143 27.9648 121.784 30.5086 118.244 31.8358" stroke="black" stroke-width="1.46053" stroke-miterlimit="10" strokeLinecap="round" strokeLinejoin="round"/>
</svg>
