<svg width="117" height="96" viewBox="0 0 117 96" fill="none" xmlns="http://www.w3.org/2000/svg">
<path d="M58.7378 95.5065C90.8704 95.5065 116.919 86.5099 116.919 75.412C116.919 64.314 90.8704 55.3174 58.7378 55.3174C26.6053 55.3174 0.556641 64.314 0.556641 75.412C0.556641 86.5099 26.6053 95.5065 58.7378 95.5065Z" fill="#EFDA9C"/>
<path d="M57.7504 79.45L64.524 79.8088L75.1554 79.0463L85.8317 77.0727L92.2464 73.7087L94.3548 70.7932L94.0856 59.3106L93.7268 57.8304L100.052 55.1391L102.923 52.0891V40.1131L107.095 37.5115L108.44 35.538L107.992 23.562L106.197 20.781L99.8723 17.731L96.822 16.9236L96.3734 9.52268C96.3734 9.52268 92.4258 2.03206 64.0754 1.22469C35.725 0.417322 31.7775 10.5095 31.7775 10.5095L31.8672 19.0766C31.8672 19.0766 2.79905 19.9288 1.04958 54.8252C1.04958 54.8252 0.556152 69.0439 12.8922 79.6743C25.2282 90.3047 42.2295 87.6134 42.2295 87.6134L49.362 85.7296L57.2121 80.8405L57.7504 79.45Z" fill="#CD7F32"/>
<path d="M64.6592 16.2072C79.4991 16.2072 91.5293 13.4962 91.5293 10.152C91.5293 6.80772 79.4991 4.09668 64.6592 4.09668C49.8192 4.09668 37.7891 6.80772 37.7891 10.152C37.7891 13.4962 49.8192 16.2072 64.6592 16.2072Z" fill="#B55F17"/>
<path d="M83.9473 29.4389C83.9473 29.4389 91.4386 29.0801 95.117 28.2279C98.7954 27.3757 102.294 25.3124 102.294 25.3124L102.788 23.6079L101.711 21.9035L97.0908 20.0645L96.3281 23.0248L93.0086 26.0749L86.7285 28.183L83.9473 29.4389Z" fill="#B55F17"/>
<path d="M31.6424 80.0798C45.3923 80.0798 56.5388 67.9102 56.5388 52.8983C56.5388 37.8864 45.3923 25.7168 31.6424 25.7168C17.8926 25.7168 6.74609 37.8864 6.74609 52.8983C6.74609 67.9102 17.8926 80.0798 31.6424 80.0798Z" fill="#B55F17"/>
<path d="M18.8135 64.292L16.75 45.5879L24.3311 56.308L33.3925 32.6699L35.6354 57.7881L47.3434 49.8041L38.9548 67.7906L18.8135 64.292Z" fill="#DD9756"/>
<path d="M63.4473 20.7836C63.4473 20.7836 63.3127 26.3903 63.3127 30.7412C63.3127 30.7412 74.7067 30.6514 77.9813 30.2926C77.9813 30.2926 77.4431 31.9074 78.5197 33.7912L78.1608 44.1525L85.2036 44.2422L80.2243 45.4981L77.7122 45.7672C77.7122 45.7672 76.187 47.382 77.1739 49.3555L77.2636 59.6271L86.1904 59.2234L88.1642 58.8646L88.8819 58.9543L88.2539 60.4345L81.8392 63.2154L73.3161 64.561C73.3161 64.561 71.9255 66.4449 72.6881 68.9119L72.5984 79.4077L62.5501 79.9011L58.6474 79.4974L64.6585 70.9752L66.5874 66.2206L68.4714 61.3764L69.548 52.3608L68.0228 44.1973L64.9725 37.245L60.3969 30.6066L53.5785 24.9101L47.5226 21.8152L39.9864 19.7071C39.9864 19.7071 32.3157 18.8997 32.0914 18.9894C31.8671 19.0791 31.7773 11.9922 31.7773 11.9922L36.4426 15.8945L45.5937 18.6754C45.5937 18.6754 53.2196 19.7071 53.8476 19.8865C54.4757 20.2005 63.4473 20.7836 63.4473 20.7836Z" fill="#B55F17"/>
<path d="M7.01562 32.7596L25.1384 85.2387L30.8353 86.8535L35.7249 86.3152L23.9721 19.752L15.5835 23.7888C15.5835 23.7888 9.07913 30.2926 8.94455 29.8889C8.80998 29.4853 7.01562 32.7596 7.01562 32.7596Z" fill="#CD7F32"/>
<path d="M31.8684 86.6273C48.9132 86.6273 62.7308 71.5258 62.7308 52.8972C62.7308 34.2685 48.9132 19.167 31.8684 19.167C14.8235 19.167 1.00586 34.2685 1.00586 52.8972C1.00586 71.5258 14.8235 86.6273 31.8684 86.6273Z" stroke="black" stroke-width="1.46053" stroke-miterlimit="10" strokeLinecap="round" strokeLinejoin="round"/>
<path d="M31.6423 80.2581C45.4417 80.2581 56.6284 68.0283 56.6284 52.9421C56.6284 37.8558 45.4417 25.626 31.6423 25.626C17.8429 25.626 6.65625 37.8558 6.65625 52.9421C6.65625 68.0283 17.8429 80.2581 31.6423 80.2581Z" stroke="black" stroke-width="0.973641" stroke-miterlimit="10" strokeLinecap="round" strokeLinejoin="round"/>
<path d="M36.2186 19.4346C53.8479 19.7037 69.0549 35.1783 69.0549 53.7927C69.0549 72.4071 55.2385 87.5229 38.1924 87.5229C36.084 87.5229 31.1945 86.9846 29.2207 86.5361" stroke="black" stroke-width="1.46053" stroke-miterlimit="10" strokeLinecap="round" strokeLinejoin="round"/>
<path d="M18.7686 64.3786L16.7949 45.3157L24.5105 56.7535L33.6168 31.9492L35.3213 58.1439L47.5677 49.532L38.8203 67.7427L18.7686 64.3786Z" stroke="black" stroke-width="1.46053" stroke-miterlimit="10" strokeLinecap="round" strokeLinejoin="round"/>
<path d="M64.2099 20.6005C82.0971 20.6005 96.5975 16.2629 96.5975 10.9121C96.5975 5.5613 82.0971 1.22363 64.2099 1.22363C46.3227 1.22363 31.8223 5.5613 31.8223 10.9121C31.8223 16.2629 46.3227 20.6005 64.2099 20.6005Z" stroke="black" stroke-width="1.46053" stroke-miterlimit="10" strokeLinecap="round" strokeLinejoin="round"/>
<path d="M31.912 18.9889C31.912 15.6249 31.8672 10.377 31.8672 10.377" stroke="black" stroke-width="1.46053" stroke-miterlimit="10" strokeLinecap="round" strokeLinejoin="round"/>
<path d="M96.5524 10.5107C96.5524 10.5107 96.7767 19.4367 96.7767 21.3206C96.7767 26.6582 82.2875 31.009 64.389 31.009C63.0882 31.009 61.7873 30.9641 60.5312 30.9193" stroke="black" stroke-width="1.46053" stroke-miterlimit="10" strokeLinecap="round" strokeLinejoin="round"/>
<path d="M64.4347 16.3889C79.225 16.3889 91.215 13.6778 91.215 10.3336C91.215 6.98936 79.225 4.27832 64.4347 4.27832C49.6443 4.27832 37.6543 6.98936 37.6543 10.3336C37.6543 13.6778 49.6443 16.3889 64.4347 16.3889Z" stroke="black" stroke-width="0.973641" stroke-miterlimit="10" strokeLinecap="round" strokeLinejoin="round"/>
<path d="M93.5016 57.7852C93.9502 58.4131 94.1745 59.0859 94.1745 59.7587C94.1745 64.6927 81.7936 68.7744 65.7344 69.3575" stroke="black" stroke-width="1.46053" stroke-miterlimit="10" strokeLinecap="round" strokeLinejoin="round"/>
<path d="M94.0856 59.3545C94.0856 59.3545 94.3099 68.2804 94.3099 70.1643C94.3099 75.5019 79.8207 79.8528 61.9223 79.8528C60.6214 79.8528 59.3205 79.8079 58.0645 79.763" stroke="black" stroke-width="1.46053" stroke-miterlimit="10" strokeLinecap="round" strokeLinejoin="round"/>
<path d="M88.6571 58.5488C88.7468 58.7731 88.7917 58.9525 88.7917 59.1768C88.7917 62.0923 79.5509 64.5592 67.2598 65.0975" stroke="black" stroke-width="0.973641" stroke-miterlimit="10" strokeLinecap="round" strokeLinejoin="round"/>
<path d="M103.102 40.293C103.102 45.6306 88.6127 49.9814 70.7143 49.9814C70.0414 49.9814 69.5928 49.9814 68.9199 49.9814" stroke="black" stroke-width="1.46053" stroke-miterlimit="10" strokeLinecap="round" strokeLinejoin="round"/>
<path d="M103.012 39.8896C103.012 39.8896 103.236 48.8156 103.236 50.6995C103.236 56.0371 88.7468 60.3879 70.8484 60.3879C70.0858 60.3879 69.3681 60.3879 68.6055 60.3431" stroke="black" stroke-width="1.46053" stroke-miterlimit="10" strokeLinecap="round" strokeLinejoin="round"/>
<path d="M94.7591 42.4902C90.3181 44.419 81.3017 45.7646 70.9394 45.7646C69.9974 45.7646 69.0554 45.7646 68.1582 45.7197" stroke="black" stroke-width="0.973641" stroke-miterlimit="10" strokeLinecap="round" strokeLinejoin="round"/>
<path d="M96.732 17.0576C103.775 18.8518 108.216 21.4982 108.216 24.4585C108.216 29.7961 93.7265 34.147 75.8281 34.147C70.8937 34.147 66.2284 33.833 62.0117 33.2499" stroke="black" stroke-width="1.46053" stroke-miterlimit="10" strokeLinecap="round" strokeLinejoin="round"/>
<path d="M108.172 24.0107C108.172 24.0107 108.396 32.9367 108.396 34.8205C108.396 40.1582 93.9067 44.2847 76.0083 44.509C73.1822 44.5539 69.3244 44.3744 68.0684 44.3296" stroke="black" stroke-width="1.46053" stroke-miterlimit="10" strokeLinecap="round" strokeLinejoin="round"/>
<path d="M96.8218 20.0215C100.59 21.0531 102.878 22.3987 102.878 23.8341C102.878 26.9738 92.2463 29.5754 78.6094 29.8445" stroke="black" stroke-width="0.973641" stroke-miterlimit="10" strokeLinecap="round" strokeLinejoin="round"/>
</svg>
