<svg width="142" height="140" viewBox="0 0 142 140" fill="none" xmlns="http://www.w3.org/2000/svg">
<path d="M65.5188 139.074C101.564 139.074 130.784 131.543 130.784 122.253C130.784 112.963 101.564 105.432 65.5188 105.432C29.474 105.432 0.253906 112.963 0.253906 122.253C0.253906 131.543 29.474 139.074 65.5188 139.074Z" fill="#EFDA9C"/>
<path d="M141.408 45.1316L140.127 56.6211L138.019 62.4898L134.919 67.6146L131.571 70.9209L126.445 73.814L122.271 75.3018L121.899 75.3432L116.277 75.7564L116.98 77.4923L117.187 77.9469L116.525 86.0887L115.657 110.638C115.657 110.638 114.624 112.87 114.624 113.118C114.624 113.366 114.624 115.102 114.624 115.102L111.235 117.375L110.201 117.292L96.7681 131.633L95.8588 131.964L95.1561 132.212L94.1641 133.7C94.1641 133.7 90.6095 133.741 90.0721 134.031C89.4935 134.278 86.0215 134.278 85.5669 134.278C85.1122 134.278 81.8469 133.287 81.8469 133.287L80.8962 131.096C80.8962 131.096 67.0083 130.022 54.7737 129.071C45.2258 128.327 36.7112 127.666 36.5045 127.666C36.6285 127.748 36.5872 129.526 36.3805 129.484C36.1738 129.443 31.8338 130.104 31.8338 130.104C31.8338 130.104 27.9072 130.146 27.6592 130.063C27.4112 129.98 24.4766 129.443 24.2699 129.319C24.0632 129.195 22.8646 126.963 22.8646 126.963V126.591L19.7646 126.095L17.2433 120.268L12.7793 92.3294L14.97 89.4777L24.1459 82.1211L31.2552 76.4177L31.7099 76.0458L32.1645 76.3351C32.2472 76.3764 33.9418 76.7897 34.0658 76.8723C34.1898 76.955 35.2645 77.7402 35.3058 77.7816L30.1805 79.0628L26.2952 81.0052L25.2206 82.8651L25.0552 85.4688L25.0139 87.3286L25.3859 88.2792L26.2125 89.2298L42.3324 90.015L63.495 91.0482C63.495 91.0482 67.463 88.4032 67.5456 88.3618C67.6283 88.3205 68.1243 87.6592 68.1243 87.6592C68.1243 87.6592 71.5963 88.4032 71.8856 88.4858C72.1749 88.5271 77.6722 88.8165 77.6722 88.8165L78.0856 89.3537L78.5402 91.7508L85.3602 91.9988L91.3948 92.2054L93.3788 90.7589L102.472 82.2864L103.877 80.9639L104.58 79.4761L103.671 77.7402L101.521 76.3764L102.183 74.3926L102.059 69.4331L103.505 67.9039L103.257 61.2913L100.86 58.7702L94.6601 56.7864L88.2122 56.0011L79.6976 56.1664L72.1336 57.4477L67.8763 59.9274L66.9256 60.506L64.8176 59.4314L59.4857 57.241L50.6404 56.4144L49.8137 56.5384L46.8378 54.1827L43.6551 52.6948L37.4965 52.2402L47.7057 13.1842L49.5657 11.407L54.691 11.1177L68.5376 11.2004L73.7043 11.2417L75.6882 0.620117L96.7681 1.32272L101.191 12.1509L128.099 13.3908L130.744 14.8373L132.397 15.7466L136.365 20.8301L138.762 25.9135L141.16 35.9152L141.408 45.1316Z" fill="#927DAC"/>
<path d="M117.102 77.9003C117.143 77.983 117.143 78.0656 117.143 78.1483L116.482 86.1661L115.614 110.592C115.614 110.674 115.614 110.757 115.573 110.798C115.366 111.253 114.581 112.989 114.581 113.195V114.89C114.581 115.096 114.498 115.262 114.333 115.344L111.357 117.37C111.233 117.452 111.109 117.494 110.985 117.452L110.406 117.411C110.241 117.411 110.075 117.452 109.951 117.576L96.8073 131.628C96.7247 131.711 96.6834 131.752 96.5594 131.793C96.1874 131.917 95.774 131.628 95.8154 131.215L97.51 96.4984C97.51 96.3744 97.5927 96.2091 97.6754 96.1264L116.978 77.5283L117.102 77.9003Z" fill="#A48DC2"/>
<path d="M104.33 79.9728L92.1369 91.9582L91.0622 92.6195L78.9103 92.2476L61.5918 91.6689L52.3745 91.2556L44.8519 90.925L27.988 90.1398L26.128 89.3958L25.3427 89.0239L25.2186 88.032L24.7227 84.0231L24.9706 82.0806L26.7066 80.9647L31.9973 78.8983L34.8493 78.1543L32.4519 76.6665L28.7733 73.0708L26.748 67.2434L26.8306 62.5319L29.3933 57.7377L32.7413 54.5554L38.1559 52.5303H42.0825L45.3065 53.3982L47.8692 55.0514L49.8945 56.7045L52.9945 56.7458L58.2024 56.8698L62.9557 58.8536L66.2624 61.0854L68.3704 59.4736L70.5197 58.5643L73.785 57.2005L78.5796 56.5392L86.0609 55.8366L93.9142 56.5805L99.4942 58.399L102.553 60.4655L103.338 62.16L103.09 67.6981L101.602 70.0538L101.974 73.3188L101.643 75.8399L101.313 76.4598L104.33 79.9728Z" fill="#EFCA64"/>
<path d="M49.7285 56.1706L56.4658 26.7443L57.0858 25.2564L59.0698 23.8926L67.9977 24.3472L121.4 26.9096L115.076 69.0653L102.924 68.1561L103.338 62.5766C103.338 62.5766 102.883 60.7168 102.511 60.5102C102.139 60.3035 98.1709 57.9891 98.1709 57.9891L93.9136 56.6252L83.6216 55.8813L76.471 56.3773L69.1551 58.609L66.6751 60.9235L62.1698 58.1957C62.1698 58.1957 58.6978 56.7079 58.1605 56.8732C57.6645 57.0385 51.1752 56.2946 51.1752 56.2946L50.3485 56.5013L49.7285 56.1706Z" fill="#795F97"/>
<path d="M26.7891 100.84L28.525 113.115L30.137 115.553L32.617 116.545L85.1514 120.43L85.3994 105.717L84.9034 103.981L83.498 103.237L26.7891 100.84Z" fill="#795F97"/>
<path d="M132.644 36.1602L133.76 39.3838L134.339 48.0629L132.355 55.0476L128.594 61.2469L132.644 36.1602Z" fill="#795F97"/>
<path d="M81.7204 3.50939L80.1911 0.781668C80.1911 0.781668 75.3137 0.657681 75.2311 0.781668C75.1484 0.905655 73.3711 11.5272 73.3711 11.5272L74.9417 11.6099L76.2644 3.75737L81.7204 3.50939Z" fill="#795F97"/>
<path d="M109.084 93.7383L108.505 105.848L106.315 108.658L100.652 113.328C100.652 113.328 100.197 104.112 100.197 103.864C100.197 103.616 100.817 101.88 100.817 101.88L102.429 100.186L109.084 93.7383Z" fill="#795F97"/>
<path d="M24.5998 87.4141L23.8145 88.8606C23.8145 88.8606 24.0625 89.7285 24.2691 89.7285C24.4758 89.7285 26.5838 89.8525 26.5838 89.8525L24.8064 88.4886L24.5998 87.4141Z" fill="#795F97"/>
<path d="M85.2762 68.5664L85.3589 73.3606C85.3589 73.3606 89.7816 73.2779 90.1122 73.2779C90.4429 73.2779 96.1468 71.9554 96.1468 71.9554L100.032 69.8889L101.396 69.6409L101.065 71.3768L98.3788 72.9886L95.5682 73.8152L88.4589 74.3111L86.8882 75.799L83.0029 80.3452L80.9363 85.1394L81.5563 91.2561V92.3306L63.0391 91.1321L67.5444 88.0737L70.851 83.8168L72.7937 79.5186L73.3723 74.7244L73.1657 71.7487L71.223 66.252L76.8856 67.8638L85.2762 68.5664Z" fill="#D8B450"/>
<path d="M34.9736 78.0752L30.0136 79.4391L25.7976 81.8775C25.7976 81.8775 24.6403 83.5306 24.723 83.8613C24.8056 84.1919 25.1363 88.9861 25.1363 88.9861L35.3456 90.4326L44.3975 90.5152L39.2309 86.8783L35.9656 81.3402L34.9736 78.0752Z" fill="#D8B450"/>
<path d="M32.7831 76.293C32.7831 76.293 31.1711 67.9446 36.5858 62.1998C42.0004 56.4551 48.4483 55.2979 48.4483 55.2979L49.9363 57.0337L44.687 58.3562L40.2644 62.0345L37.2884 66.4154L35.0564 73.0694L35.5111 78.4835L32.7831 76.293Z" fill="#D8B450"/>
<path d="M84.6155 65.7132C92.2171 65.7132 98.3794 63.9183 98.3794 61.7042C98.3794 59.4902 92.2171 57.6953 84.6155 57.6953C77.0139 57.6953 70.8516 59.4902 70.8516 61.7042C70.8516 63.9183 77.0139 65.7132 84.6155 65.7132Z" fill="#D8B450"/>
<path d="M102.265 82.4062L93.1715 90.8787L91.1875 92.3252L85.1529 92.1185C84.7809 90.8787 84.5742 89.5148 84.5742 88.1096C84.5742 81.7449 88.8315 76.6201 94.0395 76.6201C97.5528 76.6614 100.611 78.9759 102.265 82.4062Z" fill="#D8B450"/>
<path d="M70.5194 58.5626L52.3742 91.2539L44.8516 90.9233L52.9942 56.7441L58.2022 56.8681L62.9555 58.8519L66.2621 61.0837L68.3701 59.4719L70.5194 58.5626Z" fill="#EFDA9C"/>
<path d="M46.0516 82.5752C46.0516 82.5752 43.613 72.5735 43.737 72.5735C43.861 72.5735 48.3663 78.8969 48.3663 78.8969L49.1516 78.401L53.0783 64.6797L54.8556 79.0209L56.4262 78.7729L61.1796 74.64L57.5836 83.939L46.0516 82.5752Z" fill="#9E88B5"/>
<path opacity="0.3" d="M36.3795 127.788C36.5035 127.871 36.4621 129.648 36.2555 129.607C36.0488 129.566 31.7088 130.227 31.7088 130.227C31.7088 130.227 27.7822 130.268 27.5342 130.186C27.2862 130.103 24.3516 129.566 24.1449 129.442C23.9382 129.318 22.7396 127.086 22.7396 127.086V126.714L19.6396 126.218L17.1183 120.391L12.6543 92.4521L14.8449 89.6004L24.0209 82.2438L31.1302 76.5404L32.0395 76.499L35.1808 77.9455L37.1235 83.029L42.0421 89.3937L42.2074 90.179L42.2488 90.3856L39.1901 90.6336L42.2488 93.9813L41.9181 101.09L54.6487 129.194C45.1421 128.45 36.5861 127.788 36.3795 127.788Z" fill="#624B7F"/>
<path opacity="0.3" d="M64.0316 24.2198L67.7929 59.6802L67.6689 60.0109L66.6769 60.5895L64.5689 59.5149L59.2369 57.3245L50.3916 56.4566L49.565 56.5805L46.6303 54.2248L43.4477 52.7369L37.2891 52.2823L47.457 13.2263L49.317 11.4491L54.4836 11.2012L68.2889 11.2838L68.3715 11.4078L64.1969 18.6404L64.0316 24.2198Z" fill="#624B7F"/>
<path d="M141.406 45.1305L140.124 56.6614L138.016 62.5301L134.875 67.6136L131.527 70.9612L126.402 73.8543L122.268 75.3421L121.896 75.3834L130.494 14.9189L132.147 15.8282L136.074 20.8703L138.512 25.9538L140.91 35.9555L141.406 45.1305Z" fill="#A48DC2"/>
<path d="M31.9145 76.297C31.9145 76.297 15.4226 88.5304 13.1906 91.4235C13.1906 91.4235 12.6946 92.1674 12.8599 93.8205C12.9839 95.1844 16.3732 116.304 18.1919 123.701C18.5639 125.189 19.8452 126.305 21.3745 126.429C33.7745 127.421 91.9301 132.133 93.5421 132.133C95.9394 132.133 96.6834 131.554 98.0474 130.314C99.37 129.074 113.837 113.948 114.911 112.295C115.986 110.641 115.49 108.988 115.655 107.707C115.821 106.467 116.895 80.0993 117.143 78.8594C117.391 77.6195 116.647 75.8837 114.498 75.5531C112.349 75.2224 101.891 74.4785 101.891 74.4785" stroke="black" stroke-width="1.46053" stroke-miterlimit="10" strokeLinecap="round" strokeLinejoin="round"/>
<path d="M24.8471 87.2856L23.8138 88.2775C23.2764 88.7735 23.6071 89.6827 24.3511 89.724C35.2217 90.3026 88.0454 92.989 91.0627 92.4518C92.8813 92.1211 101.892 82.8634 104.868 80.053C105.488 79.4744 105.281 78.3999 104.496 78.1106C104.041 77.9452 103.669 77.7799 102.801 77.6973" stroke="black" stroke-width="1.46053" stroke-miterlimit="10" strokeLinecap="round" strokeLinejoin="round"/>
<path d="M22.8633 126.672V127.168C22.9046 128.284 23.6486 129.234 24.6819 129.565C25.7979 129.896 27.4926 130.185 30.0139 130.102C32.6592 130.02 34.3125 129.73 35.3045 129.482C36.1725 129.276 36.7925 128.532 36.9165 127.664" stroke="black" stroke-width="1.46053" stroke-miterlimit="10" strokeLinecap="round" strokeLinejoin="round"/>
<path d="M81.0195 131.18V131.676C81.0195 132.626 81.5982 133.494 82.5075 133.783C83.5822 134.155 85.3595 134.527 88.1288 134.445C90.7741 134.362 92.4275 134.073 93.4195 133.825C94.2874 133.618 94.9074 132.874 95.0314 132.006" stroke="black" stroke-width="1.46053" stroke-miterlimit="10" strokeLinecap="round" strokeLinejoin="round"/>
<path d="M114.498 113.08L114.292 115.147C114.292 115.147 113.3 116.51 110.406 117.461" stroke="black" stroke-width="1.46053" stroke-miterlimit="10" strokeLinecap="round" strokeLinejoin="round"/>
<path d="M115.531 75.8007C115.531 75.8007 138.884 78.1978 140.992 49.4327C142.439 29.5947 136.321 20.089 132.353 16.0801C130.783 14.4683 128.592 13.559 126.36 13.4764C112.638 12.9391 54.0273 10.666 51.01 11.038C47.5794 11.4926 47.1247 14.2616 47.1247 14.2616L37.2461 52.6151" stroke="black" stroke-width="1.46053" stroke-miterlimit="10" strokeLinecap="round" strokeLinejoin="round"/>
<path d="M103.09 68.1948L115.077 69.1454L122.062 25.4192C122.476 22.9394 120.616 20.7076 118.136 20.625L56.6733 18.2279C54.3999 18.1452 52.3746 19.6331 51.8373 21.8235L43.7773 52.8617" stroke="black" stroke-width="1.46053" stroke-miterlimit="10" strokeLinecap="round" strokeLinejoin="round"/>
<path d="M49.6465 56.2926L56.6318 26.6183C57.0038 25.0891 58.4091 24.0146 59.9798 24.0972L121.525 26.9903" stroke="black" stroke-width="1.46053" stroke-miterlimit="10" strokeLinecap="round" strokeLinejoin="round"/>
<path d="M73.5371 11.3263L75.4798 0.746094L96.973 1.36603L100.858 12.3596" stroke="black" stroke-width="1.46053" stroke-miterlimit="10" strokeLinecap="round" strokeLinejoin="round"/>
<path d="M75.4805 0.746094L76.1005 3.68046L95.2377 4.21775L96.9737 1.36603" stroke="black" stroke-width="1.46053" stroke-miterlimit="10" strokeLinecap="round" strokeLinejoin="round"/>
<path d="M95.2383 4.2168L97.5943 11.9453" stroke="black" stroke-width="1.46053" stroke-miterlimit="10" strokeLinecap="round" strokeLinejoin="round"/>
<path d="M76.0994 3.68164L74.8594 11.4102" stroke="black" stroke-width="1.46053" stroke-miterlimit="10" strokeLinecap="round" strokeLinejoin="round"/>
<path d="M44.6459 90.7163C38.9419 87.7406 35.0566 81.6652 35.0566 74.6806C35.0566 64.7203 42.9512 56.6611 52.7059 56.6611C62.4605 56.6611 70.3551 64.7203 70.3551 74.6806C70.3551 82.2025 65.8084 88.6912 59.4018 91.3776" stroke="black" stroke-width="1.46053" stroke-miterlimit="10" strokeLinecap="round" strokeLinejoin="round"/>
<path d="M54.4414 56.6611C64.196 56.6611 73.2479 64.679 73.2479 74.6393C73.2479 82.2852 68.7013 89.0218 62.1294 91.6669" stroke="black" stroke-width="1.46053" stroke-miterlimit="10" strokeLinecap="round" strokeLinejoin="round"/>
<path d="M34.9724 77.8653C30.0124 75.9642 26.8711 71.2113 26.8711 65.5906C26.8711 58.2753 32.7817 52.3652 40.0977 52.3652C44.0243 52.3652 47.5376 54.0597 49.935 56.7461" stroke="black" stroke-width="1.46053" stroke-miterlimit="10" strokeLinecap="round" strokeLinejoin="round"/>
<path d="M81.7199 92.3254C81.2652 90.9202 81.0586 89.4323 81.0586 87.8618C81.0586 80.1333 86.8039 73.8926 93.9132 73.8926C98.3771 73.8926 102.345 76.3723 104.618 80.1746" stroke="black" stroke-width="1.46053" stroke-miterlimit="10" strokeLinecap="round" strokeLinejoin="round"/>
<path d="M78.5374 92.2464C78.2067 91.0065 78 89.6427 78 88.2788C78 80.5503 83.7453 74.3096 90.8546 74.3096" stroke="black" stroke-width="1.46053" stroke-miterlimit="10" strokeLinecap="round" strokeLinejoin="round"/>
<path d="M66.5938 60.9621C68.2471 58.1517 75.7284 56.0439 84.6563 56.0439C94.8242 56.0439 103.091 58.7717 103.091 62.1606C103.091 65.5496 94.8242 68.2774 84.6563 68.2774C79.2003 68.2774 74.2817 67.4921 70.8924 66.2522" stroke="black" stroke-width="1.46053" stroke-miterlimit="10" strokeLinecap="round" strokeLinejoin="round"/>
<path d="M103.09 67.2812C103.09 70.6702 94.8232 73.398 84.6553 73.398C80.274 73.398 76.2233 72.902 73.082 72.0341" stroke="black" stroke-width="1.46053" stroke-miterlimit="10" strokeLinecap="round" strokeLinejoin="round"/>
<path d="M43.0339 89.8126C32.9073 89.606 24.8887 86.9196 24.8887 83.6133C24.8887 81.2162 29.1873 79.1084 35.4699 78.0752" stroke="black" stroke-width="1.46053" stroke-miterlimit="10" strokeLinecap="round" strokeLinejoin="round"/>
<path d="M26.501 89.8126C25.509 89.0687 24.9303 88.2422 24.9303 87.3742C24.9303 86.713 24.8477 83.6133 24.8477 83.6133" stroke="black" stroke-width="1.46053" stroke-miterlimit="10" strokeLinecap="round" strokeLinejoin="round"/>
<path d="M130.039 20.874L122.682 69.7664" stroke="black" stroke-width="1.46053" stroke-miterlimit="10" strokeLinecap="round" strokeLinejoin="round"/>
<path d="M133.346 31.9506C135.206 34.8023 138.099 40.7537 136.9 49.0608C135.702 57.4506 130.824 62.9887 128.262 65.3445L128.551 63.402L133.015 33.893L133.346 31.9506ZM133.304 31C132.932 31 132.56 31.248 132.478 31.7026L132.147 33.7277L127.683 63.2367L127.27 65.9231C127.228 66.3364 127.518 66.6257 127.89 66.6257C128.014 66.6257 128.179 66.5844 128.303 66.4604C130.824 64.2699 136.446 58.4425 137.768 49.1435C139.049 40.3817 135.867 34.141 134.007 31.3306C133.842 31.124 133.552 31 133.304 31Z" fill="black"/>
<path d="M132.561 37.0693C133.512 40.045 134.173 43.9713 133.512 48.6002C132.809 53.3117 130.99 57.114 129.089 59.9243L132.561 37.0693ZM132.148 33.7217L127.684 63.2307C130.288 60.1723 133.388 55.3368 134.338 48.7655C135.289 42.2355 133.76 37.1107 132.148 33.7217Z" fill="black"/>
<path d="M116.731 77.3281L98.627 95.9262" stroke="black" stroke-width="1.46053" stroke-miterlimit="10" strokeLinecap="round" strokeLinejoin="round"/>
<path d="M12.6953 92.4521L82.6309 96.1718" stroke="black" stroke-width="1.46053" stroke-miterlimit="10" strokeLinecap="round" strokeLinejoin="round"/>
<path d="M25.9215 100.761C25.9628 100.761 25.9628 100.761 26.0041 100.761L83.2918 103.613C84.4078 103.655 85.2344 104.564 85.2344 105.68L84.9038 120.558C84.8624 121.839 83.7878 122.914 82.5064 122.914C82.4651 122.914 82.3824 122.914 82.3411 122.914L30.2201 119.029C28.2361 118.864 26.6241 117.376 26.3348 115.392L24.3921 102.539C24.3095 102.084 24.4335 101.629 24.7641 101.299C25.0121 100.968 25.4668 100.761 25.9215 100.761ZM25.8801 99.8936C24.3921 99.8936 23.2348 101.216 23.4828 102.704L25.4255 115.557C25.7975 117.954 27.7401 119.732 30.1374 119.938L82.1758 123.864C82.2584 123.864 82.3411 123.864 82.4238 123.864C84.2011 123.864 85.6478 122.459 85.6891 120.641L86.0198 105.762C86.0611 104.192 84.8211 102.869 83.2504 102.787L25.9628 99.9349C26.0041 99.8935 25.9628 99.8936 25.8801 99.8936Z" fill="black"/>
<path d="M85.192 120.6L33.1537 116.674C30.7564 116.509 28.8137 114.69 28.4417 112.293L26.623 100.184" stroke="black" stroke-width="1.46053" stroke-miterlimit="10" strokeLinecap="round" strokeLinejoin="round"/>
<path d="M103.09 62.1562V67.2811" stroke="black" stroke-width="1.46053" stroke-miterlimit="10" strokeLinecap="round" strokeLinejoin="round"/>
<path d="M85.068 75.7123C84.5307 75.7123 83.952 75.7536 83.4147 75.7536C79.7361 75.7536 76.3054 75.3817 73.4121 74.7617" stroke="black" stroke-width="1.46053" stroke-miterlimit="10" strokeLinecap="round" strokeLinejoin="round"/>
<path d="M101.851 69.6396C101.851 71.3755 99.6188 72.946 96.1055 74.0619" stroke="black" stroke-width="1.46053" stroke-miterlimit="10" strokeLinecap="round" strokeLinejoin="round"/>
<path d="M79.9859 80.7588C77.2992 80.5935 74.7779 80.2215 72.6699 79.7256" stroke="black" stroke-width="1.46053" stroke-miterlimit="10" strokeLinecap="round" strokeLinejoin="round"/>
<path d="M101.85 74.7617C101.85 75.299 101.643 75.7949 101.271 76.2909" stroke="black" stroke-width="1.46053" stroke-miterlimit="10" strokeLinecap="round" strokeLinejoin="round"/>
<path d="M101.85 69.6396V74.7645" stroke="black" stroke-width="1.46053" stroke-miterlimit="10" strokeLinecap="round" strokeLinejoin="round"/>
<path d="M78.6206 83.7765C75.9339 83.7765 73.3713 83.5699 71.0566 83.2393" stroke="black" stroke-width="1.46053" stroke-miterlimit="10" strokeLinecap="round" strokeLinejoin="round"/>
<path d="M77.9599 88.9427C73.8266 88.9014 70.6853 88.5294 67.668 87.7441" stroke="black" stroke-width="1.46053" stroke-miterlimit="10" strokeLinecap="round" strokeLinejoin="round"/>
<path d="M52.8286 67.5313L54.3993 79.0208C54.4406 79.3514 54.6473 79.5994 54.9366 79.7234C55.0606 79.7647 55.1433 79.806 55.2673 79.806C55.4739 79.806 55.6806 79.7234 55.8046 79.5994L60.1446 76.0451L57.1686 83.567L46.3393 82.4924L45.058 75.3012L47.9926 79.0621C48.158 79.2688 48.406 79.3928 48.6953 79.3928C48.7366 79.3928 48.8193 79.3928 48.8606 79.3928C49.1913 79.3101 49.4393 79.1035 49.522 78.7728L52.8286 67.5313ZM53.1593 63.2744L48.7366 78.5662L43.6113 72.0362L45.5953 83.3604L57.7472 84.5589L62.2525 73.2761L55.2673 78.9381L53.1593 63.2744Z" fill="black"/>
<path d="M111.11 92.0769C111.317 92.0769 111.482 92.1596 111.647 92.3249C111.771 92.4489 111.813 92.6142 111.813 92.8208L110.862 106.666C110.821 107.493 110.449 108.278 109.87 108.857L102.968 115.676C102.72 115.924 102.43 115.965 102.265 115.965C101.81 115.965 101.273 115.634 101.232 115.015L100.529 105.509C100.405 103.856 100.984 102.203 102.141 101.045L110.655 92.3249C110.779 92.1596 110.945 92.0769 111.11 92.0769ZM111.11 91.209C110.738 91.209 110.325 91.3743 109.994 91.7049L101.48 100.425C100.157 101.789 99.4542 103.69 99.6195 105.592L100.322 115.097C100.405 116.172 101.314 116.874 102.265 116.874C102.72 116.874 103.215 116.709 103.629 116.296L110.49 109.435C111.234 108.691 111.647 107.741 111.73 106.707L112.681 92.8621C112.763 91.8703 111.978 91.209 111.11 91.209Z" fill="black"/>
<path d="M109.166 93.3643L108.504 104.73C108.422 105.763 108.008 106.755 107.264 107.457L100.816 113.492" stroke="black" stroke-width="1.46053" stroke-miterlimit="10" strokeLinecap="round" strokeLinejoin="round"/>
<path d="M52.9126 89.6883C60.674 89.6883 66.9659 83.0084 66.9659 74.7685C66.9659 66.5285 60.674 59.8486 52.9126 59.8486C45.1512 59.8486 38.8594 66.5285 38.8594 74.7685C38.8594 83.0084 45.1512 89.6883 52.9126 89.6883Z" stroke="black" stroke-width="0.97364" stroke-miterlimit="10" strokeLinecap="round" strokeLinejoin="round"/>
<path d="M84.4075 65.8785C91.9406 65.8785 98.0474 64.0466 98.0474 61.7869C98.0474 59.5272 91.9406 57.6953 84.4075 57.6953C76.8744 57.6953 70.7676 59.5272 70.7676 61.7869C70.7676 64.0466 76.8744 65.8785 84.4075 65.8785Z" stroke="black" stroke-width="0.97364" stroke-miterlimit="10" strokeLinecap="round" strokeLinejoin="round"/>
<path d="M35.0154 73.5675C32.2874 71.873 30.4688 68.9386 30.4688 65.591C30.4688 60.3008 35.0154 56.0439 40.5954 56.0439C42.7033 56.0439 44.646 56.6639 46.258 57.6558" stroke="black" stroke-width="0.97364" stroke-miterlimit="10" strokeLinecap="round" strokeLinejoin="round"/>
<path d="M85.0286 92.4508C84.6153 91.3349 84.3673 90.1777 84.326 88.9378C83.954 82.7385 88.0873 77.4483 93.5433 77.1177C97.2219 76.9111 100.57 78.9775 102.471 82.2838" stroke="black" stroke-width="0.94999" stroke-miterlimit="10" strokeLinecap="round" strokeLinejoin="round"/>
</svg>
