<svg width="100" height="100" viewBox="0 0 100 100" fill="none" xmlns="http://www.w3.org/2000/svg">
<g clip-path="url(#clip0_3113_40172)">
<path d="M60.6205 23.7795L54.7205 8.26953L43.5905 23.5795L31.4205 9.74953L27.1405 25.7895L9.64047 21.7195L20.7805 41.1895L0.480469 46.3695L19.1305 56.5795L8.69047 70.4495L27.1005 66.1895L21.8805 90.7795L42.4805 70.9995L49.0805 86.6595L59.3805 75.1195L72.4105 90.4695L74.3405 71.9195L97.0205 76.3595L81.2405 60.8195L95.7905 53.8295L82.3905 47.8095L99.2905 35.3695L76.8105 36.6595L83.8905 17.2695L68.5505 28.0395L66.8605 17.0695L60.6205 23.7795Z" fill="#6AB5D2" stroke="#1E1E1C" strokeLinecap="round" strokeLinejoin="round"/>
<path d="M78.8207 45.2195C78.8207 44.5595 75.3007 43.9695 69.7007 43.5495L72.6107 43.3695C73.9792 43.2846 75.258 42.6596 76.1656 41.6319C77.0733 40.6042 77.5356 39.258 77.4507 37.8895L77.3407 36.1695C77.2558 34.801 76.6308 33.5223 75.6031 32.6146C74.5754 31.7069 73.2292 31.2447 71.8607 31.3295L35.7607 33.5095L32.5007 26.0995C34.3207 25.0995 33.5007 23.4095 33.5007 21.1995C33.5007 19.656 32.8876 18.1756 31.7961 17.0842C30.7046 15.9927 29.2243 15.3795 27.6807 15.3795C27.0375 15.3825 26.3991 15.4905 25.7907 15.6995L26.0607 15.2695L25.4607 15.5295L25.1907 15.9495C23.7899 16.5754 22.6936 17.73 22.1409 19.1612C21.5883 20.5925 21.6242 22.1843 22.2408 23.5891C22.8574 24.994 24.0047 26.098 25.4323 26.6601C26.8598 27.2222 28.4518 27.1969 29.8607 26.5895L33.0007 33.7695L24.8507 34.2795C24.1714 34.3203 23.5067 34.4948 22.8949 34.793C22.2831 35.0912 21.7362 35.5073 21.2856 36.0173C20.835 36.5274 20.4896 37.1214 20.2691 37.7653C20.0486 38.4092 19.9574 39.0903 20.0007 39.7695L20.1107 41.4895C20.171 42.4364 20.4926 43.348 21.0399 44.123C21.5871 44.898 22.3386 45.506 23.2107 45.8795C22.4845 46.3184 21.8775 46.9293 21.4433 47.6583C21.009 48.3873 20.7609 49.212 20.7207 50.0595L20.6307 51.7895C20.5682 53.1587 21.0509 54.4969 21.9731 55.5109C22.8953 56.525 24.1817 57.1322 25.5507 57.1995L37.0007 57.7395C27.6107 57.9195 21.1307 58.6095 21.1007 59.5895C21.1007 60.0595 22.6107 60.5395 25.2407 60.9795C24.0162 61.1594 22.8971 61.7735 22.0876 62.7097C21.278 63.6459 20.832 64.8419 20.8307 66.0795V67.7995C20.8254 68.4814 20.9553 69.1575 21.2129 69.7888C21.4705 70.4201 21.8506 70.9941 22.3314 71.4776C22.8121 71.9612 23.3839 72.3446 24.0137 72.6058C24.6435 72.8671 25.3189 73.0009 26.0007 72.9995H73.1007C73.78 73.0008 74.4529 72.868 75.0808 72.6087C75.7086 72.3493 76.2791 71.9686 76.7594 71.4882C77.2398 71.0079 77.6205 70.4374 77.8799 69.8096C78.1392 69.1817 78.272 68.5088 78.2707 67.8295V66.0795C78.2719 65.2105 78.0522 64.3555 77.6325 63.5946C77.2127 62.8337 76.6065 62.192 75.8707 61.7295C76.9307 61.4895 77.5207 61.2195 77.5307 60.9295C77.5307 60.4195 75.7707 59.9295 72.7407 59.4295C74.0842 59.4571 75.3855 58.9596 76.3678 58.0426C77.3501 57.1257 77.9359 55.8617 78.0007 54.5195L78.0907 52.7995C78.123 52.1212 78.0214 51.4432 77.7915 50.8042C77.5617 50.1652 77.2083 49.5777 76.7514 49.0753C76.2945 48.573 75.7432 48.1655 75.1288 47.8762C74.5144 47.587 73.849 47.4216 73.1707 47.3895L66.6507 47.0795C74.0007 46.6695 78.8207 45.9995 78.8207 45.2195Z" fill="black"/>
<path d="M27.7757 11.1489L26.2559 11.8164L36.582 35.3288L38.1019 34.6613L27.7757 11.1489Z" fill="#F2EE98"/>
<path d="M27.511 11.8205L37.431 34.4105L36.841 34.6705L26.921 12.0805L27.511 11.8205ZM28.001 10.4805L27.061 10.8905L26.471 11.1505L25.541 11.5605L25.951 12.4905L35.871 35.0805L36.281 36.0105L37.211 35.6005L37.801 35.3405L38.731 34.9305L38.361 34.0005L28.441 11.4105L28.041 10.4805H28.001Z" fill="black"/>
<path d="M30.2402 25.5389C33.7361 25.5389 36.5702 22.7049 36.5702 19.2089C36.5702 15.7129 33.7361 12.8789 30.2402 12.8789C26.7442 12.8789 23.9102 15.7129 23.9102 19.2089C23.9102 22.7049 26.7442 25.5389 30.2402 25.5389Z" fill="#E687A3"/>
<path d="M30.2406 13.3887C31.3917 13.3887 32.517 13.73 33.474 14.3695C34.4311 15.009 35.1771 15.918 35.6176 16.9815C36.0581 18.0449 36.1734 19.2151 35.9488 20.3441C35.7242 21.4731 35.1699 22.5101 34.356 23.324C33.542 24.138 32.505 24.6923 31.3761 24.9169C30.2471 25.1414 29.0769 25.0262 28.0134 24.5857C26.9499 24.1452 26.041 23.3992 25.4015 22.4421C24.762 21.485 24.4206 20.3598 24.4206 19.2087C24.4193 18.444 24.569 17.6866 24.861 16.9799C25.153 16.2732 25.5816 15.6311 26.1223 15.0904C26.663 14.5497 27.3051 14.121 28.0119 13.829C28.7186 13.537 29.476 13.3874 30.2406 13.3887ZM30.2406 12.3887C28.8874 12.3867 27.564 12.7862 26.4378 13.5366C25.3117 14.2869 24.4334 15.3545 23.9142 16.6042C23.3949 17.8539 23.258 19.2295 23.5208 20.557C23.7836 21.8844 24.4343 23.1042 25.3905 24.0617C26.3467 25.0193 27.5654 25.6718 28.8925 25.9365C30.2196 26.2012 31.5954 26.0664 32.8459 25.549C34.0963 25.0316 35.1651 24.1549 35.9172 23.0298C36.6692 21.9048 37.0706 20.5819 37.0706 19.2287C37.068 17.4171 36.3479 15.6804 35.0679 14.3985C33.7878 13.1166 32.0522 12.394 30.2406 12.3887Z" fill="black"/>
<path d="M27.7307 44.39C26.2191 44.3904 24.7642 43.8145 23.6624 42.7796C22.5606 41.7447 21.8948 40.3287 21.8007 38.82L21.7007 37.28C21.6234 35.7144 22.1619 34.1807 23.201 33.0071C24.2401 31.8334 25.6972 31.113 27.2607 31L75.3507 28H75.7307C77.2381 28.0137 78.6851 28.5944 79.7839 29.6264C80.8827 30.6585 81.5527 32.0664 81.6607 33.57L81.7607 35.11C81.8459 36.6823 81.3097 38.225 80.2676 39.4055C79.2256 40.5859 77.7613 41.3095 76.1907 41.42L28.1107 44.42L27.7307 44.39Z" fill="#F2EE98"/>
<path d="M75.7306 28.4602C77.1086 28.4624 78.4342 28.9884 79.4388 29.9317C80.4434 30.875 81.0517 32.165 81.1406 33.5402L81.2406 35.0902C81.3281 36.526 80.8424 37.9379 79.89 39.016C78.9375 40.094 77.5963 40.7501 76.1606 40.8402L28.0706 43.8402H27.7306C26.3525 43.8379 25.0269 43.3119 24.0223 42.3686C23.0177 41.4253 22.4094 40.1353 22.3206 38.7602L22.2206 37.2102C22.133 35.7743 22.6187 34.3624 23.5711 33.2843C24.5236 32.2063 25.8649 31.5502 27.3006 31.4602L75.3806 28.4602H75.7306ZM75.7306 27.4102H75.3206L27.2306 30.4102C25.5179 30.5207 23.9191 31.3061 22.7849 32.5941C21.6507 33.882 21.0737 35.5673 21.1806 37.2802L21.2806 38.8202C21.3846 40.4616 22.1089 42.002 23.3066 43.1291C24.5044 44.2563 26.0859 44.8858 27.7306 44.8902H28.1406L76.2306 41.8902C77.9334 41.7695 79.5195 40.9808 80.6434 39.6959C81.7672 38.4109 82.3377 36.7339 82.2306 35.0302L82.1306 33.4902C82.0265 31.8488 81.3022 30.3083 80.1045 29.1812C78.9068 28.054 77.3252 27.4245 75.6806 27.4202L75.7306 27.4102Z" fill="black"/>
<path d="M74.9196 57.9404L28.3796 55.7204C27.6005 55.6845 26.8363 55.4953 26.1305 55.1636C25.4247 54.8319 24.7912 54.3642 24.2664 53.7874C23.7416 53.2106 23.3357 52.5359 23.072 51.802C22.8083 51.0681 22.6919 50.2893 22.7296 49.5104L22.7896 48.3004C22.8591 46.7776 23.5134 45.3403 24.6161 44.2878C25.7189 43.2353 27.1852 42.6488 28.7096 42.6504H28.9996L75.5396 44.8604C77.1064 44.9509 78.5754 45.6517 79.6316 46.8126C80.6878 47.9735 81.2471 49.502 81.1896 51.0704L81.1296 52.2804C81.0752 53.8147 80.4279 55.2682 79.3238 56.335C78.2197 57.4018 76.7449 57.9988 75.2096 58.0004L74.9196 57.9404Z" fill="#6AB5D2"/>
<path d="M28.7102 43.1604H29.0002L75.5402 45.3704C76.9773 45.4403 78.3279 46.0778 79.2954 47.1428C80.2629 48.2077 80.7682 49.6132 80.7002 51.0504L80.6402 52.2604C80.5735 53.6515 79.9749 54.9639 78.968 55.9261C77.9611 56.8883 76.623 57.4269 75.2302 57.4304H74.9602L28.4002 55.2204C26.964 55.1479 25.615 54.5096 24.6481 53.4452C23.6811 52.3809 23.1749 50.9769 23.2402 49.5404L23.3002 48.3304C23.3669 46.9393 23.9656 45.6269 24.9725 44.6647C25.9794 43.7025 27.3175 43.1639 28.7102 43.1604ZM28.7102 42.1604C27.0547 42.1612 25.463 42.7995 24.2657 43.9428C23.0684 45.0861 22.3573 46.6466 22.2802 48.3004L22.2202 49.5104C22.1799 50.3555 22.3065 51.2003 22.5927 51.9965C22.879 52.7927 23.3194 53.5246 23.8886 54.1506C24.4579 54.7765 25.145 55.2841 25.9105 55.6444C26.676 56.0047 27.5051 56.2106 28.3502 56.2504L74.8902 58.4704H75.2102C76.8658 58.4696 78.4574 57.8313 79.6547 56.688C80.8521 55.5446 81.5631 53.9841 81.6402 52.3304V51.1204C81.6819 50.2758 81.5566 49.4312 81.2715 48.6351C80.9863 47.8389 80.5469 47.1069 79.9784 46.4808C79.4099 45.8547 78.7235 45.347 77.9585 44.9865C77.1935 44.6261 76.3649 44.4201 75.5202 44.3804L29.0002 42.1504L28.7102 42.1604Z" fill="black"/>
<path d="M75.4011 58.4102H28.8011C25.526 58.4102 22.8711 61.0651 22.8711 64.3402V65.5602C22.8711 68.8352 25.526 71.4902 28.8011 71.4902H75.4011C78.6761 71.4902 81.3311 68.8352 81.3311 65.5602V64.3402C81.3311 61.0651 78.6761 58.4102 75.4011 58.4102Z" fill="#F2EE98"/>
<path d="M75.4013 58.9204C76.1139 58.9191 76.8198 59.0583 77.4785 59.3301C78.1373 59.6019 78.736 60.0009 79.2403 60.5043C79.7447 61.0078 80.1448 61.6057 80.4178 62.2639C80.6908 62.9222 80.8313 63.6278 80.8313 64.3404V65.5504C80.834 66.2652 80.6954 66.9734 80.4237 67.6345C80.152 68.2956 79.7525 68.8966 79.248 69.4029C78.7435 69.9093 78.144 70.311 77.4839 70.5852C76.8238 70.8593 76.1161 71.0004 75.4013 71.0004H28.8113C27.3712 71.0004 25.9901 70.4283 24.9717 69.41C23.9534 68.3917 23.3813 67.0105 23.3813 65.5704V64.3404C23.3813 63.6278 23.5218 62.9222 23.7949 62.2639C24.0679 61.6057 24.468 61.0078 24.9723 60.5043C25.4767 60.0009 26.0754 59.6019 26.7341 59.3301C27.3929 59.0583 28.0987 58.9191 28.8113 58.9204H75.4013ZM75.4013 57.9204H28.8113C27.1024 57.9204 25.4633 58.5986 24.254 59.806C23.0447 61.0135 22.364 62.6515 22.3613 64.3604V65.5704C22.3666 67.2776 23.0485 68.913 24.2575 70.1183C25.4666 71.3236 27.1041 72.0004 28.8113 72.0004H75.4013C77.1102 71.9977 78.7483 71.317 79.9557 70.1077C81.1632 68.8984 81.8413 67.2593 81.8413 65.5504V64.3404C81.8387 62.6332 81.1593 60.9967 79.9522 59.7895C78.745 58.5824 77.1085 57.903 75.4013 57.9004V57.9204Z" fill="black"/>
<path d="M53.6496 45.5787C45.8896 45.5787 38.5896 45.3387 33.0996 44.8987C24.0996 44.1787 24.0996 43.3087 24.0996 42.7287C24.0996 42.1487 24.0996 41.2887 33.0996 40.5687C38.5896 40.1287 45.8896 39.8887 53.6496 39.8887C61.4096 39.8887 68.6996 40.1287 74.1996 40.5687C83.1996 41.2887 83.1996 42.1587 83.1996 42.7287C83.1996 43.2987 83.1996 44.1787 74.1996 44.8987C68.6996 45.3387 61.4096 45.5787 53.6496 45.5787Z" fill="#E687A3"/>
<path d="M53.6496 40.4102C69.6496 40.4102 82.6496 41.4102 82.6496 42.7302C82.6496 44.0502 69.6496 45.0602 53.6496 45.0602C37.6496 45.0602 24.6496 44.0602 24.6496 42.7302C24.6496 41.4002 37.6496 40.4102 53.6496 40.4102ZM53.6496 39.4102C45.8696 39.4102 38.5596 39.6602 33.0596 40.1002C24.2796 40.8002 23.5996 41.6502 23.5996 42.7802C23.5996 43.9102 24.2796 44.7802 33.0596 45.4702C38.5596 45.9102 45.8696 46.1502 53.6496 46.1502C61.4296 46.1502 68.7296 45.9102 74.2396 45.4702C83.0096 44.7602 83.6896 43.9102 83.6896 42.7802C83.6896 41.6502 83.0096 40.7802 74.2396 40.1002C68.7296 39.6602 61.4196 39.4102 53.6496 39.4102Z" fill="black"/>
<path d="M59.211 61.2798C56.811 61.2798 54.311 61.2798 51.801 61.1898C48.871 61.1198 23.151 60.4298 23.211 57.5898C23.261 55.5898 36.591 55.2598 44.531 55.2598C46.931 55.2598 49.421 55.2598 51.941 55.3498C54.871 55.4198 80.591 56.1098 80.531 58.9498C80.481 60.9998 67.151 61.2798 59.211 61.2798Z" fill="#E687A3"/>
<path d="M44.5204 55.6986C46.8904 55.6986 49.3704 55.6986 51.9304 55.7886C67.5104 56.1586 80.1104 57.5686 80.0804 58.9386C80.0804 60.0786 71.2104 60.8386 59.2104 60.8386C56.8504 60.8386 54.3704 60.8386 51.8104 60.7486C36.2304 60.3686 23.6204 58.9986 23.6604 57.5986C23.6604 56.4486 32.5304 55.6986 44.5204 55.6986ZM44.5204 54.8086C38.6304 54.8086 33.3004 54.9986 29.5204 55.3286C23.8504 55.8386 22.8004 56.4886 22.7704 57.5786C22.7404 58.6686 23.4104 59.4886 31.7704 60.4286C37.1104 61.0286 44.2204 61.4286 51.7704 61.6286C54.2904 61.6886 56.7704 61.7186 59.1904 61.7186C65.0904 61.7186 70.4104 61.5386 74.1904 61.1986C79.8604 60.6986 80.9104 60.0486 80.9404 58.9586C80.9704 57.8686 80.3004 57.0486 71.9404 56.1086C66.6004 55.5086 59.4904 55.1086 51.9404 54.8986C49.4204 54.8386 46.9404 54.8086 44.5204 54.8086Z" fill="black"/>
</g>
<defs>
<clipPath id="clip0_3113_40172">
<rect width="100" height="100" fill="white"/>
</clipPath>
</defs>
</svg>
