<svg width="100" height="100" viewBox="0 0 100 100" fill="none" xmlns="http://www.w3.org/2000/svg">
<g clip-path="url(#clip0_3113_24773)">
<path d="M60.6205 23.7795L54.7205 8.26953L43.5905 23.5795L31.4205 9.74953L27.1405 25.7895L9.64047 21.7195L20.7805 41.1895L0.480469 46.3695L19.1305 56.5795L8.69047 70.4495L27.1005 66.1895L21.8805 90.7795L42.4805 70.9995L49.0805 86.6595L59.3805 75.1195L72.4105 90.4695L74.3405 71.9195L97.0205 76.3595L81.2405 60.8195L95.7905 53.8295L82.3905 47.8095L99.2905 35.3695L76.8105 36.6595L83.8905 17.2695L68.5505 28.0395L66.8605 17.0695L60.6205 23.7795Z" fill="#6AB5D2" stroke="#1E1E1C" strokeLinecap="round" strokeLinejoin="round"/>
<path d="M25.0706 26.2695H72.3806C74.0276 26.2695 75.6072 26.9238 76.7718 28.0884C77.9364 29.253 78.5906 30.8325 78.5906 32.4795V65.7395C78.5905 66.9559 78.2332 68.1455 77.563 69.1606C76.8928 70.1757 75.9392 70.9716 74.8206 71.4495L79.4006 85.4495L64.1006 71.9995H25.1006C23.4536 71.9995 21.8741 71.3453 20.7095 70.1807C19.5449 69.0161 18.8906 67.4365 18.8906 65.7895V32.4795C18.8906 30.8377 19.5408 29.2627 20.6989 28.099C21.857 26.9352 23.4288 26.2775 25.0706 26.2695Z" fill="black"/>
<path d="M26.8812 24H74.1912C75.8382 24 77.4177 24.6543 78.5823 25.8189C79.7469 26.9835 80.4012 28.563 80.4012 30.21V63.47C80.4011 64.6864 80.0437 65.876 79.3735 66.8911C78.7033 67.9061 77.7497 68.7021 76.6312 69.18L81.2112 83.18L65.9112 69.68H26.9112C25.2642 69.68 23.6846 69.0257 22.52 67.8611C21.3554 66.6965 20.7012 65.117 20.7012 63.47V30.21C20.7012 28.5682 21.3513 26.9932 22.5094 25.8294C23.6675 24.6657 25.2394 24.0079 26.8812 24Z" fill="#9277AA" stroke="black" stroke-width="0.86" stroke-miterlimit="10"/>
<path d="M65.4605 50.3584C64.5245 50.3584 63.6096 50.0808 62.8316 49.5606C62.0535 49.0404 61.4473 48.3011 61.0896 47.4362C60.7319 46.5713 60.6388 45.6198 60.8221 44.702C61.0054 43.7842 61.4569 42.9414 62.1194 42.2803C62.7819 41.6192 63.6256 41.1695 64.5438 40.9881C65.462 40.8067 66.4134 40.9018 67.2775 41.2614C68.1416 41.6209 68.8796 42.2287 69.3982 43.0079C69.9167 43.787 70.1924 44.7025 70.1905 45.6384C70.1878 46.8912 69.6883 48.0917 68.8015 48.9766C67.9148 49.8615 66.7132 50.3584 65.4605 50.3584Z" fill="#F2EE98"/>
<path d="M65.4608 41.3405C66.3117 41.3385 67.144 41.589 67.8525 42.0603C68.5609 42.5316 69.1136 43.2024 69.4406 43.988C69.7676 44.7735 69.8542 45.6384 69.6894 46.4732C69.5246 47.308 69.1158 48.0751 68.5149 48.6775C67.9139 49.2798 67.1478 49.6904 66.3134 49.8571C65.479 50.0238 64.6139 49.9393 63.8276 49.6141C63.0413 49.2889 62.3691 48.7378 61.8962 48.0305C61.4232 47.3231 61.1708 46.4914 61.1708 45.6405C61.1708 44.5018 61.6224 43.4096 62.4267 42.6034C63.2309 41.7973 64.3221 41.3431 65.4608 41.3405ZM65.4608 40.4805C64.4402 40.4805 63.4426 40.7831 62.594 41.3501C61.7455 41.9171 61.0841 42.723 60.6936 43.6658C60.303 44.6087 60.2008 45.6462 60.3999 46.6471C60.599 47.6481 61.0905 48.5675 61.8121 49.2891C62.5338 50.0108 63.4532 50.5022 64.4541 50.7013C65.4551 50.9004 66.4926 50.7982 67.4354 50.4077C68.3783 50.0171 69.1842 49.3558 69.7512 48.5072C70.3182 47.6587 70.6208 46.661 70.6208 45.6405C70.6208 44.272 70.0771 42.9595 69.1095 41.9918C68.1418 41.0241 66.8293 40.4805 65.4608 40.4805Z" fill="black"/>
<path d="M50.301 50.3583C49.3638 50.3643 48.446 50.0917 47.664 49.5751C46.882 49.0586 46.2711 48.3213 45.9088 47.457C45.5465 46.5927 45.4491 45.6402 45.629 44.7204C45.8089 43.8006 46.258 42.955 46.9193 42.2909C47.5806 41.6268 48.4243 41.1741 49.3433 40.9903C50.2623 40.8065 51.2152 40.8998 52.081 41.2585C52.9469 41.6171 53.6867 42.2249 54.2066 43.0047C54.7265 43.7845 55.003 44.7011 55.001 45.6383C54.9984 46.8859 54.503 48.0819 53.6227 48.9659C52.7424 49.85 51.5485 50.3504 50.301 50.3583Z" fill="#F2EE98"/>
<path d="M50.3009 41.3405C51.1513 41.3405 51.9827 41.5927 52.6898 42.0652C53.3969 42.5376 53.9481 43.2092 54.2735 43.9949C54.599 44.7807 54.6842 45.6452 54.5182 46.4794C54.3523 47.3135 53.9428 48.0797 53.3414 48.681C52.7401 49.2824 51.9739 49.6919 51.1398 49.8578C50.3056 50.0238 49.441 49.9386 48.6553 49.6132C47.8696 49.2877 47.198 48.7366 46.7255 48.0294C46.2531 47.3223 46.0009 46.4909 46.0009 45.6405C46.0009 44.5018 46.4525 43.4096 47.2568 42.6034C48.061 41.7973 49.1522 41.3431 50.2909 41.3405M50.2909 40.4805C49.2703 40.4805 48.2727 40.7831 47.4241 41.3501C46.5756 41.9171 45.9142 42.723 45.5236 43.6658C45.1331 44.6087 45.0309 45.6462 45.23 46.6471C45.4291 47.6481 45.9206 48.5675 46.6422 49.2891C47.3638 50.0108 48.2833 50.5022 49.2842 50.7013C50.2851 50.9004 51.3226 50.7982 52.2655 50.4077C53.2084 50.0171 54.0143 49.3558 54.5812 48.5072C55.1482 47.6587 55.4509 46.661 55.4509 45.6405C55.4482 44.2728 54.9037 42.9618 53.9366 41.9947C52.9695 41.0276 51.6586 40.4831 50.2909 40.4805Z" fill="black"/>
<path d="M35.2009 50.3584C34.2646 50.3604 33.3487 50.0844 32.5693 49.5654C31.79 49.0465 31.1821 48.3078 30.8229 47.4431C30.4637 46.5784 30.3691 45.6266 30.5513 44.7081C30.7335 43.7897 31.1842 42.9459 31.8463 42.2838C32.5084 41.6217 33.3522 41.171 34.2706 40.9888C35.1891 40.8066 36.1409 40.9012 37.0056 41.2604C37.8703 41.6196 38.609 42.2275 39.1279 43.0068C39.6469 43.7862 39.9229 44.7021 39.9209 45.6384C39.9183 46.8894 39.4202 48.0885 38.5356 48.9731C37.651 49.8577 36.4519 50.3558 35.2009 50.3584Z" fill="#F2EE98"/>
<path d="M35.2013 41.3405C36.0517 41.3405 36.8831 41.5927 37.5902 42.0652C38.2973 42.5377 38.8485 43.2092 39.1739 43.9949C39.4994 44.7807 39.5845 45.6452 39.4186 46.4794C39.2527 47.3135 38.8432 48.0797 38.2418 48.681C37.6404 49.2824 36.8743 49.6919 36.0401 49.8579C35.206 50.0238 34.3414 49.9386 33.5557 49.6132C32.77 49.2877 32.0984 48.7366 31.6259 48.0294C31.1534 47.3223 30.9013 46.4909 30.9013 45.6405C30.9013 44.5 31.3543 43.4063 32.1607 42.5999C32.9671 41.7935 34.0608 41.3405 35.2013 41.3405ZM35.2013 40.4805C34.1803 40.4785 33.1817 40.7794 32.3318 41.3452C31.4819 41.911 30.819 42.7162 30.4269 43.6589C30.0348 44.6016 29.9312 45.6394 30.1292 46.641C30.3272 47.6426 30.8178 48.563 31.539 49.2856C32.2603 50.0082 33.1797 50.5007 34.1809 50.7006C35.1821 50.9005 36.2201 50.7989 37.1636 50.4086C38.107 50.0184 38.9135 49.357 39.4809 48.5083C40.0484 47.6595 40.3512 46.6615 40.3513 45.6405C40.3513 44.2737 39.809 42.9627 38.8435 41.9953C37.8779 41.0279 36.568 40.4831 35.2013 40.4805Z" fill="black"/>
</g>
<defs>
<clipPath id="clip0_3113_24773">
<rect width="100" height="100" fill="white"/>
</clipPath>
</defs>
</svg>
