<svg width="100" height="100" viewBox="0 0 100 100" fill="none" xmlns="http://www.w3.org/2000/svg">
<path d="M70.0797 31.9397C68.6308 28.6466 66.5086 25.6933 63.8497 23.2697C58.7551 18.6069 52.0196 16.1544 45.1197 16.4497C43.3788 16.5318 41.6504 16.7864 39.9597 17.2097C34.13 18.6615 28.9813 22.0838 25.3857 26.8967C21.7901 31.7097 19.9686 37.6176 20.2297 43.6197C20.3151 45.3609 20.573 47.0894 20.9997 48.7797C21.3531 50.2264 21.835 51.6387 22.4397 52.9997C23.8914 56.2882 26.0133 59.2378 28.6697 61.6597C31.8359 64.5733 35.6776 66.6529 39.8483 67.7108C44.0191 68.7688 48.3875 68.7718 52.5597 67.7197C54.0132 67.3759 55.4324 66.9006 56.7997 66.2997C57.1597 66.1497 57.4997 65.9797 57.8497 65.8097L67.6397 84.1397C67.6848 84.2258 67.7467 84.3021 67.8218 84.364C67.8968 84.4259 67.9834 84.4722 68.0766 84.5001C68.1697 84.528 68.2675 84.5371 68.3642 84.5267C68.4609 84.5163 68.5546 84.4867 68.6397 84.4397C68.9997 84.2497 70.4997 83.4397 70.3097 83.1097L60.5197 64.7797C62.8997 63.4197 63.6597 62.0497 65.4697 60.0697C68.3834 56.9035 70.4629 53.0617 71.5209 48.891C72.5789 44.7203 72.5819 40.3518 71.5297 36.1797C71.1717 34.7265 70.6865 33.3077 70.0797 31.9397Z" fill="black"/>
<path d="M72.0006 81.9996L70.6006 82.8296C70.3903 82.937 70.1466 82.9584 69.9208 82.8893C69.695 82.8203 69.5049 82.6662 69.3906 82.4596L53.3906 52.5196L56.3906 50.8496L72.3906 80.7996C72.4455 80.9037 72.4789 81.0177 72.489 81.1349C72.499 81.2521 72.4854 81.3701 72.4491 81.482C72.4127 81.5939 72.3543 81.6973 72.2773 81.7862C72.2002 81.8751 72.1062 81.9477 72.0006 81.9996Z" fill="#9277AA" stroke="black" stroke-width="1.06" stroke-miterlimit="10"/>
<path d="M48.1003 65.9984C41.4772 65.9856 35.1 63.4875 30.2303 58.9984C27.5261 56.5378 25.3695 53.5363 23.9003 50.1884C23.2808 48.7982 22.7855 47.3559 22.4203 45.8784C21.9901 44.1582 21.7322 42.3996 21.6503 40.6284C21.4974 37.0016 22.0966 33.3823 23.4103 29.9984C24.6011 26.9186 26.3542 24.0871 28.5803 21.6484C31.0445 18.9439 34.0494 16.7873 37.4003 15.3184C40.4307 13.9724 43.6874 13.2091 47.0003 13.0684C47.3903 13.0684 47.7803 13.0684 48.1803 13.0684C54.7768 13.0745 61.1328 15.5463 66.0003 19.9984C68.7045 22.4589 70.8612 25.4605 72.3303 28.8084C72.9499 30.1985 73.4451 31.6408 73.8103 33.1184C74.2405 34.8385 74.4985 36.5971 74.5803 38.3684C74.7439 42.0186 74.1444 45.6628 72.8203 49.0684C71.6296 52.1481 69.8764 54.9796 67.6503 57.4184C65.1878 60.1203 62.1867 62.2766 58.8403 63.7484C57.4472 64.3605 56.0056 64.8555 54.5303 65.2284C52.8099 65.6553 51.0512 65.9099 49.2803 65.9884L48.1003 65.9984Z" fill="#E687A3"/>
<path d="M48.1391 13.4791C51.3404 13.4788 54.5141 14.0721 57.4991 15.2291C63.9474 17.7236 69.1413 22.6765 71.9391 28.9991C72.54 30.3729 73.025 31.7946 73.3891 33.2491C73.814 34.9391 74.0653 36.6681 74.1391 38.4091C74.3019 42.0004 73.7161 45.5863 72.4191 48.9391C71.2425 51.9629 69.5168 54.743 67.3291 57.1391C64.9054 59.798 61.9521 61.9202 58.6591 63.3691C57.2921 63.9788 55.8731 64.4641 54.4191 64.8191C52.7284 65.2424 51 65.497 49.2591 65.5791C48.8691 65.5791 48.4791 65.5791 48.0991 65.5791C44.8944 65.5796 41.7175 64.9863 38.7291 63.8291C35.7014 62.6543 32.9177 60.9285 30.5191 58.7391C27.8633 56.3128 25.7416 53.3601 24.2891 50.0691C23.6867 48.6994 23.2016 47.2809 22.8391 45.8291C22.4142 44.1391 22.1629 42.4102 22.0891 40.6691C21.9263 37.0779 22.512 33.492 23.8091 30.1391C24.9856 27.1153 26.7113 24.3352 28.8991 21.9391C31.3247 19.2825 34.2775 17.1607 37.5691 15.7091C38.936 15.0995 40.3551 14.6142 41.8091 14.2591C43.5098 13.8353 45.2482 13.5807 46.9991 13.4991C47.3891 13.4991 47.7791 13.4991 48.1691 13.4991M48.1691 12.6291C47.7691 12.6291 47.3691 12.6291 46.9691 12.6291C45.1674 12.7094 43.3784 12.9707 41.6291 13.4091C40.1301 13.7871 38.665 14.2888 37.2491 14.9091C33.8307 16.4011 30.7644 18.5952 28.2491 21.3491C25.9876 23.8253 24.2073 26.701 22.9991 29.8291C20.4302 36.4902 20.6114 43.8988 23.503 50.4263C26.3945 56.9538 31.7596 62.066 38.4191 64.6391C41.5044 65.8415 44.7877 66.4554 48.0991 66.4491C48.4991 66.4491 48.8991 66.4491 49.2991 66.4491C51.0974 66.3689 52.8831 66.1076 54.6291 65.6691C56.1253 65.2842 57.5869 64.7758 58.9991 64.1491C62.4174 62.6572 65.4837 60.463 67.9991 57.7091C70.2641 55.2338 72.0479 52.3581 73.2591 49.2291C74.5915 45.7635 75.1842 42.0575 74.9991 38.3491C74.922 36.5445 74.664 34.7522 74.2291 32.9991C73.8603 31.4974 73.3583 30.0316 72.7291 28.6191C70.6168 23.8597 67.1696 19.815 62.8051 16.9752C58.4406 14.1353 53.3461 12.6222 48.1391 12.6191L48.1691 12.6291Z" fill="black"/>
<path d="M45.0002 38C45.9516 38.5808 46.9562 39.0697 48.0002 39.46C44.8492 36.6681 42.7764 32.86 42.1424 28.698C41.5084 24.536 42.3533 20.2835 44.5302 16.68C45.2344 15.5326 46.0627 14.4661 47.0002 13.5C45.2595 13.5836 43.5312 13.8381 41.8402 14.26C40.3862 14.615 38.9672 15.1003 37.6002 15.71C35.9714 19.6972 35.8221 24.1355 37.1791 28.2232C38.5362 32.3109 41.3102 35.7786 45.0002 38Z" fill="#F2EE98"/>
<path d="M47.0003 36.2485C47.2676 37.3384 47.6394 38.4 48.1103 39.4185C47.9686 36.9971 48.3164 34.572 49.1329 32.288C49.9494 30.004 51.2179 27.908 52.8626 26.1252C54.5072 24.3424 56.4943 22.9093 58.7052 21.9117C60.9161 20.914 63.3054 20.3722 65.7303 20.3185C63.3332 18.1271 60.5491 16.401 57.5203 15.2285C53.5467 16.9 50.302 19.9378 48.3726 23.7928C46.4433 27.6479 45.9565 32.0659 47.0003 36.2485Z" fill="#F2EE98"/>
<path d="M48.1699 39.4297C50.9775 36.2845 54.7965 34.2199 58.9658 33.5935C63.135 32.9671 67.3921 33.8183 70.9999 35.9997C72.1455 36.6911 73.2119 37.5059 74.1799 38.4297C74.1061 36.6887 73.8548 34.9597 73.4299 33.2697C73.054 31.8071 72.5555 30.3787 71.9399 28.9997C67.9495 27.3717 63.5089 27.2227 59.4183 28.5795C55.3277 29.9363 51.8564 32.7097 49.6299 36.3997C49.0552 37.3649 48.5666 38.3788 48.1699 39.4297Z" fill="#F2EE98"/>
<path d="M66.7902 53.1584C67.1186 54.4675 67.2997 55.8092 67.3302 57.1584C69.518 54.7624 71.2437 51.9823 72.4202 48.9584C70.751 44.9871 67.7172 41.7433 63.8663 39.8124C60.0154 37.8815 55.6012 37.3906 51.4202 38.4284C50.329 38.7019 49.2646 39.0734 48.2402 39.5384C52.4332 39.2993 56.5785 40.5281 59.9638 43.0136C63.349 45.4992 65.7628 49.0863 66.7902 53.1584Z" fill="#F2EE98"/>
<path d="M49.2602 65.5598C51.0011 65.4777 52.7296 65.2231 54.4202 64.7998C55.8742 64.4448 57.2933 63.9595 58.6602 63.3498C60.3006 59.3604 60.4538 54.9146 59.092 50.8217C57.7301 46.7289 54.9438 43.2611 51.2402 41.0498C50.291 40.4652 49.286 39.9761 48.2402 39.5898C51.3913 42.3817 53.4641 46.1898 54.0981 50.3518C54.7321 54.5138 53.8871 58.7663 51.7102 62.3698C51.013 63.5198 50.1914 64.5895 49.2602 65.5598Z" fill="#F2EE98"/>
<path d="M30.5195 58.7382C32.9182 60.9276 35.7019 62.6534 38.7295 63.8282C42.699 62.1572 45.9406 59.1226 47.8696 55.2719C49.7986 51.4213 50.288 47.008 49.2495 42.8282C48.9822 41.7383 48.6105 40.6768 48.1395 39.6582C48.2883 42.0812 47.9455 44.5093 47.1316 46.7964C46.3177 49.0834 45.0496 51.1823 43.4036 52.9665C41.7575 54.7508 39.7676 56.1837 37.5534 57.1791C35.3393 58.1744 32.9467 58.7115 30.5195 58.7582V58.7382Z" fill="#F2EE98"/>
<path d="M22.8398 45.8282C23.2024 47.28 23.6874 48.6984 24.2898 50.0682C28.2809 51.6995 32.7238 51.8491 36.8156 50.4901C40.9073 49.1311 44.3778 46.3531 46.5998 42.6582C47.173 41.7027 47.6615 40.6988 48.0598 39.6582C45.2558 42.7952 41.4449 44.8554 37.2845 45.4833C33.1241 46.1113 28.8749 45.2678 25.2698 43.0982C24.1242 42.4068 23.0579 41.592 22.0898 40.6682C22.1636 42.4092 22.4149 44.1382 22.8398 45.8282Z" fill="#F2EE98"/>
<path d="M23.8105 30.1384C25.4815 34.1084 28.5155 37.351 32.3659 39.2817C36.2162 41.2124 40.6296 41.7042 44.8105 40.6684C45.9052 40.3956 46.9729 40.0241 48.0005 39.5584C43.8005 39.798 39.6485 38.5647 36.2604 36.071C32.8723 33.5774 30.4604 29.9798 29.4405 25.8984C29.1172 24.5884 28.9362 23.2473 28.9005 21.8984C26.7086 24.3065 24.9827 27.1005 23.8105 30.1384Z" fill="#F2EE98"/>
<path d="M45.56 40.17C45.6825 40.6764 45.9525 41.135 46.336 41.4876C46.7194 41.8403 47.199 42.0711 47.7138 42.1509C48.2286 42.2306 48.7555 42.1557 49.2277 41.9355C49.6998 41.7154 50.096 41.36 50.3659 40.9144C50.6358 40.4688 50.7673 39.9531 50.7436 39.4326C50.72 38.9122 50.5424 38.4105 50.2332 37.9912C49.9241 37.5719 49.4974 37.2538 49.0072 37.0774C48.517 36.9009 47.9855 36.874 47.48 37C46.8064 37.168 46.2265 37.5955 45.8668 38.1894C45.5071 38.7832 45.3968 39.4952 45.56 40.17Z" fill="#E687A3"/>
</svg>
