<svg width="100" height="100" viewBox="0 0 100 100" fill="none" xmlns="http://www.w3.org/2000/svg">
<g clip-path="url(#clip0_3113_10638)">
<path d="M60.6205 23.7795L54.7205 8.26953L43.5905 23.5795L31.4205 9.74953L27.1405 25.7895L9.64047 21.7195L20.7805 41.1895L0.480469 46.3695L19.1305 56.5795L8.69047 70.4495L27.1005 66.1895L21.8805 90.7795L42.4805 70.9995L49.0805 86.6595L59.3805 75.1195L72.4105 90.4695L74.3405 71.9195L97.0205 76.3595L81.2405 60.8195L95.7905 53.8295L82.3905 47.8095L99.2905 35.3695L76.8105 36.6595L83.8905 17.2695L68.5505 28.0395L66.8605 17.0695L60.6205 23.7795Z" fill="#6AB5D2" stroke="#1E1E1C" strokeLinecap="round" strokeLinejoin="round"/>
<path d="M70.0797 31.9397C68.6308 28.6466 66.5086 25.6933 63.8497 23.2697C58.7551 18.6069 52.0196 16.1544 45.1197 16.4497C43.3788 16.5318 41.6504 16.7864 39.9597 17.2097C34.13 18.6615 28.9813 22.0838 25.3857 26.8967C21.7901 31.7097 19.9686 37.6176 20.2297 43.6197C20.3151 45.3609 20.573 47.0894 20.9997 48.7797C21.3531 50.2264 21.835 51.6387 22.4397 52.9997C23.8914 56.2882 26.0133 59.2378 28.6697 61.6597C31.8359 64.5733 35.6776 66.6529 39.8483 67.7108C44.0191 68.7688 48.3875 68.7718 52.5597 67.7197C54.0132 67.3759 55.4324 66.9006 56.7997 66.2997C57.1597 66.1497 57.4997 65.9797 57.8497 65.8097L67.6397 84.1397C67.6848 84.2258 67.7467 84.3021 67.8218 84.364C67.8968 84.4259 67.9834 84.4722 68.0766 84.5001C68.1697 84.528 68.2675 84.5371 68.3642 84.5267C68.4609 84.5163 68.5546 84.4867 68.6397 84.4397C68.9997 84.2497 70.4997 83.4397 70.3097 83.1097L60.5197 64.7797C62.8997 63.4197 63.6597 62.0497 65.4697 60.0697C68.3834 56.9035 70.4629 53.0617 71.5209 48.891C72.5789 44.7203 72.5819 40.3518 71.5297 36.1797C71.1717 34.7265 70.6865 33.3077 70.0797 31.9397Z" fill="black"/>
<path d="M72.0006 81.9996L70.6006 82.8296C70.3903 82.937 70.1466 82.9584 69.9208 82.8893C69.695 82.8203 69.5049 82.6662 69.3906 82.4596L53.3906 52.5196L56.3906 50.8496L72.3906 80.7996C72.4455 80.9037 72.4789 81.0177 72.489 81.1349C72.499 81.2521 72.4854 81.3701 72.4491 81.482C72.4127 81.5939 72.3543 81.6973 72.2773 81.7862C72.2002 81.8751 72.1062 81.9477 72.0006 81.9996Z" fill="#9277AA" stroke="black" stroke-width="1.06" stroke-miterlimit="10"/>
<path d="M48.1003 66.0003C41.4772 65.9875 35.1 63.4895 30.2303 59.0003C27.5261 56.5398 25.3695 53.5382 23.9003 50.1903C23.2808 48.8001 22.7855 47.3578 22.4203 45.8803C21.9901 44.1602 21.7322 42.4015 21.6503 40.6303C21.4974 37.0035 22.0966 33.3843 23.4103 30.0003C24.6011 26.9205 26.3542 24.0891 28.5803 21.6503C31.0445 18.9459 34.0494 16.7893 37.4003 15.3203C40.4307 13.9743 43.6874 13.211 47.0003 13.0703C47.3903 13.0703 47.7803 13.0703 48.1803 13.0703C54.7768 13.0765 61.1328 15.5482 66.0003 20.0003C68.7045 22.4608 70.8612 25.4624 72.3303 28.8103C72.9499 30.2005 73.4451 31.6428 73.8103 33.1203C74.2405 34.8404 74.4985 36.5991 74.5803 38.3703C74.7439 42.0205 74.1444 45.6648 72.8203 49.0703C71.6296 52.1501 69.8764 54.9816 67.6503 57.4203C65.1878 60.1223 62.1867 62.2786 58.8403 63.7503C57.4472 64.3624 56.0056 64.8575 54.5303 65.2303C52.8099 65.6573 51.0512 65.9119 49.2803 65.9903L48.1003 66.0003Z" fill="#E687A3"/>
<path d="M48.141 13.4791C51.3424 13.4788 54.516 14.0721 57.501 15.2291C63.9493 17.7236 69.1432 22.6765 71.941 28.9991C72.5419 30.3729 73.0269 31.7946 73.391 33.2491C73.8159 34.9391 74.0672 36.6681 74.141 38.4091C74.3038 42.0004 73.7181 45.5863 72.421 48.9391C71.2445 51.9629 69.5188 54.743 67.331 57.1391C64.9074 59.798 61.9541 61.9202 58.661 63.3691C57.2941 63.9788 55.875 64.4641 54.421 64.8191C52.7304 65.2424 51.0019 65.497 49.261 65.5791C48.871 65.5791 48.481 65.5791 48.101 65.5791C44.8964 65.5796 41.7194 64.9863 38.731 63.8291C35.7034 62.6543 32.9197 60.9285 30.521 58.7391C27.8652 56.3128 25.7436 53.3601 24.291 50.0691C23.6886 48.6994 23.2035 47.2809 22.841 45.8291C22.4161 44.1391 22.1648 42.4102 22.091 40.6691C21.9282 37.0779 22.5139 33.492 23.811 30.1391C24.9875 27.1153 26.7132 24.3352 28.901 21.9391C31.3266 19.2825 34.2794 17.1607 37.571 15.7091C38.9379 15.0995 40.357 14.6142 41.811 14.2591C43.5117 13.8353 45.2502 13.5807 47.001 13.4991C47.391 13.4991 47.781 13.4991 48.171 13.4991M48.171 12.6291C47.771 12.6291 47.371 12.6291 46.971 12.6291C45.1694 12.7094 43.3804 12.9707 41.631 13.4091C40.132 13.7871 38.667 14.2888 37.251 14.9091C33.8327 16.4011 30.7663 18.5952 28.251 21.3491C25.9896 23.8253 24.2092 26.701 23.001 29.8291C20.4322 36.4902 20.6134 43.8988 23.5049 50.4263C26.3964 56.9538 31.7616 62.066 38.421 64.6391C41.5064 65.8415 44.7896 66.4554 48.101 66.4491C48.501 66.4491 48.901 66.4491 49.301 66.4491C51.0994 66.3689 52.8851 66.1076 54.631 65.6691C56.1272 65.2842 57.5889 64.7758 59.001 64.1491C62.4193 62.6572 65.4857 60.463 68.001 57.7091C70.266 55.2338 72.0498 52.3581 73.261 49.2291C74.5934 45.7635 75.1861 42.0575 75.001 38.3491C74.924 36.5445 74.666 34.7522 74.231 32.9991C73.8623 31.4974 73.3603 30.0316 72.731 28.6191C70.6188 23.8597 67.1716 19.815 62.8071 16.9752C58.4425 14.1353 53.3481 12.6222 48.141 12.6191L48.171 12.6291Z" fill="black"/>
<path d="M45.0002 38C45.9516 38.5808 46.9562 39.0697 48.0002 39.46C44.8492 36.6681 42.7764 32.86 42.1424 28.698C41.5084 24.536 42.3533 20.2835 44.5302 16.68C45.2344 15.5326 46.0627 14.4661 47.0002 13.5C45.2595 13.5836 43.5312 13.8381 41.8402 14.26C40.3862 14.615 38.9672 15.1003 37.6002 15.71C35.9714 19.6972 35.8221 24.1355 37.1791 28.2232C38.5362 32.3109 41.3102 35.7786 45.0002 38Z" fill="#F2EE98"/>
<path d="M47.0003 36.2505C47.2676 37.3403 47.6394 38.4019 48.1103 39.4205C47.9686 36.9991 48.3164 34.5739 49.1329 32.2899C49.9494 30.0059 51.2179 27.9099 52.8626 26.1271C54.5072 24.3443 56.4943 22.9113 58.7052 21.9136C60.9161 20.9159 63.3054 20.3741 65.7303 20.3205C63.3332 18.129 60.5491 16.403 57.5203 15.2305C53.5467 16.902 50.302 19.9397 48.3726 23.7948C46.4433 27.6498 45.9565 32.0679 47.0003 36.2505Z" fill="#F2EE98"/>
<path d="M48.1699 39.4297C50.9775 36.2845 54.7965 34.2199 58.9658 33.5935C63.135 32.9671 67.3921 33.8183 70.9999 35.9997C72.1455 36.6911 73.2119 37.5059 74.1799 38.4297C74.1061 36.6887 73.8548 34.9597 73.4299 33.2697C73.054 31.8071 72.5555 30.3787 71.9399 28.9997C67.9495 27.3717 63.5089 27.2227 59.4183 28.5795C55.3277 29.9363 51.8564 32.7097 49.6299 36.3997C49.0552 37.3649 48.5666 38.3788 48.1699 39.4297Z" fill="#F2EE98"/>
<path d="M66.7902 53.1604C67.1186 54.4695 67.2997 55.8111 67.3302 57.1604C69.518 54.7643 71.2437 51.9842 72.4202 48.9604C70.751 44.9891 67.7172 41.7453 63.8663 39.8143C60.0154 37.8834 55.6012 37.3926 51.4202 38.4304C50.329 38.7038 49.2646 39.0753 48.2402 39.5404C52.4332 39.3012 56.5785 40.53 59.9638 43.0156C63.349 45.5011 65.7628 49.0883 66.7902 53.1604Z" fill="#F2EE98"/>
<path d="M49.2602 65.5598C51.0011 65.4777 52.7296 65.2231 54.4202 64.7998C55.8742 64.4448 57.2933 63.9595 58.6602 63.3498C60.3006 59.3604 60.4538 54.9146 59.092 50.8217C57.7301 46.7289 54.9438 43.2611 51.2402 41.0498C50.291 40.4652 49.286 39.9761 48.2402 39.5898C51.3913 42.3817 53.4641 46.1898 54.0981 50.3518C54.7321 54.5138 53.8871 58.7663 51.7102 62.3698C51.013 63.5198 50.1914 64.5895 49.2602 65.5598Z" fill="#F2EE98"/>
<path d="M30.5195 58.7402C32.9182 60.9295 35.7019 62.6553 38.7295 63.8302C42.699 62.1591 45.9406 59.1246 47.8696 55.2739C49.7986 51.4232 50.288 47.0099 49.2495 42.8302C48.9822 41.7403 48.6105 40.6787 48.1395 39.6602C48.2883 42.0832 47.9455 44.5112 47.1316 46.7983C46.3177 49.0854 45.0496 51.1842 43.4036 52.9685C41.7575 54.7528 39.7676 56.1857 37.5534 57.181C35.3393 58.1763 32.9467 58.7135 30.5195 58.7602V58.7402Z" fill="#F2EE98"/>
<path d="M22.8398 45.8302C23.2024 47.282 23.6874 48.7004 24.2898 50.0702C28.2809 51.7014 32.7238 51.8511 36.8156 50.4921C40.9073 49.1331 44.3778 46.355 46.5998 42.6602C47.173 41.7046 47.6615 40.7008 48.0598 39.6602C45.2558 42.7972 41.4449 44.8573 37.2845 45.4853C33.1241 46.1133 28.8749 45.2697 25.2698 43.1002C24.1242 42.4088 23.0579 41.5939 22.0898 40.6702C22.1636 42.4112 22.4149 44.1402 22.8398 45.8302Z" fill="#F2EE98"/>
<path d="M23.8105 30.1404C25.4815 34.1104 28.5155 37.3529 32.3659 39.2836C36.2162 41.2143 40.6296 41.7061 44.8105 40.6704C45.9052 40.3975 46.9729 40.026 48.0005 39.5604C43.8005 39.8 39.6485 38.5666 36.2604 36.073C32.8723 33.5794 30.4604 29.9817 29.4405 25.9004C29.1172 24.5904 28.9362 23.2493 28.9005 21.9004C26.7086 24.3084 24.9827 27.1024 23.8105 30.1404Z" fill="#F2EE98"/>
<path d="M45.56 40.17C45.6825 40.6764 45.9525 41.135 46.336 41.4876C46.7194 41.8403 47.199 42.0711 47.7138 42.1509C48.2286 42.2306 48.7555 42.1557 49.2277 41.9355C49.6998 41.7154 50.096 41.36 50.3659 40.9144C50.6358 40.4688 50.7673 39.9531 50.7436 39.4326C50.72 38.9122 50.5424 38.4105 50.2332 37.9912C49.9241 37.5719 49.4974 37.2538 49.0072 37.0774C48.517 36.9009 47.9855 36.874 47.48 37C46.8064 37.168 46.2265 37.5955 45.8668 38.1894C45.5071 38.7832 45.3968 39.4952 45.56 40.17Z" fill="#E687A3"/>
</g>
<defs>
<clipPath id="clip0_3113_10638">
<rect width="100" height="100" fill="white"/>
</clipPath>
</defs>
</svg>
