<svg width="33" height="32" viewBox="0 0 33 32" fill="none" xmlns="http://www.w3.org/2000/svg">
<path d="M20.3889 8.38477H6.76304C4.89458 8.38477 3.37988 9.89935 3.37988 11.7676V21.8406C3.37988 23.7089 4.89458 25.2235 6.76304 25.2235H20.3889C22.2574 25.2235 23.7721 23.7089 23.7721 21.8406V11.7676C23.7721 9.89935 22.2574 8.38477 20.3889 8.38477Z" fill="black"/>
<path d="M28.0735 12.1344L26.19 13.6324C25.9349 13.8352 25.7289 14.0929 25.5872 14.3864C25.4456 14.6798 25.3721 15.0016 25.3721 15.3274V18.8889C25.3721 19.2654 25.4703 19.6354 25.6569 19.9624C25.8435 20.2894 26.1122 20.5621 26.4363 20.7536L28.1494 21.7659C28.2504 21.826 28.3657 21.8583 28.4832 21.8594C28.6008 21.8605 28.7166 21.8304 28.8188 21.7722C28.9209 21.7139 29.0058 21.6297 29.0647 21.5279C29.1237 21.4262 29.1547 21.3107 29.1545 21.1931V12.6548C29.1547 12.5294 29.1195 12.4064 29.0529 12.3001C28.9862 12.1938 28.8909 12.1085 28.7778 12.0541C28.6649 11.9997 28.5387 11.9783 28.4141 11.9926C28.2894 12.0068 28.1713 12.056 28.0735 12.1344Z" fill="black"/>
<path d="M24.5145 6.83789H4.94988C4.72138 6.83789 4.53613 7.02311 4.53613 7.25159V23.2629C4.53613 23.4914 4.72138 23.6766 4.94988 23.6766H24.5145C24.7431 23.6766 24.9284 23.4914 24.9284 23.2629V7.25159C24.9284 7.02311 24.7431 6.83789 24.5145 6.83789Z" fill="#9277AA" stroke="black" stroke-width="1.5" stroke-miterlimit="10"/>
<path d="M29.3134 20.2196L27.6003 19.2075C27.2761 19.0158 27.0076 18.7432 26.8209 18.4161C26.6343 18.0891 26.5361 17.7192 26.5361 17.3426V13.7818C26.5361 13.4558 26.6097 13.134 26.7514 12.8405C26.893 12.5469 27.099 12.2891 27.3541 12.0862L29.2374 10.5882C29.3354 10.5102 29.4533 10.4615 29.5777 10.4475C29.702 10.4336 29.8278 10.455 29.9406 10.5093C30.0534 10.5637 30.1485 10.6488 30.215 10.7547C30.2816 10.8608 30.3169 10.9834 30.3168 11.1086V19.6468C30.3169 19.7642 30.2859 19.8794 30.227 19.981C30.1681 20.0824 30.0834 20.1665 29.9816 20.2246C29.8796 20.2828 29.7641 20.3131 29.6468 20.3122C29.5295 20.3113 29.4144 20.2793 29.3134 20.2196Z" fill="#9277AA" stroke="black" stroke-width="1.5" stroke-miterlimit="10"/>
<path d="M11.1459 16.6684C12.0134 16.6684 12.7165 15.9653 12.7165 15.0979C12.7165 14.2304 12.0134 13.5273 11.1459 13.5273C10.2784 13.5273 9.5752 14.2304 9.5752 15.0979C9.5752 15.9653 10.2784 16.6684 11.1459 16.6684Z" fill="#F2EE98"/>
<path d="M17.8646 16.6684C18.7321 16.6684 19.4353 15.9653 19.4353 15.0979C19.4353 14.2304 18.7321 13.5273 17.8646 13.5273C16.9971 13.5273 16.2939 14.2304 16.2939 15.0979C16.2939 15.9653 16.9971 16.6684 17.8646 16.6684Z" fill="#F2EE98"/>
</svg>
