<svg width="49" height="49" viewBox="0 0 49 49" fill="none" xmlns="http://www.w3.org/2000/svg">
<path d="M29.2856 14.2656H10.9758C8.46506 14.2656 6.42969 16.3008 6.42969 18.8113V32.347C6.42969 34.8575 8.46506 36.8927 10.9758 36.8927H29.2856C31.7964 36.8927 33.8317 34.8575 33.8317 32.347V18.8113C33.8317 16.3008 31.7964 14.2656 29.2856 14.2656Z" fill="black"/>
<path d="M39.6183 19.3058L37.0874 21.3187C36.7446 21.5911 36.4678 21.9375 36.2774 22.3318C36.087 22.7262 35.9883 23.1585 35.9883 23.5963V28.3821C35.9883 28.888 36.1202 29.3852 36.371 29.8246C36.6218 30.264 36.9828 30.6304 37.4183 30.8878L39.7203 32.248C39.8561 32.3289 40.0109 32.3722 40.1688 32.3737C40.3269 32.3752 40.4825 32.3348 40.6198 32.2565C40.757 32.1782 40.871 32.065 40.9503 31.9283C41.0296 31.7916 41.0712 31.6363 41.0709 31.4783V20.005C41.0712 19.8365 41.0239 19.6712 40.9344 19.5284C40.8448 19.3855 40.7167 19.271 40.5648 19.1978C40.413 19.1247 40.2434 19.096 40.076 19.1151C39.9085 19.1342 39.7497 19.2004 39.6183 19.3058Z" fill="black"/>
<path d="M34.8343 12.1875H8.54426C8.2372 12.1875 7.98828 12.4364 7.98828 12.7434V34.2586C7.98828 34.5656 8.2372 34.8146 8.54426 34.8146H34.8343C35.1414 34.8146 35.3903 34.5656 35.3903 34.2586V12.7434C35.3903 12.4364 35.1414 12.1875 34.8343 12.1875Z" fill="#9277AA" stroke="black" stroke-width="1.5" stroke-miterlimit="10"/>
<path d="M41.2788 30.1701L38.9769 28.81C38.5413 28.5525 38.1804 28.1861 37.9296 27.7466C37.6788 27.3072 37.5469 26.8101 37.5469 26.3041V21.5192C37.5469 21.0811 37.6457 20.6488 37.8361 20.2543C38.0264 19.8599 38.3032 19.5134 38.646 19.2407L41.1768 17.2278C41.3083 17.1231 41.4669 17.0575 41.634 17.0388C41.8011 17.02 41.9701 17.0488 42.1217 17.1218C42.2732 17.195 42.401 17.3093 42.4904 17.4516C42.5798 17.5941 42.6272 17.7589 42.6271 17.9271V29.4004C42.6272 29.558 42.5856 29.7129 42.5065 29.8493C42.4273 29.9857 42.3135 30.0986 42.1767 30.1768C42.0397 30.255 41.8845 30.2956 41.7268 30.2944C41.5692 30.2932 41.4145 30.2503 41.2788 30.1701Z" fill="#9277AA" stroke="black" stroke-width="1.5" stroke-miterlimit="10"/>
<path d="M16.8645 25.3985C18.0302 25.3985 18.9751 24.4537 18.9751 23.2882C18.9751 22.1225 18.0302 21.1777 16.8645 21.1777C15.6989 21.1777 14.7539 22.1225 14.7539 23.2882C14.7539 24.4537 15.6989 25.3985 16.8645 25.3985Z" fill="#F2EE98"/>
<path d="M25.8918 25.3985C27.0575 25.3985 28.0025 24.4537 28.0025 23.2882C28.0025 22.1225 27.0575 21.1777 25.8918 21.1777C24.7261 21.1777 23.7812 22.1225 23.7812 23.2882C23.7812 24.4537 24.7261 25.3985 25.8918 25.3985Z" fill="#F2EE98"/>
<path fill-rule="evenodd" clip-rule="evenodd" d="M24.5 49C38.031 49 49 38.031 49 24.5C49 10.969 38.031 0 24.5 0C10.969 0 0 10.969 0 24.5C0 38.031 10.969 49 24.5 49ZM8.25575 37.9199C5.24137 34.2752 3.43 29.5991 3.43 24.5C3.43 12.8634 12.8634 3.43 24.5 3.43C29.3745 3.43 33.8625 5.08531 37.4323 7.86449L8.25575 37.9199ZM10.9275 40.6168C14.5938 43.7075 19.3294 45.57 24.5 45.57C36.1366 45.57 45.57 36.1366 45.57 24.5C45.57 19.2398 43.6424 14.4298 40.455 10.7378L10.9275 40.6168Z" fill="#AE8994"/>
</svg>
