<svg width="28" height="28" viewBox="0 0 28 28" fill="none" xmlns="http://www.w3.org/2000/svg">
<path d="M22.789 24.21C22.6106 24.3763 22.4012 24.5057 22.1728 24.5909C21.9444 24.6762 21.7014 24.7156 21.4577 24.7069C21.2141 24.6983 20.9745 24.6417 20.7527 24.5404C20.5309 24.4391 20.3313 24.2951 20.1652 24.1167L14.3301 17.8507L17.3757 15.6914L22.8824 21.5861C23.0485 21.7645 23.178 21.9739 23.2633 22.2024C23.3485 22.4308 23.3879 22.6737 23.3793 22.9174C23.3706 23.1611 23.314 23.4007 23.2127 23.6224C23.1115 23.8442 22.9675 24.0439 22.789 24.21Z" fill="black"/>
<path d="M12.1844 3.82813C10.6213 3.82813 9.09332 4.29164 7.79367 5.16005C6.49399 6.02846 5.48102 7.26279 4.88284 8.70686C4.28468 10.151 4.12816 11.7401 4.43311 13.2731C4.73806 14.8062 5.49076 16.2144 6.59604 17.3196C7.70132 18.425 9.10953 19.1777 10.6426 19.4826C12.1756 19.7876 13.7647 19.631 15.2088 19.0328C16.6529 18.4347 17.8872 17.4217 18.7556 16.122C19.6241 14.8224 20.0876 13.2944 20.0876 11.7313C20.0876 10.6934 19.8833 9.66567 19.4862 8.70679C19.089 7.74784 18.5069 6.87659 17.773 6.14271C17.0391 5.40881 16.1678 4.82667 15.2089 4.42954C14.25 4.03239 13.2223 3.82803 12.1844 3.82813ZM12.1844 18.0794C10.9528 18.0791 9.74883 17.7136 8.72483 17.0292C7.70083 16.3447 6.90277 15.372 6.43156 14.234C5.96035 13.0961 5.83713 11.8439 6.07748 10.6359C6.31784 9.42791 6.91098 8.3183 7.78188 7.44735C8.65283 6.57645 9.76244 5.98331 10.9704 5.74295C12.1784 5.5026 13.4306 5.62582 14.5685 6.09703C15.7065 6.56824 16.6792 7.3663 17.3637 8.3903C18.0481 9.4143 18.4136 10.6182 18.4139 11.8499C18.4142 12.6681 18.2533 13.4782 17.9403 14.2342C17.6273 14.99 17.1685 15.6769 16.59 16.2554C16.0114 16.8339 15.3245 17.2928 14.5687 17.6057C13.8128 17.9187 13.0026 18.0796 12.1844 18.0794Z" fill="black"/>
<path d="M23.2934 21.1074L18.8183 16.3025C20.0716 14.839 20.7453 12.967 20.712 11.0405C20.6786 9.11406 19.9406 7.26649 18.6374 5.84727C17.3342 4.42803 15.5562 3.53544 13.6396 3.33826C11.7229 3.14108 9.80033 3.65298 8.23549 4.77718C6.67068 5.90138 5.57196 7.55996 5.1471 9.43933C4.72223 11.3187 5.00067 13.2886 5.92976 14.9766C6.85885 16.6646 8.37423 17.9536 10.1893 18.6002C12.0044 19.2466 13.9935 19.2056 15.7804 18.4849L20.5727 23.6365C20.9126 23.9764 21.3711 24.1714 21.8517 24.1802C22.3323 24.189 22.7977 24.0111 23.1498 23.6839C23.5019 23.3567 23.7135 22.9056 23.7398 22.4256C23.7662 21.9456 23.6055 21.4741 23.2913 21.1102L23.2934 21.1074ZM15.0351 17.0941C14.3292 17.3661 13.5791 17.5051 12.8225 17.5039C11.2639 17.507 9.7604 16.9273 8.60742 15.8785C7.45437 14.8296 6.73522 13.3877 6.59112 11.8357C6.44704 10.2837 6.88846 8.73392 7.82868 7.49077C8.76889 6.24767 10.14 5.40101 11.6725 5.11714C13.2051 4.83327 14.7885 5.13272 16.1116 5.95664C17.4346 6.78057 18.4018 8.06943 18.8231 9.57006C19.2444 11.0707 19.0894 12.6746 18.3885 14.0668C17.6876 15.459 16.4916 16.5388 15.0351 17.0941Z" fill="#E687A3" stroke="black" stroke-miterlimit="10"/>
</svg>
