<svg width="100" height="100" viewBox="0 0 100 100" fill="none" xmlns="http://www.w3.org/2000/svg">
<g clip-path="url(#clip0_3113_33703)">
<path d="M60.6205 23.7795L54.7205 8.26953L43.5905 23.5795L31.4205 9.74953L27.1405 25.7895L9.64047 21.7195L20.7805 41.1895L0.480469 46.3695L19.1305 56.5795L8.69047 70.4495L27.1005 66.1895L21.8805 90.7795L42.4805 70.9995L49.0805 86.6595L59.3805 75.1195L72.4105 90.4695L74.3405 71.9195L97.0205 76.3595L81.2405 60.8195L95.7905 53.8295L82.3905 47.8095L99.2905 35.3695L76.8105 36.6595L83.8905 17.2695L68.5505 28.0395L66.8605 17.0695L60.6205 23.7795Z" fill="#6AB5D2" stroke="#1E1E1C" strokeLinecap="round" strokeLinejoin="round"/>
<path d="M79.4813 47.7402V55.7402C79.3148 56.1031 79.0618 56.4196 78.7445 56.662C78.4272 56.9043 78.0553 57.0651 77.6613 57.1302C75.6613 57.5802 73.7613 58.0802 71.8113 58.5402C71.6418 58.5626 71.4822 58.6328 71.3512 58.7426C71.2201 58.8524 71.123 58.9972 71.0713 59.1602C70.7213 60.1602 70.3213 61.0402 69.9013 61.9602C69.8258 62.0799 69.7858 62.2186 69.7858 62.3602C69.7858 62.5017 69.8258 62.6404 69.9013 62.7602C70.8213 64.2735 71.7347 65.7902 72.6413 67.3102C72.8056 67.5021 72.9293 67.7254 73.0049 67.9665C73.0805 68.2076 73.1065 68.4615 73.0813 68.7129C73.0561 68.9643 72.9801 69.208 72.8581 69.4292C72.7361 69.6505 72.5705 69.8447 72.3713 70.0002L67.8913 74.4702C67.7383 74.6754 67.5454 74.8476 67.3241 74.9765C67.1028 75.1053 66.8578 75.188 66.6038 75.2198C66.3497 75.2516 66.0919 75.2316 65.8457 75.1612C65.5996 75.0909 65.3702 74.9714 65.1713 74.8102C63.658 73.9102 62.1513 73.0068 60.6513 72.1002C60.5308 72.0269 60.3924 71.9881 60.2513 71.9881C60.1102 71.9881 59.9719 72.0269 59.8513 72.1002C58.8513 72.5602 57.8513 72.9602 56.8013 73.4302C56.6784 73.4861 56.5681 73.5663 56.477 73.6659C56.3859 73.7656 56.3159 73.8827 56.2713 74.0102C55.7613 75.9202 55.2713 77.8502 54.8413 79.7802C54.7946 80.2069 54.6396 80.6146 54.3911 80.9646C54.1426 81.3146 53.8088 81.5953 53.4213 81.7802H45.4213C45.0339 81.5953 44.7001 81.3146 44.4516 80.9646C44.2031 80.6146 44.0481 80.2069 44.0013 79.7802C43.5713 77.8702 43.0713 75.9702 42.6113 74.0602C42.5816 73.9019 42.509 73.7547 42.4015 73.6348C42.2939 73.5149 42.1555 73.4268 42.0013 73.3802C41.0013 73.0202 40.0913 72.6102 39.1513 72.1802C39.0141 72.0919 38.8545 72.0449 38.6913 72.0449C38.5282 72.0449 38.3685 72.0919 38.2313 72.1802C36.7913 73.0702 35.3213 73.9302 33.8713 74.8002C33.6694 74.9671 33.4353 75.0907 33.1836 75.1634C32.9319 75.236 32.6679 75.256 32.4081 75.2222C32.1483 75.1885 31.8982 75.1016 31.6734 74.9671C31.4486 74.8325 31.2539 74.6532 31.1013 74.4402L26.7013 70.0602C26.4789 69.9026 26.2922 69.6999 26.1534 69.4654C26.0146 69.2308 25.9267 68.9696 25.8956 68.6988C25.8645 68.4281 25.8907 68.1538 25.9727 67.8938C26.0547 67.6339 26.1905 67.3941 26.3713 67.1902C27.2313 65.7602 28.0913 64.3202 28.9613 62.8902C29.046 62.7762 29.0967 62.6405 29.1073 62.4989C29.1179 62.3572 29.0881 62.2155 29.0213 62.0902C28.5713 61.0902 28.1813 60.0902 27.7213 59.0902C27.6654 58.9673 27.5852 58.8569 27.4856 58.7658C27.3859 58.6747 27.2688 58.6048 27.1413 58.5602C25.2213 58.0502 23.3013 57.5602 21.3613 57.1302C20.9346 57.0834 20.5269 56.9284 20.1769 56.6799C19.8269 56.4314 19.5462 56.0976 19.3613 55.7102V47.7102C19.5263 47.3462 19.7789 47.0288 20.0965 46.7863C20.4141 46.5437 20.7868 46.3836 21.1813 46.3202C23.1313 45.8702 25.0713 45.3202 27.0313 44.9102C27.2091 44.8826 27.375 44.8035 27.5083 44.6826C27.6416 44.5617 27.7365 44.4044 27.7813 44.2302C28.0713 43.4302 28.4013 42.6402 28.7813 41.8602C28.8602 41.7194 28.8975 41.5591 28.8886 41.3979C28.8797 41.2368 28.8252 41.0815 28.7313 40.9502C27.7313 39.3002 26.7313 37.6402 25.7313 35.9502C25.5693 35.7511 25.449 35.5215 25.3777 35.2749C25.3064 35.0283 25.2855 34.7699 25.3163 34.5151C25.3471 34.2602 25.429 34.0142 25.557 33.7918C25.685 33.5693 25.8565 33.3749 26.0613 33.2202L30.5413 28.7502C30.6944 28.5449 30.8873 28.3727 31.1086 28.2439C31.3298 28.1151 31.5748 28.0323 31.8289 28.0006C32.0829 27.9688 32.3408 27.9887 32.5869 28.0591C32.8331 28.1295 33.0625 28.2489 33.2613 28.4102C34.8513 29.3602 36.4413 30.3102 38.0213 31.2802C38.1627 31.3894 38.3337 31.4535 38.5121 31.4642C38.6904 31.4749 38.8679 31.4317 39.0213 31.3402C40.0213 30.8802 41.0213 30.4502 42.0213 30.0602C42.1872 30.0135 42.336 29.9197 42.4496 29.7901C42.5632 29.6605 42.6368 29.5008 42.6613 29.3302C43.1413 27.3302 43.6613 25.2502 44.1713 23.2202C44.2338 22.7499 44.4783 22.323 44.8524 22.0313C45.2264 21.7395 45.7 21.6063 46.1713 21.6602H52.6813C53.1567 21.6094 53.633 21.7477 54.0072 22.0452C54.3815 22.3428 54.6236 22.7756 54.6813 23.2502C55.2013 25.2502 55.7047 27.2868 56.1913 29.3602C56.2185 29.5191 56.2889 29.6675 56.3947 29.7892C56.5005 29.9109 56.6377 30.0012 56.7913 30.0502C57.7913 30.4002 58.6813 30.7902 59.5913 31.2202C59.7453 31.3117 59.9236 31.354 60.1023 31.3415C60.281 31.329 60.4516 31.2622 60.5913 31.1502C62.1013 30.2302 63.5913 29.3202 65.1613 28.4202C65.3575 28.2559 65.5854 28.1336 65.8308 28.0609C66.0761 27.9883 66.3338 27.9667 66.5879 27.9977C66.8419 28.0286 67.0869 28.1113 67.3077 28.2408C67.5284 28.3702 67.7203 28.5436 67.8713 28.7502L72.3113 33.1802C72.531 33.3324 72.716 33.5293 72.8544 33.7579C72.9928 33.9865 73.0814 34.2417 73.1144 34.5069C73.1475 34.7721 73.1242 35.0413 73.0461 35.2969C72.968 35.5525 72.8369 35.7887 72.6613 35.9902C71.7413 37.5102 70.8413 38.9902 69.9113 40.5402C69.8283 40.6682 69.784 40.8176 69.784 40.9702C69.784 41.1228 69.8283 41.2721 69.9113 41.4002C70.3413 42.4002 70.7213 43.3402 71.1613 44.2902C71.2161 44.415 71.2958 44.5272 71.3956 44.6201C71.4953 44.7129 71.613 44.7844 71.7413 44.8302C73.6613 45.3302 75.5913 45.8302 77.5213 46.2502C77.9469 46.3138 78.3496 46.4837 78.6922 46.7441C79.0348 47.0045 79.3062 47.3471 79.4813 47.7402ZM49.3613 64.0002C51.7924 64.012 54.1725 63.3026 56.2003 61.9616C58.2282 60.6206 59.8127 58.7082 60.7536 56.4665C61.6944 54.2248 61.9493 51.7544 61.4859 49.3678C61.0225 46.9813 59.8618 44.7857 58.1504 43.059C56.439 41.3322 54.254 40.1518 51.8716 39.6671C49.4893 39.1824 47.0167 39.4151 44.7667 40.3358C42.5166 41.2566 40.5902 42.824 39.2311 44.8397C37.872 46.8555 37.1412 49.229 37.1313 51.6602C37.118 54.918 38.3988 58.0478 40.6921 60.3617C42.9854 62.6756 46.1035 63.9843 49.3613 64.0002Z" fill="black"/>
<path d="M82.0001 44.9384V52.9384C81.8322 53.3003 81.5788 53.6159 81.2617 53.8581C80.9446 54.1002 80.5734 54.2616 80.1801 54.3284C78.1801 54.7784 76.2801 55.3284 74.3301 55.7384C74.1614 55.763 74.0029 55.834 73.8722 55.9435C73.7416 56.053 73.6439 56.1966 73.5901 56.3584C73.2401 57.3584 72.8401 58.2384 72.4201 59.1584C72.3443 59.2762 72.304 59.4133 72.304 59.5534C72.304 59.6935 72.3443 59.8306 72.4201 59.9484C73.3501 61.4684 74.2501 62.9484 75.1601 64.5084C75.3265 64.7042 75.4508 64.9322 75.5252 65.1782C75.5997 65.4242 75.6226 65.6828 75.5925 65.9381C75.5625 66.1933 75.4802 66.4396 75.3507 66.6616C75.2213 66.8836 75.0474 67.0766 74.8401 67.2284L70.3601 71.6984C70.207 71.9036 70.0141 72.0758 69.7928 72.2047C69.5716 72.3335 69.3266 72.4162 69.0725 72.448C68.8185 72.4798 68.5606 72.4599 68.3145 72.3895C68.0683 72.3191 67.8389 72.1996 67.6401 72.0384C66.1267 71.1384 64.6201 70.2351 63.1201 69.3284C63.0072 69.245 62.8726 69.1959 62.7324 69.187C62.5923 69.1781 62.4526 69.2099 62.3301 69.2784C61.3301 69.7384 60.3301 70.1384 59.2701 70.6084C59.0269 70.7235 58.8372 70.9275 58.7401 71.1784C58.2401 73.0984 57.7401 75.0284 57.3101 76.9584C57.2652 77.3857 57.1109 77.7942 56.8622 78.1445C56.6135 78.4948 56.2787 78.7751 55.8901 78.9584H47.8901C47.5026 78.7736 47.1688 78.4928 46.9203 78.1428C46.6718 77.7928 46.5168 77.3851 46.4701 76.9584C46.0401 75.0484 45.5401 73.1484 45.0801 71.2384C45.0537 71.0787 44.9823 70.9299 44.8742 70.8095C44.7661 70.689 44.6259 70.6019 44.4701 70.5584C43.5101 70.1917 42.5601 69.7917 41.6201 69.3584C41.4821 69.2724 41.3227 69.2268 41.1601 69.2268C40.9975 69.2268 40.8381 69.2724 40.7001 69.3584C39.2601 70.2484 37.8001 71.1184 36.3401 71.9784C36.1388 72.1458 35.9052 72.2701 35.6539 72.3435C35.4026 72.4169 35.1388 72.4379 34.8791 72.405C34.6193 72.3722 34.369 72.2863 34.1439 72.1527C33.9187 72.0191 33.7234 71.8406 33.5701 71.6284L29.1701 67.2384C28.9492 67.0808 28.7639 66.8786 28.6261 66.6449C28.4882 66.4112 28.401 66.1512 28.3699 65.8817C28.3388 65.6122 28.3645 65.3391 28.4455 65.0802C28.5265 64.8212 28.6609 64.5821 28.8401 64.3784C29.7001 62.9384 30.5601 61.4984 31.4401 60.0684C31.5211 59.9525 31.5686 59.8165 31.5774 59.6754C31.5862 59.5343 31.556 59.3935 31.4901 59.2684C31.0401 58.2684 30.6501 57.2684 30.2001 56.2684C30.0847 56.0195 29.8765 55.8257 29.6201 55.7284C27.7001 55.2284 25.7701 54.7284 23.8301 54.3084C23.4034 54.2616 22.9957 54.1067 22.6457 53.8581C22.2956 53.6096 22.0149 53.2758 21.8301 52.8884V44.8884C21.9966 44.5255 22.2496 44.2089 22.5669 43.9666C22.8842 43.7243 23.2561 43.5635 23.6501 43.4984C25.6001 43.0484 27.5501 42.4984 29.5001 42.0884C29.6769 42.0584 29.8415 41.9785 29.9744 41.858C30.1073 41.7375 30.203 41.5815 30.2501 41.4084C30.5401 40.6084 30.8701 39.8084 31.2501 39.0384C31.325 38.8942 31.3591 38.7322 31.3485 38.57C31.3379 38.4078 31.2831 38.2516 31.1901 38.1184C30.1901 36.4784 29.1901 34.8184 28.1901 33.1184C28.0264 32.9214 27.9045 32.6931 27.8317 32.4475C27.7589 32.202 27.7368 31.9441 27.7668 31.6898C27.7967 31.4354 27.878 31.1897 28.0058 30.9677C28.1336 30.7457 28.3051 30.552 28.5101 30.3984L33.0001 25.9984C33.1531 25.7931 33.3461 25.6209 33.5673 25.4921C33.7886 25.3633 34.0336 25.2805 34.2876 25.2488C34.5417 25.217 34.7995 25.2369 35.0457 25.3073C35.2918 25.3777 35.5212 25.4971 35.7201 25.6584C37.3101 26.6084 38.9001 27.5584 40.4901 28.5284C40.6321 28.6364 40.8029 28.6997 40.981 28.7104C41.159 28.7211 41.3362 28.6786 41.4901 28.5884C42.4901 28.1184 43.4901 27.6984 44.4901 27.3084C44.6529 27.2579 44.7983 27.1628 44.9097 27.0337C45.0211 26.9046 45.094 26.7469 45.1201 26.5784C45.6067 24.5384 46.1101 22.5017 46.6301 20.4684C46.6901 19.997 46.934 19.5685 47.3086 19.2763C47.6833 18.984 48.1583 18.8518 48.6301 18.9084H55.1401C55.3794 18.8747 55.623 18.889 55.8567 18.9505C56.0904 19.012 56.3096 19.1194 56.5013 19.2665C56.6931 19.4136 56.8536 19.5974 56.9736 19.8072C57.0936 20.0169 57.1706 20.2485 57.2001 20.4884C57.7134 22.5284 58.2167 24.5684 58.7101 26.6084C58.7321 26.7682 58.8008 26.9179 58.9075 27.0389C59.0142 27.1598 59.1543 27.2466 59.3101 27.2884C60.2601 27.6484 61.1901 28.0384 62.1101 28.4684C62.2649 28.5572 62.4427 28.598 62.6207 28.5855C62.7988 28.573 62.9691 28.5079 63.1101 28.3984L67.6801 25.6584C67.8778 25.4944 68.107 25.3726 68.3535 25.3006C68.6001 25.2286 68.8588 25.2079 69.1137 25.2398C69.3685 25.2716 69.6142 25.3554 69.8354 25.4859C70.0567 25.6163 70.2488 25.7908 70.4001 25.9984C71.8801 27.465 73.3567 28.9417 74.8301 30.4284C75.0495 30.5796 75.2344 30.7756 75.3727 31.0033C75.511 31.2311 75.5996 31.4855 75.6326 31.7499C75.6657 32.0143 75.6424 32.2828 75.5645 32.5376C75.4865 32.7924 75.3555 33.0278 75.1801 33.2284C74.2701 34.7584 73.3601 36.2284 72.4301 37.7884C72.3493 37.9173 72.3065 38.0663 72.3065 38.2184C72.3065 38.3705 72.3493 38.5195 72.4301 38.6484C72.8701 39.6484 73.2401 40.5884 73.6801 41.5384C73.7992 41.7822 74.0065 41.9717 74.2601 42.0684C76.1801 42.5817 78.1101 43.0584 80.0501 43.4984C80.47 43.5551 80.8688 43.7168 81.2096 43.9685C81.5504 44.2202 81.8223 44.5538 82.0001 44.9384ZM51.8401 61.2184C54.2699 61.2302 56.6487 60.5215 58.6759 59.1818C60.7031 57.8421 62.2876 55.9315 63.2293 53.6915C64.171 51.4516 64.4276 48.9827 63.9666 46.597C63.5057 44.2113 62.3478 42.0157 60.6395 40.2878C58.9311 38.5599 56.7489 37.3771 54.3685 36.889C51.9882 36.4009 49.5166 36.6294 47.2661 37.5455C45.0155 38.4617 43.0871 40.0244 41.7244 42.0362C40.3617 44.048 39.6259 46.4186 39.6101 48.8484C39.6009 50.4636 39.9099 52.0649 40.5195 53.5607C41.1291 55.0566 42.0274 56.4177 43.1631 57.5664C44.2988 58.715 45.6496 59.6287 47.1384 60.2554C48.6272 60.882 50.2248 61.2092 51.8401 61.2184Z" fill="#F2EE98" stroke="black" stroke-width="1.17" stroke-miterlimit="10"/>
</g>
<defs>
<clipPath id="clip0_3113_33703">
<rect width="100" height="100" fill="white"/>
</clipPath>
</defs>
</svg>
