<svg width="100" height="100" viewBox="0 0 100 100" fill="none" xmlns="http://www.w3.org/2000/svg">
<path d="M79.4794 47.7402V55.7402C79.3129 56.1031 79.0599 56.4196 78.7426 56.662C78.4253 56.9043 78.0533 57.0651 77.6594 57.1302C75.6594 57.5802 73.7594 58.0802 71.8094 58.5402C71.6399 58.5626 71.4803 58.6328 71.3492 58.7426C71.2182 58.8524 71.1211 58.9972 71.0694 59.1602C70.7194 60.1602 70.3194 61.0402 69.8994 61.9602C69.8239 62.0799 69.7838 62.2186 69.7838 62.3602C69.7838 62.5017 69.8239 62.6404 69.8994 62.7602C70.8194 64.2735 71.7327 65.7902 72.6394 67.3102C72.8037 67.5021 72.9274 67.7254 73.003 67.9665C73.0786 68.2076 73.1046 68.4615 73.0793 68.7129C73.0541 68.9643 72.9782 69.208 72.8562 69.4292C72.7341 69.6505 72.5685 69.8447 72.3694 70.0002L67.8894 74.4702C67.7363 74.6754 67.5434 74.8476 67.3221 74.9765C67.1009 75.1053 66.8559 75.188 66.6018 75.2198C66.3478 75.2516 66.0899 75.2316 65.8438 75.1612C65.5976 75.0909 65.3682 74.9714 65.1694 74.8102C63.656 73.9102 62.1494 73.0068 60.6494 72.1002C60.5288 72.0269 60.3905 71.9881 60.2494 71.9881C60.1083 71.9881 59.9699 72.0269 59.8494 72.1002C58.8494 72.5602 57.8494 72.9602 56.7994 73.4302C56.6764 73.4861 56.5661 73.5663 56.475 73.6659C56.3839 73.7656 56.314 73.8827 56.2694 74.0102C55.7594 75.9202 55.2694 77.8502 54.8394 79.7802C54.7926 80.2069 54.6376 80.6146 54.3891 80.9646C54.1406 81.3146 53.8068 81.5953 53.4194 81.7802H45.4194C45.0319 81.5953 44.6981 81.3146 44.4496 80.9646C44.2011 80.6146 44.0461 80.2069 43.9994 79.7802C43.5694 77.8702 43.0694 75.9702 42.6094 74.0602C42.5797 73.9019 42.5071 73.7547 42.3995 73.6348C42.292 73.5149 42.1535 73.4268 41.9994 73.3802C40.9994 73.0202 40.0894 72.6102 39.1494 72.1802C39.0122 72.0919 38.8525 72.0449 38.6894 72.0449C38.5262 72.0449 38.3666 72.0919 38.2294 72.1802C36.7894 73.0702 35.3194 73.9302 33.8694 74.8002C33.6675 74.9671 33.4334 75.0907 33.1816 75.1634C32.9299 75.236 32.6659 75.256 32.4061 75.2222C32.1463 75.1885 31.8962 75.1016 31.6714 74.9671C31.4466 74.8325 31.2519 74.6532 31.0994 74.4402L26.6994 70.0602C26.477 69.9026 26.2903 69.6999 26.1515 69.4654C26.0126 69.2308 25.9248 68.9696 25.8936 68.6988C25.8625 68.4281 25.8888 68.1538 25.9708 67.8938C26.0527 67.6339 26.1885 67.3941 26.3694 67.1902C27.2294 65.7602 28.0894 64.3202 28.9594 62.8902C29.0441 62.7762 29.0947 62.6405 29.1053 62.4989C29.116 62.3572 29.0861 62.2155 29.0194 62.0902C28.5694 61.0902 28.1794 60.0902 27.7194 59.0902C27.6635 58.9673 27.5833 58.8569 27.4836 58.7658C27.3839 58.6747 27.2668 58.6048 27.1394 58.5602C25.2194 58.0502 23.2994 57.5602 21.3594 57.1302C20.9327 57.0834 20.525 56.9284 20.1749 56.6799C19.8249 56.4314 19.5442 56.0976 19.3594 55.7102V47.7102C19.5244 47.3462 19.777 47.0288 20.0945 46.7863C20.4121 46.5437 20.7848 46.3836 21.1794 46.3202C23.1294 45.8702 25.0694 45.3202 27.0294 44.9102C27.2072 44.8826 27.373 44.8035 27.5063 44.6826C27.6396 44.5617 27.7346 44.4044 27.7794 44.2302C28.0694 43.4302 28.3994 42.6402 28.7794 41.8602C28.8583 41.7194 28.8955 41.5591 28.8866 41.3979C28.8778 41.2368 28.8232 41.0815 28.7294 40.9502C27.7294 39.3002 26.7294 37.6402 25.7294 35.9502C25.5673 35.7511 25.447 35.5215 25.3757 35.2749C25.3044 35.0283 25.2836 34.7699 25.3144 34.5151C25.3452 34.2602 25.427 34.0142 25.555 33.7918C25.683 33.5693 25.8546 33.3749 26.0594 33.2202L30.5394 28.7502C30.6924 28.5449 30.8854 28.3727 31.1066 28.2439C31.3279 28.1151 31.5729 28.0323 31.8269 28.0006C32.081 27.9688 32.3388 27.9887 32.585 28.0591C32.8311 28.1295 33.0605 28.2489 33.2594 28.4102C34.8494 29.3602 36.4394 30.3102 38.0194 31.2802C38.1608 31.3894 38.3318 31.4535 38.5101 31.4642C38.6885 31.4749 38.8659 31.4317 39.0194 31.3402C40.0194 30.8802 41.0194 30.4502 42.0194 30.0602C42.1853 30.0135 42.3341 29.9197 42.4477 29.7901C42.5613 29.6605 42.6348 29.5008 42.6594 29.3302C43.1394 27.3302 43.6594 25.2502 44.1694 23.2202C44.2318 22.7499 44.4764 22.323 44.8504 22.0313C45.2245 21.7395 45.6981 21.6063 46.1694 21.6602H52.6794C53.1548 21.6094 53.631 21.7477 54.0053 22.0452C54.3795 22.3428 54.6217 22.7756 54.6794 23.2502C55.1994 25.2502 55.7027 27.2868 56.1894 29.3602C56.2166 29.5191 56.2869 29.6675 56.3927 29.7892C56.4985 29.9109 56.6357 30.0012 56.7894 30.0502C57.7894 30.4002 58.6794 30.7902 59.5894 31.2202C59.7434 31.3117 59.9216 31.354 60.1003 31.3415C60.279 31.329 60.4496 31.2622 60.5894 31.1502C62.0994 30.2302 63.5894 29.3202 65.1594 28.4202C65.3556 28.2559 65.5834 28.1336 65.8288 28.0609C66.0742 27.9883 66.3319 27.9667 66.5859 27.9977C66.84 28.0286 67.0849 28.1113 67.3057 28.2408C67.5265 28.3702 67.7183 28.5436 67.8694 28.7502L72.3094 33.1802C72.529 33.3324 72.7141 33.5293 72.8525 33.7579C72.9909 33.9865 73.0795 34.2417 73.1125 34.5069C73.1455 34.7721 73.1222 35.0413 73.0442 35.2969C72.9661 35.5525 72.835 35.7887 72.6594 35.9902C71.7394 37.5102 70.8394 38.9902 69.9094 40.5402C69.8263 40.6682 69.7821 40.8176 69.7821 40.9702C69.7821 41.1228 69.8263 41.2721 69.9094 41.4002C70.3394 42.4002 70.7194 43.3402 71.1594 44.2902C71.2142 44.415 71.2939 44.5272 71.3936 44.6201C71.4933 44.7129 71.611 44.7844 71.7394 44.8302C73.6594 45.3302 75.5894 45.8302 77.5194 46.2502C77.945 46.3138 78.3477 46.4837 78.6903 46.7441C79.0328 47.0045 79.3042 47.3471 79.4794 47.7402ZM49.3594 64.0002C51.7905 64.012 54.1705 63.3026 56.1984 61.9616C58.2262 60.6206 59.8108 58.7082 60.7516 56.4665C61.6925 54.2248 61.9473 51.7544 61.484 49.3678C61.0206 46.9813 59.8598 44.7857 58.1484 43.059C56.4371 41.3322 54.252 40.1518 51.8697 39.6671C49.4873 39.1824 47.0148 39.4151 44.7647 40.3358C42.5147 41.2566 40.5882 42.824 39.2291 44.8397C37.87 46.8555 37.1393 49.229 37.1294 51.6602C37.1161 54.918 38.3968 58.0478 40.6901 60.3617C42.9834 62.6756 46.1016 63.9843 49.3594 64.0002Z" fill="black"/>
<path d="M82.0001 44.9384V52.9384C81.8322 53.3003 81.5788 53.6159 81.2617 53.8581C80.9446 54.1002 80.5734 54.2616 80.1801 54.3284C78.1801 54.7784 76.2801 55.3284 74.3301 55.7384C74.1614 55.763 74.0029 55.834 73.8722 55.9435C73.7416 56.053 73.6439 56.1966 73.5901 56.3584C73.2401 57.3584 72.8401 58.2384 72.4201 59.1584C72.3443 59.2762 72.304 59.4133 72.304 59.5534C72.304 59.6935 72.3443 59.8306 72.4201 59.9484C73.3501 61.4684 74.2501 62.9484 75.1601 64.5084C75.3265 64.7042 75.4508 64.9322 75.5252 65.1782C75.5997 65.4242 75.6226 65.6828 75.5925 65.9381C75.5625 66.1933 75.4802 66.4396 75.3507 66.6616C75.2213 66.8836 75.0474 67.0766 74.8401 67.2284L70.3601 71.6984C70.207 71.9036 70.0141 72.0758 69.7928 72.2047C69.5716 72.3335 69.3266 72.4162 69.0725 72.448C68.8185 72.4798 68.5606 72.4599 68.3145 72.3895C68.0683 72.3191 67.8389 72.1996 67.6401 72.0384C66.1267 71.1384 64.6201 70.2351 63.1201 69.3284C63.0072 69.245 62.8726 69.1959 62.7324 69.187C62.5923 69.1781 62.4526 69.2099 62.3301 69.2784C61.3301 69.7384 60.3301 70.1384 59.2701 70.6084C59.0269 70.7235 58.8372 70.9275 58.7401 71.1784C58.2401 73.0984 57.7401 75.0284 57.3101 76.9584C57.2652 77.3857 57.1109 77.7942 56.8622 78.1445C56.6135 78.4948 56.2787 78.7751 55.8901 78.9584H47.8901C47.5026 78.7736 47.1688 78.4928 46.9203 78.1428C46.6718 77.7928 46.5168 77.3851 46.4701 76.9584C46.0401 75.0484 45.5401 73.1484 45.0801 71.2384C45.0537 71.0787 44.9823 70.9299 44.8742 70.8095C44.7661 70.689 44.6259 70.6019 44.4701 70.5584C43.5101 70.1917 42.5601 69.7917 41.6201 69.3584C41.4821 69.2724 41.3227 69.2268 41.1601 69.2268C40.9975 69.2268 40.8381 69.2724 40.7001 69.3584C39.2601 70.2484 37.8001 71.1184 36.3401 71.9784C36.1388 72.1458 35.9052 72.2701 35.6539 72.3435C35.4026 72.4169 35.1388 72.4379 34.8791 72.405C34.6193 72.3722 34.369 72.2863 34.1439 72.1527C33.9187 72.0191 33.7234 71.8406 33.5701 71.6284L29.1701 67.2384C28.9492 67.0808 28.7639 66.8786 28.6261 66.6449C28.4882 66.4112 28.401 66.1512 28.3699 65.8817C28.3388 65.6122 28.3645 65.3391 28.4455 65.0802C28.5265 64.8212 28.6609 64.5821 28.8401 64.3784C29.7001 62.9384 30.5601 61.4984 31.4401 60.0684C31.5211 59.9525 31.5686 59.8165 31.5774 59.6754C31.5862 59.5343 31.556 59.3935 31.4901 59.2684C31.0401 58.2684 30.6501 57.2684 30.2001 56.2684C30.0847 56.0195 29.8765 55.8257 29.6201 55.7284C27.7001 55.2284 25.7701 54.7284 23.8301 54.3084C23.4034 54.2616 22.9957 54.1067 22.6457 53.8581C22.2956 53.6096 22.0149 53.2758 21.8301 52.8884V44.8884C21.9966 44.5255 22.2496 44.2089 22.5669 43.9666C22.8842 43.7243 23.2561 43.5635 23.6501 43.4984C25.6001 43.0484 27.5501 42.4984 29.5001 42.0884C29.6769 42.0584 29.8415 41.9785 29.9744 41.858C30.1073 41.7375 30.203 41.5815 30.2501 41.4084C30.5401 40.6084 30.8701 39.8084 31.2501 39.0384C31.325 38.8942 31.3591 38.7322 31.3485 38.57C31.3379 38.4078 31.2831 38.2516 31.1901 38.1184C30.1901 36.4784 29.1901 34.8184 28.1901 33.1184C28.0264 32.9214 27.9045 32.6931 27.8317 32.4475C27.7589 32.202 27.7368 31.9441 27.7668 31.6898C27.7967 31.4354 27.878 31.1897 28.0058 30.9677C28.1336 30.7457 28.3051 30.552 28.5101 30.3984L33.0001 25.9984C33.1531 25.7931 33.3461 25.6209 33.5673 25.4921C33.7886 25.3633 34.0336 25.2805 34.2876 25.2488C34.5417 25.217 34.7995 25.2369 35.0457 25.3073C35.2918 25.3777 35.5212 25.4971 35.7201 25.6584C37.3101 26.6084 38.9001 27.5584 40.4901 28.5284C40.6321 28.6364 40.8029 28.6997 40.981 28.7104C41.159 28.7211 41.3362 28.6786 41.4901 28.5884C42.4901 28.1184 43.4901 27.6984 44.4901 27.3084C44.6529 27.2579 44.7983 27.1628 44.9097 27.0337C45.0211 26.9046 45.094 26.7469 45.1201 26.5784C45.6067 24.5384 46.1101 22.5017 46.6301 20.4684C46.6901 19.997 46.934 19.5685 47.3086 19.2763C47.6833 18.984 48.1583 18.8518 48.6301 18.9084H55.1401C55.3794 18.8747 55.623 18.889 55.8567 18.9505C56.0904 19.012 56.3096 19.1194 56.5013 19.2665C56.6931 19.4136 56.8536 19.5974 56.9736 19.8072C57.0936 20.0169 57.1706 20.2485 57.2001 20.4884C57.7134 22.5284 58.2167 24.5684 58.7101 26.6084C58.7321 26.7682 58.8008 26.9179 58.9075 27.0389C59.0142 27.1598 59.1543 27.2466 59.3101 27.2884C60.2601 27.6484 61.1901 28.0384 62.1101 28.4684C62.2649 28.5572 62.4427 28.598 62.6207 28.5855C62.7988 28.573 62.9691 28.5079 63.1101 28.3984L67.6801 25.6584C67.8778 25.4944 68.107 25.3726 68.3535 25.3006C68.6001 25.2286 68.8588 25.2079 69.1137 25.2398C69.3685 25.2716 69.6142 25.3554 69.8354 25.4859C70.0567 25.6163 70.2488 25.7908 70.4001 25.9984C71.8801 27.465 73.3567 28.9417 74.8301 30.4284C75.0495 30.5796 75.2344 30.7756 75.3727 31.0033C75.511 31.2311 75.5996 31.4855 75.6326 31.7499C75.6657 32.0143 75.6424 32.2828 75.5645 32.5376C75.4865 32.7924 75.3555 33.0278 75.1801 33.2284C74.2701 34.7584 73.3601 36.2284 72.4301 37.7884C72.3493 37.9173 72.3065 38.0663 72.3065 38.2184C72.3065 38.3705 72.3493 38.5195 72.4301 38.6484C72.8701 39.6484 73.2401 40.5884 73.6801 41.5384C73.7992 41.7822 74.0065 41.9717 74.2601 42.0684C76.1801 42.5817 78.1101 43.0584 80.0501 43.4984C80.47 43.5551 80.8688 43.7168 81.2096 43.9685C81.5504 44.2202 81.8223 44.5538 82.0001 44.9384ZM51.8401 61.2184C54.2699 61.2302 56.6487 60.5215 58.6759 59.1818C60.7031 57.8421 62.2876 55.9315 63.2293 53.6915C64.171 51.4516 64.4276 48.9827 63.9666 46.597C63.5057 44.2113 62.3478 42.0157 60.6395 40.2878C58.9311 38.5599 56.7489 37.3771 54.3685 36.889C51.9882 36.4009 49.5166 36.6294 47.2661 37.5455C45.0155 38.4617 43.0871 40.0244 41.7244 42.0362C40.3617 44.048 39.6259 46.4186 39.6101 48.8484C39.6009 50.4636 39.9099 52.0649 40.5195 53.5607C41.1291 55.0566 42.0274 56.4177 43.1631 57.5664C44.2988 58.715 45.6496 59.6287 47.1384 60.2554C48.6272 60.882 50.2248 61.2092 51.8401 61.2184Z" fill="#F2EE98" stroke="black" stroke-width="1.17" stroke-miterlimit="10"/>
</svg>
