<svg xmlns="http://www.w3.org/2000/svg" width="26" height="20" viewBox="0 0 26 20" fill="none">
<path d="M1.625 5.625H24.375M1.625 6.5H24.375M5.125 12.625H12.125M5.125 15.25H8.625M4.25 18.75H21.75C22.4462 18.75 23.1139 18.4734 23.6062 17.9812C24.0984 17.4889 24.375 16.8212 24.375 16.125V3.875C24.375 3.17881 24.0984 2.51113 23.6062 2.01884C23.1139 1.52656 22.4462 1.25 21.75 1.25H4.25C3.55381 1.25 2.88613 1.52656 2.39384 2.01884C1.90156 2.51113 1.625 3.17881 1.625 3.875V16.125C1.625 16.8212 1.90156 17.4889 2.39384 17.9812C2.88613 18.4734 3.55381 18.75 4.25 18.75Z" stroke="white" stroke-width="1.5" strokeLinecap="round" strokeLinejoin="round"/>
</svg>