<svg width="294" height="344" viewBox="0 0 294 344" fill="none" xmlns="http://www.w3.org/2000/svg">
<path d="M111.078 88.9308L159.541 75.6426L158.76 110.817L116.55 120.979L111.078 88.9308Z" fill="#6AB5D2" stroke="#1D1D1B"/>
<path d="M140 131.923L157.197 123.324L157.978 125.669L175.175 128.796L147.817 138.176L140 131.923Z" fill="#6AB5D2" stroke="#1D1D1B"/>
<path d="M137.657 139.739L139.221 131.923L134.531 130.359L113.426 135.049L137.657 139.739Z" fill="#6AB5D2" stroke="#1D1D1B"/>
<path d="M107.953 134.268L116.551 124.106L157.979 113.944L152.508 124.106L107.953 134.268Z" fill="#6AB5D2" stroke="#1D1D1B"/>
<path d="M170.487 117.852L157.98 113.162L159.544 123.324L173.614 125.669L170.487 117.852Z" fill="#6AB5D2" stroke="#1D1D1B"/>
<path d="M117.224 110.426C117.412 110.383 117.583 110.284 117.715 110.143C117.848 110.003 117.935 109.826 117.967 109.635C117.999 109.445 117.973 109.249 117.894 109.073C117.815 108.897 117.685 108.748 117.521 108.646C117.357 108.543 117.166 108.492 116.973 108.498C116.78 108.504 116.593 108.567 116.436 108.68C116.279 108.792 116.158 108.948 116.09 109.129C116.021 109.31 116.008 109.507 116.052 109.695C116.081 109.82 116.134 109.938 116.208 110.042C116.283 110.147 116.377 110.236 116.486 110.304C116.595 110.372 116.716 110.417 116.843 110.438C116.969 110.459 117.099 110.455 117.224 110.426Z" fill="#4BA1BC"/>
<path d="M120.908 109.535C121.088 109.494 121.252 109.4 121.379 109.265C121.506 109.131 121.59 108.961 121.621 108.779C121.652 108.596 121.628 108.409 121.552 108.24C121.476 108.071 121.351 107.929 121.194 107.831C121.038 107.733 120.855 107.683 120.67 107.689C120.485 107.695 120.306 107.756 120.155 107.863C120.005 107.971 119.89 108.121 119.824 108.294C119.759 108.467 119.747 108.656 119.789 108.836C119.845 109.077 119.994 109.286 120.204 109.417C120.414 109.548 120.667 109.59 120.908 109.535Z" fill="#4BA1BC"/>
<path d="M124.594 108.664C124.771 108.623 124.931 108.531 125.056 108.399C125.18 108.267 125.262 108.101 125.292 107.923C125.322 107.744 125.298 107.56 125.224 107.395C125.15 107.23 125.028 107.09 124.874 106.994C124.72 106.898 124.542 106.849 124.36 106.855C124.179 106.86 124.004 106.92 123.856 107.025C123.708 107.13 123.595 107.277 123.531 107.446C123.467 107.616 123.454 107.8 123.495 107.977C123.55 108.214 123.696 108.419 123.902 108.548C124.108 108.677 124.357 108.719 124.594 108.664Z" fill="#4BA1BC"/>
<path d="M128.276 107.782C128.446 107.742 128.601 107.653 128.72 107.526C128.84 107.399 128.919 107.239 128.948 107.067C128.976 106.895 128.953 106.718 128.882 106.559C128.81 106.4 128.692 106.266 128.544 106.174C128.396 106.081 128.224 106.035 128.05 106.04C127.876 106.046 127.707 106.103 127.565 106.204C127.423 106.306 127.314 106.447 127.252 106.61C127.191 106.773 127.179 106.951 127.218 107.121C127.244 107.234 127.292 107.341 127.359 107.435C127.427 107.529 127.512 107.609 127.61 107.671C127.709 107.732 127.818 107.774 127.932 107.793C128.047 107.812 128.164 107.808 128.276 107.782Z" fill="#4BA1BC"/>
<path d="M131.964 106.918C132.132 106.879 132.285 106.792 132.403 106.666C132.522 106.541 132.6 106.383 132.629 106.213C132.657 106.042 132.635 105.867 132.564 105.71C132.493 105.553 132.377 105.42 132.231 105.328C132.085 105.237 131.915 105.191 131.742 105.196C131.57 105.201 131.402 105.258 131.262 105.358C131.121 105.458 131.014 105.598 130.953 105.759C130.892 105.921 130.88 106.097 130.919 106.265C130.971 106.49 131.11 106.685 131.306 106.808C131.502 106.93 131.739 106.97 131.964 106.918Z" fill="#4BA1BC"/>
<path d="M135.649 106.048C135.813 106.01 135.962 105.925 136.078 105.802C136.193 105.679 136.269 105.525 136.297 105.359C136.325 105.193 136.303 105.023 136.234 104.869C136.164 104.716 136.051 104.586 135.909 104.497C135.766 104.408 135.6 104.363 135.432 104.368C135.263 104.374 135.1 104.429 134.963 104.526C134.826 104.624 134.722 104.761 134.662 104.918C134.602 105.075 134.591 105.247 134.629 105.411C134.654 105.52 134.7 105.623 134.765 105.714C134.83 105.804 134.912 105.882 135.007 105.941C135.102 106 135.207 106.04 135.317 106.058C135.428 106.077 135.54 106.073 135.649 106.048Z" fill="#4BA1BC"/>
<path d="M139.335 105.166C139.493 105.129 139.637 105.047 139.748 104.929C139.859 104.811 139.932 104.662 139.959 104.503C139.986 104.343 139.965 104.178 139.898 104.031C139.831 103.883 139.722 103.758 139.585 103.672C139.447 103.586 139.287 103.543 139.125 103.548C138.963 103.553 138.806 103.606 138.675 103.7C138.543 103.795 138.442 103.926 138.384 104.077C138.327 104.229 138.316 104.394 138.352 104.552C138.401 104.764 138.532 104.947 138.717 105.062C138.901 105.178 139.123 105.215 139.335 105.166Z" fill="#4BA1BC"/>
<path d="M143.02 104.293C143.174 104.257 143.314 104.177 143.422 104.062C143.53 103.947 143.601 103.802 143.627 103.647C143.653 103.491 143.632 103.331 143.567 103.187C143.503 103.043 143.396 102.922 143.262 102.838C143.128 102.755 142.973 102.713 142.815 102.718C142.657 102.723 142.504 102.774 142.376 102.866C142.248 102.958 142.149 103.085 142.093 103.233C142.038 103.381 142.027 103.542 142.062 103.695C142.086 103.798 142.129 103.894 142.19 103.98C142.251 104.065 142.328 104.137 142.417 104.193C142.506 104.248 142.605 104.286 142.709 104.303C142.812 104.32 142.918 104.317 143.02 104.293Z" fill="#4BA1BC"/>
<path d="M146.701 103.412C146.848 103.378 146.982 103.301 147.085 103.191C147.189 103.081 147.258 102.943 147.283 102.794C147.307 102.645 147.288 102.492 147.226 102.354C147.164 102.216 147.062 102.1 146.934 102.02C146.806 101.94 146.657 101.899 146.506 101.904C146.355 101.908 146.209 101.958 146.086 102.045C145.963 102.133 145.869 102.255 145.815 102.397C145.761 102.538 145.751 102.692 145.785 102.839C145.83 103.036 145.953 103.208 146.124 103.315C146.296 103.422 146.503 103.457 146.701 103.412Z" fill="#4BA1BC"/>
<path d="M150.387 102.54C150.531 102.506 150.661 102.431 150.763 102.324C150.864 102.216 150.931 102.081 150.955 101.936C150.979 101.79 150.96 101.64 150.899 101.506C150.839 101.371 150.74 101.258 150.614 101.179C150.489 101.101 150.344 101.062 150.196 101.066C150.048 101.071 149.906 101.119 149.785 101.205C149.665 101.291 149.573 101.41 149.521 101.548C149.469 101.687 149.459 101.837 149.492 101.981C149.514 102.076 149.555 102.166 149.612 102.246C149.669 102.326 149.741 102.394 149.824 102.446C149.907 102.497 149.999 102.532 150.096 102.549C150.193 102.565 150.291 102.562 150.387 102.54Z" fill="#4BA1BC"/>
<path d="M154.076 101.669C154.216 101.637 154.343 101.564 154.441 101.459C154.539 101.355 154.604 101.223 154.627 101.082C154.651 100.94 154.632 100.795 154.573 100.665C154.513 100.534 154.417 100.424 154.295 100.348C154.173 100.272 154.032 100.234 153.888 100.239C153.745 100.244 153.606 100.291 153.49 100.374C153.373 100.458 153.284 100.574 153.234 100.708C153.183 100.843 153.174 100.989 153.206 101.128C153.228 101.221 153.268 101.309 153.323 101.386C153.378 101.463 153.448 101.529 153.529 101.579C153.61 101.629 153.7 101.663 153.793 101.679C153.887 101.694 153.983 101.691 154.076 101.669Z" fill="#4BA1BC"/>
<path d="M157.761 100.797C157.896 100.766 158.02 100.695 158.115 100.594C158.211 100.492 158.274 100.365 158.297 100.227C158.32 100.09 158.302 99.9486 158.244 99.8216C158.187 99.6946 158.093 99.5874 157.975 99.5136C157.857 99.4398 157.72 99.4027 157.58 99.4071C157.441 99.4114 157.306 99.4569 157.193 99.5379C157.08 99.6188 156.993 99.7316 156.944 99.8619C156.894 99.9923 156.885 100.134 156.916 100.27C156.958 100.452 157.071 100.609 157.229 100.708C157.388 100.807 157.579 100.839 157.761 100.797Z" fill="#4BA1BC"/>
<path d="M116.768 114.303C116.627 114.453 116.444 114.558 116.244 114.604C116.157 114.624 116.068 114.633 115.98 114.63L115.631 112.622C115.742 112.578 115.86 112.554 115.98 112.55C116.185 112.544 116.388 112.599 116.563 112.708C116.737 112.817 116.875 112.976 116.96 113.163C117.044 113.351 117.071 113.56 117.037 113.763C117.003 113.965 116.909 114.154 116.768 114.303Z" fill="#4BA1BC"/>
<path d="M119.928 113.723C120.122 113.678 120.299 113.576 120.435 113.431C120.572 113.286 120.663 113.103 120.696 112.907C120.729 112.71 120.702 112.508 120.621 112.326C120.539 112.144 120.405 111.991 120.236 111.885C120.067 111.78 119.87 111.726 119.671 111.732C119.471 111.738 119.278 111.804 119.116 111.919C118.954 112.035 118.829 112.196 118.758 112.383C118.688 112.569 118.674 112.773 118.719 112.967C118.748 113.096 118.803 113.218 118.88 113.326C118.957 113.434 119.054 113.525 119.167 113.595C119.279 113.666 119.404 113.713 119.535 113.735C119.665 113.757 119.799 113.753 119.928 113.723Z" fill="#4BA1BC"/>
<path d="M123.614 112.851C123.804 112.807 123.977 112.707 124.111 112.565C124.245 112.423 124.333 112.244 124.365 112.051C124.398 111.859 124.372 111.661 124.292 111.483C124.211 111.305 124.08 111.155 123.915 111.051C123.749 110.948 123.556 110.896 123.361 110.902C123.166 110.908 122.977 110.971 122.818 111.085C122.659 111.198 122.537 111.356 122.468 111.539C122.399 111.721 122.385 111.92 122.429 112.111C122.458 112.237 122.512 112.357 122.587 112.462C122.662 112.568 122.758 112.658 122.868 112.727C122.978 112.795 123.101 112.842 123.229 112.863C123.357 112.884 123.488 112.88 123.614 112.851Z" fill="#4BA1BC"/>
<path d="M127.295 111.96C127.477 111.918 127.643 111.823 127.771 111.687C127.9 111.55 127.985 111.379 128.016 111.195C128.047 111.01 128.022 110.821 127.946 110.65C127.869 110.48 127.743 110.336 127.585 110.236C127.426 110.137 127.242 110.087 127.055 110.093C126.868 110.098 126.687 110.159 126.534 110.268C126.382 110.376 126.265 110.528 126.199 110.703C126.133 110.878 126.12 111.068 126.162 111.251C126.19 111.371 126.241 111.486 126.313 111.587C126.385 111.688 126.476 111.774 126.581 111.84C126.687 111.906 126.804 111.95 126.926 111.971C127.049 111.991 127.174 111.987 127.295 111.96Z" fill="#4BA1BC"/>
<path d="M130.981 111.086C131.159 111.045 131.321 110.952 131.446 110.819C131.571 110.686 131.654 110.518 131.684 110.338C131.714 110.158 131.69 109.973 131.615 109.806C131.54 109.64 131.417 109.499 131.262 109.402C131.107 109.305 130.927 109.257 130.744 109.262C130.561 109.268 130.384 109.327 130.236 109.434C130.087 109.54 129.973 109.688 129.908 109.858C129.843 110.029 129.831 110.216 129.872 110.394C129.899 110.512 129.949 110.624 130.02 110.723C130.09 110.822 130.18 110.906 130.283 110.97C130.386 111.034 130.5 111.078 130.62 111.098C130.74 111.118 130.862 111.114 130.981 111.086Z" fill="#4BA1BC"/>
<path d="M134.666 110.205C134.838 110.166 134.994 110.076 135.115 109.947C135.237 109.819 135.317 109.657 135.346 109.483C135.375 109.309 135.352 109.13 135.279 108.969C135.207 108.808 135.088 108.672 134.939 108.578C134.789 108.485 134.615 108.438 134.438 108.443C134.262 108.448 134.091 108.506 133.947 108.608C133.803 108.711 133.693 108.854 133.63 109.019C133.568 109.184 133.556 109.364 133.595 109.536C133.648 109.767 133.791 109.967 133.992 110.093C134.193 110.218 134.435 110.259 134.666 110.205Z" fill="#4BA1BC"/>
<path d="M138.35 109.336C138.518 109.297 138.671 109.209 138.789 109.084C138.907 108.958 138.985 108.8 139.014 108.63C139.042 108.46 139.02 108.286 138.949 108.129C138.878 107.971 138.763 107.839 138.616 107.747C138.47 107.656 138.3 107.61 138.128 107.615C137.956 107.62 137.789 107.677 137.649 107.777C137.508 107.877 137.401 108.016 137.34 108.177C137.278 108.339 137.267 108.514 137.305 108.682C137.357 108.907 137.496 109.103 137.692 109.225C137.888 109.348 138.125 109.388 138.35 109.336Z" fill="#4BA1BC"/>
<path d="M142.043 108.471C142.209 108.432 142.36 108.346 142.477 108.222C142.594 108.098 142.671 107.942 142.699 107.774C142.727 107.606 142.705 107.433 142.635 107.278C142.565 107.122 142.451 106.991 142.306 106.901C142.162 106.81 141.994 106.765 141.823 106.77C141.653 106.775 141.488 106.831 141.349 106.93C141.211 107.029 141.104 107.166 141.044 107.326C140.984 107.485 140.972 107.659 141.01 107.825C141.035 107.935 141.082 108.039 141.148 108.131C141.214 108.224 141.297 108.302 141.393 108.362C141.489 108.422 141.596 108.462 141.707 108.481C141.819 108.5 141.933 108.496 142.043 108.471Z" fill="#4BA1BC"/>
<path d="M145.725 107.59C145.885 107.553 146.03 107.47 146.142 107.35C146.255 107.23 146.329 107.08 146.356 106.919C146.383 106.757 146.361 106.591 146.294 106.441C146.226 106.292 146.116 106.165 145.977 106.078C145.838 105.992 145.676 105.948 145.512 105.953C145.348 105.958 145.189 106.011 145.056 106.107C144.922 106.202 144.82 106.335 144.762 106.488C144.704 106.641 144.693 106.809 144.729 106.968C144.754 107.075 144.799 107.175 144.862 107.264C144.926 107.352 145.006 107.428 145.098 107.486C145.191 107.543 145.294 107.582 145.401 107.6C145.509 107.618 145.619 107.615 145.725 107.59Z" fill="#4BA1BC"/>
<path d="M149.41 106.718C149.565 106.682 149.707 106.6 149.817 106.484C149.926 106.367 149.999 106.221 150.026 106.063C150.052 105.906 150.031 105.743 149.965 105.598C149.9 105.452 149.792 105.329 149.657 105.244C149.521 105.159 149.363 105.116 149.203 105.121C149.043 105.126 148.888 105.178 148.758 105.271C148.628 105.364 148.528 105.493 148.471 105.643C148.415 105.792 148.404 105.956 148.44 106.111C148.463 106.215 148.507 106.313 148.569 106.399C148.631 106.486 148.709 106.559 148.799 106.616C148.889 106.672 148.989 106.71 149.094 106.728C149.199 106.745 149.306 106.742 149.41 106.718Z" fill="#4BA1BC"/>
<path d="M153.092 105.837C153.241 105.802 153.378 105.724 153.483 105.612C153.588 105.5 153.658 105.359 153.684 105.208C153.709 105.056 153.689 104.9 153.626 104.76C153.563 104.62 153.459 104.501 153.329 104.42C153.199 104.338 153.047 104.297 152.893 104.302C152.739 104.306 152.591 104.357 152.465 104.446C152.34 104.535 152.244 104.66 152.19 104.803C152.135 104.947 152.125 105.104 152.159 105.254C152.182 105.353 152.224 105.447 152.284 105.531C152.343 105.614 152.418 105.684 152.504 105.739C152.591 105.793 152.687 105.829 152.788 105.846C152.889 105.863 152.992 105.86 153.092 105.837Z" fill="#4BA1BC"/>
<path d="M156.78 104.964C156.926 104.93 157.058 104.854 157.161 104.745C157.263 104.636 157.331 104.499 157.356 104.352C157.38 104.204 157.361 104.053 157.299 103.917C157.238 103.78 157.138 103.665 157.011 103.586C156.884 103.507 156.736 103.467 156.587 103.471C156.437 103.476 156.293 103.525 156.171 103.611C156.049 103.698 155.956 103.819 155.903 103.959C155.85 104.099 155.839 104.251 155.873 104.397C155.895 104.494 155.936 104.585 155.994 104.666C156.052 104.747 156.125 104.816 156.209 104.868C156.293 104.921 156.387 104.957 156.485 104.973C156.583 104.989 156.683 104.986 156.78 104.964Z" fill="#4BA1BC"/>
<path d="M118.957 117.93C119.17 117.881 119.363 117.77 119.513 117.611C119.662 117.452 119.761 117.253 119.797 117.037C119.833 116.822 119.805 116.601 119.715 116.402C119.625 116.203 119.479 116.036 119.294 115.92C119.109 115.804 118.894 115.746 118.676 115.753C118.458 115.759 118.247 115.83 118.069 115.957C117.891 116.084 117.755 116.26 117.678 116.464C117.601 116.668 117.586 116.89 117.635 117.103C117.7 117.388 117.877 117.635 118.125 117.79C118.373 117.945 118.672 117.996 118.957 117.93Z" fill="#4BA1BC"/>
<path d="M122.64 117.049C122.846 117.001 123.033 116.894 123.178 116.74C123.323 116.586 123.419 116.392 123.454 116.183C123.489 115.975 123.461 115.761 123.375 115.568C123.288 115.375 123.146 115.212 122.966 115.1C122.787 114.988 122.578 114.931 122.367 114.938C122.156 114.944 121.951 115.013 121.779 115.136C121.607 115.259 121.475 115.43 121.4 115.628C121.325 115.825 121.31 116.041 121.358 116.247C121.421 116.523 121.592 116.763 121.833 116.913C122.073 117.064 122.363 117.112 122.64 117.049Z" fill="#4BA1BC"/>
<path d="M126.324 116.177C126.526 116.13 126.71 116.025 126.852 115.873C126.995 115.722 127.089 115.532 127.123 115.327C127.158 115.122 127.13 114.912 127.045 114.722C126.96 114.533 126.82 114.373 126.644 114.263C126.468 114.153 126.263 114.097 126.056 114.104C125.848 114.11 125.647 114.178 125.478 114.298C125.309 114.419 125.179 114.587 125.105 114.781C125.032 114.975 125.017 115.187 125.064 115.39C125.127 115.661 125.295 115.896 125.531 116.044C125.767 116.192 126.052 116.239 126.324 116.177Z" fill="#4BA1BC"/>
<path d="M130.01 115.296C130.206 115.25 130.385 115.148 130.523 115.001C130.661 114.854 130.752 114.669 130.785 114.471C130.819 114.272 130.792 114.068 130.709 113.884C130.627 113.7 130.491 113.545 130.32 113.439C130.149 113.332 129.951 113.278 129.749 113.284C129.548 113.291 129.353 113.356 129.189 113.473C129.025 113.59 128.899 113.753 128.828 113.942C128.756 114.13 128.742 114.336 128.788 114.532C128.818 114.662 128.873 114.786 128.951 114.895C129.028 115.004 129.127 115.096 129.24 115.167C129.354 115.238 129.48 115.286 129.613 115.308C129.745 115.33 129.88 115.326 130.01 115.296Z" fill="#4BA1BC"/>
<path d="M133.694 114.423C133.886 114.379 134.061 114.278 134.196 114.135C134.331 113.991 134.421 113.81 134.453 113.616C134.486 113.421 134.46 113.221 134.379 113.041C134.298 112.862 134.166 112.71 133.998 112.605C133.831 112.501 133.637 112.448 133.439 112.454C133.242 112.46 133.051 112.524 132.891 112.639C132.73 112.753 132.607 112.913 132.537 113.097C132.467 113.282 132.453 113.483 132.498 113.675C132.557 113.933 132.717 114.157 132.941 114.297C133.165 114.437 133.436 114.482 133.694 114.423Z" fill="#4BA1BC"/>
<path d="M137.377 113.532C137.561 113.489 137.729 113.393 137.858 113.256C137.988 113.118 138.074 112.945 138.105 112.758C138.137 112.572 138.112 112.38 138.034 112.207C137.957 112.035 137.83 111.889 137.669 111.789C137.509 111.689 137.322 111.638 137.133 111.644C136.944 111.65 136.761 111.711 136.607 111.821C136.453 111.931 136.335 112.084 136.268 112.261C136.201 112.438 136.188 112.631 136.231 112.815C136.288 113.062 136.44 113.277 136.655 113.411C136.87 113.545 137.13 113.589 137.377 113.532Z" fill="#4BA1BC"/>
<path d="M141.062 112.66C141.243 112.618 141.406 112.524 141.533 112.389C141.659 112.254 141.743 112.085 141.774 111.903C141.804 111.72 141.78 111.533 141.704 111.364C141.628 111.196 141.504 111.054 141.347 110.956C141.19 110.858 141.008 110.809 140.823 110.814C140.638 110.82 140.459 110.88 140.309 110.988C140.158 111.095 140.043 111.245 139.977 111.417C139.912 111.59 139.899 111.779 139.941 111.959C139.968 112.079 140.019 112.192 140.09 112.292C140.162 112.392 140.252 112.477 140.356 112.542C140.46 112.607 140.576 112.651 140.698 112.671C140.819 112.691 140.943 112.687 141.062 112.66Z" fill="#4BA1BC"/>
<path d="M144.747 111.78C144.921 111.74 145.079 111.649 145.202 111.519C145.325 111.389 145.406 111.225 145.436 111.049C145.465 110.872 145.442 110.691 145.368 110.528C145.295 110.365 145.175 110.228 145.023 110.133C144.872 110.038 144.696 109.99 144.517 109.996C144.338 110.001 144.165 110.06 144.02 110.164C143.874 110.267 143.763 110.412 143.699 110.579C143.636 110.746 143.624 110.929 143.664 111.103C143.691 111.218 143.74 111.328 143.809 111.424C143.877 111.521 143.965 111.603 144.065 111.666C144.166 111.729 144.278 111.771 144.395 111.791C144.512 111.81 144.631 111.806 144.747 111.78Z" fill="#4BA1BC"/>
<path d="M148.433 110.907C148.603 110.867 148.757 110.778 148.877 110.651C148.996 110.524 149.075 110.364 149.104 110.192C149.133 110.02 149.11 109.844 149.038 109.684C148.966 109.525 148.849 109.391 148.701 109.299C148.553 109.206 148.381 109.16 148.207 109.165C148.032 109.171 147.863 109.228 147.721 109.329C147.579 109.43 147.471 109.571 147.409 109.734C147.347 109.898 147.335 110.075 147.374 110.245C147.4 110.358 147.448 110.465 147.515 110.559C147.583 110.654 147.668 110.734 147.766 110.795C147.865 110.857 147.974 110.898 148.088 110.917C148.203 110.936 148.32 110.933 148.433 110.907Z" fill="#4BA1BC"/>
<path d="M152.121 110.046C152.289 110.007 152.442 109.919 152.56 109.794C152.678 109.668 152.757 109.51 152.785 109.34C152.814 109.17 152.791 108.995 152.72 108.838C152.649 108.68 152.533 108.547 152.387 108.456C152.241 108.365 152.07 108.319 151.898 108.324C151.726 108.329 151.558 108.386 151.418 108.486C151.278 108.586 151.17 108.726 151.109 108.887C151.048 109.049 151.036 109.225 151.075 109.393C151.101 109.504 151.148 109.61 151.215 109.703C151.281 109.796 151.366 109.875 151.463 109.936C151.56 109.997 151.668 110.038 151.781 110.056C151.894 110.075 152.009 110.072 152.121 110.046Z" fill="#4BA1BC"/>
<path d="M155.802 109.162C155.964 109.125 156.111 109.041 156.225 108.92C156.339 108.799 156.414 108.646 156.442 108.483C156.469 108.319 156.447 108.15 156.379 107.999C156.311 107.847 156.199 107.719 156.058 107.631C155.917 107.543 155.754 107.499 155.588 107.504C155.421 107.509 155.261 107.563 155.125 107.66C154.99 107.756 154.886 107.891 154.827 108.046C154.768 108.201 154.757 108.371 154.794 108.533C154.844 108.75 154.979 108.938 155.168 109.056C155.357 109.174 155.585 109.212 155.802 109.162Z" fill="#4BA1BC"/>
<path d="M126.715 154.591L119.68 142.084C112.176 148.337 101.441 150.943 97.0117 151.464L104.047 167.097C115.928 166.472 124.109 158.499 126.715 154.591Z" fill="white" fill-opacity="0.32" stroke="#1D1D1B"/>
<path d="M43.8573 169.883C49.3296 167.538 61.5229 166.287 57.1456 176.918C51.674 190.206 41.5124 181.608 48.5473 176.918C55.5823 172.228 61.0539 173.01 62.6172 179.263C64.1806 185.516 57.9273 201.149 51.674 198.023C45.4207 194.896 46.984 179.263 65.7439 181.608C84.5038 183.953 64.9622 208.966 57.1456 205.839C56.3639 205.318 55.2696 204.12 57.1456 203.494C59.4906 202.713 68.8705 200.368 70.4339 189.424C71.9972 178.481 51.674 183.171 50.8923 191.769C50.1106 200.368 59.4906 194.114 60.2722 186.298C61.0539 178.481 59.4906 174.573 53.2373 176.136C46.984 177.7 48.5479 183.171 51.6746 180.826C54.8012 178.481 59.4906 167.538 46.2023 170.665C43.8573 171.186 40.1054 171.759 43.8573 169.883Z" stroke="#1D1D1B" stroke-width="1.3"/>
<path fill-rule="evenodd" clip-rule="evenodd" d="M57.9881 174.054C59.1326 166.551 48.7779 167.774 43.8573 169.883C40.1054 171.759 43.8573 171.186 46.2023 170.665C53.1265 169.035 55.1694 171.226 55.0957 174.03C53.1557 174.359 50.9421 175.321 48.5473 176.918C41.5124 181.608 51.674 190.206 57.1456 176.918C57.2635 176.632 57.3693 176.354 57.4636 176.085C59.289 176.759 60.1815 178.598 60.4023 181.428C46.7422 182.402 46.0759 195.224 51.674 198.023C56.8705 200.621 62.0671 190.264 62.7778 183.101C67.2685 182.677 71.1504 184.408 70.4339 189.424C68.9594 199.746 60.5319 202.418 57.6111 203.345C57.435 203.4 57.2789 203.45 57.1456 203.494C55.2696 204.12 56.3639 205.318 57.1456 205.839C64.9622 208.966 84.5038 183.953 65.7439 181.608C64.733 181.481 63.772 181.407 62.8594 181.381C62.851 180.6 62.7728 179.885 62.6172 179.263C61.8739 176.289 60.2468 174.553 57.9881 174.054ZM51.6749 180.826C48.5482 183.171 46.9843 177.699 53.2376 176.136C53.7933 175.997 54.312 175.901 54.7953 175.848C54.1991 177.919 52.8303 179.959 51.6749 180.826ZM60.2718 186.298C59.4901 194.114 50.1101 200.368 50.8918 191.769C51.2495 187.835 55.6996 184.718 60.2718 183.544V186.298Z" fill="#9277AA"/>
<path d="M237.064 191.04C240.767 195.092 234.898 205.504 231.68 207.435C228.553 209.311 226.99 205.872 228.553 201.963C231.237 195.254 234.286 192.1 237.064 191.04ZM237.064 191.04C236.27 190.171 235.037 189.595 233.243 189.457C223.081 188.675 218.391 194.928 219.955 203.527C221.079 209.71 221.779 212.386 222.3 212.907C222.3 213.689 221.988 214.939 220.737 213.689C216.828 205.351 213.076 188.363 229.335 187.112C249.658 185.549 235.932 208.547 230.898 210.562C226.99 212.126 223.081 205.09 227.771 198.055C232.461 191.02 237.151 187.893 241.841 189.457C246.531 191.02 250.44 198.837 245.75 201.964C241.06 205.09 234.806 192.584 247.313 190.239C259.82 187.894 256.693 199.619 255.13 199.619C253.879 199.619 254.087 198.055 254.348 197.273C255.13 195.449 255.286 191.802 249.658 191.802C247.366 191.802 245.655 192.382 244.416 193.219M237.064 191.04C240.131 189.87 242.867 191.252 244.416 193.219M244.416 193.219C245.223 194.244 245.708 195.427 245.75 196.492C245.944 201.451 242.623 200.4 241.841 198.837C241.314 197.783 241.853 194.952 244.416 193.219Z" stroke="#1D1D1B" stroke-width="1.3"/>
<path fill-rule="evenodd" clip-rule="evenodd" d="M229.335 187.112C213.076 188.363 216.828 205.351 220.737 213.689C221.988 214.94 222.3 213.689 222.3 212.907C221.779 212.386 221.079 209.71 219.955 203.527C218.391 194.928 223.081 188.675 233.243 189.457C234.21 189.531 235.013 189.733 235.674 190.039C233.039 191.386 230.405 194.104 227.771 198.055C223.081 205.09 226.99 212.126 230.898 210.562C234.516 209.114 242.074 197.273 239.354 190.61C240.721 190.617 241.96 191.098 242.975 191.833C237.5 196.5 241.744 204.634 245.75 201.964C248.953 199.828 248.145 195.505 245.817 192.48C246.86 192.06 248.13 191.802 249.658 191.802C255.286 191.802 255.13 195.45 254.348 197.273C254.087 198.055 253.879 199.619 255.13 199.619C256.693 199.619 259.82 187.894 247.313 190.239C246.239 190.44 245.303 190.717 244.492 191.052C243.681 190.329 242.777 189.769 241.841 189.457C240.647 189.059 239.453 188.965 238.259 189.162C236.629 187.613 233.806 186.768 229.335 187.112ZM228.553 201.963C226.989 205.872 228.553 209.311 231.679 207.435C234.898 205.504 240.766 195.092 237.064 191.04C234.286 192.1 231.236 195.254 228.553 201.963ZM241.841 198.837C242.623 200.4 245.944 201.451 245.749 196.492C245.707 195.428 245.223 194.244 244.416 193.22C241.853 194.952 241.314 197.783 241.841 198.837Z" fill="#9277AA"/>
<path d="M78.2244 123.72C68.8442 121.375 68.0625 119.03 66.4992 111.995C65.7175 119.03 60.2459 123.72 53.2109 123.72C61.0276 126.065 65.8481 133.882 66.4995 137.79C66.4992 133.882 74.0556 126.847 78.2244 123.72Z" fill="#6AB5D2" stroke="#1D1D1B"/>
<path d="M243.937 55.7168C244.197 57.8012 245.969 62.1264 250.971 62.7518C248.532 63.4837 243.944 65.7236 243.884 69.0864C243.92 69.3428 243.937 69.5787 243.937 69.7867C243.897 69.5482 243.88 69.3147 243.884 69.0864C243.603 67.0946 242.116 63.8598 237.684 62.7518C239.768 61.9701 243.937 59.4688 243.937 55.7168Z" fill="#6AB5D2" stroke="#1D1D1B"/>
<path d="M293.181 86.9826C287.709 85.4193 287.709 85.4193 285.364 79.166C283.019 84.6377 279.111 86.201 276.766 86.9826C282.237 86.9826 284.322 91.6726 284.582 94.7993C285.833 89.7966 290.836 87.5037 293.181 86.9826Z" fill="#6AB5D2" stroke="#1D1D1B"/>
<path d="M161.109 77.9867L184.001 36L184.783 36.7817L162.673 79.55L161.109 77.9867Z" fill="white" fill-opacity="0.4" stroke="#1D1D1B"/>
<path d="M153.293 77.2062L162.673 28.7432L164.236 29.5248L155.638 76.4245L153.293 77.2062Z" fill="white" fill-opacity="0.4" stroke="#1D1D1B"/>
<path d="M147.04 78.7698L140.005 31.8701L138.441 32.6518L145.476 79.5515L147.04 78.7698Z" fill="white" fill-opacity="0.4" stroke="#1D1D1B"/>
<path d="M137.659 81.1145L111.083 43.5947L109.52 44.3764L136.096 81.8962L137.659 81.1145Z" fill="white" fill-opacity="0.4" stroke="#1D1D1B"/>
<path d="M126.715 84.2409L85.7817 57.9365L85.5 59L85 59.5L125.152 85.0226L126.715 84.2409Z" fill="white" fill-opacity="0.4" stroke="#1D1D1B"/>
<path d="M111.082 89.712L76 78.9993V77.8268V76.6543L111.863 88.9303L111.082 89.712Z" fill="white" fill-opacity="0.4" stroke="#1D1D1B"/>
<path d="M111.863 4.51152C150.165 -9.21969 177.783 20.6659 184.558 36.5597C178.304 25.929 168.404 26.9192 164.235 28.7432C143.599 5.60618 120.722 2.94832 111.863 4.51152Z" fill="#F2EE98" stroke="#1D1D1B"/>
<path d="M164.235 28.7443C152.979 24.367 142.87 29.5259 139.222 32.6526C137.971 16.3942 120.462 7.11829 111.863 4.51262C120.722 2.94943 143.599 5.60728 164.235 28.7443Z" fill="#D16C8C" stroke="#1D1D1B"/>
<path d="M139.22 32.6507C121.086 30.7747 112.383 39.6857 110.299 44.3756C99.6686 30.6186 106.912 12.0669 111.862 4.51074C120.46 7.11641 137.97 16.3923 139.22 32.6507Z" fill="#F2EE98" stroke="#1D1D1B"/>
<path d="M110.302 44.3756C93.4183 42.4997 86.5918 52.9739 85.289 58.4456C75.284 27.1793 98.8377 9.4614 111.865 4.51074C106.915 12.0669 99.6719 30.6186 110.302 44.3756Z" fill="#D16C8C" stroke="#1D1D1B"/>
<path d="M75.9071 79.5504C70.4354 59.7483 70.4356 19.3628 111.864 4.51074C98.8361 9.46139 75.2824 27.1793 85.2874 58.4456C75.9074 62.8229 75.1255 74.3393 75.9071 79.5504Z" fill="#F2EE98" stroke="#1D1D1B"/>
<path d="M111.864 4.51152C150.165 -9.21968 177.784 20.6659 184.558 36.5597C178.305 25.9289 168.404 26.9192 164.235 28.7432C152.979 24.3659 142.87 29.5248 139.222 32.6515C121.088 30.7755 112.385 39.6864 110.301 44.3764C93.4167 42.5004 86.5902 52.9747 85.2874 58.4463C75.9074 62.8236 75.1255 74.3401 75.9071 79.5512C70.4354 59.749 70.4356 19.3636 111.864 4.51152Z" stroke="#1D1D1B"/>
<path d="M176.742 95.1843L160.328 77.2061L158.764 110.818L116.554 120.197V123.324L157.201 113.163L170.489 117.852L173.616 125.669L159.546 123.324L157.983 114.726L152.511 124.106L111.865 132.704L109.52 134.267L111.865 135.049L134.533 130.359L140.004 131.922L157.201 123.324L157.983 125.669L175.961 128.014L172.052 117.852L176.742 95.1843Z" fill="#725990" stroke="#1D1D1B"/>
<path d="M213.481 106.128C203.476 118.009 188.468 117.071 182.215 113.945C182.215 114.726 185.341 124.106 186.905 128.796C203.789 141.303 219.995 128.275 225.988 120.198L213.481 106.128Z" fill="white" fill-opacity="0.32"/>
<path d="M186.905 128.796C186.678 128.116 186.418 127.337 186.14 126.5C185.877 125.707 185.597 124.862 185.312 124C183.825 119.494 182.215 114.505 182.215 113.945C187.873 116.774 200.7 117.811 210.502 109.18C211.532 108.273 212.529 107.258 213.481 106.128L214.701 107.5M222.701 116.5L224.344 118.349L225.988 120.198C223.431 123.644 219.016 127.991 213.481 130.872M190.1 130.872C194.915 133.571 199.624 134.322 204.002 133.848C205.021 133.738 206.022 133.561 207.002 133.327" stroke="#1D1D1B"/>
<path d="M199.526 105.668C193.86 108.326 189.389 108.189 186.892 107.515C185.883 107.242 184.396 107.29 184.718 108.284C184.842 108.667 185.111 109.026 185.339 109.254C190.029 113.944 200.972 108.472 201.754 106.909C202.207 106.002 201.593 105.589 200.922 105.43C200.45 105.318 199.965 105.462 199.526 105.668Z" fill="#D16C8C" stroke="#1D1D1B"/>
<path d="M191.436 99.9339C198.371 100.116 202.06 98.4476 203.751 96.8534C204.63 96.0252 206.175 95.2452 206.41 96.4296C206.467 96.7149 206.4 96.8917 206.288 97.1602C203.54 103.751 190.012 102.985 189.246 102.219C188.933 101.906 188.999 101.449 189.208 101.006C189.589 100.198 190.543 99.9104 191.436 99.9339Z" fill="#D16C8C" stroke="#1D1D1B"/>
<path d="M195.471 238.625C195.471 266.254 173.073 288.651 145.444 288.651C117.816 288.651 95.418 266.254 95.418 238.625C95.418 210.996 117.816 188.599 145.444 188.599C173.073 188.599 195.471 210.996 195.471 238.625ZM107.713 238.625C107.713 259.464 124.606 276.357 145.444 276.357C166.283 276.357 183.176 259.464 183.176 238.625C183.176 217.786 166.283 200.893 145.444 200.893C124.606 200.893 107.713 217.786 107.713 238.625Z" fill="#BC466D" fill-opacity="0.55"/>
<mask id="path-67-inside-1_911_160321" fill="white">
<path d="M195.471 238.625C195.471 266.254 173.073 288.651 145.444 288.651C117.816 288.651 95.418 266.254 95.418 238.625C95.418 210.996 117.816 188.599 145.444 188.599C173.073 188.599 195.471 210.996 195.471 238.625ZM107.713 238.625C107.713 259.464 124.606 276.357 145.444 276.357C166.283 276.357 183.176 259.464 183.176 238.625C183.176 217.786 166.283 200.893 145.444 200.893C124.606 200.893 107.713 217.786 107.713 238.625Z"/>
</mask>
<path d="M195.471 238.625C195.471 266.254 173.073 288.651 145.444 288.651C117.816 288.651 95.418 266.254 95.418 238.625C95.418 210.996 117.816 188.599 145.444 188.599C173.073 188.599 195.471 210.996 195.471 238.625ZM107.713 238.625C107.713 259.464 124.606 276.357 145.444 276.357C166.283 276.357 183.176 259.464 183.176 238.625C183.176 217.786 166.283 200.893 145.444 200.893C124.606 200.893 107.713 217.786 107.713 238.625Z" stroke="#252525" stroke-width="2.6" mask="url(#path-67-inside-1_911_160321)"/>
<path d="M144.695 248.976L136.699 220.522L134.897 220.948C133.537 221.269 132.743 222.683 133.176 224.011L140.9 247.679C141.301 248.907 142.606 249.593 143.845 249.227L144.695 248.976Z" fill="#1D1D1B" stroke="#1D1D1B" stroke-width="0.795546"/>
<path d="M136.698 220.521L150.543 218.323C151.976 218.095 153.28 219.189 153.303 220.641L153.705 245.064C153.724 246.203 152.936 247.196 151.822 247.436L144.694 248.975L136.698 220.521Z" fill="white" stroke="#1D1D1B" stroke-width="0.795546"/>
<path d="M144.967 254.925C145.15 254.316 145.611 253.994 145.649 253.867L143.426 254.283C143.185 254.329 142.946 254.404 142.765 254.57C142.483 254.828 142.172 255.267 142.116 255.879C142.1 256.053 142.13 256.226 142.173 256.395L143.174 260.353C143.222 260.543 143.288 260.729 143.409 260.883C143.66 261.205 144.105 261.573 144.655 261.478L147.78 260.757C147.398 260.823 147.044 260.741 146.766 260.62C146.402 260.462 146.191 260.102 146.071 259.724C145.548 258.071 144.804 255.466 144.967 254.925Z" fill="#1D1D1B" stroke="#1D1D1B" stroke-width="0.795546"/>
<path d="M145.998 253.771L153.016 252.457C153.138 252.434 153.262 252.417 153.385 252.428C154.271 252.507 154.743 253.33 154.874 253.758L155.631 258.14C155.752 258.841 154.868 259.295 154.411 259.434L147.78 260.761C147.398 260.827 147.043 260.745 146.765 260.624C146.401 260.465 146.191 260.106 146.071 259.727C145.548 258.074 144.804 255.47 144.967 254.929C145.142 254.348 145.402 253.883 145.998 253.771Z" fill="white" stroke="#1D1D1B" stroke-width="0.795546"/>
<path d="M281.008 336.18C281.008 340.145 218.326 343.359 141.004 343.359C63.6819 343.359 1 340.145 1 336.18C1 333.158 37.4051 330.572 88.9512 329.513C105.042 329.182 122.609 329 141.004 329C175.577 329 207.223 329.643 231.647 330.708C261.848 332.025 281.008 333.987 281.008 336.18Z" fill="white" fill-opacity="0.16"/>
<path d="M141.004 343.357C218.326 343.357 281.008 340.143 281.008 336.178C281.008 333.986 261.848 332.023 231.647 330.706C208.313 330.162 161.646 329.895 157.158 336.178C152.671 342.46 110.191 334.1 88.9512 329.511C37.4051 330.57 1 333.156 1 336.178C1 340.143 63.6819 343.357 141.004 343.357Z" fill="white" fill-opacity="0.24"/>
<path d="M141.004 343.357C101.571 343.357 65.9455 342.521 40.5 341.176C16.0509 339.884 1 338.121 1 336.178C1 334.131 17.7028 332.284 44.5 330.976C57.2647 330.353 72.3198 329.853 88.9512 329.511C110.191 334.1 152.671 342.46 157.158 336.178C159.435 332.991 172.566 331.489 188 330.854" stroke="#1D1D1B" stroke-opacity="0.12" stroke-width="0.3"/>
</svg>
