<svg width="38" height="24" viewBox="0 0 38 24" fill="none" xmlns="http://www.w3.org/2000/svg">
<g clip-path="url(#clip0_911_98224)">
<path d="M7.20248 5.70199C7.6447 5.11689 7.96058 4.33677 7.86582 3.55664C7.20248 3.58915 6.41278 4.01171 5.93897 4.5643C5.52833 5.05188 5.14928 5.86452 5.24404 6.61214C6.00214 6.70965 6.72866 6.28709 7.20248 5.70199ZM7.86582 6.80717C6.79184 6.74216 5.87579 7.42477 5.37039 7.42477C4.86499 7.42477 4.07529 6.83968 3.22243 6.83968C2.11686 6.87218 1.10605 7.48978 0.537473 8.52995C-0.599684 10.5778 0.221596 13.6008 1.35875 15.2585C1.89574 16.0712 2.55909 16.9813 3.41195 16.9488C4.23323 16.9163 4.54911 16.3962 5.52833 16.3962C6.50755 16.3962 6.79184 16.9488 7.67629 16.9163C8.56075 16.8838 9.12933 16.1037 9.66632 15.2585C10.2981 14.3159 10.5508 13.4057 10.5508 13.3732C10.5192 13.3407 8.81345 12.6906 8.81345 10.6753C8.78186 8.98502 10.1401 8.17239 10.2033 8.13989C9.47679 6.9697 8.27646 6.83968 7.86582 6.80717Z" fill="black"/>
<path d="M17.1495 4.5C19.487 4.5 21.098 6.15777 21.098 8.53066C21.098 10.936 19.4554 12.5938 17.0863 12.5938H14.5277V16.787H12.6641V4.5H17.1495ZM14.5277 11.0011H16.6441C18.2551 11.0011 19.1711 10.0909 19.1711 8.56316C19.1711 7.00291 18.2551 6.12526 16.6441 6.12526H14.4962V11.0011H14.5277ZM21.5718 14.2841C21.5718 12.7238 22.7405 11.7487 24.8253 11.6187L27.226 11.4886V10.806C27.226 9.79836 26.5626 9.21327 25.4887 9.21327C24.4463 9.21327 23.8145 9.73335 23.6566 10.5135H21.9508C22.0456 8.88821 23.4039 7.68552 25.5518 7.68552C27.6682 7.68552 29.0265 8.8232 29.0265 10.6435V16.8195H27.3208V15.3568H27.2892C26.7838 16.3644 25.6782 16.982 24.541 16.982C22.7721 16.982 21.5718 15.8769 21.5718 14.2841ZM27.226 13.4715V12.7563L25.078 12.8864C24.004 12.9514 23.4039 13.439 23.4039 14.2191C23.4039 14.9992 24.0356 15.5193 24.9833 15.5193C26.2468 15.5193 27.226 14.6417 27.226 13.4715ZM30.6059 20.135V18.6398C30.7322 18.6723 31.0481 18.6723 31.1745 18.6723C31.9957 18.6723 32.438 18.3147 32.7223 17.4046C32.7223 17.3721 32.8802 16.852 32.8802 16.852L29.7214 7.88055H31.6483L33.8594 15.1942H33.891L36.1021 7.88055H37.9974L34.7439 17.3396C33.9858 19.5174 33.1329 20.2001 31.3324 20.2001C31.206 20.1676 30.7638 20.1676 30.6059 20.135Z" fill="black"/>
</g>
<defs>
<clipPath id="clip0_911_98224">
<rect width="38" height="24" fill="white"/>
</clipPath>
</defs>
</svg>
