<svg width="80" height="80" viewBox="0 0 80 80" fill="none" xmlns="http://www.w3.org/2000/svg">
<rect width="80" height="80" rx="20" fill="white" fill-opacity="0.12"/>
<path d="M46.3338 28.747V26.667C46.3338 26.1203 45.8805 25.667 45.3338 25.667C44.7871 25.667 44.3338 26.1203 44.3338 26.667V28.667H35.6671V26.667C35.6671 26.1203 35.2138 25.667 34.6671 25.667C34.1205 25.667 33.6671 26.1203 33.6671 26.667V28.747C30.0671 29.0803 28.3205 31.227 28.0538 34.4137C28.0271 34.8003 28.3471 35.1203 28.7205 35.1203H51.2805C51.6671 35.1203 51.9871 34.787 51.9471 34.4137C51.6805 31.227 49.9338 29.0803 46.3338 28.747Z" fill="white"/>
<path d="M50.6667 37.1201H29.3333C28.6 37.1201 28 37.7201 28 38.4535V46.6668C28 50.6668 30 53.3335 34.6667 53.3335H45.3333C50 53.3335 52 50.6668 52 46.6668V38.4535C52 37.7201 51.4 37.1201 50.6667 37.1201ZM36.28 48.2801C36.2133 48.3334 36.1467 48.4001 36.08 48.4401C36 48.4935 35.92 48.5335 35.84 48.5601C35.76 48.6001 35.68 48.6268 35.6 48.6401C35.5067 48.6535 35.4267 48.6668 35.3333 48.6668C35.16 48.6668 34.9867 48.6268 34.8267 48.5601C34.6533 48.4935 34.52 48.4001 34.3867 48.2801C34.1467 48.0268 34 47.6801 34 47.3335C34 46.9868 34.1467 46.6401 34.3867 46.3868C34.52 46.2668 34.6533 46.1735 34.8267 46.1068C35.0667 46.0001 35.3333 45.9735 35.6 46.0268C35.68 46.0401 35.76 46.0668 35.84 46.1068C35.92 46.1335 36 46.1735 36.08 46.2268C36.1467 46.2801 36.2133 46.3335 36.28 46.3868C36.52 46.6401 36.6667 46.9868 36.6667 47.3335C36.6667 47.6801 36.52 48.0268 36.28 48.2801ZM36.28 43.6135C36.0267 43.8535 35.68 44.0001 35.3333 44.0001C34.9867 44.0001 34.64 43.8535 34.3867 43.6135C34.1467 43.3601 34 43.0135 34 42.6668C34 42.3201 34.1467 41.9735 34.3867 41.7201C34.76 41.3468 35.3467 41.2268 35.84 41.4401C36.0133 41.5068 36.16 41.6001 36.28 41.7201C36.52 41.9735 36.6667 42.3201 36.6667 42.6668C36.6667 43.0135 36.52 43.3601 36.28 43.6135ZM40.9467 48.2801C40.6933 48.5201 40.3467 48.6668 40 48.6668C39.6533 48.6668 39.3067 48.5201 39.0533 48.2801C38.8133 48.0268 38.6667 47.6801 38.6667 47.3335C38.6667 46.9868 38.8133 46.6401 39.0533 46.3868C39.5467 45.8935 40.4533 45.8935 40.9467 46.3868C41.1867 46.6401 41.3333 46.9868 41.3333 47.3335C41.3333 47.6801 41.1867 48.0268 40.9467 48.2801ZM40.9467 43.6135C40.88 43.6668 40.8133 43.7201 40.7467 43.7735C40.6667 43.8268 40.5867 43.8668 40.5067 43.8935C40.4267 43.9335 40.3467 43.9601 40.2667 43.9734C40.1733 43.9868 40.0933 44.0001 40 44.0001C39.6533 44.0001 39.3067 43.8535 39.0533 43.6135C38.8133 43.3601 38.6667 43.0135 38.6667 42.6668C38.6667 42.3201 38.8133 41.9735 39.0533 41.7201C39.1733 41.6001 39.32 41.5068 39.4933 41.4401C39.9867 41.2268 40.5733 41.3468 40.9467 41.7201C41.1867 41.9735 41.3333 42.3201 41.3333 42.6668C41.3333 43.0135 41.1867 43.3601 40.9467 43.6135ZM45.6133 48.2801C45.36 48.5201 45.0133 48.6668 44.6667 48.6668C44.32 48.6668 43.9733 48.5201 43.72 48.2801C43.48 48.0268 43.3333 47.6801 43.3333 47.3335C43.3333 46.9868 43.48 46.6401 43.72 46.3868C44.2133 45.8935 45.12 45.8935 45.6133 46.3868C45.8533 46.6401 46 46.9868 46 47.3335C46 47.6801 45.8533 48.0268 45.6133 48.2801ZM45.6133 43.6135C45.5467 43.6668 45.48 43.7201 45.4133 43.7735C45.3333 43.8268 45.2533 43.8668 45.1733 43.8935C45.0933 43.9335 45.0133 43.9601 44.9333 43.9734C44.84 43.9868 44.7467 44.0001 44.6667 44.0001C44.32 44.0001 43.9733 43.8535 43.72 43.6135C43.48 43.3601 43.3333 43.0135 43.3333 42.6668C43.3333 42.3201 43.48 41.9735 43.72 41.7201C43.8533 41.6001 43.9867 41.5068 44.16 41.4401C44.4 41.3335 44.6667 41.3068 44.9333 41.3601C45.0133 41.3735 45.0933 41.4001 45.1733 41.4401C45.2533 41.4668 45.3333 41.5068 45.4133 41.5601C45.48 41.6135 45.5467 41.6668 45.6133 41.7201C45.8533 41.9735 46 42.3201 46 42.6668C46 43.0135 45.8533 43.3601 45.6133 43.6135Z" fill="white"/>
</svg>
