<svg xmlns="http://www.w3.org/2000/svg" width="105" height="105" viewBox="0 0 105 105" fill="none">
  <path d="M52.3311 83.2946C73.1578 83.2946 90.0411 77.4635 90.0411 70.2704C90.0411 63.0773 73.1578 57.2461 52.3311 57.2461C31.5045 57.2461 14.6211 63.0773 14.6211 70.2704C14.6211 77.4635 31.5045 83.2946 52.3311 83.2946Z" fill="#EFDA9C"/>
  <path d="M51.6898 72.8862L56.0801 73.1187L62.9708 72.6245L69.8906 71.3454L74.0483 69.165L75.4148 67.2753L75.2404 59.8328L75.0078 58.8735L79.1073 57.1291L80.9681 55.1522V47.39L83.6721 45.7038L84.5443 44.4247L84.2536 36.6625L83.0906 34.86L78.991 32.8831L77.0139 32.3598L76.7232 27.5629C76.7232 27.5629 74.1646 22.7079 55.7893 22.1846C37.4141 21.6613 34.8555 28.2025 34.8555 28.2025L34.9137 33.7553C34.9137 33.7553 16.0732 34.3076 14.9393 56.9257C14.9393 56.9257 14.6194 66.1415 22.615 73.0315C30.6106 79.9216 41.6299 78.1773 41.6299 78.1773L46.2528 76.9563L51.3409 73.7874L51.6898 72.8862Z" fill="#CD7F32"/>
  <path d="M56.1697 31.8953C65.7882 31.8953 73.5855 30.1382 73.5855 27.9706C73.5855 25.8031 65.7882 24.0459 56.1697 24.0459C46.5512 24.0459 38.7539 25.8031 38.7539 27.9706C38.7539 30.1382 46.5512 31.8953 56.1697 31.8953Z" fill="#B55F17"/>
  <path d="M68.6719 40.472C68.6719 40.472 73.5274 40.2395 75.9115 39.6871C78.2956 39.1347 80.5635 37.7974 80.5635 37.7974L80.8833 36.6927L80.1855 35.588L77.1908 34.396L76.6965 36.3148L74.545 38.2916L70.4745 39.658L68.6719 40.472Z" fill="#B55F17"/>
  <path d="M34.7693 73.2949C43.6813 73.2949 50.9058 65.4072 50.9058 55.6772C50.9058 45.9472 43.6813 38.0596 34.7693 38.0596C25.8574 38.0596 18.6328 45.9472 18.6328 55.6772C18.6328 65.4072 25.8574 73.2949 34.7693 73.2949Z" fill="#B55F17"/>
  <path d="M26.4547 63.0622L25.1172 50.9391L30.0308 57.8874L35.904 42.5664L37.3577 58.8467L44.9462 53.6719L39.5092 65.3298L26.4547 63.0622Z" fill="#DD9756"/>
  <path d="M55.3823 34.8612C55.3823 34.8612 55.2951 38.4952 55.2951 41.3152C55.2951 41.3152 62.68 41.257 64.8025 41.0245C64.8025 41.0245 64.4536 42.0711 65.1514 43.2921L64.9188 50.0077L69.4836 50.0659L66.2562 50.8799L64.6281 51.0543C64.6281 51.0543 63.6395 52.1009 64.2792 53.3801L64.3373 60.0376L70.1232 59.7759L71.4025 59.5433L71.8677 59.6015L71.4606 60.5609L67.303 62.3633L61.7788 63.2355C61.7788 63.2355 60.8774 64.4565 61.3717 66.0555L61.3135 72.8583L54.8008 73.1781L52.2713 72.9165L56.1673 67.3928L57.4175 64.3111L58.6387 61.1714L59.3365 55.3279L58.3479 50.0368L56.3708 45.5306L53.4052 41.228L48.9858 37.5358L45.0607 35.5299L40.1762 34.1635C40.1762 34.1635 35.2044 33.6402 35.059 33.6983C34.9136 33.7565 34.8555 29.1631 34.8555 29.1631L37.8793 31.6924L43.8105 33.4948C43.8105 33.4948 48.7532 34.1635 49.1603 34.2798C49.5673 34.4833 55.3823 34.8612 55.3823 34.8612Z" fill="#B55F17"/>
  <path d="M18.8086 42.6247L30.5548 76.639L34.2473 77.6856L37.4165 77.3367L29.7989 34.1938L24.3619 36.8103C24.3619 36.8103 20.146 41.0258 20.0588 40.7641C19.9716 40.5025 18.8086 42.6247 18.8086 42.6247Z" fill="#CD7F32"/>
  <path d="M34.9136 77.5383C45.9612 77.5383 54.9171 67.7502 54.9171 55.6761C54.9171 43.602 45.9612 33.814 34.9136 33.814C23.866 33.814 14.9102 43.602 14.9102 55.6761C14.9102 67.7502 23.866 77.5383 34.9136 77.5383Z" stroke="black" stroke-width="0.946639" stroke-miterlimit="10" strokeLinecap="round" strokeLinejoin="round"/>
  <path d="M34.7689 73.4112C43.713 73.4112 50.9636 65.4844 50.9636 55.7063C50.9636 45.9282 43.713 38.0015 34.7689 38.0015C25.8248 38.0015 18.5742 45.9282 18.5742 55.7063C18.5742 65.4844 25.8248 73.4112 34.7689 73.4112Z" stroke="black" stroke-width="0.631063" stroke-miterlimit="10" strokeLinecap="round" strokeLinejoin="round"/>
  <path d="M37.7349 33.9858C49.1613 34.1603 59.0176 44.1901 59.0176 56.255C59.0176 68.3199 50.0626 78.1172 39.0142 78.1172C37.6477 78.1172 34.4785 77.7683 33.1992 77.4776" stroke="black" stroke-width="0.946639" stroke-miterlimit="10" strokeLinecap="round" strokeLinejoin="round"/>
  <path d="M26.4238 63.1172L25.1445 50.7616L30.1454 58.175L36.0476 42.0981L37.1524 59.0762L45.0898 53.4944L39.4202 65.2976L26.4238 63.1172Z" stroke="black" stroke-width="0.946639" stroke-miterlimit="10" strokeLinecap="round" strokeLinejoin="round"/>
  <path d="M55.8787 34.7442C67.4723 34.7442 76.8707 31.9327 76.8707 28.4646C76.8707 24.9965 67.4723 22.1851 55.8787 22.1851C44.2851 22.1851 34.8867 24.9965 34.8867 28.4646C34.8867 31.9327 44.2851 34.7442 55.8787 34.7442Z" stroke="black" stroke-width="0.946639" stroke-miterlimit="10" strokeLinecap="round" strokeLinejoin="round"/>
  <path d="M34.9431 33.699C34.9431 31.5186 34.9141 28.1172 34.9141 28.1172" stroke="black" stroke-width="0.946639" stroke-miterlimit="10" strokeLinecap="round" strokeLinejoin="round"/>
  <path d="M76.8392 28.2031C76.8392 28.2031 76.9846 33.9885 76.9846 35.2095C76.9846 38.6691 67.5935 41.489 55.9926 41.489C55.1494 41.489 54.3063 41.46 53.4922 41.4309" stroke="black" stroke-width="0.946639" stroke-miterlimit="10" strokeLinecap="round" strokeLinejoin="round"/>
  <path d="M56.0217 32.0145C65.6081 32.0145 73.3793 30.2573 73.3793 28.0898C73.3793 25.9222 65.6081 24.165 56.0217 24.165C46.4353 24.165 38.6641 25.9222 38.6641 28.0898C38.6641 30.2573 46.4353 32.0145 56.0217 32.0145Z" stroke="black" stroke-width="0.631063" stroke-miterlimit="10" strokeLinecap="round" strokeLinejoin="round"/>
  <path d="M74.8645 58.8438C75.1552 59.2508 75.3006 59.6868 75.3006 60.1229C75.3006 63.3208 67.276 65.9664 56.8672 66.3443" stroke="black" stroke-width="0.946639" stroke-miterlimit="10" strokeLinecap="round" strokeLinejoin="round"/>
  <path d="M75.2416 59.8613C75.2416 59.8613 75.3869 65.6467 75.3869 66.8677C75.3869 70.3272 65.9958 73.1472 54.395 73.1472C53.5518 73.1472 52.7086 73.1182 51.8945 73.0891" stroke="black" stroke-width="0.946639" stroke-miterlimit="10" strokeLinecap="round" strokeLinejoin="round"/>
  <path d="M71.7241 59.3398C71.7823 59.4852 71.8114 59.6015 71.8114 59.7468C71.8114 61.6365 65.822 63.2355 57.8555 63.5844" stroke="black" stroke-width="0.631063" stroke-miterlimit="10" strokeLinecap="round" strokeLinejoin="round"/>
  <path d="M81.0847 47.5059C81.0847 50.9654 71.6935 53.7854 60.0927 53.7854C59.6566 53.7854 59.3658 53.7854 58.9297 53.7854" stroke="black" stroke-width="0.946639" stroke-miterlimit="10" strokeLinecap="round" strokeLinejoin="round"/>
  <path d="M81.0269 47.2451C81.0269 47.2451 81.1723 53.0305 81.1723 54.2515C81.1723 57.7111 71.7811 60.531 60.1803 60.531C59.686 60.531 59.2208 60.531 58.7266 60.502" stroke="black" stroke-width="0.946639" stroke-miterlimit="10" strokeLinecap="round" strokeLinejoin="round"/>
  <path d="M75.6788 48.9316C72.8004 50.1817 66.9564 51.0539 60.2401 51.0539C59.6296 51.0539 59.019 51.0539 58.4375 51.0248" stroke="black" stroke-width="0.631063" stroke-miterlimit="10" strokeLinecap="round" strokeLinejoin="round"/>
  <path d="M76.957 32.4468C81.5218 33.6097 84.4002 35.3249 84.4002 37.2437C84.4002 40.7032 75.009 43.5232 63.4082 43.5232C60.2099 43.5232 57.1862 43.3197 54.4531 42.9418" stroke="black" stroke-width="0.946639" stroke-miterlimit="10" strokeLinecap="round" strokeLinejoin="round"/>
  <path d="M84.3718 36.9531C84.3718 36.9531 84.5172 42.7384 84.5172 43.9595C84.5172 47.419 75.126 50.0937 63.5252 50.239C61.6935 50.2681 59.193 50.1518 58.3789 50.1227" stroke="black" stroke-width="0.946639" stroke-miterlimit="10" strokeLinecap="round" strokeLinejoin="round"/>
  <path d="M77.0153 34.3682C79.4576 35.0368 80.9404 35.909 80.9404 36.8393C80.9404 38.8743 74.0497 40.5605 65.2109 40.7349" stroke="black" stroke-width="0.631063" stroke-miterlimit="10" strokeLinecap="round" strokeLinejoin="round"/>
</svg>