<svg xmlns="http://www.w3.org/2000/svg" width="32" height="32" viewBox="0 0 32 32" fill="none">
  <path d="M16 26.3332C11.04 26.3332 7 22.2932 7 17.3332V10.6665C7 5.7065 11.04 1.6665 16 1.6665C20.96 1.6665 25 5.7065 25 10.6665V17.3332C25 22.2932 20.96 26.3332 16 26.3332ZM16 3.6665C12.1467 3.6665 9 6.79984 9 10.6665V17.3332C9 21.1998 12.1467 24.3332 16 24.3332C19.8533 24.3332 23 21.1998 23 17.3332V10.6665C23 6.79984 19.8533 3.6665 16 3.6665Z" fill="#E688A3"/>
  <path d="M16 30.3332C8.82667 30.3332 3 24.5065 3 17.3332V14.6665C3 14.1198 3.45333 13.6665 4 13.6665C4.54667 13.6665 5 14.1198 5 14.6665V17.3332C5 23.3998 9.93333 28.3332 16 28.3332C22.0667 28.3332 27 23.3998 27 17.3332V14.6665C27 14.1198 27.4533 13.6665 28 13.6665C28.5467 13.6665 29 14.1198 29 14.6665V17.3332C29 24.5065 23.1733 30.3332 16 30.3332Z" fill="#E688A3"/>
  <path d="M19.4785 10.9732C19.3719 10.9732 19.2519 10.9598 19.1319 10.9198C16.9852 10.1465 14.6252 10.1465 12.4785 10.9198C11.9719 11.1065 11.3985 10.8398 11.2119 10.3198C11.0252 9.79984 11.2919 9.22651 11.8119 9.03984C14.3985 8.10651 17.2385 8.10651 19.8252 9.03984C20.3452 9.22651 20.6119 9.79984 20.4252 10.3198C20.2785 10.7332 19.8919 10.9732 19.4785 10.9732Z" fill="#E688A3"/>
  <path d="M18.2679 14.9735C18.1879 14.9735 18.0945 14.9601 18.0012 14.9335C16.5745 14.5468 15.0679 14.5468 13.6412 14.9335C13.0945 15.0801 12.5612 14.7601 12.4145 14.2268C12.2679 13.6935 12.5879 13.1468 13.1212 13.0001C14.8945 12.5201 16.7612 12.5201 18.5345 13.0001C19.0679 13.1468 19.3879 13.6935 19.2412 14.2268C19.1079 14.6935 18.7079 14.9735 18.2679 14.9735Z" fill="#E688A3"/>
</svg>