<svg xmlns="http://www.w3.org/2000/svg" width="32" height="32" viewBox="0 0 32 32" fill="none">
  <path d="M9.85333 23.4532C9.57333 23.4532 9.28 23.3332 9.08 23.0932C7.73333 21.4798 7 19.4398 7 17.3332V10.6665C7 5.7065 11.04 1.6665 16 1.6665C20.1333 1.6665 23.72 4.4665 24.7333 8.4665C24.8667 8.99984 24.5467 9.5465 24.0133 9.67984C23.4933 9.81317 22.9333 9.49317 22.8 8.95984C22 5.83984 19.2133 3.6665 16 3.6665C12.1467 3.6665 9 6.79984 9 10.6665V17.3332C9 18.9732 9.57333 20.5598 10.6133 21.8132C10.9733 22.2398 10.9067 22.8665 10.48 23.2265C10.3067 23.3732 10.08 23.4532 9.85333 23.4532Z" fill="black"/>
  <path d="M15.9998 26.3333C14.9198 26.3333 13.8665 26.1466 12.8798 25.7733C12.3598 25.5866 12.0931 25 12.2931 24.4933C12.4798 23.9733 13.0665 23.7066 13.5731 23.9066C14.3465 24.2 15.1731 24.3466 15.9998 24.3466C19.8531 24.3466 22.9998 21.2133 22.9998 17.3466V13.3066C22.9998 12.76 23.4531 12.3066 23.9998 12.3066C24.5465 12.3066 24.9998 12.76 24.9998 13.3066V17.3333C24.9998 22.2933 20.9598 26.3333 15.9998 26.3333Z" fill="black"/>
  <path d="M16.0005 30.3333C12.6938 30.3333 9.54718 29.0933 7.13385 26.84C6.73385 26.4667 6.70718 25.8267 7.08052 25.4267C7.45385 25.0267 8.09385 25 8.49385 25.3733C10.5338 27.28 13.2005 28.32 15.9872 28.32C22.0538 28.32 26.9872 23.3867 26.9872 17.32V14.6533C26.9872 14.1067 27.4405 13.6533 27.9872 13.6533C28.5338 13.6533 28.9872 14.1067 28.9872 14.6533V17.32C29.0005 24.5067 23.1738 30.3333 16.0005 30.3333Z" fill="black"/>
  <path d="M3.3326 30.3202C3.07927 30.3202 2.82594 30.2269 2.62594 30.0269C2.23927 29.6402 2.23927 29.0002 2.62594 28.6136L27.9593 3.28023C28.3459 2.89357 28.9859 2.89357 29.3726 3.28023C29.7593 3.6669 29.7593 4.3069 29.3726 4.69357L4.03927 30.0269C3.83927 30.2269 3.58594 30.3202 3.3326 30.3202Z" fill="black"/>
  <path d="M15.3984 8.33318C14.8518 8.33318 14.3984 7.87985 14.3984 7.33318V3.01318C14.3984 2.46652 14.8518 2.01318 15.3984 2.01318C15.9451 2.01318 16.3984 2.46652 16.3984 3.01318V7.33318C16.3984 7.89318 15.9451 8.33318 15.3984 8.33318Z" fill="black"/>
  <path d="M11.332 10.9998C10.7854 10.9998 10.332 10.5465 10.332 9.99984V4.6665C10.332 4.11984 10.7854 3.6665 11.332 3.6665C11.8787 3.6665 12.332 4.11984 12.332 4.6665V9.99984C12.332 10.5465 11.8787 10.9998 11.332 10.9998Z" fill="black"/>
</svg>