<svg xmlns="http://www.w3.org/2000/svg" width="32" height="32" viewBox="0 0 32 32" fill="none">
  <path d="M25.9518 9.13519H21.2249C21.5292 8.70565 21.6702 8.18152 21.6222 7.65724C21.5744 7.13303 21.3409 6.64313 20.9637 6.27582C20.5866 5.90851 20.0906 5.68794 19.5653 5.65386C19.0399 5.61978 18.5196 5.77441 18.0982 6.08991L15.2295 8.23688L13.4943 6.21387C13.3054 5.99366 13.075 5.8128 12.8163 5.68162C12.5575 5.55043 12.2754 5.47151 11.9861 5.44934C11.6969 5.42716 11.406 5.46217 11.1303 5.55238C10.8545 5.64258 10.5993 5.78621 10.379 5.97507C10.1588 6.16392 9.97788 6.39429 9.84675 6.65304C9.71555 6.91179 9.6366 7.19384 9.61442 7.4831C9.59224 7.77236 9.62722 8.06312 9.71749 8.33884C9.80768 8.61456 9.95131 8.86982 10.1402 9.09002L10.179 9.13564H4.95154C4.72404 9.13564 4.50586 9.22598 4.34499 9.3868C4.18412 9.54769 4.09375 9.76581 4.09375 9.99331V13.3357C4.09387 13.5632 4.18435 13.7814 4.34528 13.9423C4.50622 14.1031 4.72446 14.1934 4.95199 14.1934H5.58554V27.501C5.58554 27.819 5.71188 28.124 5.93676 28.3489C6.16165 28.5737 6.46666 28.7001 6.7847 28.7001H24.1209C24.4385 28.7001 24.7431 28.5739 24.9676 28.3494C25.1922 28.1249 25.3183 27.8204 25.3183 27.5028V14.1952H25.9518C26.1793 14.1952 26.3976 14.1049 26.5586 13.944C26.7195 13.7832 26.81 13.565 26.8101 13.3375V9.99517C26.8103 9.88228 26.7883 9.7705 26.7453 9.66617C26.7023 9.56183 26.6391 9.46702 26.5593 9.38717C26.4796 9.30725 26.3849 9.24392 26.2807 9.20068C26.1764 9.15744 26.0647 9.13519 25.9518 9.13519Z" fill="black"/>
  <path d="M13.0104 3.44598L10.067 5.97034C9.95364 6.06752 9.94062 6.23814 10.0378 6.35142L15.208 12.3788C15.3052 12.4922 15.4759 12.5052 15.5892 12.4081L18.5326 9.88371C18.646 9.78652 18.659 9.61588 18.5618 9.50261L13.3915 3.47517C13.2944 3.36188 13.1237 3.34881 13.0104 3.44598Z" fill="#E687A3" stroke="black" stroke-width="1.43464" stroke-miterlimit="10"/>
  <path d="M23.5121 6.82942L21.1887 3.72505C21.0993 3.60554 20.9299 3.58116 20.8104 3.6706L14.4521 8.42844C14.3326 8.51789 14.3082 8.68727 14.3977 8.80671L16.7211 11.9111C16.8105 12.0306 16.9799 12.055 17.0994 11.9656L23.4577 7.20772C23.5772 7.11829 23.6016 6.94892 23.5121 6.82942Z" fill="#E687A3" stroke="black" stroke-width="1.43464" stroke-miterlimit="10"/>
  <path d="M26.4765 11.2339V26.2423C26.4765 26.5598 26.3504 26.8643 26.1259 27.0888C25.9013 27.3133 25.5968 27.4395 25.2792 27.4395H7.94528C7.62721 27.4395 7.32221 27.3132 7.09732 27.0883C6.87243 26.8635 6.74609 26.5584 6.74609 26.2404V11.2321C6.74609 10.6936 6.95997 10.1774 7.34068 9.79668C7.72142 9.41603 8.23774 9.20215 8.77616 9.20215H24.4447C24.9836 9.20215 25.5004 9.41625 25.8814 9.7972C26.2625 10.1782 26.4765 10.695 26.4765 11.2339Z" fill="#F2EE98" stroke="black" stroke-width="1.43464" stroke-miterlimit="10"/>
  <path d="M27.1081 7.87402H6.10824C5.63425 7.87402 5.25 8.25825 5.25 8.73222V12.0737C5.25 12.5477 5.63425 12.9319 6.10824 12.9319H27.1081C27.5821 12.9319 27.9663 12.5477 27.9663 12.0737V8.73222C27.9663 8.25825 27.5821 7.87402 27.1081 7.87402Z" fill="#F2EE98" stroke="black" stroke-width="1.43464" stroke-miterlimit="10"/>
  <path d="M18.2929 7.87402H14.9219V27.4385H18.2929V7.87402Z" fill="#E687A3" stroke="black" stroke-width="1.43464" stroke-miterlimit="10"/>
</svg>