<svg width="56" height="22" viewBox="0 0 56 22" fill="none" xmlns="http://www.w3.org/2000/svg">
<path d="M11.5655 10.6249L5.56178 11.5117C5.11783 11.5773 4.66597 11.464 4.30552 11.1967C3.94507 10.9293 3.70552 10.5299 3.63951 10.086L3.46507 8.9139L3.27982 7.65355C3.26224 7.53557 3.25745 7.41605 3.26552 7.29704C3.29046 6.91109 3.44705 6.54538 3.70915 6.26096C3.97125 5.97653 4.32299 5.79062 4.70566 5.73425L10.7122 4.84891C11.074 4.79432 11.4438 4.85915 11.7655 5.03357C12.0872 5.208 12.3432 5.48252 12.4949 5.81554C12.5626 5.96008 12.6087 6.11383 12.6316 6.27181L12.7998 7.41808L12.991 8.70422C13.0561 9.14784 12.9426 9.59921 12.6754 9.95927C12.4082 10.3194 12.009 10.5587 11.5655 10.6249Z" fill="black"/>
<path d="M12.7994 7.41701L3.46507 8.91423L3.27982 7.65386C3.26224 7.53589 3.25745 7.41636 3.26552 7.29735L12.4945 5.81445C12.5623 5.959 12.6084 6.11275 12.6313 6.27074L12.7994 7.41701Z" fill="black"/>
<path d="M14.0359 7.49609H1.41414C1.26308 7.49609 1.14062 7.61853 1.14062 7.76956V18.0539C1.14062 18.205 1.26308 18.3274 1.41414 18.3274H14.0359C14.187 18.3274 14.3094 18.205 14.3094 18.0539V7.76956C14.3094 7.61853 14.187 7.49609 14.0359 7.49609Z" fill="black"/>
<path d="M15.5454 11.3535H11.0195C10.9203 11.3535 10.8398 11.4339 10.8398 11.5332V14.4303C10.8398 14.5295 10.9203 14.6099 11.0195 14.6099H15.5454C15.6446 14.6099 15.7251 14.5295 15.7251 14.4303V11.5332C15.7251 11.4339 15.6446 11.3535 15.5454 11.3535Z" fill="black"/>
<path d="M12.4387 13.7991C12.8946 13.7991 13.2642 13.4296 13.2642 12.9738C13.2642 12.5179 12.8946 12.1484 12.4387 12.1484C11.9829 12.1484 11.6133 12.5179 11.6133 12.9738C11.6133 13.4296 11.9829 13.7991 12.4387 13.7991Z" fill="black"/>
<path d="M12.6511 9.44662L6.64773 10.3334C6.20376 10.3991 5.75183 10.2858 5.39138 10.0185C5.03091 9.75114 4.79137 9.35161 4.72545 8.9077L4.55101 7.73559L4.36577 6.47526C4.34818 6.35728 4.34338 6.23775 4.35146 6.11875C4.37646 5.73282 4.53307 5.36714 4.79516 5.08273C5.05725 4.79832 5.40896 4.61239 5.79159 4.55597L11.7977 3.66922C12.1596 3.61464 12.5294 3.67947 12.8511 3.85389C13.1728 4.02832 13.4288 4.30283 13.5805 4.63585C13.6482 4.78039 13.6943 4.93414 13.7172 5.09213L13.8854 6.2384L14.0765 7.52455C14.1422 7.9684 14.0289 8.42016 13.7617 8.78056C13.4944 9.14102 13.0949 9.38054 12.6511 9.44662Z" fill="#F2EE98" stroke="black" stroke-width="0.95625" stroke-miterlimit="10"/>
<path d="M13.8847 6.23928L4.55102 7.73649L4.36576 6.47613C4.34817 6.35815 4.34338 6.23862 4.35146 6.11962L13.5805 4.63672C13.6482 4.78127 13.6943 4.93501 13.7173 5.093L13.8847 6.23928Z" fill="#9277AA" stroke="black" stroke-width="0.95625" stroke-miterlimit="10"/>
<path d="M15.1219 6.32031H2.50008C2.34902 6.32031 2.22656 6.44275 2.22656 6.59379V16.8782C2.22656 17.0292 2.34902 17.1516 2.50008 17.1516H15.1219C15.2729 17.1516 15.3954 17.0292 15.3954 16.8782V6.59379C15.3954 6.44275 15.2729 6.32031 15.1219 6.32031Z" fill="#F2EE98" stroke="black" stroke-width="0.95625" stroke-miterlimit="10"/>
<path d="M16.6275 10.1758H12.1015C12.0023 10.1758 11.9219 10.2562 11.9219 10.3554V13.2525C11.9219 13.3517 12.0023 13.4321 12.1015 13.4321H16.6275C16.7267 13.4321 16.8071 13.3517 16.8071 13.2525V10.3554C16.8071 10.2562 16.7267 10.1758 16.6275 10.1758Z" fill="#9277AA" stroke="black" stroke-width="0.95625" stroke-miterlimit="10"/>
<path d="M13.5247 12.6195C13.9805 12.6195 14.3501 12.2499 14.3501 11.7941C14.3501 11.3383 13.9805 10.9688 13.5247 10.9688C13.0688 10.9688 12.6992 11.3383 12.6992 11.7941C12.6992 12.2499 13.0688 12.6195 13.5247 12.6195Z" fill="#F2EE98"/>
<path d="M25.328 17.224C23.9947 17.224 22.9333 16.84 22.144 16.072C21.3547 15.2933 20.96 14.1627 20.96 12.68V10.12C20.96 8.63733 21.3547 7.512 22.144 6.744C22.9333 5.96533 23.9947 5.576 25.328 5.576C26.6507 5.576 27.664 5.944 28.368 6.68C29.0827 7.416 29.44 8.424 29.44 9.704V9.784H28.112V9.656C28.112 8.81333 27.8827 8.12533 27.424 7.592C26.976 7.048 26.2773 6.776 25.328 6.776C24.3787 6.776 23.6373 7.06933 23.104 7.656C22.5707 8.232 22.304 9.04267 22.304 10.088V12.712C22.304 13.7573 22.5707 14.5733 23.104 15.16C23.6373 15.736 24.3787 16.024 25.328 16.024C26.2773 16.024 26.976 15.7573 27.424 15.224C27.8827 14.68 28.112 13.9867 28.112 13.144V12.888H29.44V13.096C29.44 14.376 29.0827 15.384 28.368 16.12C27.664 16.856 26.6507 17.224 25.328 17.224ZM33.9936 17.224C33.4496 17.224 32.9536 17.128 32.5056 16.936C32.0576 16.744 31.7056 16.4667 31.4496 16.104C31.1936 15.7413 31.0656 15.2987 31.0656 14.776C31.0656 14.2427 31.1936 13.8053 31.4496 13.464C31.7056 13.112 32.0576 12.8507 32.5056 12.68C32.9536 12.4987 33.455 12.408 34.0096 12.408H36.6496V11.832C36.6496 11.2773 36.4843 10.84 36.1536 10.52C35.8336 10.2 35.3536 10.04 34.7136 10.04C34.0843 10.04 33.5936 10.1947 33.2416 10.504C32.8896 10.8027 32.6496 11.208 32.5216 11.72L31.3376 11.336C31.4656 10.8987 31.6683 10.504 31.9456 10.152C32.223 9.78933 32.591 9.50133 33.0496 9.288C33.519 9.064 34.079 8.952 34.7296 8.952C35.7323 8.952 36.511 9.21333 37.0656 9.736C37.6203 10.248 37.8976 10.9733 37.8976 11.912V15.448C37.8976 15.768 38.047 15.928 38.3456 15.928H39.0656V17H37.9616C37.6096 17 37.327 16.904 37.1136 16.712C36.9003 16.5093 36.7936 16.2427 36.7936 15.912V15.832H36.6016C36.4843 16.0347 36.3243 16.248 36.1216 16.472C35.9296 16.6853 35.663 16.8613 35.3216 17C34.9803 17.1493 34.5376 17.224 33.9936 17.224ZM34.1376 16.136C34.8843 16.136 35.487 15.9173 35.9456 15.48C36.415 15.032 36.6496 14.408 36.6496 13.608V13.432H34.0576C33.5563 13.432 33.1403 13.544 32.8096 13.768C32.4896 13.9813 32.3296 14.3067 32.3296 14.744C32.3296 15.1813 32.495 15.5227 32.8256 15.768C33.167 16.0133 33.6043 16.136 34.1376 16.136ZM40.7968 17V9.176H42.0288V10.136H42.2528C42.3914 9.79467 42.6048 9.544 42.8928 9.384C43.1808 9.224 43.5594 9.144 44.0288 9.144H44.9568V10.296H43.9488C43.3834 10.296 42.9248 10.456 42.5728 10.776C42.2314 11.0853 42.0608 11.5707 42.0608 12.232V17H40.7968ZM49.8588 17.224C49.1868 17.224 48.5681 17.064 48.0028 16.744C47.4374 16.424 46.9894 15.96 46.6588 15.352C46.3281 14.744 46.1628 14.024 46.1628 13.192V12.984C46.1628 12.152 46.3281 11.4373 46.6588 10.84C46.9894 10.232 47.4321 9.768 47.9868 9.448C48.5521 9.11733 49.1761 8.952 49.8588 8.952C50.4028 8.952 50.8614 9.02667 51.2348 9.176C51.6188 9.31467 51.9281 9.496 52.1628 9.72C52.3974 9.93333 52.5788 10.1627 52.7068 10.408H52.9308V5.8H54.1948V17H52.9628V15.704H52.7388C52.5254 16.0987 52.1948 16.4507 51.7468 16.76C51.2988 17.0693 50.6694 17.224 49.8588 17.224ZM50.1948 16.104C51.0054 16.104 51.6614 15.848 52.1628 15.336C52.6748 14.8133 52.9308 14.088 52.9308 13.16V13.016C52.9308 12.088 52.6748 11.368 52.1628 10.856C51.6614 10.3333 51.0054 10.072 50.1948 10.072C49.3948 10.072 48.7334 10.3333 48.2108 10.856C47.6988 11.368 47.4428 12.088 47.4428 13.016V13.16C47.4428 14.088 47.6988 14.8133 48.2108 15.336C48.7334 15.848 49.3948 16.104 50.1948 16.104Z" fill="white"/>
</svg>
