<svg xmlns="http://www.w3.org/2000/svg" width="105" height="105" viewBox="0 0 105 105" fill="none">
  <path d="M48.9459 97.2683C72.3083 97.2683 91.2472 92.3871 91.2472 86.3658C91.2472 80.3446 72.3083 75.4634 48.9459 75.4634C25.5835 75.4634 6.64453 80.3446 6.64453 86.3658C6.64453 92.3871 25.5835 97.2683 48.9459 97.2683Z" fill="#EFDA9C"/>
  <path d="M98.1321 36.3837L97.3016 43.8306L95.9353 47.6344L93.926 50.956L91.7561 53.099L88.4341 54.9741L85.7283 55.9385L85.4872 55.9653L81.8438 56.2332L82.2992 57.3582L82.4332 57.6529L82.0045 62.93L81.4419 78.8417C81.4419 78.8417 80.7722 80.2882 80.7722 80.449C80.7722 80.6097 80.7722 81.7348 80.7722 81.7348L78.5754 83.2081L77.9056 83.1545L69.1989 92.4497L68.6095 92.664L68.1541 92.8247L67.5111 93.7891C67.5111 93.7891 65.2072 93.8159 64.8589 94.0034C64.4839 94.1641 62.2335 94.1641 61.9388 94.1641C61.6441 94.1641 59.5277 93.5212 59.5277 93.5212L58.9116 92.1015C58.9116 92.1015 49.9101 91.405 41.9803 90.7889C35.7918 90.3067 30.2731 89.8781 30.1392 89.8781C30.2195 89.9317 30.1927 91.0836 30.0588 91.0568C29.9248 91.03 27.1119 91.4586 27.1119 91.4586C27.1119 91.4586 24.5668 91.4854 24.4061 91.4318C24.2454 91.3782 22.3433 91.03 22.2093 90.9496C22.0754 90.8693 21.2985 89.4227 21.2985 89.4227V89.1816L19.2892 88.8602L17.655 85.0832L14.7617 66.9749L16.1816 65.1266L22.129 60.3584L26.7368 56.6618L27.0315 56.4207L27.3262 56.6082C27.3798 56.635 28.4782 56.9028 28.5585 56.9564C28.6389 57.01 29.3355 57.519 29.3622 57.5457L26.0403 58.3762L23.522 59.6352L22.8255 60.8406L22.7183 62.5282L22.6915 63.7336L22.9327 64.3497L23.4685 64.9659L33.9165 65.4748L47.633 66.1445C47.633 66.1445 50.2048 64.4301 50.2584 64.4033C50.312 64.3765 50.6335 63.9479 50.6335 63.9479C50.6335 63.9479 52.8838 64.4301 53.0714 64.4837C53.2589 64.5105 56.8219 64.698 56.8219 64.698L57.0898 65.0462L57.3845 66.5999L61.8049 66.7606L65.7162 66.8945L67.0021 65.957L72.8959 60.4656L73.8068 59.6084L74.2622 58.644L73.6728 57.519L72.2798 56.635L72.7084 55.3492L72.628 52.1347L73.5657 51.1436L73.4049 46.8576L71.8511 45.2236L67.8326 43.9378L63.6534 43.4288L58.1347 43.5359L53.2321 44.3664L50.4727 45.9736L49.8566 46.3486L48.4903 45.6521L45.0344 44.2324L39.3013 43.6967L38.7655 43.777L36.8366 42.2501L34.7738 41.2858L30.7821 40.9911L37.3992 15.6771L38.6048 14.5252L41.9267 14.3377L50.9014 14.3913L54.2501 14.4181L55.536 7.53369L69.1989 7.98908L72.0654 15.0074L89.5057 15.811L91.2203 16.7486L92.2919 17.3379L94.8637 20.6327L96.4175 23.9276L97.9713 30.4101L98.1321 36.3837Z" fill="#927DAC"/>
  <path d="M82.3807 57.622C82.4075 57.6755 82.4075 57.7291 82.4075 57.7827L81.9789 62.9794L81.4163 78.8108C81.4163 78.8643 81.4163 78.9179 81.3895 78.9447C81.2555 79.2394 80.7465 80.3645 80.7465 80.4984V81.5967C80.7465 81.7306 80.6929 81.8377 80.5858 81.8913L78.6569 83.2039C78.5765 83.2575 78.4962 83.2843 78.4158 83.2575L78.0407 83.2307C77.9336 83.2307 77.8264 83.2575 77.7461 83.3378L69.2268 92.4456C69.1733 92.4991 69.1465 92.5259 69.0661 92.5527C68.825 92.6331 68.5571 92.4456 68.5839 92.1777L69.6823 69.6763C69.6823 69.5959 69.7359 69.4888 69.7894 69.4352L82.3003 57.3809L82.3807 57.622Z" fill="#A48DC2"/>
  <path d="M74.1014 58.9665L66.1983 66.7349L65.5018 67.1634L57.6255 66.9224L46.4005 66.5473L40.4264 66.2795L35.5506 66.0652L24.6203 65.5562L23.4148 65.074L22.9058 64.833L22.8254 64.1901L22.5039 61.5917L22.6646 60.3327L23.7898 59.6094L27.2189 58.27L29.0674 57.7879L27.5136 56.8235L25.1293 54.493L23.8166 50.716L23.8702 47.6622L25.5312 44.5549L27.7012 42.4923L31.2106 41.1797H33.7557L35.8453 41.7422L37.5063 42.8137L38.819 43.8852L40.8282 43.912L44.2038 43.9924L47.2846 45.2782L49.4278 46.7247L50.7941 45.68L52.1872 45.0906L54.3036 44.2067L57.4112 43.7781L62.2602 43.3227L67.3503 43.8048L70.9669 44.9835L72.9494 46.3229L73.4584 47.4211L73.2977 51.0107L72.3332 52.5375L72.5743 54.6538L72.36 56.2878L72.1457 56.6896L74.1014 58.9665Z" fill="#EFCA64"/>
  <path d="M38.7109 43.5367L43.0777 24.4641L43.4795 23.4997L44.7655 22.6157L50.5521 22.9104L85.1647 24.5712L81.0658 51.8943L73.1896 51.305L73.4575 47.6887C73.4575 47.6887 73.1628 46.4833 72.9217 46.3494C72.6806 46.2154 70.1088 44.7153 70.1088 44.7153L67.3494 43.8313L60.6787 43.3492L56.044 43.6706L51.3022 45.1171L49.6948 46.6172L46.7747 44.8493C46.7747 44.8493 44.5244 43.8849 44.1761 43.9921C43.8546 44.0992 39.6486 43.617 39.6486 43.617L39.1128 43.751L38.7109 43.5367Z" fill="#795F97"/>
  <path d="M23.8438 72.4946L24.9689 80.4505L26.0137 82.0309L27.6211 82.6738L61.6712 85.1919L61.8319 75.6555L61.5104 74.5305L60.5996 74.0483L23.8438 72.4946Z" fill="#795F97"/>
  <path d="M92.4535 30.5693L93.1769 32.6587L93.5519 38.2841L92.266 42.8112L89.8281 46.8293L92.4535 30.5693Z" fill="#795F97"/>
  <path d="M59.4467 9.40867L58.4555 7.6407C58.4555 7.6407 55.2943 7.56033 55.2407 7.6407C55.1871 7.72106 54.0352 14.6054 54.0352 14.6054L55.0532 14.659L55.9105 9.56939L59.4467 9.40867Z" fill="#795F97"/>
  <path d="M77.1817 67.8848L76.8067 75.7335L75.3868 77.555L71.7166 80.582C71.7166 80.582 71.4219 74.6084 71.4219 74.4477C71.4219 74.287 71.8237 73.1619 71.8237 73.1619L72.8685 72.0636L77.1817 67.8848Z" fill="#795F97"/>
  <path d="M22.4231 63.7876L21.9141 64.7252C21.9141 64.7252 22.0748 65.2877 22.2088 65.2877C22.3427 65.2877 23.709 65.3681 23.709 65.3681L22.557 64.4841L22.4231 63.7876Z" fill="#795F97"/>
  <path d="M61.7528 51.5743L61.8064 54.6817C61.8064 54.6817 64.6729 54.6281 64.8873 54.6281C65.1016 54.6281 68.7986 53.7709 68.7986 53.7709L71.3169 52.4315L72.2009 52.2708L71.9866 53.3959L70.2453 54.4406L68.4235 54.9763L63.8157 55.2978L62.7976 56.2621L60.2794 59.2087L58.9399 62.3161L59.3417 66.2806V66.9771L47.3398 66.2002L50.2599 64.218L52.4031 61.4589L53.6623 58.673L54.0373 55.5656L53.9034 53.6369L52.6443 50.0742L56.3145 51.1189L61.7528 51.5743Z" fill="#D8B450"/>
  <path d="M29.1466 57.7334L25.9319 58.6174L23.1993 60.1978C23.1993 60.1978 22.4492 61.2693 22.5027 61.4836C22.5563 61.6979 22.7706 64.8053 22.7706 64.8053L29.3878 65.7428L35.2548 65.7964L31.906 63.4391L29.7896 59.8496L29.1466 57.7334Z" fill="#D8B450"/>
  <path d="M27.7276 56.5802C27.7276 56.5802 26.6827 51.1691 30.1922 47.4457C33.7017 43.7222 37.8809 42.9722 37.8809 42.9722L38.8454 44.0972L35.4431 44.9544L32.5765 47.3385L30.6477 50.178L29.201 54.4907L29.4957 57.9999L27.7276 56.5802Z" fill="#D8B450"/>
  <path d="M61.3234 49.7246C66.2504 49.7246 70.2445 48.5612 70.2445 47.1262C70.2445 45.6912 66.2504 44.5278 61.3234 44.5278C56.3964 44.5278 52.4023 45.6912 52.4023 47.1262C52.4023 48.5612 56.3964 49.7246 61.3234 49.7246Z" fill="#D8B450"/>
  <path d="M72.763 60.5471L66.8692 66.0385L65.5833 66.9761L61.6719 66.8421C61.4308 66.0385 61.2969 65.1545 61.2969 64.2438C61.2969 60.1185 64.0562 56.7969 67.4318 56.7969C69.7089 56.8237 71.6914 58.3238 72.763 60.5471Z" fill="#D8B450"/>
  <path d="M52.1873 45.0869L40.4266 66.2757L35.5508 66.0614L40.8284 43.9082L44.2039 43.9886L47.2848 45.2744L49.428 46.7209L50.7943 45.6762L52.1873 45.0869Z" fill="#EFDA9C"/>
  <path d="M36.3274 60.6566C36.3274 60.6566 34.7468 54.174 34.8272 54.174C34.9076 54.174 37.8277 58.2725 37.8277 58.2725L38.3367 57.951L40.8817 49.0576L42.0337 58.3528L43.0517 58.1921L46.1325 55.5134L43.8018 61.5405L36.3274 60.6566Z" fill="#9E88B5"/>
  <path opacity="0.3" d="M30.0571 89.96C30.1375 90.0135 30.1107 91.1654 29.9768 91.1386C29.8428 91.1118 27.0299 91.5404 27.0299 91.5404C27.0299 91.5404 24.4848 91.5672 24.3241 91.5136C24.1633 91.46 22.2612 91.1118 22.1273 91.0315C21.9933 90.9511 21.2164 89.5046 21.2164 89.5046V89.2635L19.2072 88.942L17.573 85.165L14.6797 67.0567L16.0996 65.2084L22.0469 60.4403L26.6548 56.7436L27.2442 56.7168L29.2802 57.6544L30.5393 60.9492L33.7273 65.0745L33.8345 65.5834L33.8613 65.7174L31.8788 65.8781L33.8613 68.0479L33.647 72.6553L41.8983 90.8707C35.7366 90.3885 30.1911 89.96 30.0571 89.96Z" fill="#624B7F"/>
  <path opacity="0.3" d="M47.9815 22.8287L50.4194 45.8122L50.339 46.0265L49.6961 46.4016L48.3298 45.7051L44.8739 44.2854L39.1408 43.7228L38.605 43.8032L36.703 42.2763L34.6401 41.312L30.6484 41.0173L37.2388 15.7032L38.4443 14.5514L41.7931 14.3906L50.7409 14.4442L50.7945 14.5246L48.0887 19.2124L47.9815 22.8287Z" fill="#624B7F"/>
  <path d="M98.1331 36.3838L97.3027 43.8575L95.9364 47.6613L93.9003 50.9562L91.7303 53.126L88.4084 55.0011L85.7294 55.9654L85.4883 55.9922L91.0606 16.8022L92.1322 17.3916L94.6772 20.6596L96.2578 23.9545L97.8117 30.437L98.1331 36.3838Z" fill="#A48DC2"/>
  <path d="M27.165 56.58C27.165 56.58 16.4758 64.5091 15.0292 66.3842C15.0292 66.3842 14.7077 66.8664 14.8148 67.9379C14.8952 68.8218 17.092 82.5102 18.2707 87.3051C18.5118 88.2695 19.3423 88.9928 20.3336 89.0731C28.3706 89.716 66.064 92.7698 67.1088 92.7698C68.6626 92.7698 69.1449 92.3947 70.0289 91.5911C70.8862 90.7875 80.2627 80.9833 80.9592 79.9118C81.6558 78.8403 81.3343 77.7688 81.4415 76.9384C81.5486 76.1348 82.2451 59.0444 82.4059 58.2408C82.5666 57.4372 82.0844 56.3121 80.6913 56.0978C79.2983 55.8835 72.5204 55.4014 72.5204 55.4014" stroke="black" stroke-width="0.946639" stroke-miterlimit="10" strokeLinecap="round" strokeLinejoin="round"/>
  <path d="M22.5836 63.7074L21.9139 64.3502C21.5656 64.6717 21.7799 65.261 22.2622 65.2878C29.3079 65.6628 63.5455 67.404 65.5012 67.0558C66.6799 66.8415 72.5201 60.8411 74.449 59.0196C74.8508 58.6445 74.7169 57.9481 74.2079 57.7605C73.9132 57.6534 73.6721 57.5463 73.1095 57.4927" stroke="black" stroke-width="0.946639" stroke-miterlimit="10" strokeLinecap="round" strokeLinejoin="round"/>
  <path d="M21.2969 89.2349V89.5563C21.3237 90.2796 21.8059 90.8957 22.4756 91.11C23.199 91.3243 24.2973 91.5118 25.9315 91.4582C27.6461 91.4046 28.7177 91.2171 29.3606 91.0564C29.9232 90.9225 30.3251 90.4403 30.4055 89.8778" stroke="black" stroke-width="0.946639" stroke-miterlimit="10" strokeLinecap="round" strokeLinejoin="round"/>
  <path d="M58.9922 92.1597V92.4811C58.9922 93.0972 59.3672 93.6598 59.9566 93.8473C60.6532 94.0884 61.8051 94.3294 63.6 94.2759C65.3146 94.2223 66.3862 94.0348 67.0292 93.8741C67.5918 93.7401 67.9936 93.258 68.074 92.6954" stroke="black" stroke-width="0.946639" stroke-miterlimit="10" strokeLinecap="round" strokeLinejoin="round"/>
  <path d="M80.6913 80.4209L80.5573 81.7603C80.5573 81.7603 79.9144 82.6443 78.0391 83.2604" stroke="black" stroke-width="0.946639" stroke-miterlimit="10" strokeLinecap="round" strokeLinejoin="round"/>
  <path d="M81.3613 56.2592C81.3613 56.2592 96.4976 57.8129 97.8639 39.1688C98.8015 26.3109 94.8366 20.1498 92.2648 17.5514C91.2468 16.5067 89.8269 15.9174 88.3802 15.8638C79.486 15.5156 41.4978 14.0423 39.5421 14.2833C37.3186 14.578 37.0239 16.3728 37.0239 16.3728L30.6211 41.2315" stroke="black" stroke-width="0.946639" stroke-miterlimit="10" strokeLinecap="round" strokeLinejoin="round"/>
  <path d="M73.299 51.3349L81.0681 51.951L85.5956 23.6099C85.8635 22.0027 84.658 20.5561 83.0506 20.5026L43.2139 18.9489C41.7405 18.8953 40.4278 19.8597 40.0795 21.2794L34.8555 41.3967" stroke="black" stroke-width="0.946639" stroke-miterlimit="10" strokeLinecap="round" strokeLinejoin="round"/>
  <path d="M38.6562 43.6154L43.1838 24.382C43.4249 23.3909 44.3357 22.6944 45.3537 22.748L85.244 24.6231" stroke="black" stroke-width="0.946639" stroke-miterlimit="10" strokeLinecap="round" strokeLinejoin="round"/>
  <path d="M54.1445 14.4713L55.4037 7.61377L69.3344 8.01558L71.8527 15.141" stroke="black" stroke-width="0.946639" stroke-miterlimit="10" strokeLinecap="round" strokeLinejoin="round"/>
  <path d="M55.4023 7.61377L55.8042 9.51568L68.2079 9.86392L69.3331 8.01558" stroke="black" stroke-width="0.946639" stroke-miterlimit="10" strokeLinecap="round" strokeLinejoin="round"/>
  <path d="M68.207 9.86084L69.7341 14.8701" stroke="black" stroke-width="0.946639" stroke-miterlimit="10" strokeLinecap="round" strokeLinejoin="round"/>
  <path d="M55.8037 9.51318L55 14.5224" stroke="black" stroke-width="0.946639" stroke-miterlimit="10" strokeLinecap="round" strokeLinejoin="round"/>
  <path d="M35.4145 65.9278C31.7175 63.9991 29.1992 60.0614 29.1992 55.5343C29.1992 49.0785 34.3161 43.855 40.6385 43.855C46.961 43.855 52.0778 49.0785 52.0778 55.5343C52.0778 60.4096 49.1309 64.6152 44.9785 66.3564" stroke="black" stroke-width="0.946639" stroke-miterlimit="10" strokeLinecap="round" strokeLinejoin="round"/>
  <path d="M41.7656 43.855C48.0881 43.855 53.955 49.0517 53.955 55.5075C53.955 60.4632 51.0082 64.8295 46.7486 66.5439" stroke="black" stroke-width="0.946639" stroke-miterlimit="10" strokeLinecap="round" strokeLinejoin="round"/>
  <path d="M29.1493 57.5962C25.9345 56.364 23.8984 53.2834 23.8984 49.6403C23.8984 44.899 27.7294 41.0684 32.4712 41.0684C35.0163 41.0684 37.2934 42.1666 38.8472 43.9078" stroke="black" stroke-width="0.946639" stroke-miterlimit="10" strokeLinecap="round" strokeLinejoin="round"/>
  <path d="M59.4482 66.9745C59.1535 66.0638 59.0195 65.0994 59.0195 64.0815C59.0195 59.0722 62.7433 55.0273 67.3512 55.0273C70.2445 55.0273 72.8164 56.6346 74.2898 59.099" stroke="black" stroke-width="0.946639" stroke-miterlimit="10" strokeLinecap="round" strokeLinejoin="round"/>
  <path d="M57.3834 66.9202C57.1691 66.1165 57.0352 65.2326 57.0352 64.3486C57.0352 59.3393 60.759 55.2944 65.3668 55.2944" stroke="black" stroke-width="0.946639" stroke-miterlimit="10" strokeLinecap="round" strokeLinejoin="round"/>
  <path d="M49.6406 46.6457C50.7122 44.8242 55.5612 43.458 61.3478 43.458C67.9382 43.458 73.2962 45.226 73.2962 47.4225C73.2962 49.6191 67.9382 51.3871 61.3478 51.3871C57.8116 51.3871 54.6236 50.8781 52.4268 50.0745" stroke="black" stroke-width="0.946639" stroke-miterlimit="10" strokeLinecap="round" strokeLinejoin="round"/>
  <path d="M73.2972 50.7427C73.2972 52.9392 67.9392 54.7072 61.3488 54.7072C58.5091 54.7072 55.8837 54.3858 53.8477 53.8232" stroke="black" stroke-width="0.946639" stroke-miterlimit="10" strokeLinecap="round" strokeLinejoin="round"/>
  <path d="M34.3741 65.341C27.8105 65.2071 22.6133 63.4659 22.6133 61.3229C22.6133 59.7692 25.3994 58.4031 29.4715 57.7334" stroke="black" stroke-width="0.946639" stroke-miterlimit="10" strokeLinecap="round" strokeLinejoin="round"/>
  <path d="M23.6575 65.3404C23.0146 64.8582 22.6395 64.3225 22.6395 63.7599C22.6395 63.3313 22.5859 61.3223 22.5859 61.3223" stroke="black" stroke-width="0.946639" stroke-miterlimit="10" strokeLinecap="round" strokeLinejoin="round"/>
  <path d="M90.7647 20.6587L85.9961 52.3482" stroke="black" stroke-width="0.946639" stroke-miterlimit="10" strokeLinecap="round" strokeLinejoin="round"/>
  <path d="M92.9094 27.8363C94.115 29.6847 95.9903 33.542 95.2134 38.9263C94.4364 44.3641 91.2752 47.9537 89.6143 49.4805L89.8018 48.2215L92.6951 29.0953L92.9094 27.8363ZM92.8826 27.2202C92.6415 27.2202 92.4004 27.3809 92.3468 27.6756L92.1325 28.9882L89.2392 48.1144L88.9713 49.8556C88.9445 50.1234 89.132 50.3109 89.3732 50.3109C89.4535 50.3109 89.5607 50.2842 89.6411 50.2038C91.2752 48.7841 94.9187 45.007 95.776 38.9799C96.6064 33.3009 94.5436 29.2561 93.3381 27.4345C93.2309 27.3006 93.0434 27.2202 92.8826 27.2202Z" fill="black"/>
  <path d="M92.3995 31.1605C93.0157 33.0892 93.4443 35.634 93.0157 38.6342C92.5602 41.6879 91.3815 44.1524 90.1491 45.9739L92.3995 31.1605ZM92.1316 28.9907L89.2383 48.1169C90.926 46.1346 92.9353 43.0005 93.5515 38.7413C94.1676 34.5089 93.1764 31.1873 92.1316 28.9907Z" fill="black"/>
  <path d="M82.1402 57.252L70.4062 69.3063" stroke="black" stroke-width="0.946639" stroke-miterlimit="10" strokeLinecap="round" strokeLinejoin="round"/>
  <path d="M14.707 67.0552L60.0356 69.466" stroke="black" stroke-width="0.946639" stroke-miterlimit="10" strokeLinecap="round" strokeLinejoin="round"/>
  <path d="M23.2821 72.4375C23.3089 72.4375 23.3089 72.4375 23.3356 72.4375L60.4665 74.2859C61.1899 74.3127 61.7256 74.902 61.7256 75.6252L61.5113 85.2687C61.4845 86.0991 60.788 86.7956 59.9575 86.7956C59.9307 86.7956 59.8771 86.7956 59.8503 86.7956L26.0682 84.2776C24.7823 84.1704 23.7375 83.2061 23.55 81.9203L22.2908 73.5894C22.2373 73.2947 22.3176 73.0001 22.5319 72.7858C22.6927 72.5715 22.9874 72.4375 23.2821 72.4375ZM23.2553 71.875C22.2908 71.875 21.5407 72.7322 21.7015 73.6965L22.9606 82.0274C23.2017 83.5811 24.4608 84.7329 26.0146 84.8669L59.7432 87.4117C59.7968 87.4117 59.8504 87.4117 59.9039 87.4117C61.0559 87.4117 61.9936 86.5009 62.0203 85.3223L62.2347 75.6788C62.2615 74.6609 61.4577 73.8037 60.4397 73.7501L23.3089 71.9018C23.3357 71.875 23.3089 71.875 23.2553 71.875Z" fill="black"/>
  <path d="M61.6957 85.295L27.9672 82.7502C26.4134 82.643 25.1542 81.4644 24.9131 79.9107L23.7344 72.062" stroke="black" stroke-width="0.946639" stroke-miterlimit="10" strokeLinecap="round" strokeLinejoin="round"/>
  <path d="M73.2969 47.4214V50.743" stroke="black" stroke-width="0.946639" stroke-miterlimit="10" strokeLinecap="round" strokeLinejoin="round"/>
  <path d="M61.6173 56.2094C61.269 56.2094 60.8939 56.2361 60.5457 56.2361C58.1614 56.2361 55.9378 55.9951 54.0625 55.5933" stroke="black" stroke-width="0.946639" stroke-miterlimit="10" strokeLinecap="round" strokeLinejoin="round"/>
  <path d="M72.4933 52.2676C72.4933 53.3926 71.0467 54.4106 68.7695 55.1338" stroke="black" stroke-width="0.946639" stroke-miterlimit="10" strokeLinecap="round" strokeLinejoin="round"/>
  <path d="M58.3239 59.4729C56.5825 59.3658 54.9483 59.1247 53.582 58.8032" stroke="black" stroke-width="0.946639" stroke-miterlimit="10" strokeLinecap="round" strokeLinejoin="round"/>
  <path d="M72.4922 55.5933C72.4922 55.9415 72.3583 56.2629 72.1172 56.5844" stroke="black" stroke-width="0.946639" stroke-miterlimit="10" strokeLinecap="round" strokeLinejoin="round"/>
  <path d="M72.4922 52.2676V55.5892" stroke="black" stroke-width="0.946639" stroke-miterlimit="10" strokeLinecap="round" strokeLinejoin="round"/>
  <path d="M57.4377 61.4298C55.6964 61.4298 54.0354 61.2958 52.5352 61.0815" stroke="black" stroke-width="0.946639" stroke-miterlimit="10" strokeLinecap="round" strokeLinejoin="round"/>
  <path d="M57.0105 64.7783C54.3316 64.7515 52.2955 64.5104 50.3398 64.0015" stroke="black" stroke-width="0.946639" stroke-miterlimit="10" strokeLinecap="round" strokeLinejoin="round"/>
  <path d="M40.7203 50.9027L41.7383 58.3496C41.7651 58.5639 41.899 58.7246 42.0865 58.8049C42.1669 58.8317 42.2205 58.8585 42.3009 58.8585C42.4348 58.8585 42.5688 58.8049 42.6491 58.7246L45.4621 56.4209L43.5332 61.2962L36.5142 60.5997L35.6837 55.9387L37.5858 58.3763C37.693 58.5103 37.8537 58.5906 38.0413 58.5906C38.0681 58.5906 38.1216 58.5906 38.1484 58.5906C38.3627 58.5371 38.5235 58.4031 38.5771 58.1888L40.7203 50.9027ZM40.9346 48.1436L38.068 58.0549L34.7461 53.8225L36.032 61.1622L43.9083 61.9391L46.8284 54.6261L42.3009 58.296L40.9346 48.1436Z" fill="black"/>
  <path d="M78.4943 66.8101C78.6283 66.8101 78.7354 66.8637 78.8426 66.9708C78.9229 67.0512 78.9497 67.1583 78.9497 67.2923L78.3336 76.266C78.3068 76.8018 78.0657 77.3108 77.6906 77.6858L73.2167 82.1057C73.0559 82.2664 72.8684 82.2932 72.7612 82.2932C72.4666 82.2932 72.1183 82.0789 72.0915 81.6771L71.6361 75.516C71.5557 74.4445 71.9308 73.373 72.6809 72.623L78.1996 66.9708C78.28 66.8637 78.3871 66.8101 78.4943 66.8101ZM78.4943 66.2476C78.2532 66.2476 77.9853 66.3547 77.771 66.569L72.2522 72.2211C71.395 73.1051 70.9395 74.3373 71.0467 75.5696L71.5021 81.7307C71.5557 82.4271 72.1451 82.8825 72.7612 82.8825C73.0559 82.8825 73.3774 82.7754 73.6453 82.5075L78.0925 78.0608C78.5747 77.5786 78.8426 76.9625 78.8962 76.2928L79.5123 67.3191C79.5659 66.6762 79.0569 66.2476 78.4943 66.2476Z" fill="black"/>
  <path d="M77.2358 67.644L76.8072 75.0106C76.7536 75.6803 76.4857 76.3232 76.0035 76.7785L71.8242 80.6895" stroke="black" stroke-width="0.946639" stroke-miterlimit="10" strokeLinecap="round" strokeLinejoin="round"/>
  <path d="M40.7766 65.2638C45.8071 65.2638 49.8851 60.9343 49.8851 55.5936C49.8851 50.2529 45.8071 45.9233 40.7766 45.9233C35.746 45.9233 31.668 50.2529 31.668 55.5936C31.668 60.9343 35.746 65.2638 40.7766 65.2638Z" stroke="black" stroke-width="0.631063" stroke-miterlimit="10" strokeLinecap="round" strokeLinejoin="round"/>
  <path d="M61.1883 49.8317C66.0709 49.8317 70.029 48.6444 70.029 47.1798C70.029 45.7151 66.0709 44.5278 61.1883 44.5278C56.3058 44.5278 52.3477 45.7151 52.3477 47.1798C52.3477 48.6444 56.3058 49.8317 61.1883 49.8317Z" stroke="black" stroke-width="0.631063" stroke-miterlimit="10" strokeLinecap="round" strokeLinejoin="round"/>
  <path d="M29.1735 54.8159C27.4053 53.7176 26.2266 51.8157 26.2266 49.6459C26.2266 46.2171 29.1735 43.458 32.7901 43.458C34.1564 43.458 35.4155 43.8598 36.4603 44.5027" stroke="black" stroke-width="0.631063" stroke-miterlimit="10" strokeLinecap="round" strokeLinejoin="round"/>
  <path d="M61.5916 67.0562C61.3237 66.333 61.163 65.5829 61.1362 64.7793C60.8951 60.7612 63.5741 57.3324 67.1103 57.1181C69.4946 56.9841 71.6646 58.3235 72.897 60.4665" stroke="black" stroke-width="0.615734" stroke-miterlimit="10" strokeLinecap="round" strokeLinejoin="round"/>
</svg>