<svg width="64" height="63" viewBox="0 0 64 63" fill="none" xmlns="http://www.w3.org/2000/svg">
<path d="M58.8305 34.74C58.8305 34.08 55.3105 33.49 49.7105 33.07L52.6205 32.89C53.989 32.8051 55.2677 32.1801 56.1754 31.1524C57.0831 30.1247 57.5453 28.7785 57.4605 27.41L57.3505 25.69C57.2656 24.3215 56.6406 23.0428 55.6129 22.1351C54.5852 21.2274 53.239 20.7652 51.8705 20.85L15.7705 23.03L12.5105 15.62C14.3305 14.62 13.5105 12.93 13.5105 10.72C13.5105 9.17648 12.8973 7.69614 11.8059 6.60468C10.7144 5.51322 9.23406 4.90004 7.6905 4.90004C7.04727 4.90297 6.40884 5.01106 5.8005 5.22004L6.0705 4.79004L5.4705 5.05004L5.2005 5.47004C3.79971 6.09593 2.70336 7.25049 2.1507 8.68175C1.59803 10.113 1.63393 11.7048 2.25055 13.1097C2.86717 14.5145 4.01445 15.6185 5.44202 16.1806C6.8696 16.7427 8.46156 16.7174 9.8705 16.11L13.0105 23.29L4.8605 23.8C4.18112 23.8408 3.51647 24.0153 2.90468 24.3135C2.29289 24.6117 1.74601 25.0278 1.2954 25.5378C0.844792 26.0479 0.499331 26.6419 0.278836 27.2858C0.0583403 27.9297 -0.0328504 28.6108 0.0104965 29.29L0.120497 31.01C0.180734 31.9569 0.502362 32.8685 1.04963 33.6435C1.5969 34.4185 2.34836 35.0265 3.2205 35.4C2.4943 35.8389 1.8873 36.4498 1.45305 37.1788C1.0188 37.9078 0.770649 38.7325 0.730496 39.58L0.640496 41.31C0.57798 42.6793 1.06068 44.0174 1.98286 45.0314C2.90504 46.0455 4.19151 46.6527 5.5605 46.72L17.0105 47.26C7.6205 47.44 1.1405 48.13 1.1105 49.11C1.1105 49.58 2.6205 50.06 5.2505 50.5C4.02597 50.6799 2.90689 51.294 2.09735 52.2302C1.28781 53.1664 0.841745 54.3624 0.840496 55.6V57.32C0.835209 58.0019 0.965107 58.678 1.22268 59.3093C1.48025 59.9406 1.86039 60.5146 2.34113 60.9981C2.82187 61.4817 3.39367 61.8651 4.02349 62.1264C4.65331 62.3876 5.32866 62.5214 6.0105 62.52H53.1105C53.7898 62.5214 54.4627 62.3885 55.0905 62.1292C55.7184 61.8698 56.2888 61.4891 56.7692 61.0087C57.2495 60.5284 57.6303 59.9579 57.8896 59.3301C58.149 58.7022 58.2818 58.0293 58.2805 57.35V55.6C58.2816 54.731 58.062 53.876 57.6422 53.1151C57.2224 52.3542 56.6162 51.7125 55.8805 51.25C56.9405 51.01 57.5305 50.74 57.5405 50.45C57.5405 49.94 55.7805 49.45 52.7505 48.95C54.094 48.9776 55.3952 48.4801 56.3775 47.5631C57.3598 46.6462 57.9457 45.3822 58.0105 44.04L58.1005 42.32C58.1328 41.6417 58.0311 40.9637 57.8013 40.3247C57.5715 39.6857 57.2181 39.0982 56.7612 38.5958C56.3043 38.0935 55.7529 37.686 55.1385 37.3967C54.5242 37.1075 53.8588 36.9421 53.1805 36.91L46.6605 36.6C54.0105 36.19 58.8305 35.52 58.8305 34.74Z" fill="black"/>
<path d="M7.78551 0.66844L6.26562 1.33594L16.5917 24.8484L18.1116 24.1809L7.78551 0.66844Z" fill="#F2EE98"/>
<path d="M7.52078 1.34L17.4408 23.93L16.8508 24.19L6.93078 1.6L7.52078 1.34ZM8.01078 0L7.07078 0.410001L6.48078 0.67L5.55078 1.08L5.96078 2.01L15.8808 24.6L16.2908 25.53L17.2208 25.12L17.8108 24.86L18.7408 24.45L18.3708 23.52L8.45078 0.93L8.05078 0H8.01078Z" fill="black"/>
<path d="M10.2499 15.0604C13.7459 15.0604 16.5799 12.2264 16.5799 8.73039C16.5799 5.23443 13.7459 2.40039 10.2499 2.40039C6.75396 2.40039 3.91992 5.23443 3.91992 8.73039C3.91992 12.2264 6.75396 15.0604 10.2499 15.0604Z" fill="#E687A3"/>
<path d="M10.2504 2.91016C11.4015 2.91016 12.5267 3.2515 13.4838 3.89101C14.4409 4.53052 15.1869 5.43948 15.6274 6.50295C16.0679 7.56641 16.1831 8.73662 15.9586 9.86559C15.734 10.9946 15.1797 12.0316 14.3658 12.8455C13.5518 13.6595 12.5148 14.2138 11.3858 14.4383C10.2568 14.6629 9.08664 14.5476 8.02318 14.1071C6.95971 13.6666 6.05075 12.9207 5.41124 11.9636C4.77173 11.0065 4.43039 9.88125 4.43039 8.73016C4.42908 7.9655 4.57872 7.2081 4.87073 6.50139C5.16275 5.79468 5.59139 5.15256 6.13209 4.61186C6.67279 4.07116 7.31491 3.64252 8.02162 3.3505C8.72833 3.05849 9.48573 2.90885 10.2504 2.91016ZM10.2504 1.91016C8.89715 1.90819 7.57372 2.30766 6.44757 3.05805C5.32143 3.80843 4.44317 4.876 3.92393 6.12567C3.40469 7.37534 3.26781 8.75095 3.53061 10.0784C3.7934 11.4059 4.44405 12.6256 5.40025 13.5832C6.35644 14.5408 7.57519 15.1933 8.90229 15.458C10.2294 15.7227 11.6052 15.5879 12.8556 15.0705C14.1061 14.553 15.1749 13.6763 15.9269 12.5513C16.679 11.4263 17.0804 10.1034 17.0804 8.75016C17.0778 6.93862 16.3576 5.20189 15.0776 3.92C13.7976 2.63811 12.0619 1.91545 10.2504 1.91016Z" fill="black"/>
<path d="M7.74042 33.9095C6.22882 33.9099 4.77393 33.334 3.67215 32.2991C2.57036 31.2642 1.90457 29.8482 1.81042 28.3395L1.71042 26.7995C1.63319 25.2339 2.17171 23.7002 3.21079 22.5266C4.24987 21.353 5.70698 20.6326 7.27042 20.5195L55.3604 17.5195H55.7404C57.2478 17.5332 58.6949 18.1139 59.7936 19.146C60.8924 20.178 61.5624 21.5859 61.6704 23.0895L61.7704 24.6295C61.8557 26.2018 61.3194 27.7446 60.2774 28.925C59.2354 30.1055 57.7711 30.829 56.2004 30.9395L8.12042 33.9395L7.74042 33.9095Z" fill="#F2EE98"/>
<path d="M55.7403 17.9797C57.1184 17.9819 58.444 18.508 59.4486 19.4513C60.4531 20.3946 61.0615 21.6845 61.1503 23.0597L61.2503 24.6097C61.3379 26.0455 60.8522 27.4575 59.8997 28.5355C58.9473 29.6136 57.606 30.2696 56.1703 30.3597L8.08032 33.3597H7.74032C6.36228 33.3575 5.03664 32.8314 4.03206 31.8881C3.02749 30.9448 2.41914 29.6549 2.33032 28.2797L2.23032 26.7297C2.14272 25.2938 2.62846 23.8819 3.58089 22.8039C4.53333 21.7258 5.87462 21.0697 7.31032 20.9797L55.3903 17.9797H55.7403ZM55.7403 16.9297H55.3303L7.24032 19.9297C5.5277 20.0402 3.92889 20.8257 2.79467 22.1136C1.66045 23.4016 1.08346 25.0868 1.19032 26.7997L1.29032 28.3397C1.39437 29.9811 2.11868 31.5215 3.3164 32.6487C4.51412 33.7758 6.09563 34.4054 7.74032 34.4097H8.15032L56.2403 31.4097C57.9431 31.289 59.5293 30.5003 60.6531 29.2154C61.777 27.9304 62.3475 26.2534 62.2403 24.5497L62.1403 23.0097C62.0363 21.3683 61.312 19.8279 60.1142 18.7007C58.9165 17.5736 57.335 16.944 55.6903 16.9397L55.7403 16.9297Z" fill="black"/>
<path d="M54.9313 47.4599L8.39129 45.2399C7.61227 45.204 6.84798 45.0148 6.14218 44.6831C5.43638 44.3514 4.80294 43.8838 4.27813 43.3069C3.75331 42.7301 3.34743 42.0554 3.08372 41.3215C2.82 40.5876 2.70364 39.8089 2.74129 39.0299L2.80129 37.8199C2.87082 36.2971 3.52509 34.8598 4.62786 33.8073C5.73063 32.7549 7.19689 32.1683 8.72129 32.1699H9.01129L55.5513 34.3799C57.1181 34.4704 58.5872 35.1712 59.6433 36.3321C60.6995 37.493 61.2588 39.0215 61.2013 40.5899L61.1413 41.7999C61.0869 43.3342 60.4396 44.7877 59.3355 45.8545C58.2314 46.9213 56.7566 47.5183 55.2213 47.5199L54.9313 47.4599Z" fill="#6AB5D2"/>
<path d="M8.71998 32.6799H9.00998L55.55 34.8899C56.9871 34.9599 58.3377 35.5973 59.3052 36.6623C60.2727 37.7273 60.7779 39.1327 60.71 40.5699L60.65 41.7799C60.5833 43.1711 59.9846 44.4834 58.9777 45.4456C57.9708 46.4078 56.6327 46.9464 55.24 46.9499H54.97L8.40998 44.7399C6.9738 44.6674 5.62476 44.0292 4.65782 42.9648C3.69088 41.9004 3.18471 40.4965 3.24998 39.0599L3.30998 37.8499C3.37667 36.4588 3.97534 35.1464 4.98223 34.1842C5.98912 33.222 7.32725 32.6835 8.71998 32.6799ZM8.71998 31.6799C7.06445 31.6807 5.4728 32.319 4.27547 33.4623C3.07814 34.6057 2.36711 36.1662 2.28999 37.8199L2.22998 39.0299C2.18963 39.875 2.31622 40.7198 2.60249 41.516C2.88877 42.3122 3.32912 43.0442 3.8984 43.6701C4.46768 44.296 5.15472 44.8036 5.92026 45.1639C6.6858 45.5242 7.51483 45.7302 8.35998 45.7699L54.9 47.9899H55.22C56.8755 47.9891 58.4672 47.3508 59.6645 46.2075C60.8618 45.0642 61.5729 43.5037 61.65 41.8499V40.6399C61.6917 39.7953 61.5664 38.9507 61.2812 38.1546C60.9961 37.3585 60.5567 36.6264 59.9882 36.0003C59.4197 35.3743 58.7333 34.8665 57.9683 34.5061C57.2033 34.1456 56.3747 33.9397 55.53 33.8999L9.00998 31.6699L8.71998 31.6799Z" fill="black"/>
<path d="M55.4109 47.9297H8.81086C5.53581 47.9297 2.88086 50.5846 2.88086 53.8597V55.0797C2.88086 58.3547 5.53581 61.0097 8.81086 61.0097H55.4109C58.6859 61.0097 61.3409 58.3547 61.3409 55.0797V53.8597C61.3409 50.5846 58.6859 47.9297 55.4109 47.9297Z" fill="#F2EE98"/>
<path d="M55.4111 48.4399C56.1237 48.4386 56.8296 48.5778 57.4883 48.8496C58.1471 49.1214 58.7457 49.5204 59.2501 50.0239C59.7544 50.5273 60.1546 51.1252 60.4276 51.7835C60.7006 52.4417 60.8411 53.1473 60.8411 53.8599V55.0699C60.8437 55.7847 60.7052 56.4929 60.4335 57.154C60.1618 57.8151 59.7623 58.4161 59.2578 58.9224C58.7533 59.4288 58.1538 59.8306 57.4937 60.1047C56.8336 60.3788 56.1259 60.5199 55.4111 60.5199H8.82109C7.38097 60.5199 5.99983 59.9478 4.9815 58.9295C3.96318 57.9112 3.39109 56.53 3.39109 55.0899V53.8599C3.39109 53.1473 3.53162 52.4417 3.80462 51.7835C4.07763 51.1252 4.47776 50.5273 4.98211 50.0239C5.48646 49.5204 6.08514 49.1214 6.74388 48.8496C7.40262 48.5778 8.10849 48.4386 8.82109 48.4399H55.4111ZM55.4111 47.4399H8.82109C7.11218 47.4399 5.47311 48.1181 4.26379 49.3255C3.05446 50.533 2.37374 52.171 2.37109 53.8799V55.0899C2.37639 56.7971 3.05827 58.4325 4.26731 59.6378C5.47635 60.8431 7.11391 61.5199 8.82109 61.5199H55.4111C57.12 61.5173 58.758 60.8366 59.9655 59.6272C61.1729 58.4179 61.8511 56.7788 61.8511 55.0699V53.8599C61.8484 52.1527 61.1691 50.5162 59.9619 49.3091C58.7548 48.1019 57.1183 47.4226 55.4111 47.4199V47.4399Z" fill="black"/>
<path d="M33.6613 35.1002C25.9013 35.1002 18.6013 34.8602 13.1113 34.4202C4.11133 33.7002 4.11133 32.8302 4.11133 32.2502C4.11133 31.6702 4.11133 30.8102 13.1113 30.0902C18.6013 29.6502 25.9013 29.4102 33.6613 29.4102C41.4213 29.4102 48.7113 29.6502 54.2113 30.0902C63.2113 30.8102 63.2113 31.6802 63.2113 32.2502C63.2113 32.8202 63.2113 33.7002 54.2113 34.4202C48.7113 34.8602 41.4213 35.1002 33.6613 35.1002Z" fill="#E687A3"/>
<path d="M33.6613 29.9297C49.6613 29.9297 62.6613 30.9297 62.6613 32.2497C62.6613 33.5697 49.6613 34.5797 33.6613 34.5797C17.6613 34.5797 4.66133 33.5797 4.66133 32.2497C4.66133 30.9197 17.6613 29.9297 33.6613 29.9297ZM33.6613 28.9297C25.8813 28.9297 18.5713 29.1797 13.0713 29.6197C4.29133 30.3197 3.61133 31.1697 3.61133 32.2997C3.61133 33.4297 4.29133 34.2997 13.0713 34.9897C18.5713 35.4297 25.8813 35.6697 33.6613 35.6697C41.4413 35.6697 48.7413 35.4297 54.2513 34.9897C63.0213 34.2797 63.7013 33.4297 63.7013 32.2997C63.7013 31.1697 63.0213 30.2997 54.2513 29.6197C48.7413 29.1797 41.4313 28.9297 33.6613 28.9297Z" fill="black"/>
<path d="M39.2208 50.7993C36.8208 50.7993 34.3208 50.7993 31.8108 50.7093C28.8808 50.6393 3.16081 49.9493 3.22081 47.1093C3.27081 45.1093 16.6008 44.7793 24.5408 44.7793C26.9408 44.7793 29.4308 44.7793 31.9508 44.8693C34.8808 44.9393 60.6008 45.6293 60.5408 48.4693C60.4908 50.5193 47.1608 50.7993 39.2208 50.7993Z" fill="#E687A3"/>
<path d="M24.5302 45.2201C26.9002 45.2201 29.3802 45.2201 31.9402 45.3101C47.5202 45.6801 60.1202 47.0901 60.0902 48.4601C60.0902 49.6001 51.2202 50.3601 39.2202 50.3601C36.8602 50.3601 34.3802 50.3601 31.8202 50.2701C16.2402 49.8901 3.6302 48.5201 3.6702 47.1201C3.6702 45.9701 12.5402 45.2201 24.5302 45.2201ZM24.5302 44.3301C18.6402 44.3301 13.3102 44.5201 9.5302 44.8501C3.8602 45.3601 2.8102 46.0101 2.7802 47.1001C2.7502 48.1901 3.4202 49.0101 11.7802 49.9501C17.1202 50.5501 24.2302 50.9501 31.7802 51.1501C34.3002 51.2101 36.7802 51.2401 39.2002 51.2401C45.1002 51.2401 50.4202 51.0601 54.2002 50.7201C59.8702 50.2201 60.9202 49.5701 60.9502 48.4801C60.9802 47.3901 60.3102 46.5701 51.9502 45.6301C46.6102 45.0301 39.5002 44.6301 31.9502 44.4201C29.4302 44.3601 26.9502 44.3301 24.5302 44.3301Z" fill="black"/>
</svg>
