<svg width="20" height="27" viewBox="0 0 20 27" fill="none" xmlns="http://www.w3.org/2000/svg">
<path d="M18.7359 8.80661C18.525 7.58535 18.062 6.42146 17.3763 5.38914C16.7571 4.45661 15.9701 3.64735 15.0553 3.00233C13.3438 1.7983 11.2654 1.22988 9.17933 1.39529C7.09324 1.56077 5.13047 2.44962 3.63002 3.90834C2.12963 5.36713 1.1859 7.30408 0.961802 9.38471C0.737703 11.4653 1.24743 13.5588 2.4028 15.3036C3.02174 16.236 3.80858 17.0453 4.7231 17.6903C6.6712 19.0592 9.08272 19.5995 11.4286 19.1927C11.5594 19.1703 11.6889 19.143 11.8177 19.115L13.567 26.0633C13.5837 26.1286 13.6255 26.1846 13.6833 26.219C13.7411 26.2535 13.8102 26.2637 13.8756 26.2474C14.012 26.2131 14.5795 26.0752 14.5452 25.9388L12.7994 18.9933C13.709 18.7386 14.0792 18.3439 14.8489 17.8324C16.3038 16.8681 17.4463 15.501 18.1369 13.898C18.8276 12.295 19.0364 10.5256 18.738 8.80592L18.7359 8.80661Z" fill="black"/>
<path d="M11.2624 14.3236L11.9877 14.1406L14.9124 25.733C14.9162 25.7483 14.9139 25.7645 14.9058 25.778C14.8977 25.7915 14.8846 25.8013 14.8693 25.8052L14.2587 25.9592C14.2434 25.9631 14.2272 25.9608 14.2136 25.9527C14.2001 25.9446 14.1903 25.9314 14.1864 25.9161L11.2617 14.3238L11.2624 14.3236Z" fill="white" stroke="black" stroke-width="2" stroke-miterlimit="10"/>
<path d="M10.5889 18.6801C9.97792 18.68 9.36854 18.619 8.7696 18.4982C7.5345 18.2485 6.36521 17.7435 5.33677 17.0154C4.40597 16.3606 3.60571 15.5376 2.97722 14.5888C2.27877 13.5395 1.80773 12.3555 1.59457 11.1132C1.40161 9.99197 1.41774 8.84469 1.64218 7.72932C1.89099 6.49422 2.39511 5.32472 3.12208 4.29572C3.77714 3.36535 4.60018 2.56536 5.54875 1.93694C6.59789 1.23821 7.78192 0.76717 9.02429 0.554283C10.1455 0.360353 11.293 0.376486 12.4082 0.60183C13.6434 0.850291 14.813 1.35441 15.8418 2.0818C16.7737 2.73734 17.5749 3.56128 18.2041 4.51124C18.9018 5.56135 19.3716 6.74607 19.5832 7.98892C19.7769 9.11032 19.761 10.2579 19.5364 11.3735C19.2874 12.6084 18.783 13.7777 18.0557 14.8064C17.4009 15.7372 16.5778 16.5373 15.629 17.1658C14.58 17.8643 13.3963 18.3353 12.1542 18.5486C11.6371 18.6367 11.1135 18.6807 10.5889 18.6801Z" fill="#E687A3"/>
<path d="M10.5909 0.572248C11.192 0.571971 11.7916 0.631768 12.3809 0.750669C13.5951 0.996915 14.7448 1.49301 15.757 2.20752C16.6715 2.85255 17.4584 3.66188 18.0773 4.59426C19.0755 6.09983 19.596 7.87152 19.5711 9.67773C19.5461 11.4839 18.9768 13.2405 17.9374 14.7179C17.2913 15.6328 16.4807 16.4197 15.5471 17.0383C14.0772 18.0122 12.3528 18.5311 10.5895 18.5301C9.10638 18.5309 7.64621 18.1639 6.33961 17.4622C5.03302 16.7604 3.92076 15.7456 3.10243 14.5087C2.12845 13.0391 1.60952 11.3149 1.61056 9.55184C1.61028 8.06883 1.97737 6.6088 2.67908 5.30227C3.38086 3.99574 4.39532 2.88341 5.63195 2.06474C6.66476 1.37846 7.82948 0.915387 9.0515 0.705199C9.55998 0.617304 10.075 0.573287 10.5909 0.573633M10.5909 0.273439C10.0577 0.274442 9.52565 0.321262 9.00042 0.413414C7.73902 0.628931 6.53672 1.1064 5.47097 1.81497C4.5062 2.45321 3.66877 3.26572 3.00166 4.21084C2.26251 5.25673 1.75009 6.4456 1.49727 7.70105C1.26839 8.83484 1.25199 10.0012 1.44896 11.141C1.66565 12.4039 2.14458 13.6074 2.85473 14.6739C3.49339 15.6379 4.30639 16.4741 5.25199 17.1397C6.2976 17.879 7.4862 18.3914 8.74151 18.6442C9.87529 18.873 11.0417 18.8894 12.1814 18.6924C13.4444 18.4759 14.6479 17.9971 15.7144 17.2867C16.6785 16.6481 17.5151 15.8351 18.1809 14.8894C18.9199 13.8436 19.4322 12.6551 19.6853 11.3999C19.9145 10.2659 19.9306 9.09915 19.7329 7.95927C19.5167 6.69655 19.0381 5.49322 18.3279 4.42705C17.6891 3.4629 16.8759 2.62658 15.9299 1.9612C14.8842 1.22226 13.6956 0.710044 12.4403 0.4575C11.8315 0.334792 11.212 0.273148 10.5909 0.273439Z" fill="black"/>
<path d="M9.66873 8.78489C9.94211 9.05889 10.2406 9.3068 10.5602 9.52522C10.0892 8.83438 9.7623 8.05577 9.59869 7.23585C9.43508 6.41594 9.43833 5.57145 9.6081 4.75284C9.77787 3.93417 10.1108 3.15806 10.5869 2.47081C11.063 1.78357 11.6727 1.19924 12.3795 0.75263C11.2821 0.531715 10.1533 0.515797 9.05021 0.705776C8.1725 1.90475 7.7524 3.37807 7.86584 4.8597C7.97927 6.34126 8.61876 7.73347 9.66873 8.78489Z" fill="#F2EE98"/>
<path d="M10.4844 8.35902C10.484 8.74618 10.5198 9.13243 10.5914 9.51287C10.7471 8.69171 11.0664 7.9102 11.5303 7.21493C11.9943 6.51965 12.5934 5.9248 13.292 5.46588C13.9905 5.00688 14.7743 4.69316 15.5966 4.54332C16.4189 4.39355 17.263 4.41072 18.0785 4.59377C17.4593 3.66132 16.6723 2.85199 15.7575 2.20703C14.2891 2.43473 12.9506 3.17997 11.9836 4.30815C11.0166 5.43639 10.4848 6.87317 10.4844 8.35902Z" fill="#F2EE98"/>
<path d="M10.6172 9.52501C11.308 9.05405 12.0866 8.7271 12.9066 8.56349C13.7265 8.39995 14.5709 8.40313 15.3896 8.5729C16.2082 8.74267 16.9843 9.07557 17.6716 9.55173C18.3588 10.0278 18.9432 10.6375 19.3897 11.3443C19.6117 10.247 19.6276 9.11806 19.4366 8.01501C18.7631 7.52252 17.9974 7.17038 17.1851 6.97951C16.3729 6.7887 15.5305 6.76302 14.7081 6.90407C13.8857 7.04512 13.1001 7.34998 12.3978 7.8006C11.6955 8.25122 11.091 8.83832 10.62 9.52709L10.6172 9.52501Z" fill="#F2EE98"/>
<path d="M15.6966 15.6691C15.6964 16.13 15.6452 16.5895 15.5441 17.0392C16.4765 16.4202 17.2858 15.6334 17.9309 14.7189C17.803 13.894 17.5106 13.1033 17.0711 12.3937C16.6316 11.6841 16.0539 11.07 15.3723 10.5881C14.6908 10.1062 13.9194 9.76621 13.1039 9.58834C12.2883 9.41048 11.4453 9.39836 10.625 9.55277C12.0504 9.82199 13.3371 10.5804 14.263 11.697C15.1889 12.8137 15.6959 14.2185 15.6966 15.6691Z" fill="#F2EE98"/>
<path d="M8.79964 18.3524C9.89674 18.5737 11.0254 18.5893 12.1283 18.3986C12.6207 17.7251 12.9729 16.9594 13.1637 16.1471C13.3546 15.3349 13.3802 14.4925 13.2391 13.6701C13.0981 12.8477 12.7932 12.0621 12.3427 11.3598C11.892 10.6575 11.3049 10.053 10.6162 9.58203C11.0862 10.2732 11.4125 11.0517 11.5756 11.8715C11.7387 12.6912 11.7353 13.5354 11.5655 14.3538C11.3958 15.1723 11.0633 15.9482 10.5876 16.6355C10.112 17.3227 9.50295 17.9073 8.79688 18.3546L8.79964 18.3524Z" fill="#F2EE98"/>
<path d="M3.10225 14.5089C3.72126 15.4415 4.50803 16.2511 5.42256 16.8964C6.24753 16.7685 7.03831 16.4761 7.74798 16.0366C8.45765 15.597 9.07167 15.0192 9.55364 14.3377C10.0355 13.656 10.3755 12.8845 10.5534 12.0688C10.7312 11.2532 10.7432 10.4102 10.5887 9.58984C10.4334 10.4113 10.1144 11.1931 9.6506 11.8886C9.18676 12.5841 8.58769 13.1792 7.88896 13.6382C7.19029 14.0972 6.40636 14.4109 5.58381 14.5605C4.76133 14.7101 3.91712 14.6926 3.10156 14.5089H3.10225Z" fill="#F2EE98"/>
<path d="M1.60939 9.5518C1.60925 10.0677 1.65347 10.5828 1.74165 11.0912C2.41519 11.5837 3.18085 11.9358 3.99308 12.1266C4.80539 12.3175 5.64773 12.3431 6.47014 12.2021C7.29249 12.061 8.07815 11.7562 8.78041 11.3056C9.48274 10.855 10.0873 10.2679 10.5583 9.57906C9.8672 10.0494 9.0886 10.3759 8.26882 10.5392C7.44897 10.7025 6.60476 10.6991 5.78622 10.5294C4.96776 10.3597 4.19178 10.027 3.50447 9.55117C2.81722 9.07536 2.23269 8.46618 1.78573 7.75977C1.66739 8.34977 1.60835 8.95009 1.60939 9.5518Z" fill="#F2EE98"/>
<path d="M3.24609 4.38552C3.37392 5.21028 3.66633 6.00092 4.10581 6.71045C4.54529 7.42005 5.1229 8.03401 5.8044 8.51591C6.48584 8.99781 7.25717 9.33783 8.07266 9.51577C8.88808 9.69371 9.73098 9.70589 10.5512 9.55162C9.72987 9.39625 8.94815 9.07719 8.25274 8.61329C7.55726 8.14945 6.96234 7.55037 6.50335 6.85164C6.04442 6.15297 5.73077 5.36905 5.58121 4.54663C5.43165 3.72415 5.44922 2.88001 5.63284 2.06445C4.70024 2.68346 3.89084 3.4705 3.24609 4.38552Z" fill="#F2EE98"/>
<path d="M9.68359 9.55226C9.68359 9.73214 9.73695 9.90806 9.83689 10.0576C9.93683 10.2073 10.0789 10.3238 10.2452 10.3927C10.4113 10.4615 10.5942 10.4795 10.7707 10.4444C10.9471 10.4093 11.1092 10.3227 11.2364 10.1955C11.3637 10.0683 11.4503 9.9062 11.4855 9.72971C11.5205 9.5533 11.5025 9.37038 11.4337 9.20414C11.3648 9.0379 11.2482 8.89588 11.0986 8.79595C10.949 8.69594 10.7732 8.64258 10.5933 8.64258C10.352 8.64258 10.1206 8.73843 9.95005 8.90903C9.77945 9.07963 9.68359 9.311 9.68359 9.55226Z" fill="#E687A3"/>
</svg>
