<svg width="12" height="18" viewBox="0 0 12 18" fill="none" xmlns="http://www.w3.org/2000/svg">
<path d="M10.166 6.50033C10.166 5.39526 9.72703 4.33545 8.94563 3.55405C8.16423 2.77265 7.10442 2.33366 5.99935 2.33366C4.89428 2.33366 3.83447 2.77265 3.05307 3.55405C2.27167 4.33545 1.83268 5.39526 1.83268 6.50033C1.83268 7.93866 3.21602 10.6928 5.99935 14.5445C8.78268 10.6928 10.166 7.93866 10.166 6.50033ZM5.99935 17.3337C2.11018 12.2587 0.166016 8.64783 0.166016 6.50033C0.166016 4.95323 0.780597 3.4695 1.87456 2.37554C2.96852 1.28157 4.45225 0.666992 5.99935 0.666992C7.54645 0.666992 9.03018 1.28157 10.1241 2.37554C11.2181 3.4695 11.8327 4.95323 11.8327 6.50033C11.8327 8.64783 9.88852 12.2587 5.99935 17.3337ZM5.99935 9.83366C5.11529 9.83366 4.26745 9.48247 3.64233 8.85735C3.0172 8.23223 2.66602 7.38438 2.66602 6.50033C2.66602 5.61627 3.0172 4.76842 3.64233 4.1433C4.26745 3.51818 5.11529 3.16699 5.99935 3.16699C6.8834 3.16699 7.73125 3.51818 8.35637 4.1433C8.98149 4.76842 9.33268 5.61627 9.33268 6.50033C9.33268 7.38438 8.98149 8.23223 8.35637 8.85735C7.73125 9.48247 6.8834 9.83366 5.99935 9.83366ZM5.99935 8.16699C6.44138 8.16699 6.8653 7.9914 7.17786 7.67884C7.49042 7.36628 7.66602 6.94235 7.66602 6.50033C7.66602 6.0583 7.49042 5.63437 7.17786 5.32181C6.8653 5.00925 6.44138 4.83366 5.99935 4.83366C5.55732 4.83366 5.1334 5.00925 4.82084 5.32181C4.50828 5.63437 4.33268 6.0583 4.33268 6.50033C4.33268 6.94235 4.50828 7.36628 4.82084 7.67884C5.1334 7.9914 5.55732 8.16699 5.99935 8.16699Z" fill="#252525"/>
</svg>
