<svg width="40" height="40" viewBox="0 0 40 40" fill="none" xmlns="http://www.w3.org/2000/svg">
<g clip-path="url(#clip0_978_7077)">
<path d="M29.0961 27.9151C27.1561 35.2991 19.3841 40.5671 11.7401 38.5031C4.09611 36.4391 -0.371893 28.7231 1.60011 21.3471C3.82411 12.9911 11.6001 7.64313 19.2441 9.71113C26.8881 11.7791 31.2641 19.6471 29.0961 27.9151Z" fill="#EFD378"/>
<path d="M27.7765 27.3284C25.9485 34.0844 19.4925 38.9284 13.1484 37.2084C6.80445 35.4884 3.49245 28.5404 5.32045 21.7884C7.14845 15.0364 13.6565 10.4284 20.0005 12.1444C26.3445 13.8604 29.6005 20.5764 27.7765 27.3284Z" fill="#87CDE2"/>
<path d="M3.73598 16.4445L5.14398 17.3445L6.03998 16.9445L6.66798 16.0005L7.06798 15.1045L6.95198 14.7525L5.77998 13.6965L6.13198 12.7565L5.77998 11.9365L4.39998 11.0085L3.03198 11.2845L1.15598 13.4725L0.451976 15.1165C0.451976 15.1165 0.411976 15.8205 0.527976 15.9365C0.643976 16.0525 1.97598 17.2645 1.97598 17.2645L2.83598 17.3805L3.49998 16.6405L3.73598 16.4445Z" fill="#87CDE2"/>
<path d="M11.7076 10.3236C11.6796 10.2076 11.7956 8.5676 11.7956 8.5676C11.7956 8.5676 10.5956 8.1676 10.2716 8.0396C9.94762 7.9116 8.86362 7.0996 8.86362 7.0996L8.51562 5.6916C8.51562 5.6916 8.77562 3.9996 8.79962 3.7276C8.82362 3.4556 8.79962 2.7316 8.79962 2.7316L10.4796 1.7076C10.4796 1.7076 14.1116 1.0916 14.2596 1.0916C14.4076 1.0916 17.4596 0.943604 17.4596 0.943604L20.7996 1.9396C21.2571 2.22118 21.68 2.55547 22.0596 2.9356C22.2636 3.2596 22.3516 4.4636 22.3236 5.0196C22.2956 5.5756 22.3236 6.4836 21.9996 7.0196C21.7468 7.36359 21.4268 7.65265 21.0589 7.86924C20.6911 8.08583 20.2831 8.22544 19.8596 8.2796C18.9516 8.3676 18.9516 8.5756 18.9516 8.5756L18.8636 10.1756C18.8636 10.1756 18.6276 10.8476 18.4636 10.9076C18.2996 10.9676 16.8236 11.4076 16.4636 11.4636C16.1036 11.5196 13.2116 11.1116 13.2116 11.1116L11.7076 10.3236Z" fill="#87CDE2"/>
<path d="M24.4316 12.1725L25.1676 11.4685C24.9536 11.2666 24.8128 10.9992 24.7676 10.7085C24.7676 10.3085 24.6236 9.90849 24.8276 9.68049C25.122 9.30352 25.4456 8.95042 25.7956 8.62449C25.9913 8.53602 26.1988 8.47673 26.4116 8.44849C27.1817 8.66756 27.9131 9.00492 28.5796 9.44849C29.0929 9.82764 29.5566 10.2698 29.9596 10.7645C30.2236 11.1645 30.7596 11.7645 30.8356 11.9405C30.8764 12.1042 30.8821 12.2747 30.8524 12.4408C30.8228 12.6069 30.7585 12.7649 30.6636 12.9045C30.4556 13.1405 29.7836 14.1685 29.5756 14.1965C29.3676 14.2245 29.4316 14.3725 28.8436 14.2845C28.4046 14.1863 27.9845 14.0174 27.5996 13.7845C27.4459 13.9338 27.3115 14.1017 27.1996 14.2845C27.0516 14.5485 26.7276 14.8405 26.6996 14.7525C26.6716 14.6645 25.9676 13.6405 25.8996 13.5205C25.8316 13.4005 24.5196 12.4965 24.5196 12.4965L24.4316 12.1725Z" fill="#87CDE2"/>
<path d="M15.2656 24.7998C15.3303 24.4318 15.4662 24.0799 15.6656 23.7638C15.8416 23.6478 16.6056 23.2558 16.6056 23.2558C16.6056 23.2558 16.9176 22.6518 17.0336 22.4558C17.1496 22.2598 19.5776 18.0558 19.5776 18.0558L20.3576 16.7438C20.4176 16.6478 20.5656 16.2558 20.9816 16.3438C21.2763 16.4116 21.5506 16.5487 21.7816 16.7438C21.8216 16.8038 22.1816 16.6878 21.8376 17.1958C21.4936 17.7038 20.6656 19.4598 20.6656 19.4598C20.6656 19.4598 18.4976 23.2518 18.2656 23.6038C18.0336 23.9558 17.6896 24.2998 17.7256 24.3998C17.7616 24.4998 18.0216 24.6118 17.7256 25.0438C17.4296 25.4758 17.4336 25.9438 16.9256 26.0198C16.4176 26.0958 16.2416 25.7278 15.8296 25.6198C15.4176 25.5118 15.2656 24.7998 15.2656 24.7998Z" fill="white"/>
<path d="M22.1676 35.2996C19.1116 37.4196 15.3436 38.0996 11.8836 36.8076C5.90762 34.5716 3.11562 27.2636 5.65562 20.4876C8.19562 13.7116 15.0956 10.0396 21.0756 12.2796C24.8716 13.7036 27.3836 17.1716 28.0556 21.2516" stroke="#1D1D1B" stroke-width="0.875" strokeLinecap="round" strokeLinejoin="round"/>
<path d="M5.82812 13.5529C7.47075 11.9141 9.4732 10.6814 11.6761 9.95288" stroke="#1D1D1B" stroke-width="0.875" strokeLinecap="round" strokeLinejoin="round"/>
<path d="M23.2202 36.2361C21.3738 37.5846 19.2233 38.4569 16.9592 38.7757C14.6951 39.0946 12.3873 38.8502 10.2402 38.0641C2.93225 35.3281 -0.647752 26.8641 2.24025 19.1361C2.60263 18.1817 3.05816 17.2653 3.60025 16.4001" stroke="#1D1D1B" stroke-width="0.875" strokeLinecap="round" strokeLinejoin="round"/>
<path d="M28.3165 30C27.8618 31.011 27.3014 31.971 26.6445 32.864" stroke="#1D1D1B" stroke-width="0.875" strokeLinecap="round" strokeLinejoin="round"/>
<path d="M19.1602 9.64038C21.6559 10.2462 23.9302 11.5432 25.7224 13.3827C27.5145 15.2223 28.7517 17.5297 29.2922 20.0404C29.9948 23.7604 29.76 32.1605 23.2 36.0005" stroke="#1D1D1B" stroke-width="0.875" strokeLinecap="round" strokeLinejoin="round"/>
<path d="M15.3761 5.4127C19.083 5.4127 22.0881 4.42772 22.0881 3.2127C22.0881 1.99767 19.083 1.0127 15.3761 1.0127C11.6691 1.0127 8.66406 1.99767 8.66406 3.2127C8.66406 4.42772 11.6691 5.4127 15.3761 5.4127Z" stroke="#1D1D1B" stroke-width="0.875" strokeLinecap="round" strokeLinejoin="round"/>
<path d="M22.0882 6.5835C22.0882 7.7835 19.0842 8.7795 15.3762 8.7795C11.6682 8.7795 8.66016 7.7955 8.66016 6.5835" stroke="#1D1D1B" stroke-width="0.875" strokeLinecap="round" strokeLinejoin="round"/>
<path d="M8.65927 3.2002C8.65927 3.2002 8.32727 5.1722 8.65927 6.5722" stroke="#1D1D1B" stroke-width="0.875" strokeLinecap="round" strokeLinejoin="round"/>
<path d="M22.0957 3.2002C22.0957 3.2002 22.4277 5.1722 22.0957 6.5722" stroke="#1D1D1B" stroke-width="0.875" strokeLinecap="round" strokeLinejoin="round"/>
<path d="M19.0136 10.2563C19.0136 10.9123 17.3936 11.4563 15.3896 11.4563C13.3856 11.4563 11.7656 10.9243 11.7656 10.2563" stroke="#1D1D1B" stroke-width="0.875" strokeLinecap="round" strokeLinejoin="round"/>
<path d="M11.7485 8.51562C11.6541 9.09178 11.6541 9.67947 11.7485 10.2556" stroke="#1D1D1B" stroke-width="0.875" strokeLinecap="round" strokeLinejoin="round"/>
<path d="M19.0156 8.43555C19.1149 9.03815 19.1149 9.65294 19.0156 10.2555" stroke="#1D1D1B" stroke-width="0.875" strokeLinecap="round" strokeLinejoin="round"/>
<path d="M15.4923 4.34394C17.9798 4.34394 19.9963 3.77086 19.9963 3.06394C19.9963 2.35701 17.9798 1.78394 15.4923 1.78394C13.0048 1.78394 10.9883 2.35701 10.9883 3.06394C10.9883 3.77086 13.0048 4.34394 15.4923 4.34394Z" stroke="#1D1D1B" stroke-width="0.875" strokeLinecap="round" strokeLinejoin="round"/>
<path d="M16.5924 25.9831C17.2971 25.9831 17.8684 25.3724 17.8684 24.6191C17.8684 23.8658 17.2971 23.2551 16.5924 23.2551C15.8877 23.2551 15.3164 23.8658 15.3164 24.6191C15.3164 25.3724 15.8877 25.9831 16.5924 25.9831Z" stroke="#1D1D1B" stroke-width="0.875" strokeLinecap="round" strokeLinejoin="round"/>
<path d="M3.0982 13.9096C4.15428 12.5564 4.70686 11.2226 4.33243 10.9304C3.958 10.6381 2.79835 11.4982 1.74227 12.8514C0.686196 14.2045 0.133615 15.5384 0.508045 15.8306C0.882476 16.1228 2.04213 15.2628 3.0982 13.9096Z" stroke="#1D1D1B" stroke-width="0.875" strokeLinecap="round" strokeLinejoin="round"/>
<path d="M5.99978 12.2285C6.37178 12.5205 5.81978 13.8525 4.76378 15.2085C3.70778 16.5645 2.54778 17.4205 2.17578 17.1285" stroke="#1D1D1B" stroke-width="0.875" strokeLinecap="round" strokeLinejoin="round"/>
<path d="M2.17181 17.1274C1.4808 16.9046 0.891183 16.444 0.507812 15.8274" stroke="#1D1D1B" stroke-width="0.875" strokeLinecap="round" strokeLinejoin="round"/>
<path d="M5.99994 12.2275C5.61683 11.6107 5.02712 11.15 4.33594 10.9275" stroke="#1D1D1B" stroke-width="0.875" strokeLinecap="round" strokeLinejoin="round"/>
<path d="M6.94764 14.7285C7.22764 14.9445 7.00364 15.7005 6.44764 16.4125C5.89164 17.1245 5.19964 17.5245 4.93164 17.3045" stroke="#1D1D1B" stroke-width="0.875" strokeLinecap="round" strokeLinejoin="round"/>
<path d="M4.93159 17.3031C4.44081 17.0886 4.01169 16.7544 3.68359 16.3311" stroke="#1D1D1B" stroke-width="0.875" strokeLinecap="round" strokeLinejoin="round"/>
<path d="M6.94722 14.724C6.61839 14.3013 6.18948 13.9673 5.69922 13.752" stroke="#1D1D1B" stroke-width="0.875" strokeLinecap="round" strokeLinejoin="round"/>
<path d="M30.756 12.545C31.068 12.189 30.252 10.753 29.064 9.74504C27.876 8.73704 26.4 8.08904 26.084 8.44504" stroke="#1D1D1B" stroke-width="0.875" strokeLinecap="round" strokeLinejoin="round"/>
<path d="M29.1639 14.1348C29.4759 13.7788 28.6839 12.4068 27.4719 11.3348C26.2599 10.2628 24.9799 9.75484 24.6719 10.1108" stroke="#1D1D1B" stroke-width="0.875" strokeLinecap="round" strokeLinejoin="round"/>
<path d="M27.709 13.6689C28.509 14.1689 29.153 14.3689 29.365 14.1329" stroke="#1D1D1B" stroke-width="0.875" strokeLinecap="round" strokeLinejoin="round"/>
<path d="M24.6932 10.032C24.4932 10.26 24.7452 10.832 25.2892 11.516" stroke="#1D1D1B" stroke-width="0.875" strokeLinecap="round" strokeLinejoin="round"/>
<path d="M29.3633 14.132C30.0025 13.7808 30.4959 13.2136 30.7553 12.532" stroke="#1D1D1B" stroke-width="0.875" strokeLinecap="round" strokeLinejoin="round"/>
<path d="M24.6934 10.0275C24.9515 9.34509 25.4452 8.77756 26.0854 8.42749" stroke="#1D1D1B" stroke-width="0.875" strokeLinecap="round" strokeLinejoin="round"/>
<path d="M27.7276 13.6309C27.7276 14.0309 27.1476 14.4949 26.8516 14.7069" stroke="#1D1D1B" stroke-width="0.875" strokeLinecap="round" strokeLinejoin="round"/>
<path d="M25.2656 11.4724C25.2656 11.4724 27.2376 11.8724 27.7256 13.6324" stroke="#1D1D1B" stroke-width="0.875" strokeLinecap="round" strokeLinejoin="round"/>
<path d="M24.4805 12.2404C24.6984 11.9381 24.9695 11.6778 25.2805 11.4724" stroke="#1D1D1B" stroke-width="0.875" strokeLinecap="round" strokeLinejoin="round"/>
<path d="M16.5879 23.1996L20.3319 16.7156C20.3825 16.627 20.4501 16.5492 20.5309 16.4869C20.6117 16.4246 20.7041 16.3789 20.8026 16.3525C20.9012 16.3261 21.004 16.3195 21.1052 16.333C21.2063 16.3466 21.3038 16.3801 21.3919 16.4316C21.4805 16.4822 21.5583 16.5498 21.6206 16.6306C21.6829 16.7114 21.7286 16.8038 21.755 16.9024C21.7814 17.0009 21.788 17.1038 21.7745 17.2049C21.7609 17.306 21.7274 17.4035 21.6759 17.4916L17.8159 24.1676" stroke="#1D1D1B" stroke-width="0.875" strokeLinecap="round" strokeLinejoin="round"/>
<path d="M19.198 23.1687C19.286 23.0807 20.022 22.3487 20.342 22.1127C20.662 21.8767 19.726 21.6447 21.106 21.6727C21.9054 21.6752 22.7018 21.7732 23.478 21.9647C23.8558 22.0131 24.2232 22.1225 24.566 22.2887C24.682 22.4047 24.918 22.4047 24.918 22.8167C24.962 23.5387 24.962 24.2627 24.918 24.9847C24.83 25.5127 24.654 27.1567 24.654 27.1567C24.4747 27.2131 24.3124 27.3135 24.182 27.4487C24.0424 27.9138 24.0028 28.4032 24.066 28.8847C24.154 29.0607 24.594 30.9967 24.71 31.1727C24.8887 31.5491 25.1387 31.8873 25.446 32.1687C25.9807 32.586 26.5494 32.9579 27.146 33.2807C27.9823 33.5769 28.8512 33.7716 29.734 33.8607C29.8848 33.8226 30.0219 33.7426 30.1294 33.6302C30.237 33.5177 30.3106 33.3771 30.342 33.2247C30.342 33.0767 31.014 32.7847 31.57 32.9607C32.126 33.1367 32.482 33.2807 33.17 33.5447C33.858 33.8087 34.166 33.7527 34.286 33.9847C34.4793 34.2648 34.7049 34.5212 34.958 34.7487C35.078 34.8647 34.762 36.5327 34.762 36.8527C34.7267 37.3831 34.6259 37.9071 34.462 38.4127C34.3088 38.7795 34.0669 39.1025 33.758 39.3527C33.61 39.4087 33.43 39.6687 32.462 39.5207C31.494 39.3727 31.178 39.4967 30.622 39.4087C30.066 39.3207 27.366 38.7647 27.074 38.5007C26.782 38.2367 23.702 36.5967 23.322 36.3607C22.6107 35.8268 21.942 35.2383 21.322 34.6007C21.146 34.3687 19.65 31.2287 19.65 31.2287L18.918 28.2967V25.2487L19.198 23.1687Z" fill="#9E88B5"/>
<path d="M33.334 36.2246C33.334 36.2246 30.502 35.3366 29.906 34.9646C29.67 34.8166 29.866 34.0246 29.866 34.0246C29.866 34.0246 29.97 33.6766 30.022 33.5326C30.1044 33.2929 30.2725 33.0921 30.494 32.9688C30.7155 32.8455 30.9748 32.8084 31.222 32.8646C32.1797 33.0707 33.1109 33.3847 33.998 33.8006C34.29 33.9566 34.722 34.1286 34.878 34.4046C34.9785 34.7834 34.9908 35.1802 34.914 35.5646C34.8382 36.2494 34.7044 36.9265 34.514 37.5886C34.4213 38.0618 34.2437 38.5145 33.99 38.9246C33.8181 39.1304 33.6044 39.2971 33.3629 39.4137C33.1215 39.5303 32.858 39.594 32.59 39.6006C31.022 39.7526 29.45 39.2006 27.838 38.6046C25.8747 37.8895 24.0484 36.8438 22.438 35.5126C19.846 33.3686 19.198 30.0006 18.978 28.3286C18.7998 26.7088 18.8293 25.0729 19.066 23.4606C19.214 22.8726 20.474 21.9366 20.474 21.9366C20.474 21.9366 20.71 21.6726 21.498 21.7006C22.286 21.7286 24.462 22.0526 24.462 22.0526C24.462 22.0526 24.93 22.1726 24.958 23.3446C24.986 24.5166 24.882 26.2406 24.882 26.2406C24.882 26.2406 24.958 26.9966 23.802 27.7366C23.802 27.7366 23.098 28.2326 23.138 26.6526L23.106 23.7206" stroke="#1D1D1B" stroke-width="0.875" strokeLinecap="round" strokeLinejoin="round"/>
<path d="M23.9623 27.625C23.8849 28.403 23.9377 29.1884 24.1183 29.949C24.3307 30.8715 24.8531 31.6932 25.5983 32.277C26.8584 33.1568 28.3189 33.7069 29.8463 33.877" stroke="#1D1D1B" stroke-width="0.875" strokeLinecap="round" strokeLinejoin="round"/>
<path d="M20.4824 23.5004L22.7584 23.6804C22.9194 23.674 23.0774 23.6353 23.2231 23.5666C23.3688 23.4979 23.4992 23.4005 23.6064 23.2804L24.6184 22.2244" stroke="#1D1D1B" stroke-width="0.875" strokeLinecap="round" strokeLinejoin="round"/>
<path d="M21.9492 27.7412C22.0052 27.7812 23.3932 27.8212 23.3932 27.8212" stroke="#1D1D1B" stroke-width="0.875" strokeLinecap="round" strokeLinejoin="round"/>
<path d="M29.7524 34.8496L29.4004 36.0376" stroke="#1D1D1B" stroke-width="0.875" strokeLinecap="round" strokeLinejoin="round"/>
<path d="M22.7667 27.8162C22.7368 28.3413 22.7826 28.868 22.9027 29.3802" stroke="#1D1D1B" stroke-width="0.875" strokeLinecap="round" strokeLinejoin="round"/>
<path d="M23.8047 32.1211C23.8047 32.1211 24.2047 33.3211 26.3647 34.1531" stroke="#1D1D1B" stroke-width="0.875" strokeLinecap="round" strokeLinejoin="round"/>
</g>
<defs>
<clipPath id="clip0_978_7077">
<rect width="40" height="40" fill="white"/>
</clipPath>
</defs>
</svg>
