<svg width="112" height="112" viewBox="0 0 112 112" fill="none" xmlns="http://www.w3.org/2000/svg">
<path d="M62.2326 42.6719H38.3873C35.1175 42.6719 32.4668 45.3224 32.4668 48.5918V66.2197C32.4668 69.4892 35.1175 72.1397 38.3873 72.1397H62.2326C65.5025 72.1397 68.1532 69.4892 68.1532 66.2197V48.5918C68.1532 45.3224 65.5025 42.6719 62.2326 42.6719Z" fill="black"/>
<path d="M75.6891 49.2362L72.3931 51.8577C71.9467 52.2125 71.5861 52.6635 71.3382 53.1771C71.0903 53.6907 70.9617 54.2537 70.9617 54.8239V61.0565C70.9617 61.7154 71.1335 62.3629 71.4601 62.9352C71.7867 63.5074 72.2569 63.9846 72.824 64.3198L75.822 66.0913C75.9988 66.1966 76.2005 66.253 76.4061 66.255C76.6119 66.2569 76.8145 66.2042 76.9934 66.1023C77.1721 66.0003 77.3206 65.8529 77.4238 65.6749C77.5271 65.4968 77.5813 65.2947 77.5808 65.0888V50.1469C77.5813 49.9274 77.5197 49.7121 77.4031 49.5261C77.2865 49.3401 77.1196 49.1909 76.9218 49.0957C76.7241 49.0004 76.5033 48.9631 76.2852 48.988C76.0671 49.0129 75.8603 49.099 75.6891 49.2362Z" fill="black"/>
<path d="M69.4586 39.9648H35.2204C34.8205 39.9648 34.4963 40.289 34.4963 40.6888V68.7086C34.4963 69.1085 34.8205 69.4327 35.2204 69.4327H69.4586C69.8585 69.4327 70.1827 69.1085 70.1827 68.7086V40.6888C70.1827 40.289 69.8585 39.9648 69.4586 39.9648Z" fill="#9277AA" stroke="black" stroke-width="1.95349" stroke-miterlimit="10"/>
<path d="M77.8514 63.3839L74.8536 61.6126C74.2862 61.2772 73.8162 60.8 73.4896 60.2278C73.163 59.6555 72.9912 59.008 72.9912 58.3491V52.1177C72.9912 51.5471 73.12 50.9841 73.3679 50.4704C73.6157 49.9566 73.9762 49.5054 74.4226 49.1503L77.7185 46.5288C77.8899 46.3924 78.0963 46.3071 78.3139 46.2826C78.5315 46.2582 78.7517 46.2957 78.9491 46.3908C79.1464 46.4861 79.3128 46.6349 79.4293 46.8203C79.5458 47.0059 79.6075 47.2204 79.6073 47.4395V62.3814C79.6075 62.5868 79.5533 62.7884 79.4502 62.9662C79.3471 63.1437 79.1989 63.2908 79.0207 63.3926C78.8423 63.4944 78.6402 63.5474 78.4349 63.5458C78.2295 63.5442 78.0282 63.4884 77.8514 63.3839Z" fill="#9277AA" stroke="black" stroke-width="1.95349" stroke-miterlimit="10"/>
<path d="M46.0561 57.1687C47.5742 57.1687 48.8047 55.9382 48.8047 54.4203C48.8047 52.9023 47.5742 51.6719 46.0561 51.6719C44.538 51.6719 43.3074 52.9023 43.3074 54.4203C43.3074 55.9382 44.538 57.1687 46.0561 57.1687Z" fill="#F2EE98"/>
<path d="M57.8126 57.1687C59.3307 57.1687 60.5614 55.9382 60.5614 54.4203C60.5614 52.9023 59.3307 51.6719 57.8126 51.6719C56.2945 51.6719 55.064 52.9023 55.064 54.4203C55.064 55.9382 56.2945 57.1687 57.8126 57.1687Z" fill="#F2EE98"/>
<path fill-rule="evenodd" clip-rule="evenodd" d="M56 112C86.9279 112 112 86.9279 112 56C112 25.0721 86.9279 0 56 0C25.0721 0 0 25.0721 0 56C0 86.9279 25.0721 112 56 112ZM18.8703 86.674C11.9803 78.3434 7.84 67.6552 7.84 56C7.84 29.402 29.402 7.84 56 7.84C67.1418 7.84 77.4 11.6236 85.5596 17.976L18.8703 86.674ZM24.9771 92.8384C33.3572 99.9029 44.1815 104.16 56 104.16C82.598 104.16 104.16 82.598 104.16 56C104.16 43.9766 99.754 32.9823 92.4685 24.5435L24.9771 92.8384Z" fill="#F2C4D1"/>
</svg>
