<svg width="51" height="14" viewBox="0 0 51 14" fill="none" xmlns="http://www.w3.org/2000/svg">
<path d="M8.73604 0.666866C8.10073 0.234357 7.27171 0.0175781 6.24896 0.0175781H2.28946C1.97593 0.0175781 1.80271 0.172859 1.7698 0.483121L0.161299 10.4818C0.144582 10.58 0.169392 10.6699 0.235503 10.7515C0.301235 10.8333 0.38391 10.874 0.482924 10.874H2.36366C2.69353 10.874 2.87485 10.7191 2.90813 10.4084L3.3535 7.71286C3.36976 7.58222 3.42778 7.476 3.52679 7.39421C3.62573 7.31256 3.74948 7.25915 3.89797 7.23466C4.04645 7.21039 4.18646 7.19818 4.31868 7.19818C4.45052 7.19818 4.60718 7.20642 4.78894 7.22267C4.97025 7.239 5.08583 7.24694 5.13538 7.24694C6.5541 7.24694 7.66769 6.85106 8.47621 6.05848C9.28436 5.26619 9.68889 4.16762 9.68889 2.7623C9.68889 1.79848 9.37105 1.10005 8.73604 0.666866ZM6.69449 3.66911C6.61174 4.24102 6.39752 4.6166 6.05109 4.79638C5.70458 4.97638 5.20966 5.06589 4.56633 5.06589L3.74963 5.09039L4.17042 2.46814C4.20325 2.28859 4.31044 2.1987 4.49205 2.1987H4.96239C5.62198 2.1987 6.10071 2.29286 6.39767 2.48042C6.69449 2.66844 6.7935 3.06477 6.69449 3.66911Z" fill="#003087"/>
<path d="M50.5207 0.0175781H48.6895C48.5076 0.0175781 48.4005 0.107466 48.3678 0.287241L46.7592 10.4819L46.7344 10.5309C46.7344 10.613 46.7674 10.6902 46.8335 10.7638C46.8992 10.8372 46.982 10.874 47.0809 10.874H48.7144C49.0274 10.874 49.2007 10.7191 49.2341 10.4084L50.8426 0.384994V0.360649C50.8425 0.13196 50.735 0.0175781 50.5207 0.0175781Z" fill="#009CDE"/>
<path d="M28.3958 3.96221C28.3958 3.88071 28.3626 3.80296 28.297 3.72955C28.2308 3.65607 28.1565 3.61914 28.0742 3.61914H26.1687C25.9869 3.61914 25.8384 3.70124 25.7232 3.86416L23.1001 7.68738L22.0112 4.01135C21.9284 3.75015 21.7471 3.61914 21.4668 3.61914H19.6105C19.5279 3.61914 19.4537 3.65599 19.3881 3.72955C19.3219 3.80296 19.2891 3.88079 19.2891 3.96221C19.2891 3.99517 19.45 4.47689 19.7716 5.40813C20.0932 6.33959 20.4396 7.34438 20.8109 8.42274C21.1821 9.50086 21.3758 10.073 21.3924 10.1379C20.0395 11.9679 19.3633 12.9482 19.3633 13.0787C19.3633 13.2913 19.4704 13.3973 19.685 13.3973H21.5905C21.7719 13.3973 21.9203 13.3158 22.036 13.1524L28.3465 4.13375C28.3793 4.10131 28.3958 4.04438 28.3958 3.96221Z" fill="#003087"/>
<path d="M46.1406 3.62075H44.2597C44.0286 3.62075 43.8888 3.89042 43.8393 4.42959C43.4099 3.77634 42.6267 3.44922 41.4882 3.44922C40.3003 3.44922 39.2896 3.89042 38.4567 4.77267C37.6234 5.65491 37.207 6.69259 37.207 7.8851C37.207 8.84922 37.4915 9.61701 38.0606 10.1886C38.6298 10.7608 39.3928 11.0464 40.35 11.0464C40.8283 11.0464 41.3149 10.9482 41.8099 10.7523C42.3049 10.5563 42.6922 10.295 42.9732 9.9681C42.9732 9.9845 42.9564 10.0579 42.9236 10.1885C42.8903 10.3195 42.8741 10.4177 42.8741 10.4826C42.8741 10.7443 42.981 10.8747 43.1958 10.8747H44.9035C45.2165 10.8747 45.3983 10.7198 45.4477 10.4091L46.4624 4.01289C46.4787 3.91484 46.4539 3.8251 46.3881 3.7433C46.3219 3.66173 46.2396 3.62075 46.1406 3.62075ZM42.9112 8.4487C42.4905 8.85716 41.9832 9.06128 41.3893 9.06128C40.9106 9.06128 40.5233 8.93079 40.2262 8.66922C39.9291 8.40825 39.7806 8.04877 39.7806 7.59094C39.7806 6.98682 39.9868 6.47589 40.3994 6.05933C40.8114 5.6427 41.3233 5.43439 41.9338 5.43439C42.3953 5.43439 42.7789 5.56922 43.0844 5.83866C43.3894 6.10832 43.5423 6.48008 43.5423 6.95394C43.5423 7.54203 43.3318 8.04046 42.9112 8.4487Z" fill="#009CDE"/>
<path d="M18.0276 3.62075H16.1467C15.9154 3.62075 15.7755 3.89042 15.726 4.42959C15.2805 3.77634 14.4968 3.44922 13.375 3.44922C12.1871 3.44922 11.1764 3.89042 10.3434 4.77267C9.51015 5.65491 9.09375 6.69259 9.09375 7.8851C9.09375 8.84922 9.37839 9.61701 9.94759 10.1886C10.5168 10.7608 11.2796 11.0464 12.2366 11.0464C12.6983 11.0464 13.1771 10.9482 13.6719 10.7523C14.1668 10.5563 14.5628 10.295 14.8598 9.9681C14.7936 10.1641 14.7608 10.3357 14.7608 10.4826C14.7608 10.7443 14.868 10.8747 15.0825 10.8747H16.79C17.1032 10.8747 17.2849 10.7198 17.3345 10.4091L18.349 4.01289C18.3653 3.91484 18.3406 3.8251 18.2748 3.7433C18.2088 3.66173 18.1263 3.62075 18.0276 3.62075ZM14.798 8.46083C14.3772 8.86158 13.8614 9.06128 13.2514 9.06128C12.7726 9.06128 12.3891 8.93079 12.1006 8.66922C11.8117 8.40825 11.6674 8.04877 11.6674 7.59094C11.6674 6.98682 11.8736 6.47589 12.2862 6.05933C12.6983 5.6427 13.2098 5.43439 13.8205 5.43439C14.2822 5.43439 14.6658 5.56922 14.9713 5.83866C15.2763 6.10832 15.4291 6.48008 15.4291 6.95394C15.4291 7.55843 15.2187 8.06098 14.798 8.46083Z" fill="#003087"/>
<path d="M36.8493 0.666866C36.2141 0.234357 35.3852 0.0175781 34.3623 0.0175781H30.4276C30.0974 0.0175781 29.9158 0.172859 29.8831 0.483121L28.2746 10.4818C28.2579 10.58 28.2826 10.6699 28.3488 10.7515C28.4143 10.8333 28.4972 10.874 28.5962 10.874H30.6254C30.8233 10.874 30.9552 10.7679 31.0213 10.5555L31.4669 7.71286C31.4832 7.58222 31.541 7.476 31.6401 7.39421C31.7391 7.31256 31.8627 7.25915 32.0113 7.23466C32.1597 7.21039 32.2998 7.19818 32.432 7.19818C32.5639 7.19818 32.7205 7.20642 32.9021 7.22267C33.0835 7.239 33.1993 7.24694 33.2485 7.24694C34.6675 7.24694 35.7809 6.85106 36.5894 6.05848C37.3978 5.26619 37.802 4.16762 37.802 2.7623C37.8021 1.79848 37.4843 1.10005 36.8493 0.666866ZM34.3128 4.69833C33.9498 4.94335 33.4053 5.06582 32.6795 5.06582L31.8876 5.09031L32.3084 2.46807C32.341 2.28851 32.4482 2.19863 32.63 2.19863H33.0753C33.4381 2.19863 33.7269 2.21496 33.9417 2.24754C34.1558 2.28042 34.3623 2.3823 34.5603 2.55383C34.7584 2.72537 34.8573 2.97466 34.8573 3.30132C34.8573 3.98762 34.6756 4.45308 34.3128 4.69833Z" fill="#009CDE"/>
</svg>
