<svg width="32" height="32" viewBox="0 0 32 32" fill="none" xmlns="http://www.w3.org/2000/svg">
<path d="M4.58398 17.0823L10.6582 23.6627C10.7594 23.764 10.9619 23.8652 11.0631 23.8652C11.1644 23.8652 11.1644 23.8652 11.2656 23.8652C11.468 23.7639 11.6705 23.6627 11.6705 23.4602L15.315 5.64258L19.1621 23.0553C19.1621 23.2577 19.3646 23.4602 19.5671 23.4602C19.5671 23.4602 19.6682 23.4602 19.7695 23.4602C19.9719 23.4602 20.0732 23.359 20.1744 23.2577L26.7548 16.1712L23.1103 28.8258L7.82361 28.927L4.58398 17.0823Z" fill="#9E88B5"/>
<path d="M15.315 8.37464L18.6558 23.1552C18.7571 23.5602 19.0608 23.9651 19.4658 24.0663C19.567 24.0663 19.6682 24.0663 19.7694 24.0663C20.0731 24.0663 20.3769 23.9651 20.5794 23.6614L25.54 18.2958L22.7053 28.2171L8.32976 28.3183L5.79884 19.207L10.2532 24.0663C10.4556 24.2688 10.7594 24.4713 11.0631 24.4713C11.1643 24.4713 11.2656 24.4713 11.3668 24.4713C11.7718 24.37 12.0754 23.9651 12.1767 23.5602L15.315 8.37464ZM15.315 2.80664L11.1643 23.3577L3.36914 14.955L7.51982 29.6343L23.7177 29.5331L28.0709 14.0439L19.7694 22.9527L15.315 2.80664Z" fill="black"/>
</svg>
