<svg width="20" height="20" viewBox="0 0 20 20" fill="none" xmlns="http://www.w3.org/2000/svg">
<path d="M7.74354 16.6246L5.68814 14.6282C5.66227 14.603 5.64747 14.5687 5.64694 14.5326C5.64641 14.4966 5.66027 14.4618 5.68534 14.4359L12.8782 7.03237L15.1289 9.21857L7.93607 16.6221C7.92361 16.6349 7.90874 16.6452 7.89227 16.6523C7.87587 16.6593 7.85821 16.6631 7.84034 16.6633C7.82241 16.6636 7.80467 16.6603 7.78807 16.6536C7.77147 16.647 7.75627 16.6371 7.74354 16.6246Z" fill="black"/>
<path d="M5.51741 4.10109L7.55841 2.00029C7.56795 1.99049 7.57934 1.98262 7.59188 1.97722C7.60441 1.97182 7.61794 1.96889 7.63161 1.96869C7.64528 1.96849 7.65888 1.97102 7.67154 1.97609C7.68428 1.98109 7.69588 1.98862 7.70568 1.99816L15.1328 9.21242L12.9464 11.4629L5.51928 4.24862C5.50941 4.23902 5.50154 4.22769 5.49614 4.21509C5.49074 4.20249 5.48788 4.18896 5.48768 4.17522C5.48754 4.16156 5.49001 4.14796 5.49514 4.13522C5.50021 4.12249 5.50781 4.11089 5.51741 4.10109Z" fill="black"/>
<path d="M7.22401 18.0384L5.16861 16.042C5.14274 16.0168 5.12794 15.9825 5.12741 15.9464C5.12688 15.9104 5.14074 15.8756 5.16581 15.8497L12.3587 8.44617L14.6094 10.6324L7.41654 18.0359C7.40408 18.0488 7.38921 18.059 7.37274 18.0661C7.35634 18.0731 7.33868 18.0769 7.32081 18.0771C7.30288 18.0774 7.28514 18.0741 7.26854 18.0674C7.25194 18.0608 7.23681 18.0509 7.22401 18.0384Z" fill="#E687A3" stroke="black" stroke-width="1.5" stroke-miterlimit="10"/>
<path d="M4.99982 5.51484L7.04082 3.41404C7.05035 3.40424 7.06175 3.39638 7.07429 3.39097C7.08689 3.38558 7.10035 3.38264 7.11402 3.38244C7.12769 3.38224 7.14129 3.38478 7.15395 3.38984C7.16669 3.39484 7.17829 3.40238 7.18809 3.41191L14.6152 10.6262L12.4288 12.8767L5.00169 5.66238C4.99182 5.65284 4.98395 5.64144 4.97855 5.62884C4.97315 5.61624 4.97029 5.60271 4.97009 5.58898C4.96995 5.57531 4.97249 5.56171 4.97755 5.54898C4.98269 5.53624 4.99022 5.52464 4.99982 5.51484Z" fill="#F2EE98" stroke="black" stroke-width="1.5" stroke-miterlimit="10"/>
</svg>
