<svg width="14" height="15" viewBox="0 0 14 15" fill="none" xmlns="http://www.w3.org/2000/svg">
<path d="M12.7449 14.6716C12.6284 14.7802 12.4916 14.8647 12.3424 14.9204C12.1932 14.9761 12.0344 15.0019 11.8752 14.9962C11.716 14.9906 11.5595 14.9536 11.4146 14.8874C11.2698 14.8213 11.1393 14.7272 11.0308 14.6106L7.21875 10.5171L9.20843 9.10645L12.8059 12.9574C12.9145 13.074 12.999 13.2108 13.0547 13.36C13.1105 13.5092 13.1362 13.668 13.1305 13.8272C13.1249 13.9863 13.0879 14.1428 13.0217 14.2877C12.9556 14.4326 12.8615 14.5631 12.7449 14.6716Z" fill="black"/>
<path d="M5.81544 1.35449C4.79428 1.35449 3.79605 1.6573 2.94698 2.22463C2.09791 2.79196 1.43615 3.59832 1.04536 4.54176C0.654581 5.48519 0.552334 6.52331 0.751554 7.52486C0.950773 8.5264 1.44251 9.44637 2.16458 10.1684C2.88665 10.8905 3.80663 11.3823 4.80817 11.5815C5.80971 11.7807 6.84784 11.6784 7.79127 11.2877C8.7347 10.8969 9.54107 10.2351 10.1084 9.38605C10.6757 8.53698 10.9785 7.53875 10.9785 6.51759C10.9786 5.83954 10.8451 5.16813 10.5856 4.54169C10.3262 3.91524 9.94588 3.34604 9.46643 2.86659C8.98698 2.38714 8.41779 2.00684 7.79134 1.74739C7.1649 1.48794 6.49348 1.35443 5.81544 1.35449ZM5.81544 10.6647C5.01079 10.6646 4.22426 10.4258 3.5553 9.97866C2.88633 9.53151 2.36497 8.89604 2.05713 8.15261C1.74929 7.40918 1.66879 6.59116 1.82581 5.80198C1.98284 5.0128 2.37033 4.2879 2.9393 3.71893C3.50828 3.14996 4.23318 2.76246 5.02236 2.60544C5.81153 2.44842 6.62955 2.52891 7.37298 2.83676C8.11642 3.1446 8.75188 3.66596 9.19903 4.33492C9.64618 5.00389 9.88494 5.79042 9.88512 6.59507C9.88531 7.12955 9.78016 7.65884 9.57571 8.15268C9.37125 8.64652 9.07149 9.09523 8.69355 9.47317C8.3156 9.85111 7.86689 10.1509 7.37305 10.3553C6.87922 10.5598 6.34993 10.6649 5.81544 10.6647Z" fill="black"/>
<path d="M13.0715 12.6443L10.1479 9.5053C10.9667 8.54922 11.4068 7.32628 11.385 6.0677C11.3632 4.80912 10.8811 3.60214 10.0297 2.67495C9.17836 1.74777 8.01679 1.16464 6.76463 1.03583C5.51248 0.907011 4.25652 1.24143 3.23422 1.97587C2.21191 2.7103 1.49413 3.79384 1.21657 5.02162C0.939003 6.2494 1.1209 7.53633 1.72787 8.63909C2.33484 9.74185 3.32482 10.584 4.51062 11.0063C5.69642 11.4287 6.99587 11.4019 8.16327 10.9311L11.294 14.2966C11.5161 14.5187 11.8156 14.646 12.1296 14.6518C12.4436 14.6575 12.7476 14.5413 12.9777 14.3275C13.2077 14.1137 13.3459 13.8191 13.3631 13.5055C13.3804 13.1919 13.2753 12.8839 13.0701 12.6462L13.0715 12.6443ZM7.6764 10.0224C7.21523 10.2002 6.72513 10.2909 6.23089 10.2902C5.21264 10.2922 4.23042 9.91345 3.47716 9.22828C2.72391 8.54311 2.25408 7.60105 2.15994 6.58715C2.06581 5.57325 2.35419 4.56079 2.96843 3.74866C3.58266 2.93653 4.47837 2.38341 5.4796 2.19796C6.48083 2.01251 7.51521 2.20814 8.37957 2.7464C9.24393 3.28467 9.87579 4.12668 10.151 5.10703C10.4263 6.08739 10.325 7.13523 9.86713 8.04473C9.40925 8.95423 8.62784 9.65965 7.6764 10.0224Z" fill="#E687A3" stroke="black" stroke-width="0.196676" stroke-miterlimit="10"/>
</svg>
