<svg width="24" height="24" viewBox="0 0 24 24" fill="none" xmlns="http://www.w3.org/2000/svg">
<circle cx="12" cy="12" r="12" fill="white" fill-opacity="0.08"/>
<path d="M8.81112 11.2696C8.6497 10.9791 8.39639 10.7505 8.09097 10.6196C7.78555 10.4886 7.4453 10.4628 7.12363 10.5462C6.80196 10.6296 6.51708 10.8174 6.31371 11.0802C6.11034 11.343 6 11.6659 6 11.9982C6 12.3305 6.11034 12.6534 6.31371 12.9162C6.51708 13.179 6.80196 13.3669 7.12363 13.4502C7.4453 13.5336 7.78555 13.5078 8.09097 13.3769C8.39639 13.246 8.6497 13.0174 8.81112 12.7269M8.81112 11.2696C8.93112 11.4856 8.99979 11.7336 8.99979 11.9982C8.99979 12.2629 8.93112 12.5116 8.81112 12.7269M8.81112 11.2696L15.1885 7.7269M8.81112 12.7269L15.1885 16.2696M15.1885 7.7269C15.282 7.90299 15.4096 8.05868 15.564 8.18485C15.7184 8.31103 15.8964 8.40516 16.0875 8.46175C16.2787 8.51834 16.4793 8.53625 16.6774 8.51443C16.8756 8.49261 17.0675 8.4315 17.2417 8.33468C17.416 8.23785 17.5693 8.10725 17.6925 7.95051C17.8157 7.79377 17.9065 7.61404 17.9594 7.42182C18.0124 7.22961 18.0265 7.02876 18.0009 6.83103C17.9753 6.6333 17.9106 6.44265 17.8105 6.27024C17.6132 5.93046 17.2904 5.68166 16.9117 5.57731C16.5329 5.47296 16.1283 5.5214 15.7848 5.7122C15.4414 5.90301 15.1865 6.22096 15.075 6.5977C14.9634 6.97444 15.0042 7.37989 15.1885 7.7269ZM15.1885 16.2696C15.0928 16.4418 15.0319 16.6312 15.0095 16.827C14.987 17.0227 15.0033 17.221 15.0574 17.4105C15.1115 17.5999 15.2025 17.7769 15.325 17.9312C15.4475 18.0855 15.5992 18.2142 15.7715 18.3099C15.9437 18.4056 16.1331 18.4664 16.3289 18.4889C16.5246 18.5114 16.7229 18.4951 16.9124 18.441C17.1018 18.3868 17.2788 18.2959 17.4331 18.1734C17.5874 18.0509 17.7161 17.8992 17.8118 17.7269C18.005 17.379 18.0522 16.9686 17.9429 16.586C17.8335 16.2034 17.5767 15.8798 17.2288 15.6866C16.8809 15.4933 16.4705 15.4462 16.0879 15.5555C15.7052 15.6648 15.3817 15.9217 15.1885 16.2696Z" stroke="#6AB5D2" stroke-width="1.5" stroke-linecap="round" stroke-linejoin="round"/>
</svg>
