<svg xmlns="http://www.w3.org/2000/svg" width="104" height="105" viewBox="0 0 104 105" fill="none">
  <path d="M51.9504 83.1514C77.9774 83.1514 99.0765 75.2134 99.0765 65.4214C99.0765 55.6294 77.9774 47.6914 51.9504 47.6914C25.9233 47.6914 4.82422 55.6294 4.82422 65.4214C4.82422 75.2134 25.9233 83.1514 51.9504 83.1514Z" fill="#EFDA9C"/>
  <path d="M84.8016 38.877L84.3755 47.957L83.4524 54.5042L83.1447 55.3883L81.8192 56.153L76.8485 57.2044L77.7007 57.4672L78.9788 58.3035L78.9551 59.7133L76.4462 59.4983L71.5229 57.3955L65.6055 56.6787L68.4695 60.4541L70.2211 62.3179L72.2093 62.7002L77.0852 62.6763L77.4876 63.1064L77.7953 63.7516L77.6533 64.2772L74.4579 64.4684L70.9311 64.5162L68.8009 63.7993L66.86 62.2223L63.5699 57.8973L63.0965 58.1363L60.5639 61.0753L58.7176 63.7755L57.2975 65.2569L53.6997 66.7623L53.3447 63.0586L51.8298 60.6691L53.9837 58.6141L55.3329 56.0574L56.0193 54.1936L49.3682 52.736C49.3682 52.736 47.9243 52.2103 47.877 52.1147C47.8296 52.0192 40.8234 44.7312 40.8234 44.7312L39.5453 45.2569L36.3026 47.0968L33.9356 50.2748L33.7226 53.0228L28.1839 55.0777L27.0714 54.4325L22.9766 54.0024L24.7045 48.4588L27.1424 44.0622L31.1426 40.6213L36.0422 36.7742L38.4328 36.4875L39.8057 37.2282L40.1607 37.4194L40.6578 32.5448L42.291 29.5102L45.9597 25.1852L54.1968 18.6619L55.972 17.73L61.0846 18.0884L61.7237 18.1362L65.1795 18.5424L71.3809 20.0956L73.9845 21.5054L78.1741 25.5436L82.2689 30.227L84.5885 34.5281L84.8016 38.877Z" fill="#69BED9"/>
  <path d="M28.3989 67.9626L24.6828 70.2804L18.8364 71.977L14.3155 72.3832L10.4337 71.2601L8.11409 69.4202L6.83594 65.5492L6.8596 62.7057L8.30344 60.3641L11.7355 57.2099L15.8777 55.3222L21.8898 54.1275L25.4166 54.2469L28.1622 55.0355L33.1329 53.0522L33.4879 51.0689L34.8371 48.2732L37.417 46.0032L40.3284 44.7129L48.0684 52.2398L50.7904 53.1L55.4059 54.1275L54.4828 57.425L53.1337 59.2888L51.3348 60.842L53.2047 62.873L53.5597 65.7165L53.6781 68.2733L53.3467 69.7547L51.3584 72.1203L48.021 73.7691L43.2161 74.8922L38.5295 74.8205L34.8844 73.9841L31.2629 72.5505L29.109 70.3521L28.5173 68.5122L28.3989 67.9626Z" fill="#979B9E"/>
  <path d="M52.446 78.183L52.588 75.5546L54.7183 72.5677L58.7421 70.6322L65.1566 69.4136C65.1566 69.4136 71.8077 70.1782 71.9734 70.2499C72.1628 70.3216 76.2576 72.1854 76.2576 72.1854L78.3879 74.312L79.311 76.5104L79.24 81.2416L78.0328 83.7027L74.4587 86.1639L68.5413 87.5259L63.334 87.6454L58.9078 86.594L55.2627 84.9692L53.2744 83.1054L52.375 80.9787L52.446 78.183Z" fill="#979B9E"/>
  <path d="M65.8645 81.5323C71.4333 81.5323 75.9478 79.3499 75.9478 76.6578C75.9478 73.9656 71.4333 71.7832 65.8645 71.7832C60.2957 71.7832 55.7812 73.9656 55.7812 76.6578C55.7812 79.3499 60.2957 81.5323 65.8645 81.5323Z" fill="#797D7F"/>
  <path d="M61.0391 78.7323L67.2878 80.0704L64.2818 77.6571L72.8975 76.1995L64.3291 74.9808L67.7139 72.6152L61.3941 74.1206L61.0391 78.7323Z" fill="#9E88B5"/>
  <path d="M26.6016 54.2234L27.643 54.9163L29.9626 54.1995L33.3711 53.1481L33.6078 50.2807L35.5487 47.485L37.6316 45.8362L40.3299 44.7132L37.6553 41.9175L33.9155 43.0166L30.8384 44.976L29.4892 47.3894L27.0986 52.8613L26.6016 54.2234Z" fill="#3DA0B7"/>
  <path d="M51.5234 60.6698L52.9199 62.1752C52.9199 62.1752 53.1803 62.7487 53.2277 62.8682C53.275 62.9876 54.8135 62.1513 54.8135 62.1513L57.2041 60.2397C57.2041 60.2397 57.4172 59.5229 57.5355 59.3317C57.6539 59.1405 57.5355 57.0139 57.4882 56.7988C57.4408 56.5838 56.5887 54.3855 56.5887 54.3855L55.6893 54.1704C55.6893 54.1704 55.0739 56.7988 54.9319 56.8705C54.7898 56.9422 53.2513 58.7343 53.2513 58.7343L51.5234 60.6698Z" fill="#3DA0B7"/>
  <path d="M61.0646 18.1084C61.0409 18.1323 61.0173 18.1562 61.0173 18.1562C61.0173 18.1562 56.8041 17.296 54.1531 21.1192C51.5021 24.9424 51.289 25.3725 51.289 25.3725L50.2949 29.9842C50.2949 29.9842 48.5907 36.0296 50.721 41.3821L46.9812 41.5971L44.8746 41.1909L39.8093 37.4394L39.7383 37.2482L40.0933 37.4394L39.7383 35.4322L40.2353 33.1144L42.0342 29.1957L45.8924 25.2052L54.1294 18.6819L55.9046 17.75L61.0646 18.1084Z" fill="#3DA0B7"/>
  <path d="M38.2217 36.7046L38.3401 38.4489L35.7364 38.879L31.5469 40.0738L34.8133 37.063L36.7779 36.7763L38.2217 36.7046Z" fill="#46A4C0"/>
  <path d="M51.1465 60.7185L50.3654 60.0734L50.105 58.3052L49.1819 56.4652L45.6078 54.0758L40.3295 52.7376L37.0158 52.5226L33.418 53.0005L33.6073 50.4676L35.1695 47.8631L38.4122 45.4736L40.3295 44.6851L48.1405 52.3553C48.1405 52.3553 51.5725 53.0005 52.0223 53.1917C52.472 53.3828 55.3834 54.0997 55.3834 54.0997L55.0993 55.7484L53.8212 58.3768L51.6909 60.623L51.3359 60.8141" fill="#6B7072"/>
  <path d="M38.4581 65.8345L38.4108 69.5143C38.4108 69.5143 42.5529 69.1798 43.405 68.8214C44.2572 68.463 42.4819 71.1392 46.4821 70.5179L46.3637 74.1977L40.8724 75.0341L37.2036 74.6756L32.1383 72.9791L30.1501 71.2826L28.7299 69.0364L28.6589 67.4594L26.4813 65.7389L25.2031 62.776L25.3925 59.0723L26.1026 61.9158L28.6352 63.8512L30.6235 64.5442C30.6235 64.5442 33.1324 65.5478 33.2981 65.5478C33.4875 65.5478 36.5882 65.7628 36.5882 65.7628L38.4581 65.8345Z" fill="#797D7F"/>
  <path d="M65.3967 84.1321L65.3494 87.7163C65.3494 87.7163 64.1422 87.6685 63.8109 87.6446C63.4795 87.6207 60.4498 86.8322 60.2841 86.8322C60.1184 86.8322 57.7751 86.3543 57.7751 86.3543L54.5797 84.4427L52.5915 81.8143L52.4258 78.8991L52.5678 77.5132L53.7276 80.285C53.7276 80.285 55.0058 80.9779 55.5502 81.408C56.0946 81.8382 57.4911 82.4833 57.7514 82.6745C57.9881 82.8656 60.9942 83.7258 61.1362 83.8214C61.2782 83.917 64.2369 84.3471 64.2369 84.3471L65.3967 84.1321Z" fill="#797D7F"/>
  <path d="M37.9152 62.7286C42.8173 62.7286 46.7913 61.049 46.7913 58.9771C46.7913 56.9052 42.8173 55.2256 37.9152 55.2256C33.013 55.2256 29.0391 56.9052 29.0391 58.9771C29.0391 61.049 33.013 62.7286 37.9152 62.7286Z" fill="#797D7F"/>
  <path d="M25.25 59.7874C25.4867 60.8149 25.5814 62.3919 25.321 62.607C23.9482 63.754 21.7469 64.662 19.2853 65.2354C14.4567 66.3346 10.1488 65.5461 9.67541 63.4433C9.20201 61.3406 12.7288 58.736 17.5574 57.613C20.8001 56.8722 23.9718 56.6572 25.5577 57.7802C25.676 57.828 25.108 59.0945 25.25 59.7874Z" fill="#797D7F"/>
  <path d="M20.0906 71.8073L19.3569 68.2708L14.7413 68.9638L10.6938 68.5815C10.6938 68.5815 8.56354 67.3389 8.46886 67.3389C8.39785 67.3389 7.26172 66.646 7.26172 66.646C7.26172 66.646 8.13749 69.37 8.2085 69.4895C8.27951 69.609 9.605 70.732 9.88904 70.9232C10.1731 71.1143 11.0015 71.7356 11.4749 71.9029C11.9483 72.0701 14.1969 72.4524 14.3863 72.4763C14.5756 72.5002 16.5402 72.2374 16.8716 72.2374C17.2029 72.2374 20.0906 71.8073 20.0906 71.8073Z" fill="#797D7F"/>
  <path d="M24.517 62.919C24.517 62.919 23.8305 64.1376 24.2566 66.1926C24.6827 68.2476 25.8661 69.5379 25.8661 69.5379L28.7302 67.7458L26.2685 65.4997L25.4874 63.4925L25.3217 62.5845L24.517 62.919Z" fill="#797D7F"/>
  <path d="M47.7592 43.7057L51.0019 43.4907L56.5643 46.7404L60.2331 49.2971L62.6947 52.1167L67.1209 55.2469L70.8371 57.2302L75.9497 59.4286C75.9497 59.4286 77.6302 59.7631 77.7249 59.8348C77.8433 59.9065 78.5534 59.6914 78.5534 59.6914L78.506 58.64L78.0326 57.7798L73.6774 56.5612L67.9257 53.2159L61.961 48.5325L57.1324 44.542L53.1796 42.272L51.0019 41.5552L45.2266 41.603L47.7592 43.7057Z" fill="#EFCA64"/>
  <path d="M61.582 51.8047L62.6235 56.8465L66.245 61.8644L68.6356 64.1345L71.4286 64.7557L77.3933 64.3495V63.5849L76.9673 62.9158L72.9671 62.7963L70.3635 62.3662L69.5113 61.7689L66.5053 58.1607L62.7655 52.9994L61.582 51.8047Z" fill="#EFCA64"/>
  <path d="M47.6875 43.8448L51.1433 43.5103L56.1849 46.4732L59.3566 48.6477L59.1199 48.9344L52.1611 47.1184L49.9124 45.7086L47.6875 43.8448Z" fill="#3DA0B7"/>
  <path d="M61.3955 51.4305L65.443 56.9024L71.2893 57.4042L66.0347 54.6563L61.3008 50.5225L61.3955 51.4305Z" fill="#3DA0B7"/>
  <path d="M39.8771 37.3486C39.6641 35.6521 39.8771 33.9078 40.4925 32.3307C41.0606 30.8731 41.9364 29.1288 43.1435 27.7907C45.6762 24.995 53.5108 18.4717 55.4754 17.8504C57.44 17.2291 69.6535 19.0451 72.6122 20.885C75.5709 22.7011 82.8848 30.4908 84.0446 34.2423C85.1807 37.9938 83.8553 54.5291 82.9085 55.4849C81.9617 56.4407 76.352 57.3009 76.352 57.3009" stroke="black" stroke-width="0.95299" stroke-miterlimit="10" strokeLinecap="round" strokeLinejoin="round"/>
  <path d="M26.5039 54.4592C26.5039 54.4592 29.0839 47.0995 30.4567 45.4747C31.8296 43.8498 37.3209 41.8188 37.5576 41.8666C37.7943 41.9143 46.8834 51.2811 48.0669 52.2369C49.2504 53.1927 55.9252 53.4795 56.588 54.6503C57.2507 55.7973 57.9135 58.4974 57.4874 59.7877C57.0614 61.0781 53.4872 63.0135 53.4872 63.0135" stroke="black" stroke-width="0.95299" stroke-miterlimit="10" strokeLinecap="round" strokeLinejoin="round"/>
  <path d="M22.625 54.0974C22.625 54.0974 25.7021 45.7581 26.7435 44.3722C27.785 42.9863 31.0277 40.1906 33.016 39.5693C34.0574 39.2348 35.5013 38.8286 36.6374 38.494C37.7735 38.1595 39.0044 38.4701 39.8801 39.2826C42.6495 41.8871 48.6142 47.5024 49.3953 48.052C50.3894 48.7689 56.8749 50.0592 57.9637 51.1344C59.0525 52.1858 60.6384 59.0198 60.8751 59.5932C61.1118 60.1667 58.2004 64.3483 57.8217 64.7306C57.443 65.113 53.7032 66.8095 53.7032 66.8095" stroke="black" stroke-width="0.95299" stroke-miterlimit="10" strokeLinecap="round" strokeLinejoin="round"/>
  <path d="M30.9062 40.5497C30.9062 40.5497 35.2851 36.7504 36.0899 36.7026C38.7646 36.5592 37.6284 36.0574 41.0605 38.3991C44.4926 40.7408 49.2502 45.5198 50.8597 46.4756C52.4693 47.4314 59.0021 48.435 60.2329 49.2713C61.4637 50.1076 62.7182 56.8699 62.8129 57.6823C62.9076 58.4948 59.4281 62.6286 59.4281 62.6286" stroke="black" stroke-width="0.95299" stroke-miterlimit="10" strokeLinecap="round" strokeLinejoin="round"/>
  <path d="M45.0859 41.577C45.0859 41.577 48.8731 41.5053 51.4294 41.6487C52.8259 41.7204 56.8497 44.2293 60.4238 46.9534C61.4653 47.7419 62.3647 48.7694 63.2405 49.534C64.9684 51.0155 66.3886 52.0191 66.6963 52.2819C67.6904 53.0943 72.7083 56.822 77.4423 57.6105C78.4364 57.7778 79.0045 58.8052 78.5311 59.6893C78.5311 59.6893 78.4601 59.7132 78.3417 59.7132C77.679 59.7849 77.0162 59.7371 76.4008 59.5221C74.8623 59.0442 71.5485 57.73 65.5601 54.2652C65.5601 54.2652 61.0866 50.5615 61.0629 50.442" stroke="black" stroke-width="0.95299" stroke-miterlimit="10" strokeLinecap="round" strokeLinejoin="round"/>
  <path d="M47.832 43.7262C47.832 43.7262 50.4594 43.5828 51.2641 43.6784C52.0689 43.7739 59.1224 48.1945 59.6905 48.8636C59.6905 48.8636 60.5899 48.5051 60.6373 47.2148" stroke="black" stroke-width="0.95299" stroke-miterlimit="10" strokeLinecap="round" strokeLinejoin="round"/>
  <path d="M62.7669 57.0656C62.7669 57.0656 66.5304 62.7287 68.708 63.9951C70.9093 65.2376 77.4184 64.3296 77.4184 64.3296C77.4184 64.3296 77.7498 63.565 76.7557 62.7526C76.7557 62.7526 71.6667 63.2305 70.0808 62.3702C68.5186 61.51 61.4414 51.522 61.4414 51.522" stroke="black" stroke-width="0.95299" stroke-miterlimit="10" strokeLinecap="round" strokeLinejoin="round"/>
  <path d="M65.4414 56.7505L71.2878 57.4434" stroke="black" stroke-width="0.95299" stroke-miterlimit="10" strokeLinecap="round" strokeLinejoin="round"/>
  <path d="M69.608 61.9395C69.608 61.9395 70.6021 62.4412 69.3477 64.2573" stroke="black" stroke-width="0.95299" stroke-miterlimit="10" strokeLinecap="round" strokeLinejoin="round"/>
  <path d="M73.9609 62.8911C73.9609 62.8911 75.0734 63.2495 74.032 64.5399" stroke="black" stroke-width="0.95299" stroke-miterlimit="10" strokeLinecap="round" strokeLinejoin="round"/>
  <path d="M65.7266 60.8167C65.7266 60.8167 67.0284 60.7928 67.0047 59.144" stroke="black" stroke-width="0.95299" stroke-miterlimit="10" strokeLinecap="round" strokeLinejoin="round"/>
  <path d="M62.7891 56.5398C62.7891 56.5398 63.9015 56.1814 64.0199 55.2256" stroke="black" stroke-width="0.95299" stroke-miterlimit="10" strokeLinecap="round" strokeLinejoin="round"/>
  <path d="M50.6484 41.6265C50.6484 41.6265 51.5715 42.3672 50.8378 43.5619" stroke="black" stroke-width="0.95299" stroke-miterlimit="10" strokeLinecap="round" strokeLinejoin="round"/>
  <path d="M56.1379 44.0396C56.1379 44.0396 56.635 45.0431 55.6172 45.9511" stroke="black" stroke-width="0.95299" stroke-miterlimit="10" strokeLinecap="round" strokeLinejoin="round"/>
  <path d="M79.2639 76.2988C79.5006 76.8484 79.3586 79.6919 79.3586 80.2893C79.3586 84.3514 73.3228 87.6489 65.8906 87.6489C58.4583 87.6489 52.4226 84.3514 52.4226 80.2893C52.4226 79.7636 52.2569 77.1113 52.4462 76.6095" stroke="black" stroke-width="0.95299" stroke-miterlimit="10" strokeLinecap="round" strokeLinejoin="round"/>
  <path d="M65.8938 84.3203C73.332 84.3203 79.3618 81.0253 79.3618 76.9607C79.3618 72.8961 73.332 69.6011 65.8938 69.6011C58.4556 69.6011 52.4258 72.8961 52.4258 76.9607C52.4258 81.0253 58.4556 84.3203 65.8938 84.3203Z" stroke="black" stroke-width="0.95299" stroke-miterlimit="10" strokeLinecap="round" strokeLinejoin="round"/>
  <path d="M65.8925 81.6479C71.5006 81.6479 76.0468 79.4334 76.0468 76.7016C76.0468 73.9699 71.5006 71.7554 65.8925 71.7554C60.2845 71.7554 55.7383 73.9699 55.7383 76.7016C55.7383 79.4334 60.2845 81.6479 65.8925 81.6479Z" stroke="black" stroke-width="0.635297" stroke-miterlimit="10" strokeLinecap="round" strokeLinejoin="round"/>
  <path d="M61.3001 74.0731L67.7146 72.8066L64.1168 75.0767L72.9693 76.128L64.0932 77.6334L67.5489 80.0946L60.9688 78.852L61.3001 74.0731Z" stroke="black" stroke-width="0.95299" stroke-miterlimit="10" strokeLinecap="round" strokeLinejoin="round"/>
  <path d="M63.9766 52.8485C63.9766 52.8485 65.1127 52.5856 65.089 51.1997" stroke="black" stroke-width="0.95299" stroke-miterlimit="10" strokeLinecap="round" strokeLinejoin="round"/>
  <path d="M68.9453 56.0581C68.9453 56.0581 69.9157 55.7714 69.8447 54.5767" stroke="black" stroke-width="0.95299" stroke-miterlimit="10" strokeLinecap="round" strokeLinejoin="round"/>
  <path d="M73.4414 58.3757C73.4414 58.3757 74.5302 57.9695 74.2935 56.6792" stroke="black" stroke-width="0.95299" stroke-miterlimit="10" strokeLinecap="round" strokeLinejoin="round"/>
  <path d="M33.3203 53.0001C33.3203 52.9045 33.3203 52.7851 33.3203 52.6656C33.3203 48.938 36.279 45.8316 40.4922 44.7803" stroke="black" stroke-width="0.95299" stroke-miterlimit="10" strokeLinecap="round" strokeLinejoin="round"/>
  <path d="M53.9381 53.6963C53.6541 55.8946 52.3049 57.8062 50.293 59.0965" stroke="black" stroke-width="0.95299" stroke-miterlimit="10" strokeLinecap="round" strokeLinejoin="round"/>
  <path d="M55.4772 54.2896C55.3352 55.3887 54.5067 57.4915 53.8203 58.3756C53.1339 59.2358 52.2581 60.096 51.4297 60.6934" stroke="black" stroke-width="0.95299" stroke-miterlimit="10" strokeLinecap="round" strokeLinejoin="round"/>
  <path d="M37.7475 65.9028C44.6497 65.9028 50.2451 62.9394 50.2451 59.2839C50.2451 55.6284 44.6497 52.665 37.7475 52.665C30.8453 52.665 25.25 55.6284 25.25 59.2839C25.25 62.9394 30.8453 65.9028 37.7475 65.9028Z" stroke="black" stroke-width="0.95299" stroke-miterlimit="10" strokeLinecap="round" strokeLinejoin="round"/>
  <path d="M50.2451 59.0244C50.2451 59.0244 50.3871 62.3219 50.3871 62.991C50.3871 66.6469 44.8011 69.6099 37.8896 69.6099C30.978 69.6099 25.392 66.6469 25.392 62.991C25.392 62.3936 25.25 59.7174 25.25 59.7174" stroke="black" stroke-width="0.95299" stroke-miterlimit="10" strokeLinecap="round" strokeLinejoin="round"/>
  <path d="M26.056 65.2815C24.5175 66.2851 22.6949 67.1453 20.6594 67.7666C14.0555 69.8215 7.85412 68.6507 6.78898 65.162C5.72385 61.6734 10.2211 57.1811 16.8012 55.1501C21.2038 53.7881 25.4169 53.8597 28.0679 55.0784" stroke="black" stroke-width="0.95299" stroke-miterlimit="10" strokeLinecap="round" strokeLinejoin="round"/>
  <path d="M28.8965 67.5982C27.1212 69.1036 24.6833 70.4178 21.8666 71.3019C15.2628 73.3569 9.06134 72.186 7.99621 68.6974C7.83052 68.1239 6.78906 65.376 6.78906 65.376" stroke="black" stroke-width="0.95299" stroke-miterlimit="10" strokeLinecap="round" strokeLinejoin="round"/>
  <path d="M50.2925 60.0957C52.3044 61.2666 53.5353 62.8197 53.5353 64.5402C53.5353 68.1961 47.9492 71.159 41.0377 71.159C37.0612 71.159 33.5108 70.1793 31.2148 68.6501" stroke="black" stroke-width="0.95299" stroke-miterlimit="10" strokeLinecap="round" strokeLinejoin="round"/>
  <path d="M53.5369 64.2729C53.5369 64.2729 53.6789 67.5705 53.6789 68.2395C53.6789 71.8954 48.0929 74.8584 41.1814 74.8584C34.2699 74.8584 28.6838 71.8954 28.6838 68.2395C28.6838 67.6421 28.6602 67.4749 28.6602 67.4749" stroke="black" stroke-width="0.95299" stroke-miterlimit="10" strokeLinecap="round" strokeLinejoin="round"/>
  <path d="M37.8187 62.9158C42.7862 62.9158 46.8131 61.1827 46.8131 59.0448C46.8131 56.9069 42.7862 55.1738 37.8187 55.1738C32.8512 55.1738 28.8242 56.9069 28.8242 59.0448C28.8242 61.1827 32.8512 62.9158 37.8187 62.9158Z" stroke="black" stroke-width="0.635297" stroke-miterlimit="10" strokeLinecap="round" strokeLinejoin="round"/>
  <path d="M25.3694 62.3937C23.9729 63.5168 21.8426 64.5443 19.381 65.1894C14.5761 66.4559 10.2445 65.7868 9.72378 63.708C9.20305 61.6291 12.6588 58.9529 17.4637 57.6864C20.7538 56.8262 23.8072 56.874 25.5824 57.6386" stroke="black" stroke-width="0.635297" stroke-miterlimit="10" strokeLinecap="round" strokeLinejoin="round"/>
  <path d="M55.6423 18.0884C55.6423 18.0884 52.7073 22.9868 51.5001 24.9462C50.293 26.8817 50.293 30.2748 50.293 30.2748" stroke="black" stroke-width="0.95299" stroke-miterlimit="10" strokeLinecap="round" strokeLinejoin="round"/>
  <path d="M84.1895 34.9844C84.1895 34.9844 82.6746 36.6331 80.4023 37.4933" stroke="black" stroke-width="0.95299" stroke-miterlimit="10" strokeLinecap="round" strokeLinejoin="round"/>
</svg>