<svg width="16" height="16" viewBox="0 0 16 16" fill="none" xmlns="http://www.w3.org/2000/svg">
<g clip-path="url(#clip0_1816_55279)">
<path fill-rule="evenodd" clip-rule="evenodd" d="M14.005 5.51366C14.7963 6.08366 15.3337 6.96699 15.3337 8.00033C15.3337 9.03366 14.7963 9.91766 14.005 10.487C14.165 11.4483 13.9157 12.459 13.187 13.187C12.457 13.917 11.447 14.1597 10.4897 14.0037C9.92233 14.7977 9.03099 15.3337 8.00033 15.3337C6.96699 15.3337 6.08166 14.7957 5.51299 14.003C4.55433 14.1597 3.54366 13.9177 2.81299 13.187C2.08299 12.457 1.84033 11.4463 2.00166 10.487C1.21099 9.91833 0.666992 9.03433 0.666992 8.00033C0.666992 6.96633 1.21099 6.08166 2.00166 5.51366C1.84033 4.55433 2.08299 3.54366 2.81366 2.81366C3.54233 2.08433 4.55366 1.83566 5.51833 1.99566C6.08366 1.20299 6.96899 0.666992 8.00033 0.666992C9.03033 0.666992 9.92033 1.20233 10.4883 1.99566C11.4497 1.83566 12.459 2.08566 13.187 2.81366C13.9157 3.54166 14.1657 4.55233 14.005 5.51366ZM11.0543 5.45766C11.1256 5.50852 11.1861 5.57292 11.2325 5.64719C11.2789 5.72145 11.3102 5.80412 11.3246 5.89048C11.339 5.97685 11.3363 6.0652 11.3166 6.15051C11.2969 6.23581 11.2605 6.3164 11.2097 6.38766L7.87633 11.0543C7.82006 11.1331 7.74729 11.1987 7.6631 11.2466C7.57891 11.2944 7.4853 11.3233 7.38879 11.3313C7.29229 11.3393 7.1952 11.3262 7.10428 11.2929C7.01336 11.2595 6.9308 11.2068 6.86233 11.1383L4.86233 9.13833C4.74089 9.01259 4.67369 8.84419 4.67521 8.66939C4.67673 8.49459 4.74684 8.32739 4.87045 8.20378C4.99405 8.08017 5.16126 8.01006 5.33606 8.00854C5.51086 8.00702 5.67926 8.07422 5.80499 8.19566L7.24833 9.63899L10.1243 5.61233C10.2271 5.4685 10.3829 5.3714 10.5573 5.34239C10.7317 5.31339 10.9105 5.35485 11.0543 5.45766Z" fill="#6AB5D2"/>
</g>
<defs>
<clipPath id="clip0_1816_55279">
<rect width="16" height="16" fill="white"/>
</clipPath>
</defs>
</svg>
