<svg width="24" height="24" viewBox="0 0 24 24" fill="none" xmlns="http://www.w3.org/2000/svg">
<rect width="24" height="24" rx="12" fill="white" fill-opacity="0.13"/>
<path d="M14.5 11L17.6467 7.85333C17.7166 7.7835 17.8056 7.73595 17.9026 7.71669C17.9995 7.69743 18.1 7.70733 18.1913 7.74514C18.2826 7.78295 18.3606 7.84697 18.4156 7.92911C18.4705 8.01126 18.4999 8.10784 18.5 8.20667V15.7933C18.4999 15.8922 18.4705 15.9887 18.4156 16.0709C18.3606 16.153 18.2826 16.2171 18.1913 16.2549C18.1 16.2927 17.9995 16.3026 17.9026 16.2833C17.8056 16.2641 17.7166 16.2165 17.6467 16.1467L14.5 13M7 16.5H13C13.3978 16.5 13.7794 16.342 14.0607 16.0607C14.342 15.7794 14.5 15.3978 14.5 15V9C14.5 8.60218 14.342 8.22064 14.0607 7.93934C13.7794 7.65804 13.3978 7.5 13 7.5H7C6.60218 7.5 6.22064 7.65804 5.93934 7.93934C5.65804 8.22064 5.5 8.60218 5.5 9V15C5.5 15.3978 5.65804 15.7794 5.93934 16.0607C6.22064 16.342 6.60218 16.5 7 16.5Z" stroke="white" stroke-width="1.5" stroke-linecap="round" stroke-linejoin="round"/>
</svg>
