<svg width="24" height="24" viewBox="0 0 24 24" fill="none" xmlns="http://www.w3.org/2000/svg">
<rect width="24" height="24" rx="12" fill="white" fill-opacity="0.06"/>
<path fill-rule="evenodd" clip-rule="evenodd" d="M17.949 11.8322C17.9355 11.832 17.9177 11.832 17.8889 11.832H16.1539C15.2049 11.832 14.5 12.5378 14.5 13.332C14.5 14.1262 15.2049 14.832 16.1539 14.832H17.8889C17.9177 14.832 17.9355 14.832 17.949 14.8319C17.9618 14.8318 17.9653 14.8315 17.9653 14.8315C18.1027 14.8232 18.1618 14.7304 18.1663 14.6746C18.1663 14.6746 18.1665 14.6705 18.1665 14.6644C18.1667 14.6526 18.1667 14.6368 18.1667 14.6098V12.0542C18.1667 12.0393 18.1667 12.0278 18.1667 12.0185C18.1666 12.011 18.1666 12.0049 18.1665 11.9996C18.1665 11.9936 18.1663 11.9894 18.1663 11.9894C18.1618 11.9336 18.1027 11.8409 17.9653 11.8326C17.9653 11.8326 17.962 11.8323 17.949 11.8322ZM17.8999 10.832C17.9442 10.832 17.9869 10.832 18.0261 10.8344C18.6069 10.8698 19.1207 11.3079 19.1639 11.9199C19.1667 11.96 19.1667 12.0033 19.1667 12.0434C19.1667 12.047 19.1667 12.0506 19.1667 12.0542V14.6098C19.1667 14.6134 19.1667 14.617 19.1667 14.6207C19.1667 14.6608 19.1667 14.704 19.1639 14.7442C19.1207 15.3562 18.6069 15.7943 18.0261 15.8297C17.9869 15.8321 17.9442 15.832 17.8999 15.832C17.8963 15.832 17.8926 15.832 17.8889 15.832H16.1539C14.7237 15.832 13.5 14.747 13.5 13.332C13.5 11.9171 14.7237 10.832 16.1539 10.832H17.8889C17.8926 10.832 17.8963 10.832 17.8999 10.832Z" fill="white"/>
<path d="M16.6673 13.3346C16.6673 13.7028 16.3689 14.0013 16.0007 14.0013C15.6325 14.0013 15.334 13.7028 15.334 13.3346C15.334 12.9664 15.6325 12.668 16.0007 12.668C16.3689 12.668 16.6673 12.9664 16.6673 13.3346Z" fill="white"/>
<path fill-rule="evenodd" clip-rule="evenodd" d="M17.9006 10.8333C17.9448 10.8333 17.9875 10.8333 18.0267 10.8357C18.177 10.8448 18.3228 10.8809 18.4571 10.9401C18.3858 9.86909 18.1894 9.04375 17.5732 8.42749C17.0743 7.92859 16.4416 7.70717 15.66 7.60209L15.6318 7.59836C15.6248 7.59318 15.6176 7.58815 15.6103 7.58328L13.12 5.93204C12.2512 5.35599 11.0835 5.35599 10.2147 5.93204L7.72434 7.58328C7.717 7.58815 7.70983 7.59318 7.70283 7.59836L7.67464 7.60209C6.89302 7.70717 6.26039 7.92859 5.76148 8.42749C5.26257 8.92641 5.04116 9.55904 4.93608 10.3407C4.83396 11.1001 4.83397 12.0705 4.83398 13.2957V13.3709C4.83397 14.5961 4.83396 15.5665 4.93608 16.326C5.04116 17.1076 5.26257 17.7403 5.76148 18.2392C6.26039 18.7381 6.89302 18.9595 7.67464 19.0646C8.43411 19.1667 9.40454 19.1667 10.6297 19.1667H12.7049C13.9301 19.1667 14.9005 19.1667 15.66 19.0646C16.4416 18.9595 17.0743 18.7381 17.5732 18.2392C18.1894 17.6229 18.3858 16.7976 18.4571 15.7266C18.3228 15.7857 18.177 15.8219 18.0267 15.831C17.9875 15.8334 17.9448 15.8333 17.9006 15.8333H17.8895H17.4459C17.37 16.7277 17.1984 17.1997 16.866 17.5321C16.5839 17.8142 16.1974 17.9833 15.5268 18.0735C14.8416 18.1656 13.9385 18.1667 12.6673 18.1667H10.6673C9.3961 18.1667 8.49299 18.1656 7.80788 18.0735C7.13716 17.9833 6.75072 17.8142 6.46858 17.5321C6.18644 17.2499 6.01733 16.8635 5.92716 16.1928C5.83504 15.5077 5.83398 14.6045 5.83398 13.3333C5.83398 12.0621 5.83504 11.159 5.92716 10.4739C6.01733 9.80317 6.18644 9.41674 6.46858 9.1346C6.75072 8.85246 7.13716 8.68335 7.80788 8.59317C8.49299 8.50106 9.3961 8.5 10.6673 8.5H12.6673C13.9385 8.5 14.8416 8.50106 15.5268 8.59317C16.1974 8.68335 16.5839 8.85246 16.866 9.1346C17.1984 9.46695 17.37 9.93903 17.4459 10.8333H17.8895H17.9006ZM10.6297 7.5H12.7049C13.0492 7.49999 13.3734 7.49999 13.6785 7.50226L12.5674 6.76547C12.0335 6.41151 11.3011 6.41151 10.7673 6.76547L9.6561 7.50226C9.96116 7.49999 10.2854 7.49999 10.6297 7.5Z" fill="white"/>
<path d="M8 10.168C7.72386 10.168 7.5 10.3918 7.5 10.668C7.5 10.9441 7.72386 11.168 8 11.168H10.6667C10.9428 11.168 11.1667 10.9441 11.1667 10.668C11.1667 10.3918 10.9428 10.168 10.6667 10.168H8Z" fill="white"/>
<path fill-rule="evenodd" clip-rule="evenodd" d="M16.6673 13.3346C16.6673 13.7028 16.3689 14.0013 16.0007 14.0013C15.6325 14.0013 15.334 13.7028 15.334 13.3346C15.334 12.9664 15.6325 12.668 16.0007 12.668C16.3689 12.668 16.6673 12.9664 16.6673 13.3346Z" fill="white"/>
</svg>
