<svg width="32" height="32" viewBox="0 0 32 32" fill="none" xmlns="http://www.w3.org/2000/svg">
<path d="M19.5618 8.38281H5.93589C4.06743 8.38281 2.55273 9.8974 2.55273 11.7656V21.8387C2.55273 23.707 4.06743 25.2216 5.93589 25.2216H19.5618C21.4303 25.2216 22.9449 23.707 22.9449 21.8387V11.7656C22.9449 9.8974 21.4303 8.38281 19.5618 8.38281Z" fill="black"/>
<path d="M27.2502 12.1344L25.3668 13.6324C25.1117 13.8352 24.9057 14.0929 24.764 14.3864C24.6223 14.6798 24.5488 15.0016 24.5488 15.3274V18.8889C24.5488 19.2654 24.647 19.6354 24.8336 19.9624C25.0203 20.2894 25.2889 20.5621 25.613 20.7536L27.3262 21.7659C27.4272 21.826 27.5424 21.8583 27.6599 21.8594C27.7775 21.8605 27.8933 21.8304 27.9955 21.7722C28.0976 21.7139 28.1825 21.6297 28.2415 21.5279C28.3005 21.4262 28.3315 21.3107 28.3312 21.1931V12.6548C28.3315 12.5294 28.2963 12.4064 28.2296 12.3001C28.163 12.1938 28.0676 12.1085 27.9546 12.0541C27.8416 11.9997 27.7155 11.9783 27.5908 11.9926C27.4662 12.0068 27.3481 12.056 27.2502 12.1344Z" fill="black"/>
<path d="M23.6913 6.83789H4.12664C3.89814 6.83789 3.71289 7.02311 3.71289 7.25159V23.2629C3.71289 23.4914 3.89814 23.6766 4.12664 23.6766H23.6913C23.9199 23.6766 24.1051 23.4914 24.1051 23.2629V7.25159C24.1051 7.02311 23.9199 6.83789 23.6913 6.83789Z" fill="#9277AA" stroke="black" stroke-width="1.5" stroke-miterlimit="10"/>
<path d="M28.4862 20.2196L26.7732 19.2075C26.449 19.0158 26.1804 18.7432 25.9938 18.4161C25.8072 18.0891 25.709 17.7192 25.709 17.3426V13.7818C25.709 13.4558 25.7826 13.134 25.9242 12.8405C26.0658 12.5469 26.2719 12.2891 26.5269 12.0862L28.4103 10.5882C28.5082 10.5102 28.6262 10.4615 28.7505 10.4475C28.8749 10.4336 29.0007 10.455 29.1135 10.5093C29.2262 10.5637 29.3213 10.6488 29.3879 10.7547C29.4544 10.8608 29.4897 10.9834 29.4896 11.1086V19.6468C29.4897 19.7642 29.4587 19.8794 29.3998 19.981C29.3409 20.0824 29.2562 20.1665 29.1544 20.2246C29.0525 20.2828 28.937 20.3131 28.8196 20.3122C28.7023 20.3113 28.5873 20.2793 28.4862 20.2196Z" fill="#9277AA" stroke="black" stroke-width="1.5" stroke-miterlimit="10"/>
<path d="M10.3187 16.6684C11.1862 16.6684 11.8894 15.9653 11.8894 15.0979C11.8894 14.2304 11.1862 13.5273 10.3187 13.5273C9.45128 13.5273 8.74805 14.2304 8.74805 15.0979C8.74805 15.9653 9.45128 16.6684 10.3187 16.6684Z" fill="#F2EE98"/>
<path d="M17.0355 16.6684C17.903 16.6684 18.6062 15.9653 18.6062 15.0979C18.6062 14.2304 17.903 13.5273 17.0355 13.5273C16.168 13.5273 15.4648 14.2304 15.4648 15.0979C15.4648 15.9653 16.168 16.6684 17.0355 16.6684Z" fill="#F2EE98"/>
</svg>
