<svg width="16" height="15" viewBox="0 0 16 15" fill="none" xmlns="http://www.w3.org/2000/svg">
<path fill-rule="evenodd" clip-rule="evenodd" d="M14.0045 5.01268C14.7958 5.58268 15.3332 6.46602 15.3332 7.49935C15.3332 8.53268 14.7958 9.41668 14.0045 9.98602C14.1645 10.9473 13.9152 11.958 13.1865 12.686C12.4565 13.416 11.4465 13.6587 10.4892 13.5027C9.92184 14.2967 9.0305 14.8327 7.99984 14.8327C6.9665 14.8327 6.08117 14.2947 5.5125 13.502C4.55384 13.6587 3.54317 13.4167 2.8125 12.686C2.0825 11.956 1.83984 10.9453 2.00117 9.98602C1.2105 9.41735 0.666504 8.53335 0.666504 7.49935C0.666504 6.46535 1.2105 5.58068 2.00117 5.01268C1.83984 4.05335 2.0825 3.04268 2.81317 2.31268C3.54184 1.58335 4.55317 1.33468 5.51784 1.49468C6.08317 0.702016 6.9685 0.166016 7.99984 0.166016C9.02984 0.166016 9.91984 0.701349 10.4878 1.49468C11.4492 1.33468 12.4585 1.58468 13.1865 2.31268C13.9152 3.04068 14.1652 4.05135 14.0045 5.01268ZM11.0538 4.95668C11.1251 5.00754 11.1857 5.07195 11.232 5.14621C11.2784 5.22047 11.3097 5.30315 11.3241 5.38951C11.3386 5.47587 11.3358 5.56422 11.3161 5.64953C11.2964 5.73484 11.26 5.81542 11.2092 5.88668L7.87584 10.5533C7.81957 10.6322 7.74681 10.6978 7.66261 10.7456C7.57842 10.7934 7.48481 10.8224 7.38831 10.8304C7.2918 10.8384 7.19471 10.8252 7.10379 10.7919C7.01287 10.7586 6.93031 10.7058 6.86184 10.6374L4.86184 8.63735C4.7404 8.51161 4.6732 8.34321 4.67472 8.16842C4.67624 7.99362 4.74635 7.82641 4.86996 7.7028C4.99356 7.5792 5.16077 7.50909 5.33557 7.50757C5.51037 7.50605 5.67877 7.57324 5.8045 7.69468L7.24784 9.13802L10.1238 5.11135C10.2267 4.96752 10.3824 4.87042 10.5568 4.84142C10.7312 4.81241 10.91 4.85387 11.0538 4.95668Z" fill="#F1E499"/>
</svg>
