<svg width="15" height="22" viewBox="0 0 15 22" fill="none" xmlns="http://www.w3.org/2000/svg">
<path d="M4.38882 2.88823L1.71613 5.48427C1.6825 5.51694 1.66325 5.56163 1.66256 5.60851C1.66186 5.65539 1.67989 5.70062 1.71249 5.73426L11.0655 15.3613L13.9922 12.5185L4.63917 2.89149C4.62296 2.8748 4.60363 2.86148 4.58222 2.85229C4.56089 2.84309 4.53792 2.83821 4.51469 2.83791C4.49137 2.8376 4.46831 2.84189 4.44672 2.85053C4.42514 2.85917 4.40537 2.87197 4.38882 2.88823Z" fill="black"/>
<path d="M1.49686 19.1723L4.15082 21.9041C4.16322 21.9168 4.17804 21.927 4.19434 21.9341C4.21064 21.9411 4.22824 21.9449 4.24601 21.9451C4.26378 21.9454 4.28146 21.9421 4.29793 21.9355C4.31449 21.929 4.32957 21.9192 4.34232 21.9068L14 12.5259L11.157 9.59961L1.49929 18.9805C1.48646 18.993 1.47623 19.0077 1.46921 19.0241C1.46219 19.0405 1.45846 19.0581 1.4582 19.0759C1.45802 19.0937 1.46123 19.1114 1.46791 19.128C1.4745 19.1445 1.48438 19.1596 1.49686 19.1723Z" fill="black"/>
<path d="M3.71304 1.05036L1.04035 3.64639C1.00671 3.67906 0.98747 3.72376 0.986776 3.77064C0.986083 3.81752 1.00411 3.86274 1.03671 3.89637L10.3898 13.5234L13.3164 10.6806L3.96339 1.05361C3.94718 1.03692 3.92785 1.0236 3.90644 1.01441C3.88511 1.00521 3.86214 1.00032 3.83891 1.00002C3.81559 0.999712 3.79253 1.004 3.77094 1.01265C3.74936 1.02128 3.72968 1.0341 3.71304 1.05036Z" fill="#E687A3" stroke="black" stroke-width="1.5" stroke-miterlimit="10"/>
<path d="M0.824969 17.3365L3.47893 20.0682C3.49133 20.081 3.50615 20.0912 3.52245 20.0982C3.53883 20.1052 3.55634 20.109 3.57411 20.1093C3.59189 20.1096 3.60957 20.1063 3.62604 20.0997C3.6426 20.0932 3.65768 20.0834 3.67043 20.071L13.3281 10.6901L10.4851 7.76367L0.827396 17.1446C0.814567 17.157 0.804338 17.1719 0.797316 17.1882C0.790294 17.2046 0.786567 17.2222 0.786307 17.2401C0.786134 17.2579 0.789427 17.2755 0.796016 17.2921C0.802691 17.3087 0.812487 17.3237 0.824969 17.3365Z" fill="#F2EE98" stroke="black" stroke-width="1.5" stroke-miterlimit="10"/>
</svg>
