<svg width="15" height="22" viewBox="0 0 15 22" fill="none" xmlns="http://www.w3.org/2000/svg">
<path d="M10.3747 2.84441C10.3534 2.85356 10.3341 2.86682 10.318 2.88343L10.3747 2.84441ZM10.3747 2.84441C10.3959 2.83525 10.4188 2.8304 10.4419 2.83009C10.4651 2.82979 10.4881 2.83406 10.5096 2.84266L10.3747 2.84441ZM2.42195 12.4459L10.4611 4.17121L11.9398 5.60746L3.90057 13.8821L2.42195 12.4459ZM11.0353 3.58021C11.0351 3.58041 11.0349 3.58061 11.0347 3.58081L11.0352 3.58026L11.0353 3.58021Z" fill="#9B9B9A" stroke="#727271" stroke-width="2"/>
<path d="M12.4796 19.0117L10.6948 20.8487L2.0606 12.462L3.84538 10.6249L12.4796 19.0117ZM12.9101 18.5685L12.908 18.5707C12.9087 18.57 12.9094 18.5692 12.9101 18.5685ZM13.35 18.9987V18.9987Z" fill="black" stroke="black" stroke-width="1.5"/>
<path d="M11.2391 1.05013L13.8995 3.63427C13.933 3.6668 13.9522 3.71129 13.9529 3.75796C13.9536 3.80462 13.9356 3.84963 13.9032 3.88311L4.59293 13.4661L1.67969 10.6363L10.9899 1.05336C11.006 1.03675 11.0253 1.02349 11.0466 1.01434C11.0678 1.00518 11.0907 1.00032 11.1138 1.00001C11.137 0.999713 11.16 1.00398 11.1814 1.01259C11.2029 1.02118 11.2225 1.03394 11.2391 1.05013Z" fill="#E687A3" stroke="black" stroke-width="1.5" stroke-miterlimit="10"/>
<path d="M14.1178 17.2594L11.476 19.9787C11.4636 19.9913 11.4489 20.0015 11.4327 20.0085C11.4163 20.0155 11.3989 20.0193 11.3812 20.0196C11.3635 20.0198 11.3459 20.0165 11.3295 20.01C11.3131 20.0035 11.298 19.9938 11.2854 19.9814L1.67188 10.6435L4.5019 7.73047L14.1154 17.0685C14.1281 17.0808 14.1383 17.0956 14.1453 17.1119C14.1523 17.1282 14.156 17.1457 14.1563 17.1635C14.1564 17.1812 14.1532 17.1988 14.1466 17.2153C14.14 17.2318 14.1302 17.2468 14.1178 17.2594Z" fill="#F2EE98" stroke="black" stroke-width="1.5" stroke-miterlimit="10"/>
</svg>
