<svg width="20" height="20" viewBox="0 0 20 20" fill="none" xmlns="http://www.w3.org/2000/svg">
<path d="M12.2565 16.6244L14.3119 14.6279C14.3377 14.6028 14.3525 14.5684 14.3531 14.5324C14.3536 14.4963 14.3397 14.4615 14.3147 14.4357L7.12179 7.03212L4.87109 9.21832L12.0639 16.6219C12.0764 16.6347 12.0913 16.6449 12.1077 16.652C12.1241 16.6591 12.1418 16.6628 12.1597 16.6631C12.1776 16.6633 12.1953 16.66 12.2119 16.6534C12.2285 16.6467 12.2437 16.6369 12.2565 16.6244Z" fill="black"/>
<path d="M14.4826 4.10109L12.4416 2.00029C12.4321 1.99049 12.4207 1.98262 12.4081 1.97722C12.3956 1.97182 12.3821 1.96889 12.3684 1.96869C12.3547 1.96849 12.3411 1.97102 12.3285 1.97609C12.3157 1.98109 12.3041 1.98862 12.2943 1.99816L4.86719 9.21242L7.05359 11.4629L14.4807 4.24862C14.4906 4.23902 14.4985 4.22769 14.5039 4.21509C14.5093 4.20249 14.5121 4.18896 14.5123 4.17522C14.5125 4.16156 14.51 4.14796 14.5049 4.13522C14.4998 4.12249 14.4922 4.11089 14.4826 4.10109Z" fill="black"/>
<path d="M12.776 18.0384L14.8314 16.042C14.8573 16.0168 14.8721 15.9825 14.8726 15.9464C14.8731 15.9104 14.8593 15.8756 14.8342 15.8497L7.64132 8.44617L5.39062 10.6324L12.5835 18.0359C12.5959 18.0488 12.6108 18.059 12.6273 18.0661C12.6437 18.0731 12.6613 18.0769 12.6792 18.0771C12.6971 18.0774 12.7149 18.0741 12.7315 18.0674C12.7481 18.0608 12.7632 18.0509 12.776 18.0384Z" fill="#E687A3" stroke="black" stroke-width="1.5" stroke-miterlimit="10"/>
<path d="M15.0002 5.51509L12.9592 3.41429C12.9496 3.40449 12.9382 3.39662 12.9257 3.39122C12.9131 3.38582 12.8996 3.38289 12.886 3.38269C12.8723 3.38249 12.8587 3.38502 12.846 3.39009C12.8333 3.39509 12.8217 3.40262 12.8119 3.41215L5.38477 10.6264L7.57118 12.877L14.9983 5.66262C15.0082 5.65309 15.016 5.64169 15.0214 5.62909C15.0268 5.61649 15.0297 5.60295 15.0299 5.58922C15.03 5.57555 15.0275 5.56195 15.0224 5.54922C15.0173 5.53649 15.0098 5.52489 15.0002 5.51509Z" fill="#F2EE98" stroke="black" stroke-width="1.5" stroke-miterlimit="10"/>
</svg>
