<svg width="224" height="224" viewBox="0 0 224 224" fill="none" xmlns="http://www.w3.org/2000/svg">
<path d="M222.497 58.0438V165.989C222.5 169.344 221.842 172.666 220.56 175.765C219.277 178.865 217.397 181.681 215.025 184.053C212.653 186.424 209.837 188.305 206.737 189.588C203.638 190.87 200.316 191.528 196.961 191.525H87.3583C84.0048 191.525 80.6842 190.865 77.5861 189.582C74.4879 188.298 71.6728 186.417 69.3016 184.046C66.9303 181.675 65.0494 178.86 63.7661 175.762C62.4828 172.663 61.8223 169.343 61.8223 165.989V58.0438C61.8223 51.2712 64.5127 44.7761 69.3016 39.9871C74.0905 35.1982 80.5857 32.5078 87.3583 32.5078H197.118C203.865 32.5434 210.324 35.2501 215.08 40.0359C219.837 44.8216 222.503 51.2965 222.497 58.0438Z" fill="#6AB5D2"/>
<path d="M172.995 47.1953H110.835C92.5014 47.1953 77.6387 62.058 77.6387 80.3921V142.283C77.6387 160.617 92.5014 175.48 110.835 175.48H172.995C191.33 175.48 206.192 160.617 206.192 142.283V80.3921C206.192 62.058 191.33 47.1953 172.995 47.1953Z" fill="#87CDE2"/>
<path d="M3.09083 163.525L2.01562 168.184L3.35963 174.904L5.84602 178.197C7.99282 179.98 10.3201 181.534 12.79 182.834C12.79 182.834 16.71 184.626 17.6956 184.088C18.6812 183.551 20.2716 182.834 21.526 182.207C23.059 181.779 24.5065 181.089 25.8044 180.168C27.0364 178.914 32.6588 171.88 33.5548 171.208C34.4508 170.536 50.4668 153.288 50.8252 153.042C51.1836 152.795 53.6028 150.376 53.6924 149.391C53.6312 147.986 53.4816 146.587 53.2444 145.202L50.646 144.127C49.8838 144.663 49.0826 145.142 48.2492 145.56C46.7253 145.504 45.2171 145.232 43.7692 144.754C43.4108 144.306 42.3356 142.626 42.694 142.088C43.0524 141.551 45.1132 138.952 45.1132 138.952L45.382 137.899L43.5004 135.391H40.9468C39.504 135.909 38.1036 136.538 36.758 137.272C36.1308 137.81 4.68122 161.778 4.68122 161.778L3.09083 163.525Z" fill="#795F97"/>
<path d="M45.1804 137.73L43.5676 139.97C43.5676 139.97 42.2908 142.658 42.694 142.972C43.0972 143.286 43.702 145.458 45.2476 145.862C46.9154 145.931 48.5576 145.433 49.9068 144.45C50.3772 144.047 51.1164 143.913 50.8476 143.51C50.5788 143.106 45.1804 137.73 45.1804 137.73Z" fill="#EFD378"/>
<path d="M119.189 99.4142C117.721 94.6038 115.399 90.0968 112.335 86.1086C109.627 82.5743 106.385 79.4833 102.725 76.947C95.8267 72.1788 87.6364 69.6311 79.2503 69.6446C68.1818 69.8991 57.6524 74.4748 49.9143 82.3929C42.1762 90.311 37.8438 100.943 37.8438 112.014C37.8438 123.086 42.1762 133.717 49.9143 141.635C57.6524 149.554 68.1818 154.129 79.2503 154.384C86.3715 154.34 93.3641 152.483 99.5682 148.987C105.772 145.491 110.983 140.472 114.709 134.403C117.902 129.213 119.953 123.402 120.725 117.358C121.498 111.313 120.974 105.173 119.189 99.347V99.4142ZM102.613 132.454C100.034 136.617 96.4556 140.069 92.2036 142.498C87.9517 144.927 83.1604 146.256 78.2647 146.365C61.2855 146.365 47.5319 130.416 47.5319 110.726C47.5319 91.0366 61.2855 75.0878 78.2647 75.0878C83.2311 75.1841 88.0929 76.5319 92.4 79.0066C96.7071 81.4812 100.32 85.0025 102.905 89.2446C107.037 95.6405 109.195 103.112 109.109 110.726C109.114 114.271 108.663 117.802 107.765 121.232C106.67 125.228 104.93 129.019 102.613 132.454Z" fill="#EFD378"/>
<path d="M61.7828 80.6445V140.789C57.2386 137.227 53.5856 132.656 51.1129 127.439C48.6403 122.222 47.4158 116.5 47.5364 110.728C47.4088 104.951 48.63 99.2241 51.1031 94.0019C53.5761 88.7797 57.2329 84.2061 61.7828 80.6445Z" fill="#A8DAE7"/>
<path opacity="0.25" d="M108.998 110.727C108.998 130.417 95.2449 146.366 78.2657 146.366C72.3135 146.327 66.5323 144.371 61.7793 140.788V80.644C66.5323 77.0609 72.3135 75.1051 78.2657 75.0664C95.2449 75.0888 108.998 91.0376 108.998 110.727Z" fill="#A8DAE7"/>
<path d="M164.955 108.662C164.79 114.822 162.188 120.664 157.719 124.906C153.25 129.148 147.281 131.443 141.121 131.286C137.015 131.337 132.964 130.334 129.357 128.373C125.749 126.413 122.704 123.559 120.513 120.086C121.572 113.351 121.12 106.465 119.191 99.9262C121.116 95.7413 124.211 92.203 128.102 89.7385C131.993 87.2741 136.515 85.9889 141.121 86.0382C147.279 85.8876 153.245 88.1844 157.713 92.4252C162.18 96.6659 164.785 102.505 164.955 108.662Z" fill="#9E88B5"/>
<path d="M135.898 103.778L136.436 93.8776C136.436 93.8776 134.823 91.6376 137.511 91.3016C140.199 90.9656 142.663 91.0328 142.663 91.0328L145.351 94.0792L145.889 100.799V103.935L155.498 104.204C155.498 104.204 156.932 105.078 157.111 105.615C157.636 106.689 158.02 107.826 158.253 108.998C158.253 109.983 158.612 111.238 157.201 111.954C155.931 112.687 154.544 113.195 153.101 113.455C152.385 113.455 147.569 114.082 146.941 114.082C146.314 114.082 144.993 113.276 144.993 113.903C144.993 114.53 145.351 118.898 145.351 120.13C145.351 121.362 145.351 124.05 144.455 124.61C143.559 125.17 142.215 126.134 141.073 125.596C140.022 125.128 138.915 124.797 137.78 124.61C137.254 124.445 136.775 124.155 136.385 123.765C135.995 123.375 135.705 122.896 135.54 122.37C135.2 120.011 135.02 117.631 135.002 115.247C135.002 114.351 127.162 113.366 127.162 113.366C126.181 113.165 125.283 112.673 124.586 111.954C124.023 111.284 123.609 110.503 123.369 109.661C123.13 108.82 123.071 107.937 123.197 107.071C123.556 105.01 128.999 104.047 128.999 104.047L135.898 103.778Z" fill="#EFD378"/>
<path d="M170.242 123.198C170.242 123.198 170.242 122.122 172.482 121.495C174.722 120.868 174.968 121.495 176.76 121.674C177.059 121.655 177.359 121.699 177.64 121.805C177.921 121.91 178.176 122.074 178.388 122.287C178.6 122.499 178.764 122.754 178.87 123.034C178.976 123.315 179.02 123.615 179 123.914C179 125.057 179.157 139.438 179 140.132C178.865 141.04 178.494 141.898 177.925 142.618C177.119 143.873 174.543 144.388 172.415 144.388C170.287 144.388 161.215 144.388 159.669 144.142C158.123 143.895 157.183 144.142 156.376 142.708C155.759 141.468 155.54 140.068 155.749 138.698C155.938 137.864 156.339 137.092 156.914 136.458C157.877 135.473 158.863 135.383 162.335 134.935C165.807 134.487 168.159 134.398 168.427 134.398C168.696 134.398 169.928 133.233 169.839 132.718C169.749 132.202 169.391 125.998 169.391 125.998L170.242 123.198Z" fill="#EFD378"/>
<path d="M170.242 91.833C170.242 91.833 170.242 92.8858 172.482 93.513C174.722 94.1402 174.968 93.513 176.76 93.3338C178.552 93.1546 179 92.2586 179 91.0938C179 89.929 179.157 75.5482 179 74.8762C178.868 73.9669 178.497 73.1089 177.925 72.3898C177.18 71.7263 176.306 71.2245 175.358 70.9161C174.409 70.6076 173.407 70.4993 172.415 70.5978C170.175 70.5978 161.215 70.5978 159.669 70.8666C158.123 71.1354 157.183 70.8666 156.376 72.3002C155.759 73.5401 155.54 74.9405 155.749 76.3098C155.943 77.1425 156.343 77.9129 156.914 78.5498C157.877 79.5354 158.863 79.625 162.335 80.073C165.807 80.521 167.957 80.6106 168.226 80.7002C168.495 80.7898 169.727 81.8426 169.637 82.3802C169.547 82.9178 169.189 88.9658 169.189 88.9658L170.242 91.833Z" fill="#EFD378"/>
<path d="M125.976 76.428C125.784 77.2569 125.392 78.0261 124.833 78.668C123.848 79.6536 122.862 79.7432 119.39 80.1912C115.918 80.6392 113.768 80.7064 113.499 80.796C113.23 80.8856 111.998 81.9608 112.088 82.4984C112.177 83.036 112.245 84.492 112.334 86.1272C109.626 82.5929 106.384 79.5019 102.725 76.9656V75.0168C102.86 74.1084 103.231 73.2512 103.8 72.5304C104.544 71.867 105.419 71.3652 106.367 71.0567C107.316 70.7483 108.318 70.6399 109.31 70.7384C111.55 70.7384 120.51 70.7384 122.056 71.0072C123.601 71.276 124.542 71.0072 125.371 72.4408C125.976 73.6766 126.187 75.0684 125.976 76.428Z" fill="#EFD378"/>
<path d="M112.54 89.0848L111.734 91.84C111.734 91.84 111.734 92.8928 109.494 93.52C107.254 94.1472 107.008 93.52 105.238 93.3408C103.468 93.1616 102.998 92.2656 102.998 91.1008C102.998 90.8768 102.998 90.16 102.998 89.1296C102.998 85.9936 102.998 79.9456 102.998 76.832C106.658 79.3684 109.9 82.4593 112.608 85.9936C112.451 87.6288 112.54 89.0848 112.54 89.0848Z" fill="#EFD378"/>
<path d="M107.657 121.238C106.594 125.22 104.892 129.002 102.617 132.438C102.617 128.541 102.617 124.464 102.617 123.881C102.617 122.739 103.155 121.641 104.857 121.641C106.246 121.597 106.694 121.261 107.657 121.238Z" fill="#EFD378"/>
<path d="M125.217 142.69C124.433 144.034 123.447 143.945 121.924 144.102C120.401 144.258 111.329 144.37 109.201 144.37C108.305 144.371 107.412 144.281 106.535 144.102C109.739 141.304 112.496 138.033 114.711 134.402C115.719 134.402 117.265 134.626 119.191 134.873C122.663 135.321 123.671 135.41 124.634 136.374C125.21 137.003 125.605 137.777 125.777 138.614C126.021 139.998 125.825 141.423 125.217 142.69Z" fill="#EFD378"/>
<path d="M62.5837 71.9235V54.9443C62.5837 48.9595 64.955 43.2186 69.1784 38.9783C73.4019 34.7381 79.1334 32.344 85.1181 32.3203H198.888C201.859 32.3203 204.801 32.9055 207.546 34.0425C210.29 35.1794 212.784 36.8459 214.885 38.9467C216.986 41.0476 218.653 43.5416 219.79 46.2865C220.927 49.0314 221.512 51.9733 221.512 54.9443V168.624C221.512 174.625 219.128 180.379 214.885 184.622C210.642 188.865 204.888 191.248 198.888 191.248H85.1181C79.1179 191.248 73.3634 188.865 69.1206 184.622C64.8777 180.379 62.4941 174.625 62.4941 168.624V152.631" stroke="#1D1D1B" stroke-width="1.904" strokeLinecap="round" strokeLinejoin="round"/>
<path d="M77.7266 154.563V157.251C77.7266 162.111 79.657 166.771 83.0933 170.207C86.5296 173.644 91.1901 175.574 96.0498 175.574H188.159C193.018 175.574 197.679 173.644 201.115 170.207C204.551 166.771 206.482 162.111 206.482 157.251V65.2542C206.452 60.414 204.509 55.7821 201.076 52.3701C197.643 48.958 192.999 47.0429 188.159 47.043H96.0498C91.1901 47.043 86.5296 48.9734 83.0933 52.4097C79.657 55.846 77.7266 60.5066 77.7266 65.3662V69.3758" stroke="#1D1D1B" stroke-width="1.5232" strokeLinecap="round" strokeLinejoin="round"/>
<path d="M77.7266 75.168V78.976V144.317V145.773" stroke="#1D1D1B" stroke-width="1.5232" strokeLinecap="round" strokeLinejoin="round"/>
<path d="M62.584 138.615V79.2773" stroke="#1D1D1B" stroke-width="1.904" strokeLinecap="round" strokeLinejoin="round"/>
<path d="M43.7918 134.914C42.0625 134.764 40.3301 135.164 38.8414 136.056L4.88298 161.099C4.05607 161.725 3.37248 162.521 2.878 163.433C2.38351 164.344 2.08954 165.351 2.01578 166.386C1.81245 168.014 1.81245 169.662 2.01578 171.291C2.38462 173.236 3.16245 175.081 4.29777 176.703C5.4331 178.325 6.90001 179.687 8.60138 180.699C10.6598 181.991 12.9374 182.894 15.3214 183.365C17.1552 183.728 19.0535 183.581 20.8094 182.939C22.2291 182.341 23.5102 181.457 24.5726 180.341L51.9006 152.498C52.7881 151.718 53.4299 150.698 53.7481 149.561C54.0662 148.423 54.0469 147.218 53.6926 146.091" stroke="#1D1D1B" stroke-width="1.904" strokeLinecap="round" strokeLinejoin="round"/>
<path d="M76.6734 154.377C98.1745 154.377 115.605 135.392 115.605 111.974C115.605 88.5549 98.1745 69.5703 76.6734 69.5703C55.1723 69.5703 37.7422 88.5549 37.7422 111.974C37.7422 135.392 55.1723 154.377 76.6734 154.377Z" stroke="#1D1D1B" stroke-width="1.792" strokeLinecap="round" strokeLinejoin="round"/>
<path d="M81.5814 69.9141C103.085 69.9141 121.117 89.4469 121.117 112.855C121.201 123.694 116.991 134.126 109.406 141.87C101.821 149.614 91.4794 154.041 80.6406 154.183" stroke="#1D1D1B" stroke-width="1.792" strokeLinecap="round" strokeLinejoin="round"/>
<path d="M76.1377 148.488C94.3852 148.488 109.178 132.101 109.178 111.887C109.178 91.6723 94.3852 75.2852 76.1377 75.2852C57.8902 75.2852 43.0977 91.6723 43.0977 111.887C43.0977 132.101 57.8902 148.488 76.1377 148.488Z" stroke="#1D1D1B" stroke-width="1.7024" strokeLinecap="round" strokeLinejoin="round"/>
<path d="M91.187 144.427C88.0172 145.526 84.6858 146.086 81.331 146.084C63.075 146.084 48.291 129.687 48.291 109.46C48.1799 103.156 49.6637 96.927 52.6048 91.3504C55.5458 85.7738 59.8486 81.0309 65.1134 77.5625" stroke="#1D1D1B" stroke-width="1.7024" strokeLinecap="round" strokeLinejoin="round"/>
<path d="M45.4477 137.988L44.0365 139.691C43.651 140.143 43.3691 140.674 43.2105 141.247C43.0518 141.819 43.0203 142.42 43.1181 143.006C43.2377 143.602 43.5343 144.149 43.9693 144.574C44.7938 145.258 45.8421 145.614 46.913 145.573C47.9838 145.532 49.0016 145.096 49.7709 144.35L50.5549 143.633" stroke="#1D1D1B" stroke-width="1.904" strokeLinecap="round" strokeLinejoin="round"/>
<path d="M38.192 139.848C37.6619 140.976 37.5217 142.248 37.7934 143.464C38.0651 144.681 38.7332 145.772 39.6928 146.568" stroke="#1D1D1B" stroke-width="1.904" strokeLinecap="round" strokeLinejoin="round"/>
<path d="M119.303 100.168C121.195 95.2211 124.719 91.0681 129.293 88.3966C133.867 85.7251 139.216 84.6954 144.454 85.4777C149.693 86.2601 154.508 88.8077 158.101 92.6989C161.695 96.5901 163.852 101.592 164.216 106.876C164.58 112.16 163.129 117.41 160.103 121.758C157.077 126.105 152.657 129.289 147.575 130.782C142.493 132.275 137.054 131.989 132.157 129.97C127.26 127.951 123.199 124.32 120.647 119.679" stroke="#1D1D1B" stroke-width="1.904" strokeLinecap="round" strokeLinejoin="round"/>
<path d="M153.733 104.008H145.445V95.0479C145.457 94.4748 145.354 93.9051 145.141 93.3727C144.929 92.8402 144.611 92.3559 144.208 91.9484C143.805 91.541 143.324 91.2188 142.794 91.0008C142.263 90.7829 141.695 90.6738 141.122 90.6799H140.226C139.091 90.6799 138.003 91.1307 137.2 91.933C136.398 92.7354 135.947 93.8236 135.947 94.9583V103.918H127.211C126.082 103.918 125 104.367 124.202 105.165C123.404 105.963 122.955 107.046 122.955 108.174V109.07C122.952 109.631 123.06 110.187 123.273 110.706C123.485 111.225 123.798 111.697 124.194 112.094C124.589 112.492 125.059 112.807 125.577 113.023C126.095 113.238 126.65 113.349 127.211 113.349H135.947V121.413C135.953 122.546 136.406 123.63 137.207 124.432C138.008 125.233 139.093 125.685 140.226 125.691H141.122C142.254 125.685 143.339 125.233 144.14 124.432C144.941 123.63 145.394 122.546 145.4 121.413V113.438H153.688C154.249 113.438 154.804 113.328 155.322 113.112C155.84 112.897 156.31 112.581 156.705 112.184C157.101 111.786 157.414 111.314 157.626 110.796C157.839 110.277 157.947 109.721 157.944 109.16V108.264C157.944 107.143 157.502 106.067 156.713 105.27C155.925 104.473 154.854 104.02 153.733 104.008Z" stroke="#1D1D1B" stroke-width="1.904" strokeLinecap="round" strokeLinejoin="round"/>
<path d="M156.484 73.7155V75.9555C156.484 76.8586 156.843 77.7246 157.482 78.3631C158.12 79.0016 158.986 79.3603 159.889 79.3603H166.609C167.068 79.3571 167.522 79.4465 167.945 79.6232C168.369 79.7999 168.752 80.0603 169.072 80.3888C169.392 80.7172 169.642 81.1069 169.808 81.5345C169.974 81.9621 170.051 82.4188 170.036 82.8771V89.5971C170.042 90.5022 170.406 91.3682 171.048 92.0061C171.69 92.644 172.558 93.002 173.464 93.0019H175.704C176.172 93.0148 176.637 92.9309 177.072 92.7556C177.506 92.5802 177.899 92.3172 178.227 91.9829C178.555 91.6487 178.811 91.2503 178.978 90.8129C179.145 90.3754 179.22 89.9081 179.198 89.4403V73.7603C179.198 73.3113 179.109 72.8667 178.937 72.4522C178.764 72.0376 178.511 71.6613 178.193 71.3448C177.874 71.0284 177.496 70.778 177.081 70.6083C176.665 70.4385 176.22 70.3526 175.771 70.3555H159.889C158.994 70.3555 158.135 70.708 157.497 71.3369C156.86 71.9658 156.496 72.8203 156.484 73.7155Z" stroke="#1D1D1B" stroke-width="1.904" strokeLinecap="round" strokeLinejoin="round"/>
<path d="M156.484 140.718V138.478C156.484 137.575 156.843 136.709 157.482 136.071C158.12 135.432 158.986 135.073 159.889 135.073H166.609C167.512 135.073 168.378 134.715 169.017 134.076C169.655 133.438 170.014 132.572 170.014 131.669V124.949C170.014 124.04 170.375 123.168 171.018 122.525C171.661 121.882 172.532 121.521 173.441 121.521H175.681C176.145 121.506 176.608 121.586 177.04 121.755C177.472 121.925 177.865 122.182 178.194 122.509C178.524 122.836 178.783 123.228 178.955 123.659C179.128 124.09 179.21 124.552 179.198 125.016V140.696C179.198 141.145 179.109 141.589 178.937 142.004C178.764 142.419 178.511 142.795 178.193 143.111C177.874 143.428 177.496 143.678 177.081 143.848C176.665 144.018 176.22 144.104 175.771 144.101H159.889C158.992 144.095 158.133 143.737 157.496 143.105C156.859 142.472 156.496 141.616 156.484 140.718Z" stroke="#1D1D1B" stroke-width="1.904" strokeLinecap="round" strokeLinejoin="round"/>
<path d="M102.744 76.6958V73.6942C102.741 73.2462 102.827 72.8021 102.997 72.3877C103.167 71.9733 103.418 71.5967 103.735 71.28C104.052 70.9632 104.428 70.7125 104.843 70.5425C105.257 70.3724 105.701 70.2864 106.149 70.2894H121.986C122.439 70.2834 122.888 70.3678 123.308 70.5376C123.728 70.7075 124.109 70.9593 124.43 71.2785C124.752 71.5976 125.006 71.9776 125.179 72.3963C125.351 72.8149 125.438 73.2638 125.435 73.7166V75.9566C125.435 76.8596 125.077 77.7256 124.438 78.3641C123.8 79.0026 122.934 79.3614 122.031 79.3614H115.311C114.847 79.3521 114.387 79.4369 113.957 79.6107C113.528 79.7844 113.138 80.0435 112.811 80.3722C112.484 80.701 112.228 81.0925 112.057 81.5233C111.886 81.954 111.804 82.4149 111.816 82.8782V84.9614" stroke="#1D1D1B" stroke-width="1.904" strokeLinecap="round" strokeLinejoin="round"/>
<path d="M107.342 144.165H121.991C122.445 144.168 122.895 144.081 123.315 143.908C123.735 143.736 124.116 143.482 124.437 143.161C124.758 142.84 125.012 142.459 125.184 142.039C125.357 141.619 125.444 141.169 125.441 140.715V138.475C125.441 138.028 125.353 137.585 125.182 137.172C125.011 136.759 124.76 136.384 124.444 136.068C124.128 135.751 123.752 135.501 123.339 135.329C122.926 135.158 122.483 135.07 122.036 135.07H115.316" stroke="#1D1D1B" stroke-width="1.904" strokeLinecap="round" strokeLinejoin="round"/>
<path d="M107.829 121.59H106.149C105.7 121.59 105.255 121.679 104.841 121.851C104.426 122.024 104.05 122.276 103.734 122.595C103.417 122.914 103.167 123.292 102.997 123.707C102.827 124.123 102.741 124.568 102.744 125.017V133.395" stroke="#1D1D1B" stroke-width="1.904" strokeLinecap="round" strokeLinejoin="round"/>
</svg>
