<svg width="134" height="134" viewBox="0 0 134 134" fill="none" xmlns="http://www.w3.org/2000/svg">
<path d="M50.3716 81.5133L51.2962 85.7611L50.921 88.8163L45.9362 91.4963L42.144 93.1579C41.0747 93.3384 39.9968 93.4636 38.9146 93.5331C37.1792 93.1189 35.4807 92.5632 33.836 91.8715L32.2682 87.9989L27.0154 71.8251L23.8798 64.5221L21.2936 60.9309L19.9536 60.1939L16.081 57.9695L12.9856 52.9847C12.2115 53.1043 11.4194 52.9778 10.721 52.6229C10.0778 52.0601 5.92383 47.8123 5.92383 47.8123L6.29903 41.4473L9.05943 38.4859L11.7394 38.5797C12.3394 38.2508 12.8974 37.8503 13.401 37.3871C14.2448 36.1255 15.1714 34.9213 16.1748 33.7825C16.6304 33.5011 19.8732 31.8395 19.8732 31.8395L24.4828 31.4777L27.1628 31.1963C28.2494 30.1705 29.4242 29.2423 30.6736 28.4225C31.3168 28.2483 33.8092 27.6855 33.8092 27.6855C33.8092 27.6855 35.1492 27.7793 35.1492 27.4979V26.4929L38.928 20.1011L45.762 13.1733L52.462 9.9439C52.462 9.9439 58.559 8.7513 59.162 8.8451C59.765 8.9389 67.5638 9.1131 67.5638 9.1131L73.5536 11.2571L78.6322 14.8483L83.8984 19.6589L88.0524 26.0239L91.7374 35.7255L92.662 48.0937L91.5498 57.8757L87.8648 66.4651L85.9218 68.5957L82.9738 69.0513C82.338 69.656 81.6571 70.2115 80.937 70.7129C80.2121 71.2576 79.6133 71.9523 79.1816 72.7497C78.0656 73.8555 76.6797 74.6501 75.1616 75.0545C74.036 75.105 72.9204 75.2895 71.8384 75.6039C70.6501 76.4325 69.5093 77.3272 68.4214 78.2839L67.9122 80.4011L66.8134 82.9873C66.8134 82.9873 63.852 83.3491 63.3964 83.5367C62.9408 83.7243 55.7316 83.1615 55.7316 83.1615L51.39 82.0627L50.3716 81.5133Z" fill="#EFD378"/>
<path d="M50.9191 67.7647C51.905 67.1482 52.8334 66.4441 53.6929 65.6609C53.9743 65.2053 55.6359 62.1501 55.6359 62.1501L60.2991 61.4801C61.6206 61.3673 62.9059 60.989 64.0779 60.3679C65.0963 59.6309 67.8701 56.9509 68.0979 56.8705C69.4256 55.4859 70.5166 53.8924 71.3273 52.1537C71.7408 50.1424 72.0184 48.1054 72.1581 46.0567C72.1581 45.5073 71.5149 42.9211 71.5149 42.5593C71.3239 41.1119 70.9826 39.6882 70.4965 38.3115C69.7431 36.5483 68.4959 35.0406 66.9053 33.9699C64.6719 32.7234 62.2776 31.79 59.7899 31.1961L55.7699 31.2899C55.7699 31.2899 53.7867 28.7037 53.5991 28.4223C53.4115 28.1409 52.2591 26.6669 51.5757 26.5865C50.4154 26.2794 49.2744 25.9035 48.1587 25.4609L43.6295 33.6751C43.6295 33.6751 41.6061 42.5593 41.8741 42.8809C42.0483 44.7832 42.0797 46.6958 41.9679 48.6027C42.1633 50.6875 42.5036 52.7561 42.9863 54.7935C43.4553 56.3613 45.5725 59.8721 45.7601 60.7967C46.8333 62.9367 48.0371 65.0087 49.3647 67.0009L50.9191 67.7647Z" fill="#9E88B5"/>
<path d="M21.0117 60.297L24.4287 60.0156C24.4287 60.0156 27.9395 62.6018 28.1271 62.8698C28.3147 63.1378 30.1505 64.9066 31.0751 64.719C32.1475 64.6036 33.2273 64.5722 34.3045 64.6252L40.4015 74.0052C42.0059 74.9588 43.5498 76.0104 45.0245 77.1542C46.192 78.5027 47.4549 79.7655 48.8033 80.933C49.1785 81.1206 49.8217 80.6516 50.1433 81.1206C50.4649 81.5896 51.6173 86.561 51.3359 86.9362C51.0545 87.3114 50.6927 88.8792 49.2187 89.5224C47.7447 90.1656 42.8805 92.7786 42.1569 93.1404C41.6945 93.5062 41.1558 93.7635 40.5806 93.8934C40.0055 94.0233 39.4085 94.0224 38.8337 93.8908C36.8907 93.5156 34.0365 92.6848 33.8489 91.854C33.6613 91.0232 31.3565 85.757 31.1689 85.02C30.9813 84.283 29.8289 78.5612 28.8641 75.975C27.8993 73.3888 24.4287 66.0054 24.2411 65.724L21.2931 60.9268L21.0117 60.297Z" fill="#9E88B5"/>
<path d="M91.5898 15.1597L91.831 9.93367C92.2044 8.95523 92.7438 8.04858 93.4256 7.25367C94.1668 6.16158 94.9722 5.11453 95.8376 4.11807C96.7289 3.77473 97.6543 3.52766 98.598 3.38107C98.974 3.17636 99.4111 3.1138 99.8294 3.20483C100.248 3.29587 100.619 3.53443 100.876 3.87687C101.68 4.98907 102.792 5.65907 102.672 6.95887C102.551 8.25867 103.275 7.25367 102.109 9.10287C101.136 10.9278 99.6924 12.4593 97.928 13.5383C96.0118 14.5835 96.5077 15.1999 94.3503 15.5751C92.1929 15.9503 91.8981 16.1915 91.7641 15.9369C91.6739 15.6861 91.6153 15.425 91.5898 15.1597Z" fill="#EFD378"/>
<path d="M104.814 21.5615C104.814 21.3739 107.896 17.8095 107.896 17.8095C107.896 17.8095 110.79 15.2233 111.836 15.1295C112.881 15.0357 113.564 13.7895 115.4 13.7895C117.236 13.7895 118.08 12.2485 119.715 14.0977C120.742 15.2399 121.687 16.4534 122.542 17.7291C122.85 18.1579 123.721 16.7375 123.105 19.1495C122.608 20.8869 121.948 22.5737 121.135 24.1879C120.095 24.4892 119.116 24.9699 118.241 25.6083C116.016 26.9483 110.67 27.3905 109.799 27.5781C109.215 27.8142 108.584 27.9151 107.956 27.8733C107.327 27.8316 106.715 27.6482 106.167 27.3369C103.769 26.4123 103.581 27.0823 103.487 26.1041C103.394 25.1259 102.683 23.4241 103.3 23.0891C103.824 22.7269 104.278 22.2729 104.64 21.7491L104.814 21.5615Z" fill="#EFD378"/>
<path d="M102.724 41.7275C104.192 40.6139 105.962 39.9694 107.803 39.8783C110.577 39.8783 110.483 39.1413 111.501 39.8783C112.52 40.6153 114.356 41.2183 114.543 42.0893C114.731 42.9603 116.111 43.7509 115.012 45.3187C113.913 46.8865 113.9 47.0741 112.882 47.6369C111.863 48.1997 112.506 49.3789 110.577 48.7357C108.647 48.0925 106.329 47.3957 105.404 47.0741C104.352 46.6496 103.335 46.1433 102.363 45.5599C101.987 45.2785 100.513 44.4477 100.513 44.0859C100.513 43.7241 100.326 42.9737 100.875 42.7459C101.521 42.4626 102.14 42.1218 102.724 41.7275Z" fill="#EFD378"/>
<path d="M88.627 131.186L92.647 130.69C92.647 130.69 95.327 131.44 96.5866 131.681C97.8462 131.923 99.1594 131.186 99.4676 131.32C99.7758 131.454 101.679 131.695 101.679 131.695L104.359 129.015C104.737 128.129 105.443 127.423 106.328 127.045C107.665 126.335 109.156 125.962 110.67 125.96C112.64 125.96 114.476 124.244 114.971 123.99C115.891 123.843 116.771 123.51 117.558 123.012C118.67 122.141 119.903 120.921 120.238 120.667C121.306 118.295 122.254 115.871 123.078 113.404C124.606 111.86 126.051 110.236 127.407 108.54C127.782 107.803 128.639 108.54 128.398 105.953C127.993 103.654 127.333 101.406 126.428 99.2534C126.053 98.1412 128.144 94.818 128.264 93.7058C128.122 92.0145 127.799 90.3433 127.299 88.721L123.279 84.4196L121.551 80.9758C120.968 79.2972 120.555 77.5644 120.318 75.8034C119.072 74.8436 117.755 73.9791 116.378 73.2172C115.029 73.2528 113.68 73.1314 112.358 72.8554C111.863 72.4802 107.802 68.9158 107.802 68.9158L104.975 66.6914L99.95 66.9996C99.95 66.9996 101.29 67.3346 98.61 68.2324C96.9542 68.7535 95.1664 68.6631 93.5716 67.9778C93.0336 67.5465 92.3991 67.2523 91.7224 67.1202H86.9118L84.808 68.0984L80.252 71.0196C80.252 71.0196 78.778 72.4936 78.5368 72.8688C77.1461 73.6833 75.7049 74.4083 74.222 75.0396L70.537 76.1518C70.537 76.1518 68.0714 77.2506 67.857 78.1216C67.2769 80.0133 66.8291 81.9431 66.517 83.897C66.517 84.8886 67.991 86.1214 65.4048 86.8584C62.8186 87.5954 61.0498 91.1196 61.0498 91.1196C61.0498 91.1196 61.1704 94.081 61.0498 95.1396C60.9292 96.1982 62.162 96.9754 62.2826 98.2082C61.9637 100.917 61.4713 103.602 60.8086 106.248L62.2826 111.22C63.4148 112.22 64.4843 113.29 65.4852 114.422C66.4395 116.605 67.2628 118.842 67.9508 121.122C67.9508 121.122 70.8988 124.7 72.1316 125.062C73.3644 125.424 74.1014 124.084 75.5754 125.303C77.0494 126.522 79.5954 127.983 80.0108 129.001C80.4262 130.02 79.649 130.341 81.86 131.346C83.2769 131.867 84.7997 132.032 86.2954 131.829C87.0996 131.728 87.8849 131.512 88.627 131.186Z" fill="#87CDE2"/>
<path d="M86.417 98.3139C86.417 98.3139 100.822 87.5939 100.943 87.5939C101.063 87.5939 100.567 85.2489 103.623 86.7363C106.678 88.2237 107.643 87.0981 108.058 88.9473C108.473 90.7965 109.036 92.0293 108.674 92.8869C108.313 93.7445 103.502 97.9387 102.765 98.5551C102.028 99.1715 81.2446 114.943 80.8694 114.943C79.7569 115.347 78.5381 115.347 77.4256 114.943C76.161 114.454 74.9945 113.741 73.9818 112.839C73.5466 111.922 73.3749 110.901 73.486 109.891C73.486 108.042 73.888 108.123 74.5982 107.305C75.3084 106.488 86.417 98.3139 86.417 98.3139Z" fill="white"/>
<path d="M81.1234 91.2936C83.7728 91.2936 85.9206 89.1458 85.9206 86.4964C85.9206 83.847 83.7728 81.6992 81.1234 81.6992C78.474 81.6992 76.3262 83.847 76.3262 86.4964C76.3262 89.1458 78.474 91.2936 81.1234 91.2936Z" fill="white"/>
<path d="M100.326 120.102C102.976 120.102 105.124 117.954 105.124 115.305C105.124 112.656 102.976 110.508 100.326 110.508C97.6771 110.508 95.5293 112.656 95.5293 115.305C95.5293 117.954 97.6771 120.102 100.326 120.102Z" fill="white"/>
<path d="M67.0011 82.9844C65.2376 83.3504 63.442 83.5389 61.6411 83.5472C44.4221 83.5472 30.4727 66.757 30.4727 46.0272C30.4727 25.2974 44.3819 8.57422 61.6411 8.57422C78.9003 8.57422 92.7961 25.351 92.7961 46.0942C92.8443 53.3429 91.0507 60.485 87.5835 66.8508" stroke="#1D1D1B" stroke-width="1.3266" strokeLinecap="round" strokeLinejoin="round"/>
<path d="M81.9823 45.5622C81.9823 60.731 73.0847 73.0188 62.0968 73.0188C57.7868 72.9271 53.6878 71.1353 50.6934 68.034C45.5612 62.9822 42.2246 54.8082 42.2246 45.5622C42.0943 38.5909 44.1618 31.7555 48.1339 26.025C51.7251 21.134 56.6564 18.1056 62.0968 18.1056C73.0847 18.052 81.9823 30.3398 81.9823 45.5622Z" stroke="#1D1D1B" stroke-width="1.2998" strokeLinecap="round" strokeLinejoin="round"/>
<path d="M72.1334 46.4338C72.1334 54.8356 66.1838 61.6428 58.8406 61.6428C57.9373 61.6351 57.0379 61.5227 56.1606 61.3078C54.8206 64.6712 52.891 67.0698 50.8006 68.0078C45.5612 62.9828 42.2246 54.8088 42.2246 45.5628C42.0943 38.5915 44.1618 31.7561 48.1339 26.0256C48.3347 26.0123 48.5362 26.0123 48.7369 26.0256C51.4169 26.0256 53.7351 28.2366 55.5039 31.8278C56.5859 31.5003 57.7101 31.3333 58.8406 31.332C66.1838 31.2382 72.1334 38.032 72.1334 46.4338Z" stroke="#1D1D1B" stroke-width="1.34" strokeLinecap="round" strokeLinejoin="round"/>
<path d="M34.0362 64.6098C27.3362 64.6098 21.5742 57.816 21.5742 46.7074C21.5742 35.5988 26.8002 28.2422 33.5002 28.2422" stroke="#1D1D1B" stroke-width="1.2462" strokeLinecap="round" strokeLinejoin="round"/>
<path d="M25.8759 31.8086L21.3199 31.8756C16.0805 31.8756 12.0605 37.517 12.0605 46.2002C12.0605 54.8834 16.5093 60.096 21.7219 60.096H25.1791" stroke="#1D1D1B" stroke-width="1.2462" strokeLinecap="round" strokeLinejoin="round"/>
<path d="M12.4214 52.4483C10.5507 52.2626 8.82572 51.3561 7.61168 49.9207C6.39764 48.4854 5.78984 46.634 5.91697 44.7584C6.0441 42.8828 6.89618 41.1303 8.2928 39.8719C9.68942 38.6136 11.5209 37.9481 13.3996 38.0165" stroke="#1D1D1B" stroke-width="1.2462" strokeLinecap="round" strokeLinejoin="round"/>
<path d="M21.0117 60.3008C22.8757 62.7652 24.3992 65.4695 25.5409 68.3408C27.7519 73.607 31.8121 85.5464 33.0181 89.3252C33.5012 90.5729 34.3517 91.6445 35.4572 92.3983C36.5627 93.152 37.871 93.5523 39.2089 93.5462C44.0999 93.7338 49.3929 89.9416 50.4113 88.6552C51.0947 87.7708 51.6709 85.6938 50.1031 81.446" stroke="#1D1D1B" stroke-width="1.2462" strokeLinecap="round" strokeLinejoin="round"/>
<path d="M33.1641 69.8281C33.1641 69.8281 37.4119 79.9719 39.1405 85.7607" stroke="#1D1D1B" stroke-width="1.2462" strokeLinecap="round" strokeLinejoin="round"/>
<path d="M62.2568 54.3121C64.9951 54.3121 67.2148 50.7305 67.2148 46.3123C67.2148 41.8941 64.9951 38.3125 62.2568 38.3125C59.5186 38.3125 57.2988 41.8941 57.2988 46.3123C57.2988 50.7305 59.5186 54.3121 62.2568 54.3121Z" stroke="#1D1D1B" stroke-width="1.2462" strokeLinecap="round" strokeLinejoin="round"/>
<path d="M119.609 25.463C116.58 26.803 105.19 29.483 103.663 26.0526C101.867 22.1398 111.395 15.614 114.49 14.207C115.983 13.5282 117.684 13.4701 119.219 14.0456C120.755 14.6211 121.999 15.7829 122.677 17.2756C123.356 18.7682 123.414 20.4694 122.839 22.0048C122.263 23.5402 121.101 24.7842 119.609 25.463Z" stroke="#1D1D1B" stroke-width="1.2462" strokeLinecap="round" strokeLinejoin="round"/>
<path d="M101.84 10.2374C100.232 12.0598 93.8003 17.1518 91.8037 15.4634C89.4855 13.507 93.5859 6.47197 95.1403 4.63617C95.8831 3.7477 96.9484 3.19067 98.1018 3.08764C99.2553 2.98461 100.402 3.34401 101.291 4.08677C102.179 4.82954 102.736 5.89483 102.839 7.04829C102.942 8.20175 102.583 9.3489 101.84 10.2374Z" stroke="#1D1D1B" stroke-width="1.2462" strokeLinecap="round" strokeLinejoin="round"/>
<path d="M110.484 48.4275C108.099 48.2533 100.206 46.0423 100.394 43.4427C100.608 40.4009 108.715 39.5969 111.114 39.7577C111.683 39.7991 112.239 39.9521 112.749 40.2082C113.259 40.4642 113.714 40.8183 114.087 41.25C114.46 41.6818 114.745 42.1829 114.924 42.7246C115.104 43.2664 115.175 43.8382 115.134 44.4075C115.093 44.9768 114.939 45.5323 114.683 46.0424C114.427 46.5525 114.073 47.0072 113.642 47.3805C113.21 47.7538 112.709 48.0384 112.167 48.218C111.625 48.3977 111.053 48.4689 110.484 48.4275Z" stroke="#1D1D1B" stroke-width="1.2462" strokeLinecap="round" strokeLinejoin="round"/>
<path d="M95.8634 69.1745C97.4609 68.3563 99.3054 68.161 101.039 68.6266C102.772 69.0921 104.271 70.1852 105.243 71.6937C105.861 72.6644 106.701 73.4743 107.694 74.0568C108.686 74.6392 109.803 74.9775 110.952 75.0437C112.742 75.1343 114.435 75.8863 115.702 77.1538C116.97 78.4213 117.722 80.1142 117.813 81.9045C117.871 83.0509 118.2 84.1671 118.773 85.1617C119.346 86.1563 120.146 87.0009 121.109 87.6263C122.617 88.5989 123.711 90.0974 124.176 91.8308C124.642 93.5642 124.446 95.4088 123.628 97.0063C123.106 98.029 122.834 99.161 122.834 100.309C122.834 101.458 123.106 102.59 123.628 103.612C124.443 105.211 124.637 107.054 124.172 108.787C123.706 110.519 122.615 112.018 121.109 112.992C120.147 113.615 119.346 114.457 118.773 115.45C118.2 116.442 117.871 117.556 117.813 118.701C117.722 120.493 116.971 122.187 115.703 123.457C114.436 124.726 112.743 125.481 110.952 125.575C109.805 125.63 108.687 125.958 107.692 126.531C106.697 127.104 105.853 127.907 105.23 128.871C104.257 130.38 102.759 131.473 101.025 131.939C99.292 132.404 97.4475 132.209 95.85 131.391C94.8292 130.862 93.6964 130.586 92.5469 130.586C91.3973 130.586 90.2645 130.862 89.2438 131.391C87.6457 132.206 85.8021 132.399 84.0695 131.934C82.3369 131.469 80.8384 130.378 79.8638 128.871C79.2437 127.907 78.4022 127.105 77.4092 126.531C76.4163 125.958 75.3007 125.63 74.1554 125.575C72.3615 125.484 70.6653 124.731 69.3952 123.461C68.1252 122.191 67.3718 120.495 67.2812 118.701C67.2263 117.556 66.8984 116.44 66.3251 115.447C65.7517 114.454 64.9493 113.613 63.9848 112.992C62.4786 112.018 61.3882 110.518 60.9252 108.785C60.4622 107.052 60.6595 105.208 61.479 103.612C62.0012 102.59 62.2735 101.458 62.2735 100.309C62.2735 99.161 62.0012 98.029 61.479 97.0063C60.6534 95.4116 60.4527 93.5661 60.9161 91.8312C61.3796 90.0963 62.4739 88.5968 63.9848 87.6263C64.9495 87.0033 65.7519 86.1593 66.3252 85.1642C66.8984 84.1691 67.2262 83.0516 67.2812 81.9045C67.3753 80.1108 68.132 78.416 69.4045 77.1485C70.677 75.8809 72.3748 75.1309 74.1688 75.0437C75.3133 74.9855 76.4277 74.6564 77.4201 74.0833C78.4126 73.5102 79.2547 72.7095 79.8772 71.7473C80.8518 70.2412 82.3503 69.15 84.0829 68.6847C85.8155 68.2193 87.6591 68.413 89.2572 69.2281C90.2841 69.7421 91.4183 70.0052 92.5667 69.9959C93.7151 69.9866 94.8449 69.7051 95.8634 69.1745Z" stroke="#1D1D1B" stroke-width="1.3266" strokeLinecap="round" strokeLinejoin="round"/>
<path d="M85.3574 68.1541C86.4456 67.3189 87.748 66.809 89.114 66.6833C90.4799 66.5576 91.8535 66.8213 93.0758 67.4439C94.0942 67.9725 95.2248 68.2484 96.3722 68.2484C97.5196 68.2484 98.6502 67.9725 99.6686 67.4439C101.267 66.6288 103.11 66.4351 104.843 66.9005C106.575 67.3658 108.074 68.457 109.049 69.9631C109.67 70.9294 110.514 71.7329 111.509 72.3064C112.505 72.8799 113.623 73.2067 114.77 73.2595C116.562 73.3534 118.255 74.1081 119.522 75.3779C120.789 76.6476 121.541 78.3421 121.631 80.1337C121.689 81.2782 122.019 82.3926 122.592 83.385C123.165 84.3775 123.965 85.2196 124.928 85.8421C126.434 86.8168 127.525 88.3153 127.99 90.0478C128.456 91.7804 128.262 93.624 127.447 95.2221C126.925 96.2424 126.652 97.3723 126.652 98.5185C126.652 99.6647 126.925 100.795 127.447 101.815C128.262 103.413 128.456 105.257 127.99 106.989C127.525 108.722 126.434 110.22 124.928 111.195C123.964 111.819 123.162 112.663 122.589 113.658C122.015 114.653 121.687 115.77 121.631 116.917C121.549 118.504 120.947 120.02 119.918 121.231C118.889 122.442 117.49 123.28 115.936 123.617" stroke="#1D1D1B" stroke-width="1.3266" strokeLinecap="round" strokeLinejoin="round"/>
<path d="M106.638 95.2963C108.747 93.7548 109.207 90.7954 107.666 88.6862C106.125 86.577 103.165 86.1168 101.056 87.6582L75.2964 106.484C73.1872 108.025 72.727 110.985 74.2684 113.094C75.8098 115.203 78.7693 115.663 80.8785 114.122L106.638 95.2963Z" stroke="#1D1D1B" stroke-width="1.2596" strokeLinecap="round" strokeLinejoin="round"/>
<path d="M81.1236 91.0792C83.7138 91.0792 85.8136 88.9794 85.8136 86.3892C85.8136 83.799 83.7138 81.6992 81.1236 81.6992C78.5334 81.6992 76.4336 83.799 76.4336 86.3892C76.4336 88.9794 78.5334 91.0792 81.1236 91.0792Z" stroke="#1D1D1B" stroke-width="1.2596" strokeLinecap="round" strokeLinejoin="round"/>
<path d="M100.553 119.954C103.143 119.954 105.243 117.854 105.243 115.264C105.243 112.674 103.143 110.574 100.553 110.574C97.9631 110.574 95.8633 112.674 95.8633 115.264C95.8633 117.854 97.9631 119.954 100.553 119.954Z" stroke="#1D1D1B" stroke-width="1.2596" strokeLinecap="round" strokeLinejoin="round"/>
</svg>
