<svg width="24" height="25" viewBox="0 0 24 25" fill="none" xmlns="http://www.w3.org/2000/svg">
<circle cx="12" cy="12.5" r="12" fill="#E688A3"/>
<path d="M10.7384 16.9421C10.629 16.9424 10.5206 16.921 10.4195 16.8792C10.3184 16.8375 10.2265 16.7762 10.1492 16.6988L6.6142 13.163C6.53455 13.0862 6.471 12.9943 6.42726 12.8926C6.38352 12.791 6.36045 12.6816 6.35941 12.571C6.35837 12.4604 6.37938 12.3506 6.42121 12.2482C6.46304 12.1457 6.52485 12.0526 6.60304 11.9743C6.68122 11.896 6.77422 11.8341 6.87661 11.7921C6.97899 11.7501 7.08871 11.729 7.19935 11.7299C7.31 11.7307 7.41937 11.7537 7.52107 11.7973C7.62277 11.8409 7.71477 11.9043 7.7917 11.9838L10.7375 14.9296L16.0417 9.62715C16.198 9.47078 16.4099 9.38289 16.631 9.38281C16.852 9.38273 17.0641 9.47047 17.2204 9.62673C17.3768 9.78299 17.4647 9.99496 17.4648 10.216C17.4649 10.4371 17.3771 10.6491 17.2209 10.8055L11.3275 16.6988C11.2502 16.7762 11.1583 16.8375 11.0572 16.8792C10.9561 16.921 10.8478 16.9424 10.7384 16.9421Z" fill="white"/>
</svg>
