<svg width="124" height="124" viewBox="0 0 124 124" fill="none" xmlns="http://www.w3.org/2000/svg">
<g clip-path="url(#clip0_5090_106119)">
<path d="M90.1977 86.5393C84.1837 109.43 60.0905 125.76 36.3941 119.362C12.6977 112.964 -1.15307 89.0441 4.96013 66.1785C11.8545 40.2749 35.9601 23.6961 59.6565 30.1069C83.3529 36.5177 96.9185 60.9085 90.1977 86.5393Z" fill="#EFD378"/>
<path d="M86.1054 84.7151C80.4386 105.659 60.425 120.675 40.7586 115.343C21.0922 110.011 10.825 88.4723 16.4918 67.5411C22.1586 46.6099 42.3334 32.3251 61.9998 37.6447C81.6662 42.9643 91.7598 63.7839 86.1054 84.7151Z" fill="#87CDE2"/>
<path d="M11.5819 50.9766L15.9467 53.7666L18.7243 52.5266L20.6711 49.6002L21.9111 46.8226L21.5515 45.7314L17.9183 42.4578L19.0095 39.5438L17.9183 37.0018L13.6403 34.125L9.39952 34.9806L3.58392 41.7634L1.40152 46.8598C1.40152 46.8598 1.27752 49.0422 1.63712 49.4018C1.99672 49.7614 6.12592 53.5186 6.12592 53.5186L8.79192 53.8782L10.8503 51.5842L11.5819 50.9766Z" fill="#87CDE2"/>
<path d="M36.2956 32.0038C36.2088 31.6442 36.5684 26.5602 36.5684 26.5602C36.5684 26.5602 32.8484 25.3202 31.844 24.9234C30.8396 24.5266 27.4792 22.0094 27.4792 22.0094L26.4004 17.6446C26.4004 17.6446 27.2064 12.3994 27.2808 11.5562C27.3552 10.713 27.2808 8.46858 27.2808 8.46858L32.4888 5.29418C32.4888 5.29418 43.748 3.38458 44.2068 3.38458C44.6656 3.38458 54.1268 2.92578 54.1268 2.92578L64.4808 6.01338C65.8991 6.88628 67.21 7.92256 68.3868 9.10098C69.0192 10.1054 69.292 13.8378 69.2052 15.5614C69.1184 17.285 69.2052 20.0998 68.2008 21.7614C67.4171 22.8278 66.425 23.7238 65.2847 24.3953C64.1443 25.0667 62.8794 25.4995 61.5668 25.6674C58.752 25.9402 58.752 26.585 58.752 26.585L58.4792 31.545C58.4792 31.545 57.7476 33.6282 57.2392 33.8142C56.7308 34.0002 52.1552 35.3642 51.0392 35.5378C49.9232 35.7114 40.958 34.4466 40.958 34.4466L36.2956 32.0038Z" fill="#87CDE2"/>
<path d="M75.7402 37.7358L78.0218 35.5534C77.3582 34.9277 76.9219 34.0987 76.7818 33.1974C76.7818 31.9574 76.3354 30.7174 76.9678 30.0106C77.8802 28.842 78.8836 27.7474 79.9686 26.737C80.5751 26.4628 81.2184 26.2789 81.8782 26.1914C84.2655 26.8705 86.5328 27.9163 88.599 29.2914C90.1902 30.4668 91.6275 31.8374 92.877 33.371C93.6954 34.611 95.357 36.471 95.5926 37.0166C95.7188 37.5242 95.7366 38.0527 95.6447 38.5677C95.5529 39.0826 95.3534 39.5724 95.0594 40.005C94.4146 40.7366 92.3314 43.9234 91.6866 44.0102C91.0418 44.097 91.2402 44.5558 89.4174 44.283C88.0565 43.9787 86.754 43.4552 85.561 42.733C85.0845 43.1957 84.6679 43.7165 84.321 44.283C83.8622 45.1014 82.8578 46.0066 82.771 45.7338C82.6842 45.461 80.5018 42.2866 80.291 41.9146C80.0802 41.5426 76.013 38.7402 76.013 38.7402L75.7402 37.7358Z" fill="#87CDE2"/>
<path d="M47.3301 76.8782C47.5305 75.7372 47.9517 74.6463 48.5701 73.6666C49.1157 73.307 51.4841 72.0918 51.4841 72.0918C51.4841 72.0918 52.4513 70.2194 52.8109 69.6118C53.1705 69.0042 60.6973 55.9718 60.6973 55.9718L63.1153 51.9046C63.3013 51.607 63.7601 50.3918 65.0497 50.6646C65.9632 50.8747 66.8135 51.2998 67.5297 51.9046C67.6537 52.0906 68.7697 51.731 67.7033 53.3058C66.6369 54.8806 64.0701 60.3242 64.0701 60.3242C64.0701 60.3242 57.3493 72.0794 56.6301 73.1706C55.9109 74.2618 54.8445 75.3282 54.9561 75.6382C55.0677 75.9482 55.8737 76.2954 54.9561 77.6346C54.0385 78.9738 54.0509 80.4246 52.4761 80.6602C50.9013 80.8958 50.3557 79.755 49.0785 79.4202C47.8013 79.0854 47.3301 76.8782 47.3301 76.8782Z" fill="white"/>
<path d="M59.5203 71.8244C59.7931 71.5516 62.0747 69.2824 63.0667 68.5508C64.0587 67.8192 61.1571 67.1 65.4351 67.1868C67.9135 67.1946 70.3821 67.4985 72.7883 68.092C73.9596 68.2419 75.0987 68.5811 76.1611 69.0964C76.5207 69.456 77.2523 69.456 77.2523 70.7332C77.389 72.9714 77.389 75.2158 77.2523 77.454C76.9795 79.0908 76.4339 84.1872 76.4339 84.1872C75.8782 84.3619 75.3751 84.6731 74.9707 85.0924C74.538 86.5343 74.4155 88.0514 74.6111 89.544C74.8839 90.0896 76.2479 96.0912 76.6075 96.6368C77.1617 97.8036 77.9365 98.8521 78.8891 99.7244C80.5469 101.018 82.3097 102.171 84.1591 103.172C86.7519 104.09 89.4454 104.693 92.1819 104.97C92.6496 104.851 93.0745 104.604 93.4079 104.255C93.7413 103.906 93.9696 103.471 94.0667 102.998C94.0667 102.539 96.1499 101.634 97.8735 102.18C99.5971 102.725 100.701 103.172 102.834 103.99C104.966 104.808 105.921 104.635 106.293 105.354C106.893 106.222 107.592 107.017 108.376 107.722C108.748 108.082 107.769 113.253 107.769 114.245C107.659 115.889 107.347 117.513 106.839 119.081C106.364 120.218 105.614 121.219 104.656 121.995C104.198 122.168 103.64 122.974 100.639 122.516C97.638 122.057 96.6583 122.441 94.9347 122.168C93.2111 121.896 84.8411 120.172 83.9359 119.354C83.0307 118.535 73.4827 113.451 72.3047 112.72C70.0997 111.064 68.0268 109.24 66.1047 107.264C65.5591 106.544 60.9215 96.8104 60.9215 96.8104L58.6523 87.7212V78.2724L59.5203 71.8244Z" fill="#9E88B5"/>
<path d="M122.462 79.3612C122.591 82.0114 122.177 84.6598 121.246 87.1445C120.316 89.6292 118.888 91.898 117.051 93.812C115.214 95.726 113.005 97.245 110.56 98.2762C108.116 99.3073 105.486 99.8288 102.833 99.8088C92.2312 99.8088 83.6504 90.5089 83.6504 79.0389C83.6504 67.5689 92.2312 58.2812 102.833 58.2812C113.435 58.2812 122.066 66.4653 122.462 79.3612Z" fill="#9E88B5"/>
<path d="M98.4681 77.263L98.8277 72.9106L100.762 70.6786L103.8 70.8646C103.963 70.7073 104.173 70.6095 104.399 70.587C104.624 70.5645 104.85 70.6186 105.04 70.7406C105.648 71.1622 106.863 71.3482 107.111 72.4394C107.385 73.8622 107.583 75.2985 107.706 76.7422C107.706 77.5854 107.111 77.821 109.715 78.193C112.319 78.565 114.377 79.433 114.501 79.8298C114.625 80.2266 114.923 83.649 114.923 83.8846C114.923 84.1202 115.22 86.3646 113.683 86.6746C112.145 86.9846 108.661 87.8278 108.661 87.8278C108.661 87.8278 107.694 87.5178 107.805 88.3734C107.681 89.8454 107.42 91.3026 107.024 92.7258C106.977 93.0415 106.867 93.3445 106.701 93.6171C106.535 93.8897 106.316 94.1263 106.057 94.313C105.077 95.1562 104.817 95.7018 103.205 95.4538C101.593 95.2058 100.179 95.8878 99.4849 94.6106C98.8803 93.7323 98.4586 92.7412 98.2449 91.6966C98.1209 90.6054 98.1209 88.795 98.1209 88.485C98.1209 88.175 97.8233 87.7658 96.1245 87.7038C94.4257 87.6418 94.2521 88.1874 93.0369 87.2202C92.1405 86.3156 91.3653 85.2986 90.7305 84.1946C90.4701 83.7759 90.332 83.2927 90.332 82.7996C90.332 82.3065 90.4701 81.8233 90.7305 81.4046C91.4621 80.3134 91.7101 78.8006 93.0989 78.5526C94.4877 78.3046 96.8189 77.883 97.0421 77.883H98.4929L98.4681 77.263Z" fill="#EFD378"/>
<path d="M68.7206 109.43C59.247 116.002 47.5662 118.11 36.8402 114.105C18.3146 107.173 9.6594 84.5185 17.5334 63.5129C25.4074 42.5073 46.7974 31.1241 65.3354 38.0681C77.103 42.4825 84.8902 53.2333 86.9734 65.8813" stroke="#1D1D1B" stroke-width="1.302" strokeLinecap="round" strokeLinejoin="round"/>
<path d="M84.8903 87.9688L84.6423 88.6631C83.2156 92.4849 81.2803 96.0969 78.8887 99.4016" stroke="#1D1D1B" stroke-width="1.302" strokeLinecap="round" strokeLinejoin="round"/>
<path d="M18.0664 42.0116C23.1585 36.9315 29.3661 33.1101 36.1952 30.8516" stroke="#1D1D1B" stroke-width="1.302" strokeLinecap="round" strokeLinejoin="round"/>
<path d="M71.9818 112.331C66.2577 116.512 59.5912 119.216 52.5725 120.204C45.5538 121.193 38.3997 120.435 31.7438 117.998C9.08899 109.517 -2.00901 83.2782 6.94379 59.3214C8.06718 56.3627 9.47933 53.5217 11.1598 50.8398" stroke="#1D1D1B" stroke-width="1.302" strokeLinecap="round" strokeLinejoin="round"/>
<path d="M87.7809 93C86.3713 96.1341 84.6339 99.1102 82.5977 101.878" stroke="#1D1D1B" stroke-width="1.302" strokeLinecap="round" strokeLinejoin="round"/>
<path d="M59.3965 29.8867C67.1332 31.7646 74.1837 35.7855 79.7393 41.488C85.2949 47.1905 89.1303 54.3437 90.8057 62.1267" stroke="#1D1D1B" stroke-width="1.302" strokeLinecap="round" strokeLinejoin="round"/>
<path d="M47.6666 16.7806C59.1581 16.7806 68.4738 13.7272 68.4738 9.96063C68.4738 6.19404 59.1581 3.14062 47.6666 3.14062C36.1751 3.14062 26.8594 6.19404 26.8594 9.96063C26.8594 13.7272 36.1751 16.7806 47.6666 16.7806Z" stroke="#1D1D1B" stroke-width="1.302" strokeLinecap="round" strokeLinejoin="round"/>
<path d="M68.4725 20.4102C68.4725 24.1302 59.1601 27.2178 47.6653 27.2178C36.1705 27.2178 26.8457 24.1674 26.8457 20.4102" stroke="#1D1D1B" stroke-width="1.302" strokeLinecap="round" strokeLinejoin="round"/>
<path d="M26.8461 9.92188C26.8461 9.92188 25.8169 16.0351 26.8461 20.3751" stroke="#1D1D1B" stroke-width="1.302" strokeLinecap="round" strokeLinejoin="round"/>
<path d="M68.498 9.92188C68.498 9.92188 69.5272 16.0351 68.498 20.3751" stroke="#1D1D1B" stroke-width="1.302" strokeLinecap="round" strokeLinejoin="round"/>
<path d="M58.9375 31.793C58.9375 33.8266 53.9156 35.513 47.7032 35.513C41.4908 35.513 36.4688 33.8638 36.4688 31.793" stroke="#1D1D1B" stroke-width="1.302" strokeLinecap="round" strokeLinejoin="round"/>
<path d="M36.4187 26.3984C36.126 28.1845 36.126 30.0063 36.4187 31.7924" stroke="#1D1D1B" stroke-width="1.302" strokeLinecap="round" strokeLinejoin="round"/>
<path d="M58.9492 26.1523C59.2569 28.0204 59.2569 29.9263 58.9492 31.7943" stroke="#1D1D1B" stroke-width="1.302" strokeLinecap="round" strokeLinejoin="round"/>
<path d="M48.0249 13.4672C55.7361 13.4672 61.9873 11.6907 61.9873 9.49925C61.9873 7.30778 55.7361 5.53125 48.0249 5.53125C40.3137 5.53125 34.0625 7.30778 34.0625 9.49925C34.0625 11.6907 40.3137 13.4672 48.0249 13.4672Z" stroke="#1D1D1B" stroke-width="1.302" strokeLinecap="round" strokeLinejoin="round"/>
<path d="M51.4361 80.5505C53.6207 80.5505 55.3917 78.6574 55.3917 76.3221C55.3917 73.9869 53.6207 72.0938 51.4361 72.0938C49.2514 72.0938 47.4805 73.9869 47.4805 76.3221C47.4805 78.6574 49.2514 80.5505 51.4361 80.5505Z" stroke="#1D1D1B" stroke-width="1.302" strokeLinecap="round" strokeLinejoin="round"/>
<path d="M103.193 99.8077C113.733 99.8077 122.277 91.9965 122.277 82.3609C122.277 72.7253 113.733 64.9141 103.193 64.9141C92.6534 64.9141 84.1094 72.7253 84.1094 82.3609C84.1094 91.9965 92.6534 99.8077 103.193 99.8077Z" stroke="#1D1D1B" stroke-width="1.2648" strokeLinecap="round" strokeLinejoin="round"/>
<path d="M84.1327 81.8428C83.9839 80.9376 83.9219 76.5356 83.9219 75.6428C83.9219 65.9956 92.4655 58.1836 103.005 58.1836C113.545 58.1836 122.089 65.9956 122.089 75.6428C122.089 76.61 122.374 80.2308 122.201 81.1608" stroke="#1D1D1B" stroke-width="1.2648" strokeLinecap="round" strokeLinejoin="round"/>
<path d="M110.706 78.1806H107.668V74.721C107.668 74.1087 107.548 73.5024 107.313 72.9368C107.079 72.3711 106.735 71.8571 106.303 71.4242C105.87 70.9912 105.356 70.6478 104.79 70.4135C104.224 70.1792 103.618 70.0586 103.006 70.0586C101.769 70.0586 100.583 70.5498 99.7089 71.4242C98.8345 72.2986 98.3433 73.4844 98.3433 74.721V78.1806H94.6233C93.3868 78.1806 92.2009 78.6718 91.3265 79.5462C90.4521 80.4205 89.9609 81.6064 89.9609 82.843C89.9609 84.0795 90.4521 85.2654 91.3265 86.1398C92.2009 87.0142 93.3868 87.5054 94.6233 87.5054H98.3433V90.841C98.3499 92.0732 98.844 93.2528 99.7177 94.1218C100.591 94.9908 101.773 95.4786 103.006 95.4786C103.618 95.4786 104.224 95.358 104.79 95.1237C105.356 94.8894 105.87 94.546 106.303 94.113C106.735 93.6801 107.079 93.1661 107.313 92.6004C107.548 92.0347 107.668 91.4285 107.668 90.8162V87.5054H110.706C111.943 87.5054 113.129 87.0142 114.003 86.1398C114.877 85.2654 115.369 84.0795 115.369 82.843C115.369 81.6064 114.877 80.4205 114.003 79.5462C113.129 78.6718 111.943 78.1806 110.706 78.1806Z" stroke="#1D1D1B" stroke-width="1.302" strokeLinecap="round" strokeLinejoin="round"/>
<path d="M9.6058 43.1187C12.8796 38.9238 14.5926 34.7889 13.4319 33.883C12.2712 32.9771 8.67624 35.6433 5.40241 39.8382C2.12858 44.033 0.415572 48.168 1.57631 49.0738C2.73704 49.9797 6.33197 47.3135 9.6058 43.1187Z" stroke="#1D1D1B" stroke-width="1.302" strokeLinecap="round" strokeLinejoin="round"/>
<path d="M18.6005 37.9062C19.7537 38.8115 18.0425 42.9407 14.7689 47.1443C11.4953 51.3479 7.89929 54.0015 6.74609 53.0963" stroke="#1D1D1B" stroke-width="1.302" strokeLinecap="round" strokeLinejoin="round"/>
<path d="M6.73262 53.0964C4.59047 52.4058 2.76267 50.9778 1.57422 49.0664" stroke="#1D1D1B" stroke-width="1.302" strokeLinecap="round" strokeLinejoin="round"/>
<path d="M18.5998 37.9089C17.4122 35.9968 15.5841 34.5686 13.4414 33.8789" stroke="#1D1D1B" stroke-width="1.302" strokeLinecap="round" strokeLinejoin="round"/>
<path d="M21.5387 45.6562C22.4067 46.3258 21.7123 48.6694 19.9887 50.8766C18.2651 53.0838 16.1199 54.3238 15.2891 53.6418" stroke="#1D1D1B" stroke-width="1.302" strokeLinecap="round" strokeLinejoin="round"/>
<path d="M15.2887 53.6382C13.7673 52.9734 12.437 51.9373 11.4199 50.625" stroke="#1D1D1B" stroke-width="1.302" strokeLinecap="round" strokeLinejoin="round"/>
<path d="M21.5387 45.6421C20.5194 44.332 19.1897 43.2964 17.6699 42.6289" stroke="#1D1D1B" stroke-width="1.302" strokeLinecap="round" strokeLinejoin="round"/>
<path d="M95.3426 38.8868C96.3098 37.7832 93.7802 33.3316 90.0974 30.2068C86.4146 27.082 81.839 25.0732 80.8594 26.1768" stroke="#1D1D1B" stroke-width="1.302" strokeLinecap="round" strokeLinejoin="round"/>
<path d="M90.4076 43.8201C91.3748 42.7165 88.9196 38.4633 85.1624 35.1401C81.4052 31.8169 77.4372 30.2421 76.4824 31.3457" stroke="#1D1D1B" stroke-width="1.302" strokeLinecap="round" strokeLinejoin="round"/>
<path d="M85.8945 42.375C88.3745 43.925 90.3709 44.545 91.0281 43.8134" stroke="#1D1D1B" stroke-width="1.302" strokeLinecap="round" strokeLinejoin="round"/>
<path d="M76.5455 31.0977C75.9255 31.8045 76.7067 33.5777 78.3931 35.6981" stroke="#1D1D1B" stroke-width="1.302" strokeLinecap="round" strokeLinejoin="round"/>
<path d="M91.0293 43.8077C93.0109 42.719 94.5405 40.9608 95.3445 38.8477" stroke="#1D1D1B" stroke-width="1.302" strokeLinecap="round" strokeLinejoin="round"/>
<path d="M76.5449 31.0889C77.3451 28.9735 78.8758 27.2141 80.8601 26.1289" stroke="#1D1D1B" stroke-width="1.302" strokeLinecap="round" strokeLinejoin="round"/>
<path d="M85.9558 42.2578C85.9558 43.4978 84.1578 44.9362 83.2402 45.5934" stroke="#1D1D1B" stroke-width="1.302" strokeLinecap="round" strokeLinejoin="round"/>
<path d="M78.3301 35.5625C78.3301 35.5625 84.4433 36.8025 85.9561 42.2585" stroke="#1D1D1B" stroke-width="1.302" strokeLinecap="round" strokeLinejoin="round"/>
<path d="M75.8887 37.9433C76.5643 37.006 77.4046 36.1993 78.3687 35.5625" stroke="#1D1D1B" stroke-width="1.302" strokeLinecap="round" strokeLinejoin="round"/>
<path d="M51.4219 71.9209L63.0283 51.8205C63.185 51.5458 63.3947 51.3048 63.6452 51.1116C63.8957 50.9183 64.182 50.7767 64.4876 50.6948C64.7932 50.6129 65.112 50.5925 65.4255 50.6346C65.739 50.6767 66.0411 50.7805 66.3143 50.9401C66.5891 51.0969 66.83 51.3066 67.0232 51.5571C67.2165 51.8076 67.3581 52.0939 67.44 52.3995C67.5219 52.705 67.5423 53.0238 67.5002 53.3374C67.4581 53.6509 67.3543 53.953 67.1947 54.2261L55.2287 74.9217" stroke="#1D1D1B" stroke-width="1.302" strokeLinecap="round" strokeLinejoin="round"/>
<path d="M103.342 112.296C103.342 112.296 94.5623 109.544 92.7147 108.39C91.9831 107.932 92.5907 105.476 92.5907 105.476C92.5907 105.476 92.9131 104.398 93.0743 103.951C93.33 103.208 93.8511 102.586 94.5378 102.204C95.2244 101.821 96.028 101.706 96.7943 101.88C99.7632 102.52 102.65 103.493 105.4 104.782C106.305 105.266 107.644 105.799 108.128 106.654C108.439 107.829 108.478 109.059 108.24 110.25C108.005 112.373 107.59 114.472 107 116.525C106.712 117.992 106.162 119.395 105.375 120.666C104.842 121.304 104.18 121.821 103.431 122.183C102.683 122.544 101.866 122.742 101.035 122.762C96.1743 123.233 91.3011 121.522 86.3039 119.674C80.2179 117.458 74.5562 114.216 69.5639 110.089C61.5287 103.443 59.5199 93.0021 58.8379 87.8189C58.2855 82.7975 58.3772 77.7262 59.1107 72.7281C59.5695 70.9053 63.4755 68.0037 63.4755 68.0037C63.4755 68.0037 64.2071 67.1853 66.6499 67.2721C69.0927 67.3589 75.8383 68.3633 75.8383 68.3633C75.8383 68.3633 77.2891 68.7353 77.3759 72.3685C77.4627 76.0017 77.1403 81.3461 77.1403 81.3461C77.1403 81.3461 77.3759 83.6897 73.7923 85.9837C73.7923 85.9837 71.6099 87.5213 71.7339 82.6233L71.6347 73.5341" stroke="#1D1D1B" stroke-width="1.302" strokeLinecap="round" strokeLinejoin="round"/>
<path d="M74.2887 85.6328C74.049 88.0445 74.2124 90.4792 74.7723 92.8372C75.4307 95.697 77.0502 98.2443 79.3603 100.054C83.2667 102.781 87.7941 104.487 92.5291 105.014" stroke="#1D1D1B" stroke-width="1.302" strokeLinecap="round" strokeLinejoin="round"/>
<path d="M63.5 72.8501L70.5556 73.4081C71.0546 73.3885 71.5445 73.2685 71.9961 73.0555C72.4478 72.8425 72.8519 72.5407 73.1844 72.1681L76.3216 68.8945" stroke="#1D1D1B" stroke-width="1.302" strokeLinecap="round" strokeLinejoin="round"/>
<path d="M68.0508 85.9961C68.2244 86.1201 72.5272 86.2441 72.5272 86.2441" stroke="#1D1D1B" stroke-width="1.302" strokeLinecap="round" strokeLinejoin="round"/>
<path d="M92.2435 108.031L91.1523 111.714" stroke="#1D1D1B" stroke-width="1.302" strokeLinecap="round" strokeLinejoin="round"/>
<path d="M70.5802 86.2266C70.4876 87.8545 70.6296 89.4874 71.0018 91.075" stroke="#1D1D1B" stroke-width="1.302" strokeLinecap="round" strokeLinejoin="round"/>
<path d="M73.8047 99.5742C73.8047 99.5742 75.0447 103.294 81.7407 105.873" stroke="#1D1D1B" stroke-width="1.302" strokeLinecap="round" strokeLinejoin="round"/>
</g>
<defs>
<clipPath id="clip0_5090_106119">
<rect width="124" height="124" fill="white"/>
</clipPath>
</defs>
</svg>
