<svg width="32" height="32" viewBox="0 0 32 32" fill="none" xmlns="http://www.w3.org/2000/svg">
<rect width="32" height="32" rx="16" fill="white"/>
<path d="M12.5061 22.6673H19.4928C21.3328 22.6673 22.0661 21.5407 22.1528 20.1673L22.4995 14.6607C22.5928 13.2207 21.4461 12.0007 19.9995 12.0007C19.5928 12.0007 19.2195 11.7673 19.0328 11.4073L18.5528 10.4407C18.2461 9.83398 17.4461 9.33398 16.7661 9.33398H15.2395C14.5528 9.33398 13.7528 9.83398 13.4461 10.4407L12.9661 11.4073C12.7795 11.7673 12.4061 12.0007 11.9995 12.0007C10.5528 12.0007 9.40613 13.2207 9.49946 14.6607L9.84613 20.1673C9.92613 21.5407 10.6661 22.6673 12.5061 22.6673Z" stroke="#E688A3" strokeLinecap="round" strokeLinejoin="round"/>
<path d="M15 13.334H17" stroke="#E688A3" strokeLinecap="round" strokeLinejoin="round"/>
<path d="M16.0007 19.9993C17.194 19.9993 18.1673 19.026 18.1673 17.8327C18.1673 16.6393 17.194 15.666 16.0007 15.666C14.8073 15.666 13.834 16.6393 13.834 17.8327C13.834 19.026 14.8073 19.9993 16.0007 19.9993Z" stroke="#E688A3" strokeLinecap="round" strokeLinejoin="round"/>
</svg>
