<svg width="192" height="192" viewBox="0 0 192 192" fill="none" xmlns="http://www.w3.org/2000/svg">
<path d="M89.5332 177.093C132.055 177.093 166.525 168.209 166.525 157.25C166.525 146.29 132.055 137.406 89.5332 137.406C47.0116 137.406 12.541 146.29 12.541 157.25C12.541 168.209 47.0116 177.093 89.5332 177.093Z" fill="#EFDA9C"/>
<path d="M179.058 66.2713L177.546 79.8253L175.06 86.7486L171.403 92.7943L167.453 96.6947L161.407 100.108L156.482 101.863L156.043 101.912L149.412 102.399L150.241 104.447L150.484 104.983L149.704 114.588L148.68 143.549C148.68 143.549 147.461 146.181 147.461 146.474C147.461 146.767 147.461 148.814 147.461 148.814L143.463 151.496L142.244 151.398L126.397 168.316L125.324 168.706L124.495 168.999L123.325 170.754C123.325 170.754 119.132 170.803 118.498 171.144C117.815 171.437 113.719 171.437 113.183 171.437C112.647 171.437 108.795 170.267 108.795 170.267L107.673 167.683C107.673 167.683 91.2897 166.415 76.8567 165.294C65.5931 164.416 55.5485 163.636 55.3047 163.636C55.451 163.733 55.4022 165.83 55.1584 165.781C54.9146 165.732 49.7948 166.512 49.7948 166.512C49.7948 166.512 45.1626 166.561 44.87 166.464C44.5775 166.366 41.1155 165.732 40.8717 165.586C40.6279 165.44 39.2139 162.807 39.2139 162.807V162.368L35.5569 161.783L32.5825 154.909L27.3164 121.95L29.9007 118.586L40.7254 109.907L49.1122 103.179L49.6485 102.74L50.1849 103.082C50.2824 103.13 52.2816 103.618 52.4279 103.715C52.5741 103.813 53.8419 104.739 53.8907 104.788L47.8444 106.3L43.261 108.591L41.9932 110.785L41.7982 113.857L41.7494 116.051L42.1882 117.172L43.1634 118.293L62.1799 119.22L87.1451 120.439C87.1451 120.439 91.826 117.318 91.9236 117.27C92.0211 117.221 92.6062 116.441 92.6062 116.441C92.6062 116.441 96.702 117.318 97.0434 117.416C97.3847 117.465 103.87 117.806 103.87 117.806L104.357 118.44L104.894 121.267L112.939 121.56L120.058 121.804L122.399 120.097L133.126 110.102L134.784 108.542L135.613 106.787L134.54 104.739L132.004 103.13L132.785 100.79L132.638 94.9395L134.345 93.1356L134.052 85.3347L131.224 82.3606L123.91 80.0204L116.304 79.094L106.259 79.289L97.3359 80.8004L92.3136 83.7258L91.1922 84.4083L88.7054 83.1407L82.4153 80.5567L71.9807 79.5816L71.0055 79.7278L67.4947 76.9488L63.7402 75.1936L56.475 74.6573L68.5187 28.5834L70.7129 26.4869L76.7592 26.1456L93.0938 26.2431L99.1888 26.2919L101.529 13.7617L126.397 14.5906L131.614 27.3645L163.357 28.8271L166.478 30.5336L168.428 31.6062L173.109 37.6031L175.937 43.6001L178.765 55.3989L179.058 66.2713Z" fill="#927DAC"/>
<path d="M150.385 104.927C150.434 105.025 150.434 105.122 150.434 105.22L149.654 114.678L148.63 143.493C148.63 143.59 148.63 143.688 148.581 143.736C148.337 144.273 147.411 146.32 147.411 146.564V148.563C147.411 148.807 147.313 149.002 147.118 149.1L143.608 151.489C143.461 151.586 143.315 151.635 143.169 151.586L142.486 151.537C142.291 151.537 142.096 151.586 141.95 151.732L126.444 168.309C126.347 168.407 126.298 168.455 126.152 168.504C125.713 168.65 125.225 168.309 125.274 167.822L127.273 126.867C127.273 126.721 127.371 126.526 127.468 126.428L150.239 104.488L150.385 104.927Z" fill="#A48DC2"/>
<path d="M135.319 107.374L120.935 121.513L119.667 122.293L105.332 121.854L84.9012 121.171L74.0277 120.684L65.1534 120.294L45.2593 119.367L43.0651 118.49L42.1386 118.051L41.9923 116.881L41.4072 112.152L41.6998 109.86L43.7477 108.544L49.989 106.106L53.3535 105.228L50.5254 103.473L46.1857 99.2314L43.7965 92.3569L43.894 86.7988L46.9171 81.1432L50.8667 77.389L57.2543 75H61.8865L65.6898 76.0239L68.7129 77.9741L71.1021 79.9243L74.7591 79.973L80.9029 80.1193L86.5103 82.4596L90.4111 85.0924L92.8979 83.1909L95.4334 82.1183L99.2855 80.5094L104.942 79.7293L113.767 78.9004L123.032 79.778L129.614 81.9233L133.222 84.361L134.149 86.36L133.856 92.8932L132.101 95.6723L132.54 99.524L132.15 102.498L131.76 103.229L135.319 107.374Z" fill="#EFCA64"/>
<path d="M70.9062 79.2968L78.8541 44.5829L79.5855 42.8277L81.926 41.2188L92.4582 41.7551L155.456 44.7779L147.996 94.5084L133.661 93.4358L134.148 86.8538C134.148 86.8538 133.612 84.6599 133.173 84.4161C132.734 84.1723 128.053 81.442 128.053 81.442L123.031 79.8331L110.89 78.9555L102.454 79.5405L93.8235 82.1733L90.8979 84.9036L85.583 81.6858C85.583 81.6858 81.4872 79.9306 80.8533 80.1256C80.2682 80.3206 72.6129 79.443 72.6129 79.443L71.6377 79.6868L70.9062 79.2968Z" fill="#795F97"/>
<path d="M43.8457 131.992L45.8936 146.473L47.7953 149.349L50.7209 150.519L112.695 155.102L112.988 137.745L112.402 135.698L110.745 134.82L43.8457 131.992Z" fill="#795F97"/>
<path d="M168.72 55.6875L170.036 59.4904L170.719 69.7291L168.379 77.9687L163.941 85.2821L168.72 55.6875Z" fill="#795F97"/>
<path d="M108.645 17.1696L106.841 13.9517C106.841 13.9517 101.088 13.8055 100.99 13.9517C100.893 14.098 98.7959 26.6281 98.7959 26.6281L100.649 26.7257L102.209 17.4621L108.645 17.1696Z" fill="#795F97"/>
<path d="M140.925 123.609L140.242 137.895L137.658 141.21L130.978 146.719C130.978 146.719 130.441 135.847 130.441 135.554C130.441 135.262 131.173 133.214 131.173 133.214L133.074 131.215L140.925 123.609Z" fill="#795F97"/>
<path d="M41.2604 116.152L40.334 117.859C40.334 117.859 40.6265 118.883 40.8703 118.883C41.1141 118.883 43.6009 119.029 43.6009 119.029L41.5042 117.42L41.2604 116.152Z" fill="#795F97"/>
<path d="M112.839 93.9178L112.937 99.5734C112.937 99.5734 118.154 99.4759 118.544 99.4759C118.934 99.4759 125.663 97.9157 125.663 97.9157L130.247 95.478L131.856 95.1855L131.466 97.2332L128.296 99.1346L124.981 100.11L116.594 100.695L114.741 102.45L110.158 107.813L107.72 113.469L108.451 120.685V121.952L86.6064 120.538L91.9213 116.93L95.8221 111.909L98.1138 106.838L98.7965 101.182L98.5527 97.672L96.2609 91.1875L102.941 93.089L112.839 93.9178Z" fill="#D8B450"/>
<path d="M53.4998 105.133L47.6486 106.742L42.6751 109.618C42.6751 109.618 41.3098 111.569 41.4073 111.959C41.5049 112.349 41.8949 118.004 41.8949 118.004L53.9387 119.711L64.6171 119.808L58.5221 115.518L54.6701 108.984L53.4998 105.133Z" fill="#D8B450"/>
<path d="M50.9143 103.033C50.9143 103.033 49.0126 93.1848 55.4002 86.4078C61.7878 79.6308 69.3944 78.2656 69.3944 78.2656L71.1497 80.3134L64.9572 81.8735L59.7398 86.2128L56.2291 91.3808L53.5961 99.2305L54.1324 105.617L50.9143 103.033Z" fill="#D8B450"/>
<path d="M112.061 90.5484C121.029 90.5484 128.298 88.431 128.298 85.8191C128.298 83.2072 121.029 81.0898 112.061 81.0898C103.094 81.0898 95.8242 83.2072 95.8242 85.8191C95.8242 88.431 103.094 90.5484 112.061 90.5484Z" fill="#D8B450"/>
<path d="M132.881 110.244L122.154 120.239L119.813 121.945L112.694 121.701C112.256 120.239 112.012 118.63 112.012 116.972C112.012 109.464 117.034 103.418 123.178 103.418C127.322 103.467 130.931 106.197 132.881 110.244Z" fill="#D8B450"/>
<path d="M95.4333 82.114L74.0277 120.68L65.1533 120.29L74.7591 79.9688L80.9028 80.115L86.5103 82.4553L90.4111 85.0881L92.8978 83.1866L95.4333 82.114Z" fill="#EFDA9C"/>
<path d="M66.568 110.443C66.568 110.443 63.6911 98.6443 63.8374 98.6443C63.9837 98.6443 69.2985 106.104 69.2985 106.104L70.225 105.519L74.8572 89.332L76.9539 106.25L78.8068 105.958L84.4142 101.082L80.1721 112.052L66.568 110.443Z" fill="#9E88B5"/>
<path opacity="0.3" d="M55.1563 163.783C55.3025 163.88 55.2538 165.977 55.01 165.928C54.7662 165.879 49.6464 166.659 49.6464 166.659C49.6464 166.659 45.0142 166.708 44.7216 166.611C44.429 166.513 40.9671 165.879 40.7233 165.733C40.4795 165.587 39.0654 162.954 39.0654 162.954V162.515L35.4084 161.93L32.4341 155.056L27.168 122.097L29.7522 118.733L40.577 110.054L48.9637 103.326L50.0365 103.277L53.7422 104.984L56.034 110.981L61.8364 118.489L62.0314 119.415L62.0802 119.659L58.472 119.952L62.0802 123.901L61.6901 132.287L76.7082 165.441C65.4934 164.563 55.4001 163.783 55.1563 163.783Z" fill="#624B7F"/>
<path opacity="0.3" d="M87.7773 41.6002L92.2145 83.4323L92.0682 83.8224L90.8979 84.5049L88.4111 83.2373L82.1211 80.6533L71.6864 79.6294L70.7112 79.7757L67.2493 76.9966L63.4947 75.2414L56.2295 74.7051L68.2245 28.6312L70.4187 26.5347L76.5137 26.2422L92.7996 26.3397L92.8971 26.486L87.9723 35.0182L87.7773 41.6002Z" fill="#624B7F"/>
<path d="M179.056 66.2691L177.544 79.8719L175.057 86.7952L171.352 92.7921L167.402 96.7413L161.356 100.154L156.48 101.909L156.041 101.958L166.183 30.6289L168.134 31.7015L172.766 37.6497L175.643 43.6466L178.471 55.4454L179.056 66.2691Z" fill="#A48DC2"/>
<path d="M49.8913 103.036C49.8913 103.036 30.436 117.467 27.8029 120.88C27.8029 120.88 27.2178 121.758 27.4129 123.708C27.5591 125.317 31.5575 150.231 33.7029 158.958C34.1417 160.714 35.6533 162.03 37.4574 162.176C52.0855 163.346 120.691 168.904 122.593 168.904C125.421 168.904 126.298 168.222 127.907 166.759C129.468 165.297 146.534 147.452 147.802 145.502C149.069 143.552 148.484 141.601 148.679 140.09C148.874 138.627 150.142 107.521 150.435 106.059C150.727 104.596 149.85 102.548 147.314 102.158C144.778 101.768 132.442 100.891 132.442 100.891" stroke="black" stroke-width="1.72297" stroke-miterlimit="10" strokeLinecap="round" strokeLinejoin="round"/>
<path d="M41.553 116.003L40.334 117.173C39.7001 117.758 40.0902 118.83 40.9679 118.879C53.7918 119.562 116.107 122.731 119.667 122.097C121.812 121.707 132.442 110.786 135.953 107.47C136.684 106.788 136.44 105.52 135.514 105.179C134.977 104.984 134.539 104.789 133.515 104.691" stroke="black" stroke-width="1.72297" stroke-miterlimit="10" strokeLinecap="round" strokeLinejoin="round"/>
<path d="M39.2119 162.461V163.046C39.2607 164.362 40.1384 165.484 41.3574 165.874C42.6739 166.264 44.673 166.605 47.6474 166.508C50.7681 166.41 52.7185 166.069 53.8887 165.776C54.9127 165.533 55.6441 164.655 55.7903 163.631" stroke="black" stroke-width="1.72297" stroke-miterlimit="10" strokeLinecap="round" strokeLinejoin="round"/>
<path d="M107.818 167.781V168.366C107.818 169.488 108.501 170.512 109.574 170.853C110.841 171.292 112.938 171.73 116.205 171.633C119.326 171.535 121.276 171.194 122.446 170.902C123.47 170.658 124.202 169.78 124.348 168.756" stroke="black" stroke-width="1.72297" stroke-miterlimit="10" strokeLinecap="round" strokeLinejoin="round"/>
<path d="M147.312 146.43L147.068 148.867C147.068 148.867 145.898 150.476 142.484 151.598" stroke="black" stroke-width="1.72297" stroke-miterlimit="10" strokeLinecap="round" strokeLinejoin="round"/>
<path d="M148.531 102.452C148.531 102.452 176.081 105.28 178.568 71.346C180.274 47.9433 173.058 36.7296 168.377 32.0003C166.524 30.0989 163.94 29.0262 161.306 28.9287C145.118 28.2949 75.9763 25.6134 72.4168 26.0522C68.3697 26.5885 67.8333 29.8551 67.8333 29.8551L56.1797 75.1001" stroke="black" stroke-width="1.72297" stroke-miterlimit="10" strokeLinecap="round" strokeLinejoin="round"/>
<path d="M133.856 93.4804L147.996 94.6018L156.236 43.0186C156.724 40.0932 154.53 37.4604 151.604 37.3629L79.0979 34.5351C76.4161 34.4376 74.0269 36.1928 73.393 38.7768L63.8848 75.3922" stroke="black" stroke-width="1.72297" stroke-miterlimit="10" strokeLinecap="round" strokeLinejoin="round"/>
<path d="M70.8086 79.435L79.049 44.4286C79.4879 42.6246 81.1457 41.357 82.9986 41.4545L155.602 44.8674" stroke="black" stroke-width="1.72297" stroke-miterlimit="10" strokeLinecap="round" strokeLinejoin="round"/>
<path d="M98.9922 26.3916L101.284 13.9102L126.639 14.6415L131.223 27.6104" stroke="black" stroke-width="1.72297" stroke-miterlimit="10" strokeLinecap="round" strokeLinejoin="round"/>
<path d="M101.283 13.9102L102.015 17.3718L124.591 18.0056L126.638 14.6415" stroke="black" stroke-width="1.72297" stroke-miterlimit="10" strokeLinecap="round" strokeLinejoin="round"/>
<path d="M124.592 18.0039L127.371 27.1212" stroke="black" stroke-width="1.72297" stroke-miterlimit="10" strokeLinecap="round" strokeLinejoin="round"/>
<path d="M102.015 17.375L100.552 26.4923" stroke="black" stroke-width="1.72297" stroke-miterlimit="10" strokeLinecap="round" strokeLinejoin="round"/>
<path d="M64.909 120.046C58.1801 116.535 53.5967 109.368 53.5967 101.128C53.5967 89.3784 62.9099 79.8711 74.4172 79.8711C85.9246 79.8711 95.2378 89.3784 95.2378 101.128C95.2378 110.002 89.8742 117.657 82.3164 120.826" stroke="black" stroke-width="1.72297" stroke-miterlimit="10" strokeLinecap="round" strokeLinejoin="round"/>
<path d="M76.4648 79.8711C87.9722 79.8711 98.6507 89.3296 98.6507 101.08C98.6507 110.099 93.2871 118.047 85.5342 121.167" stroke="black" stroke-width="1.72297" stroke-miterlimit="10" strokeLinecap="round" strokeLinejoin="round"/>
<path d="M53.4984 104.887C47.6472 102.644 43.9414 97.0372 43.9414 90.4064C43.9414 81.7767 50.9141 74.8047 59.5446 74.8047C64.1769 74.8047 68.3215 76.8036 71.1496 79.9728" stroke="black" stroke-width="1.72297" stroke-miterlimit="10" strokeLinecap="round" strokeLinejoin="round"/>
<path d="M108.646 121.944C108.11 120.286 107.866 118.531 107.866 116.679C107.866 107.561 114.644 100.199 123.031 100.199C128.297 100.199 132.978 103.125 135.659 107.61" stroke="black" stroke-width="1.72297" stroke-miterlimit="10" strokeLinecap="round" strokeLinejoin="round"/>
<path d="M104.892 121.851C104.502 120.389 104.258 118.78 104.258 117.171C104.258 108.053 111.035 100.691 119.422 100.691" stroke="black" stroke-width="1.72297" stroke-miterlimit="10" strokeLinecap="round" strokeLinejoin="round"/>
<path d="M90.7998 84.9464C92.7502 81.6311 101.576 79.1445 112.108 79.1445C124.103 79.1445 133.855 82.3624 133.855 86.3603C133.855 90.3583 124.103 93.5761 112.108 93.5761C105.672 93.5761 99.8692 92.6498 95.8709 91.1871" stroke="black" stroke-width="1.72297" stroke-miterlimit="10" strokeLinecap="round" strokeLinejoin="round"/>
<path d="M133.855 92.4023C133.855 96.4003 124.103 99.6181 112.108 99.6181C106.939 99.6181 102.161 99.0331 98.4551 98.0092" stroke="black" stroke-width="1.72297" stroke-miterlimit="10" strokeLinecap="round" strokeLinejoin="round"/>
<path d="M63.0072 118.979C51.061 118.736 41.6016 115.566 41.6016 111.666C41.6016 108.838 46.6726 106.352 54.0842 105.133" stroke="black" stroke-width="1.72297" stroke-miterlimit="10" strokeLinecap="round" strokeLinejoin="round"/>
<path d="M43.5031 118.977C42.3329 118.1 41.6503 117.125 41.6503 116.101C41.6503 115.321 41.5527 111.664 41.5527 111.664" stroke="black" stroke-width="1.72297" stroke-miterlimit="10" strokeLinecap="round" strokeLinejoin="round"/>
<path d="M165.647 37.6562L156.968 95.3339" stroke="black" stroke-width="1.72297" stroke-miterlimit="10" strokeLinecap="round" strokeLinejoin="round"/>
<path d="M169.548 50.7229C171.743 54.0871 175.156 61.1079 173.742 70.9077C172.328 80.805 166.574 87.3383 163.551 90.1173L163.892 87.8258L169.158 53.0144L169.548 50.7229ZM169.5 49.6016C169.061 49.6016 168.622 49.8941 168.524 50.4304L168.134 52.8194L162.868 87.6308L162.381 90.7999C162.332 91.2875 162.673 91.6288 163.112 91.6288C163.258 91.6288 163.453 91.58 163.6 91.4337C166.574 88.8497 173.205 81.9752 174.766 71.0052C176.277 60.669 172.523 53.307 170.329 49.9916C170.133 49.7478 169.792 49.6016 169.5 49.6016Z" fill="black"/>
<path d="M168.62 56.7617C169.741 60.2721 170.522 64.9038 169.741 70.3645C168.912 75.9226 166.767 80.4081 164.524 83.7234L168.62 56.7617ZM168.132 52.8125L162.866 87.6239C165.938 84.016 169.595 78.3116 170.717 70.5595C171.838 62.8561 170.034 56.8104 168.132 52.8125Z" fill="black"/>
<path d="M149.946 104.254L128.589 126.194" stroke="black" stroke-width="1.72297" stroke-miterlimit="10" strokeLinecap="round" strokeLinejoin="round"/>
<path d="M27.2178 122.094L109.72 126.482" stroke="black" stroke-width="1.72297" stroke-miterlimit="10" strokeLinecap="round" strokeLinejoin="round"/>
<path d="M42.8198 131.899C42.8686 131.899 42.8686 131.899 42.9173 131.899L110.499 135.263C111.815 135.312 112.791 136.384 112.791 137.701L112.4 155.253C112.352 156.764 111.084 158.032 109.572 158.032C109.524 158.032 109.426 158.032 109.377 158.032L47.8909 153.449C45.5504 153.254 43.6487 151.499 43.3074 149.158L41.0157 133.995C40.9182 133.459 41.0644 132.923 41.4545 132.533C41.7471 132.143 42.2834 131.899 42.8198 131.899ZM42.771 130.875C41.0157 130.875 39.6504 132.435 39.943 134.19L42.2347 149.353C42.6735 152.181 44.9652 154.278 47.7933 154.521L109.182 159.153C109.28 159.153 109.377 159.153 109.475 159.153C111.572 159.153 113.278 157.495 113.327 155.35L113.717 137.798C113.766 135.946 112.303 134.385 110.45 134.288L42.8686 130.924C42.9173 130.875 42.8686 130.875 42.771 130.875Z" fill="black"/>
<path d="M112.742 155.3L51.3535 150.668C48.5254 150.473 46.2337 148.328 45.7949 145.5L43.6494 131.215" stroke="black" stroke-width="1.72297" stroke-miterlimit="10" strokeLinecap="round" strokeLinejoin="round"/>
<path d="M133.855 86.3555V92.4011" stroke="black" stroke-width="1.72297" stroke-miterlimit="10" strokeLinecap="round" strokeLinejoin="round"/>
<path d="M112.596 102.348C111.962 102.348 111.28 102.397 110.646 102.397C106.306 102.397 102.259 101.958 98.8457 101.227" stroke="black" stroke-width="1.72297" stroke-miterlimit="10" strokeLinecap="round" strokeLinejoin="round"/>
<path d="M132.392 95.1836C132.392 97.2313 129.759 99.084 125.614 100.4" stroke="black" stroke-width="1.72297" stroke-miterlimit="10" strokeLinecap="round" strokeLinejoin="round"/>
<path d="M106.598 108.301C103.429 108.106 100.455 107.667 97.9678 107.082" stroke="black" stroke-width="1.72297" stroke-miterlimit="10" strokeLinecap="round" strokeLinejoin="round"/>
<path d="M132.394 101.227C132.394 101.86 132.15 102.445 131.711 103.03" stroke="black" stroke-width="1.72297" stroke-miterlimit="10" strokeLinecap="round" strokeLinejoin="round"/>
<path d="M132.394 95.1836V101.229" stroke="black" stroke-width="1.72297" stroke-miterlimit="10" strokeLinecap="round" strokeLinejoin="round"/>
<path d="M104.989 111.86C101.82 111.86 98.797 111.617 96.0664 111.227" stroke="black" stroke-width="1.72297" stroke-miterlimit="10" strokeLinecap="round" strokeLinejoin="round"/>
<path d="M104.21 117.953C99.3336 117.904 95.6278 117.465 92.0684 116.539" stroke="black" stroke-width="1.72297" stroke-miterlimit="10" strokeLinecap="round" strokeLinejoin="round"/>
<path d="M74.5639 92.6976L76.4168 106.252C76.4656 106.642 76.7094 106.934 77.0507 107.08C77.197 107.129 77.2945 107.178 77.4408 107.178C77.6846 107.178 77.9284 107.08 78.0747 106.934L83.1945 102.741L79.6838 111.615L66.9086 110.347L65.397 101.864L68.859 106.3C69.054 106.544 69.3466 106.69 69.6879 106.69C69.7367 106.69 69.8342 106.69 69.883 106.69C70.273 106.593 70.5656 106.349 70.6631 105.959L74.5639 92.6976ZM74.954 87.6758L69.7367 105.715L63.6904 98.0119L66.0309 111.371L80.3664 112.785L85.6812 99.4746L77.4408 106.154L74.954 87.6758Z" fill="black"/>
<path d="M143.315 121.653C143.559 121.653 143.754 121.75 143.949 121.945C144.095 122.092 144.144 122.287 144.144 122.53L143.022 138.863C142.974 139.839 142.535 140.765 141.852 141.447L133.709 149.492C133.417 149.785 133.075 149.833 132.88 149.833C132.344 149.833 131.71 149.443 131.661 148.712L130.832 137.498C130.686 135.548 131.369 133.598 132.734 132.233L142.778 121.945C142.925 121.75 143.12 121.653 143.315 121.653ZM143.315 120.629C142.876 120.629 142.388 120.824 141.998 121.214L131.954 131.501C130.393 133.11 129.565 135.353 129.76 137.596L130.588 148.81C130.686 150.077 131.759 150.906 132.88 150.906C133.417 150.906 134.002 150.711 134.489 150.223L142.583 142.13C143.461 141.252 143.949 140.131 144.046 138.912L145.168 122.579C145.265 121.409 144.339 120.629 143.315 120.629Z" fill="black"/>
<path d="M141.023 123.172L140.243 136.58C140.146 137.799 139.658 138.969 138.78 139.797L131.174 146.916" stroke="black" stroke-width="1.72297" stroke-miterlimit="10" strokeLinecap="round" strokeLinejoin="round"/>
<path d="M74.6605 118.834C83.8165 118.834 91.2389 110.954 91.2389 101.234C91.2389 91.5129 83.8165 83.6328 74.6605 83.6328C65.5044 83.6328 58.082 91.5129 58.082 101.234C58.082 110.954 65.5044 118.834 74.6605 118.834Z" stroke="black" stroke-width="1.14859" stroke-miterlimit="10" strokeLinecap="round" strokeLinejoin="round"/>
<path d="M111.816 90.7434C120.703 90.7434 127.907 88.5824 127.907 85.9166C127.907 83.2509 120.703 81.0898 111.816 81.0898C102.93 81.0898 95.7256 83.2509 95.7256 85.9166C95.7256 88.5824 102.93 90.7434 111.816 90.7434Z" stroke="black" stroke-width="1.14859" stroke-miterlimit="10" strokeLinecap="round" strokeLinejoin="round"/>
<path d="M53.5472 99.8168C50.329 97.8179 48.1836 94.3562 48.1836 90.407C48.1836 84.1663 53.5472 79.1445 60.1298 79.1445C62.6166 79.1445 64.9083 79.8759 66.8099 81.046" stroke="black" stroke-width="1.14859" stroke-miterlimit="10" strokeLinecap="round" strokeLinejoin="round"/>
<path d="M112.548 122.093C112.06 120.777 111.768 119.412 111.719 117.949C111.28 110.636 116.156 104.395 122.592 104.005C126.932 103.761 130.882 106.199 133.125 110.099" stroke="black" stroke-width="1.12069" stroke-miterlimit="10" strokeLinecap="round" strokeLinejoin="round"/>
</svg>
