<svg width="48" height="48" viewBox="0 0 48 48" fill="none" xmlns="http://www.w3.org/2000/svg">
<circle cx="24" cy="24" r="24" fill="white" fill-opacity="0.16"/>
<path d="M16.0504 26.7091L18.4461 29.1756C18.4763 29.2066 18.5175 29.2244 18.5608 29.225C18.604 29.2257 18.6458 29.209 18.6768 29.179L27.5611 20.5475L24.9376 17.8467L16.0534 26.4781C16.038 26.493 16.0257 26.5109 16.0172 26.5306C16.0087 26.5503 16.0042 26.5715 16.0039 26.593C16.0036 26.6145 16.0076 26.6358 16.0156 26.6557C16.0235 26.6756 16.0354 26.6938 16.0504 26.7091Z" fill="#4B4B4A"/>
<path d="M31.0783 29.3773L33.5993 26.9281C33.611 26.9167 33.6205 26.903 33.6269 26.888C33.6334 26.8729 33.6369 26.8567 33.6372 26.8403C33.6374 26.8239 33.6344 26.8076 33.6283 26.7924C33.6223 26.7771 33.6133 26.7632 33.6018 26.7514L24.9447 17.8389L22.2441 20.4625L30.9013 29.3751C30.9128 29.3869 30.9264 29.3964 30.9415 29.4029C30.9566 29.4093 30.9729 29.4128 30.9893 29.413C31.0057 29.4132 31.0221 29.4102 31.0373 29.4041C31.0526 29.398 31.0665 29.3889 31.0783 29.3773Z" fill="#4B4B4A"/>
<path d="M14.3551 27.3302L16.7508 29.7967C16.781 29.8277 16.8222 29.8455 16.8655 29.8461C16.9087 29.8468 16.9505 29.8301 16.9815 29.8001L25.8658 21.1686L23.2423 18.4678L14.3581 27.0992C14.3427 27.1141 14.3304 27.132 14.3219 27.1517C14.3134 27.1714 14.3089 27.1926 14.3086 27.2141C14.3083 27.2356 14.3123 27.2569 14.3203 27.2768C14.3282 27.2967 14.3401 27.3149 14.3551 27.3302Z" fill="#727271" stroke="#4B4B4A" stroke-width="1.5" stroke-miterlimit="10"/>
<path d="M29.3811 29.9985L31.9021 27.5493C31.9138 27.5378 31.9233 27.5241 31.9298 27.5091C31.9362 27.494 31.9398 27.4778 31.94 27.4614C31.9402 27.445 31.9372 27.4287 31.9311 27.4135C31.9251 27.3982 31.9161 27.3843 31.9046 27.3725L23.2475 18.46L20.5469 21.0837L29.2041 29.9962C29.2155 30.0081 29.2292 30.0175 29.2443 30.024C29.2594 30.0305 29.2757 30.0339 29.2922 30.0341C29.3086 30.0343 29.3249 30.0313 29.3402 30.0252C29.3554 30.019 29.3694 30.01 29.3811 29.9985Z" fill="#C6C6C6" stroke="#4B4B4A" stroke-width="1.5" stroke-miterlimit="10"/>
</svg>
