<svg width="48" height="48" viewBox="0 0 48 48" fill="none" xmlns="http://www.w3.org/2000/svg">
<circle cx="24" cy="24" r="24" fill="white" fill-opacity="0.16"/>
<path d="M31.9496 21.2899L29.5539 18.8234C29.5237 18.7924 29.4825 18.7746 29.4392 18.774C29.396 18.7733 29.3542 18.79 29.3232 18.8201L20.4389 27.4515L23.0624 30.1523L31.9466 21.5209C31.962 21.506 31.9743 21.4881 31.9828 21.4684C31.9913 21.4487 31.9958 21.4275 31.9961 21.4061C31.9964 21.3845 31.9924 21.3633 31.9844 21.3433C31.9765 21.3234 31.9646 21.3052 31.9496 21.2899Z" fill="black"/>
<path d="M16.9217 18.6217L14.4007 21.0709C14.389 21.0823 14.3795 21.096 14.3731 21.111C14.3666 21.1261 14.3631 21.1423 14.3628 21.1587C14.3626 21.1751 14.3656 21.1914 14.3717 21.2066C14.3777 21.2219 14.3867 21.2358 14.3982 21.2476L23.0553 30.1602L25.7559 27.5365L17.0987 18.6239C17.0872 18.6121 17.0736 18.6026 17.0585 18.5962C17.0434 18.5897 17.0271 18.5862 17.0107 18.586C16.9943 18.5858 16.9779 18.5888 16.9627 18.595C16.9474 18.601 16.9335 18.6102 16.9217 18.6217Z" fill="black"/>
<path d="M33.6449 20.6688L31.2492 18.2023C31.219 18.1713 31.1778 18.1535 31.1345 18.1529C31.0913 18.1523 31.0495 18.1689 31.0185 18.199L22.1342 26.8304L24.7577 29.5312L33.6419 20.8999C33.6573 20.8849 33.6696 20.8671 33.6781 20.8473C33.6866 20.8276 33.6911 20.8064 33.6914 20.785C33.6917 20.7635 33.6877 20.7422 33.6797 20.7223C33.6718 20.7023 33.6599 20.6842 33.6449 20.6688Z" fill="#E687A3" stroke="black" stroke-width="1.5" stroke-miterlimit="10"/>
<path d="M18.6189 18.0006L16.0979 20.4498C16.0862 20.4612 16.0767 20.4749 16.0702 20.4899C16.0638 20.505 16.0602 20.5212 16.06 20.5376C16.0598 20.554 16.0628 20.5703 16.0689 20.5855C16.0749 20.6008 16.0839 20.6147 16.0954 20.6265L24.7525 29.5391L27.4531 26.9154L18.7959 18.0028C18.7845 17.991 18.7708 17.9815 18.7557 17.975C18.7406 17.9686 18.7243 17.9651 18.7078 17.9649C18.6914 17.9647 18.6751 17.9678 18.6598 17.9738C18.6446 17.98 18.6306 17.989 18.6189 18.0006Z" fill="#F2EE98" stroke="black" stroke-width="1.5" stroke-miterlimit="10"/>
</svg>
