<svg width="16" height="16" viewBox="0 0 16 16" fill="none" xmlns="http://www.w3.org/2000/svg">
<path d="M14.6654 7.40065V4.60065C14.6654 2.26732 13.732 1.33398 11.3987 1.33398H8.5987C6.26536 1.33398 5.33203 2.26732 5.33203 4.60065V5.33398H7.3987C9.73203 5.33398 10.6654 6.26732 10.6654 8.60065V10.6673H11.3987C13.732 10.6673 14.6654 9.73398 14.6654 7.40065Z" stroke="white" stroke-width="1.2" strokeLinecap="round" strokeLinejoin="round"/>
<path d="M10.6654 11.4007V8.60065C10.6654 6.26732 9.73203 5.33398 7.3987 5.33398H4.5987C2.26536 5.33398 1.33203 6.26732 1.33203 8.60065V11.4007C1.33203 13.734 2.26536 14.6673 4.5987 14.6673H7.3987C9.73203 14.6673 10.6654 13.734 10.6654 11.4007Z" stroke="white" stroke-width="1.2" strokeLinecap="round" strokeLinejoin="round"/>
<path d="M4.05469 9.99922L5.35469 11.2992L7.94802 8.69922" stroke="white" stroke-width="1.2" strokeLinecap="round" strokeLinejoin="round"/>
</svg>
