<svg width="60" height="60" viewBox="0 0 60 60" fill="none" xmlns="http://www.w3.org/2000/svg">
<circle cx="30" cy="30" r="29.5" fill="#EFD378" stroke="#EFD378"/>
<path d="M18.584 31.0823L24.6582 37.6627C24.7594 37.764 24.9619 37.8652 25.0631 37.8652C25.1644 37.8652 25.1644 37.8652 25.2656 37.8652C25.468 37.7639 25.6705 37.6627 25.6705 37.4602L29.315 19.6426L33.1621 37.0553C33.1621 37.2577 33.3646 37.4602 33.5671 37.4602C33.5671 37.4602 33.6682 37.4602 33.7695 37.4602C33.9719 37.4602 34.0732 37.359 34.1744 37.2577L40.7548 30.1712L37.1103 42.8258L21.8236 42.927L18.584 31.0823Z" fill="#9E88B5"/>
<path d="M29.315 22.3746L32.6558 37.1552C32.7571 37.5602 33.0608 37.9651 33.4658 38.0663C33.567 38.0663 33.6682 38.0663 33.7694 38.0663C34.0731 38.0663 34.3769 37.9651 34.5794 37.6614L39.54 32.2958L36.7053 42.2171L22.3298 42.3183L19.7988 33.207L24.2532 38.0663C24.4556 38.2688 24.7594 38.4713 25.0631 38.4713C25.1643 38.4713 25.2656 38.4713 25.3668 38.4713C25.7718 38.37 26.0754 37.9651 26.1767 37.5602L29.315 22.3746ZM29.315 16.8066L25.1643 37.3577L17.3691 28.955L21.5198 43.6343L37.7177 43.5331L42.0709 28.0439L33.7694 36.9527L29.315 16.8066Z" fill="black"/>
</svg>
