<svg width="33" height="32" viewBox="0 0 33 32" fill="none" xmlns="http://www.w3.org/2000/svg">
<path d="M20.388 8.38281H6.76206C4.8936 8.38281 3.37891 9.8974 3.37891 11.7656V21.8387C3.37891 23.707 4.8936 25.2216 6.76206 25.2216H20.388C22.2564 25.2216 23.7711 23.707 23.7711 21.8387V11.7656C23.7711 9.8974 22.2564 8.38281 20.388 8.38281Z" fill="#868685"/>
<path d="M28.0725 12.1344L26.1891 13.6324C25.934 13.8352 25.7279 14.0929 25.5863 14.3864C25.4446 14.6798 25.3711 15.0016 25.3711 15.3274V18.8889C25.3711 19.2654 25.4693 19.6354 25.6559 19.9624C25.8425 20.2894 26.1112 20.5621 26.4353 20.7536L28.1484 21.7659C28.2495 21.826 28.3647 21.8583 28.4822 21.8594C28.5998 21.8605 28.7156 21.8304 28.8178 21.7722C28.9199 21.7139 29.0048 21.6297 29.0638 21.5279C29.1228 21.4262 29.1537 21.3107 29.1535 21.1931V12.6548C29.1537 12.5294 29.1186 12.4064 29.0519 12.3001C28.9853 12.1938 28.8899 12.1085 28.7769 12.0541C28.6639 11.9997 28.5377 11.9783 28.4131 11.9926C28.2885 12.0068 28.1703 12.056 28.0725 12.1344Z" fill="#868685"/>
<path d="M24.5136 6.83789H4.9489C4.7204 6.83789 4.53516 7.02311 4.53516 7.25159V23.2629C4.53516 23.4914 4.7204 23.6766 4.9489 23.6766H24.5136C24.7421 23.6766 24.9274 23.4914 24.9274 23.2629V7.25159C24.9274 7.02311 24.7421 6.83789 24.5136 6.83789Z" fill="#B1B1B0" stroke="#868685" stroke-width="1.5" stroke-miterlimit="10"/>
<path d="M29.3124 20.2196L27.5994 19.2075C27.2752 19.0158 27.0066 18.7432 26.82 18.4161C26.6333 18.0891 26.5352 17.7192 26.5352 17.3426V13.7818C26.5352 13.4558 26.6087 13.134 26.7504 12.8405C26.892 12.5469 27.098 12.2891 27.3531 12.0862L29.2365 10.5882C29.3344 10.5102 29.4524 10.4615 29.5767 10.4475C29.7011 10.4336 29.8269 10.455 29.9396 10.5093C30.0524 10.5637 30.1475 10.6488 30.2141 10.7547C30.2806 10.8608 30.3159 10.9834 30.3158 11.1086V19.6468C30.3159 19.7642 30.2849 19.8794 30.226 19.981C30.1671 20.0824 30.0824 20.1665 29.9806 20.2246C29.8787 20.2828 29.7631 20.3131 29.6458 20.3122C29.5285 20.3113 29.4134 20.2793 29.3124 20.2196Z" fill="#B1B1B0" stroke="#868685" stroke-width="1.5" stroke-miterlimit="10"/>
<path d="M11.1371 16.6684C12.0046 16.6684 12.7077 15.9653 12.7077 15.0979C12.7077 14.2304 12.0046 13.5273 11.1371 13.5273C10.2696 13.5273 9.56641 14.2304 9.56641 15.0979C9.56641 15.9653 10.2696 16.6684 11.1371 16.6684Z" fill="#C6C6C6"/>
<path d="M17.8558 16.6684C18.7233 16.6684 19.4265 15.9653 19.4265 15.0979C19.4265 14.2304 18.7233 13.5273 17.8558 13.5273C16.9883 13.5273 16.2852 14.2304 16.2852 15.0979C16.2852 15.9653 16.9883 16.6684 17.8558 16.6684Z" fill="#C6C6C6"/>
</svg>
