<svg width="294" height="344" viewBox="0 0 294 344" fill="none" xmlns="http://www.w3.org/2000/svg">
<path d="M111.082 88.9308L159.545 75.6426L158.763 110.817L116.553 120.979L111.082 88.9308Z" fill="#6AB5D2" stroke="#1D1D1B"/>
<path d="M140.003 131.923L157.2 123.324L157.981 125.669L175.178 128.796L147.82 138.176L140.003 131.923Z" fill="#6AB5D2" stroke="#1D1D1B"/>
<path d="M137.658 139.739L139.222 131.923L134.532 130.359L113.427 135.049L137.658 139.739Z" fill="#6AB5D2" stroke="#1D1D1B"/>
<path d="M107.955 134.268L116.553 124.106L157.981 113.944L152.51 124.106L107.955 134.268Z" fill="#6AB5D2" stroke="#1D1D1B"/>
<path d="M170.488 117.852L157.981 113.162L159.545 123.324L173.615 125.669L170.488 117.852Z" fill="#6AB5D2" stroke="#1D1D1B"/>
<path d="M117.225 110.426C117.413 110.383 117.584 110.284 117.717 110.143C117.849 110.003 117.937 109.826 117.968 109.635C118 109.445 117.975 109.249 117.895 109.073C117.816 108.897 117.686 108.748 117.522 108.646C117.358 108.543 117.167 108.492 116.974 108.498C116.781 108.504 116.594 108.567 116.437 108.68C116.28 108.792 116.159 108.948 116.091 109.129C116.023 109.31 116.009 109.507 116.053 109.695C116.082 109.82 116.135 109.938 116.21 110.042C116.284 110.147 116.378 110.236 116.487 110.304C116.596 110.372 116.717 110.417 116.844 110.438C116.971 110.459 117.1 110.455 117.225 110.426Z" fill="#4BA1BC"/>
<path d="M120.906 109.535C121.087 109.494 121.251 109.4 121.378 109.265C121.505 109.131 121.589 108.961 121.62 108.779C121.65 108.596 121.626 108.409 121.55 108.24C121.474 108.071 121.35 107.929 121.193 107.831C121.036 107.733 120.854 107.683 120.669 107.689C120.484 107.695 120.304 107.756 120.154 107.863C120.003 107.971 119.888 108.121 119.823 108.294C119.758 108.467 119.745 108.656 119.787 108.836C119.843 109.077 119.993 109.286 120.202 109.417C120.412 109.548 120.665 109.59 120.906 109.535Z" fill="#4BA1BC"/>
<path d="M124.593 108.664C124.769 108.623 124.93 108.531 125.054 108.399C125.178 108.267 125.261 108.101 125.291 107.923C125.321 107.744 125.297 107.56 125.222 107.395C125.148 107.23 125.026 107.09 124.873 106.994C124.719 106.898 124.54 106.849 124.359 106.855C124.178 106.86 124.002 106.92 123.855 107.025C123.707 107.13 123.594 107.277 123.53 107.446C123.465 107.616 123.453 107.8 123.494 107.977C123.548 108.214 123.695 108.419 123.901 108.548C124.107 108.677 124.356 108.719 124.593 108.664Z" fill="#4BA1BC"/>
<path d="M128.276 107.782C128.446 107.742 128.601 107.653 128.72 107.526C128.84 107.399 128.919 107.239 128.947 107.067C128.976 106.895 128.953 106.718 128.881 106.559C128.81 106.4 128.692 106.266 128.544 106.174C128.396 106.081 128.224 106.035 128.05 106.04C127.875 106.046 127.706 106.103 127.564 106.204C127.422 106.306 127.314 106.447 127.252 106.61C127.19 106.773 127.178 106.951 127.218 107.121C127.244 107.234 127.292 107.341 127.359 107.435C127.426 107.529 127.512 107.609 127.61 107.671C127.708 107.732 127.818 107.774 127.932 107.793C128.046 107.812 128.163 107.808 128.276 107.782Z" fill="#4BA1BC"/>
<path d="M131.965 106.918C132.134 106.879 132.287 106.792 132.405 106.666C132.523 106.541 132.602 106.383 132.63 106.213C132.659 106.042 132.636 105.867 132.566 105.71C132.495 105.553 132.379 105.42 132.233 105.328C132.086 105.237 131.916 105.191 131.743 105.196C131.571 105.201 131.404 105.258 131.263 105.358C131.123 105.458 131.015 105.598 130.954 105.759C130.893 105.921 130.881 106.097 130.92 106.265C130.972 106.49 131.112 106.685 131.308 106.808C131.504 106.93 131.74 106.97 131.965 106.918Z" fill="#4BA1BC"/>
<path d="M135.65 106.048C135.814 106.01 135.963 105.925 136.079 105.802C136.194 105.679 136.27 105.525 136.298 105.359C136.326 105.193 136.304 105.023 136.235 104.869C136.165 104.716 136.052 104.586 135.91 104.497C135.767 104.408 135.601 104.363 135.433 104.368C135.264 104.374 135.101 104.429 134.964 104.526C134.827 104.624 134.723 104.761 134.663 104.918C134.603 105.075 134.592 105.247 134.63 105.411C134.655 105.52 134.701 105.623 134.766 105.714C134.831 105.804 134.913 105.882 135.008 105.941C135.103 106 135.208 106.04 135.318 106.058C135.429 106.077 135.541 106.073 135.65 106.048Z" fill="#4BA1BC"/>
<path d="M139.333 105.166C139.491 105.129 139.635 105.047 139.746 104.929C139.857 104.811 139.931 104.662 139.958 104.503C139.984 104.343 139.963 104.178 139.896 104.031C139.83 103.883 139.721 103.758 139.583 103.672C139.446 103.586 139.286 103.543 139.124 103.548C138.962 103.553 138.805 103.606 138.673 103.7C138.541 103.795 138.44 103.926 138.383 104.077C138.325 104.229 138.314 104.394 138.351 104.552C138.4 104.764 138.531 104.947 138.715 105.062C138.899 105.178 139.122 105.215 139.333 105.166Z" fill="#4BA1BC"/>
<path d="M143.019 104.293C143.172 104.257 143.312 104.177 143.42 104.062C143.528 103.947 143.6 103.802 143.626 103.647C143.652 103.491 143.631 103.331 143.566 103.187C143.501 103.043 143.395 102.922 143.261 102.838C143.127 102.755 142.971 102.713 142.814 102.718C142.656 102.723 142.503 102.774 142.375 102.866C142.246 102.958 142.148 103.085 142.092 103.233C142.036 103.381 142.025 103.542 142.061 103.695C142.084 103.798 142.128 103.894 142.189 103.98C142.25 104.065 142.327 104.137 142.416 104.193C142.505 104.248 142.604 104.286 142.707 104.303C142.811 104.32 142.917 104.317 143.019 104.293Z" fill="#4BA1BC"/>
<path d="M146.703 103.412C146.85 103.378 146.984 103.301 147.087 103.191C147.191 103.081 147.259 102.943 147.284 102.794C147.309 102.645 147.289 102.492 147.227 102.354C147.165 102.216 147.064 102.1 146.936 102.02C146.808 101.94 146.659 101.899 146.508 101.904C146.357 101.908 146.211 101.958 146.088 102.045C145.965 102.133 145.87 102.255 145.817 102.397C145.763 102.538 145.753 102.692 145.787 102.839C145.832 103.036 145.954 103.208 146.126 103.315C146.298 103.422 146.505 103.457 146.703 103.412Z" fill="#4BA1BC"/>
<path d="M150.389 102.54C150.532 102.506 150.663 102.431 150.764 102.324C150.865 102.216 150.932 102.081 150.957 101.936C150.981 101.79 150.962 101.64 150.901 101.506C150.84 101.371 150.741 101.258 150.616 101.179C150.491 101.101 150.345 101.062 150.198 101.066C150.05 101.071 149.907 101.119 149.787 101.205C149.667 101.291 149.575 101.41 149.523 101.548C149.471 101.687 149.46 101.837 149.494 101.981C149.516 102.076 149.556 102.166 149.613 102.246C149.67 102.326 149.742 102.394 149.825 102.446C149.908 102.497 150.001 102.532 150.098 102.549C150.194 102.565 150.293 102.562 150.389 102.54Z" fill="#4BA1BC"/>
<path d="M154.074 101.669C154.214 101.637 154.341 101.564 154.439 101.459C154.537 101.355 154.602 101.223 154.626 101.082C154.649 100.94 154.63 100.795 154.571 100.665C154.512 100.534 154.415 100.424 154.294 100.348C154.172 100.272 154.03 100.234 153.887 100.239C153.744 100.244 153.605 100.291 153.488 100.374C153.372 100.458 153.283 100.574 153.232 100.708C153.182 100.843 153.172 100.989 153.205 101.128C153.226 101.221 153.266 101.309 153.321 101.386C153.377 101.463 153.447 101.529 153.528 101.579C153.608 101.629 153.698 101.663 153.792 101.679C153.886 101.694 153.982 101.691 154.074 101.669Z" fill="#4BA1BC"/>
<path d="M157.76 100.797C157.896 100.766 158.019 100.695 158.115 100.594C158.21 100.492 158.274 100.365 158.297 100.227C158.32 100.09 158.301 99.9486 158.244 99.8216C158.187 99.6946 158.093 99.5874 157.975 99.5136C157.857 99.4398 157.719 99.4027 157.58 99.4071C157.441 99.4114 157.306 99.4569 157.193 99.5379C157.079 99.6188 156.993 99.7316 156.943 99.8619C156.894 99.9923 156.885 100.134 156.916 100.27C156.958 100.452 157.071 100.609 157.229 100.708C157.387 100.807 157.578 100.839 157.76 100.797Z" fill="#4BA1BC"/>
<path d="M116.769 114.303C116.628 114.453 116.446 114.558 116.245 114.604C116.158 114.624 116.07 114.633 115.981 114.63L115.633 112.622C115.743 112.578 115.861 112.554 115.981 112.55C116.187 112.544 116.39 112.599 116.564 112.708C116.738 112.817 116.877 112.976 116.961 113.163C117.045 113.351 117.072 113.56 117.038 113.763C117.004 113.965 116.91 114.154 116.769 114.303Z" fill="#4BA1BC"/>
<path d="M119.929 113.723C120.123 113.678 120.3 113.576 120.437 113.431C120.573 113.286 120.664 113.103 120.697 112.907C120.73 112.71 120.704 112.508 120.622 112.326C120.54 112.144 120.406 111.991 120.237 111.885C120.068 111.78 119.871 111.726 119.672 111.732C119.473 111.738 119.279 111.804 119.117 111.919C118.955 112.035 118.83 112.196 118.76 112.383C118.689 112.569 118.675 112.773 118.72 112.967C118.75 113.096 118.804 113.218 118.881 113.326C118.958 113.434 119.056 113.525 119.168 113.595C119.28 113.666 119.405 113.713 119.536 113.735C119.666 113.757 119.8 113.753 119.929 113.723Z" fill="#4BA1BC"/>
<path d="M123.614 112.851C123.804 112.807 123.977 112.707 124.111 112.565C124.244 112.423 124.333 112.244 124.365 112.051C124.397 111.859 124.372 111.661 124.291 111.483C124.211 111.305 124.08 111.155 123.914 111.051C123.749 110.948 123.556 110.896 123.361 110.902C123.166 110.908 122.977 110.971 122.818 111.085C122.659 111.198 122.537 111.356 122.468 111.539C122.398 111.721 122.385 111.92 122.429 112.111C122.458 112.237 122.512 112.357 122.587 112.462C122.662 112.568 122.758 112.658 122.868 112.727C122.978 112.795 123.1 112.842 123.228 112.863C123.356 112.884 123.487 112.88 123.614 112.851Z" fill="#4BA1BC"/>
<path d="M127.296 111.96C127.478 111.918 127.644 111.823 127.772 111.687C127.9 111.55 127.985 111.379 128.016 111.195C128.047 111.01 128.023 110.821 127.946 110.65C127.87 110.48 127.744 110.336 127.585 110.236C127.427 110.137 127.242 110.087 127.055 110.093C126.869 110.098 126.687 110.159 126.535 110.268C126.383 110.376 126.266 110.528 126.2 110.703C126.133 110.878 126.12 111.068 126.162 111.251C126.19 111.371 126.242 111.486 126.314 111.587C126.386 111.688 126.477 111.774 126.582 111.84C126.687 111.906 126.805 111.95 126.927 111.971C127.049 111.991 127.175 111.987 127.296 111.96Z" fill="#4BA1BC"/>
<path d="M130.982 111.086C131.16 111.045 131.322 110.952 131.447 110.819C131.572 110.686 131.655 110.518 131.685 110.338C131.715 110.158 131.691 109.973 131.616 109.806C131.541 109.64 131.418 109.499 131.263 109.402C131.108 109.305 130.928 109.257 130.745 109.262C130.562 109.268 130.385 109.327 130.237 109.434C130.088 109.54 129.974 109.688 129.909 109.858C129.844 110.029 129.832 110.216 129.873 110.394C129.9 110.512 129.95 110.624 130.021 110.723C130.091 110.822 130.181 110.906 130.284 110.97C130.387 111.034 130.501 111.078 130.621 111.098C130.741 111.118 130.863 111.114 130.982 111.086Z" fill="#4BA1BC"/>
<path d="M134.665 110.205C134.838 110.166 134.994 110.076 135.115 109.947C135.236 109.819 135.316 109.657 135.345 109.483C135.375 109.309 135.351 109.13 135.279 108.969C135.206 108.808 135.088 108.672 134.938 108.578C134.788 108.485 134.614 108.438 134.438 108.443C134.261 108.448 134.09 108.506 133.946 108.608C133.803 108.711 133.692 108.854 133.63 109.019C133.567 109.184 133.555 109.364 133.595 109.536C133.648 109.767 133.791 109.967 133.991 110.093C134.192 110.218 134.435 110.259 134.665 110.205Z" fill="#4BA1BC"/>
<path d="M138.351 109.336C138.519 109.297 138.672 109.209 138.79 109.084C138.908 108.958 138.986 108.8 139.015 108.63C139.043 108.46 139.021 108.286 138.95 108.129C138.879 107.971 138.764 107.839 138.617 107.747C138.471 107.656 138.301 107.61 138.129 107.615C137.957 107.62 137.79 107.677 137.649 107.777C137.509 107.877 137.402 108.016 137.341 108.177C137.279 108.339 137.267 108.514 137.306 108.682C137.358 108.907 137.497 109.103 137.693 109.225C137.889 109.348 138.126 109.388 138.351 109.336Z" fill="#4BA1BC"/>
<path d="M142.043 108.472C142.209 108.433 142.36 108.347 142.477 108.223C142.594 108.099 142.671 107.943 142.699 107.775C142.727 107.607 142.705 107.434 142.635 107.279C142.565 107.123 142.451 106.992 142.306 106.902C142.162 106.811 141.994 106.766 141.823 106.771C141.653 106.776 141.488 106.832 141.349 106.931C141.211 107.03 141.104 107.167 141.044 107.327C140.984 107.486 140.972 107.66 141.01 107.826C141.035 107.936 141.082 108.04 141.148 108.132C141.214 108.225 141.297 108.303 141.393 108.363C141.489 108.423 141.596 108.463 141.707 108.482C141.819 108.501 141.933 108.497 142.043 108.472Z" fill="#4BA1BC"/>
<path d="M145.723 107.59C145.883 107.553 146.028 107.47 146.14 107.35C146.253 107.23 146.327 107.08 146.354 106.919C146.381 106.757 146.36 106.591 146.292 106.441C146.225 106.292 146.114 106.165 145.975 106.078C145.836 105.992 145.674 105.948 145.511 105.953C145.347 105.958 145.188 106.011 145.054 106.107C144.921 106.202 144.818 106.335 144.76 106.488C144.702 106.641 144.691 106.809 144.728 106.968C144.752 107.075 144.797 107.175 144.861 107.264C144.924 107.352 145.004 107.428 145.097 107.486C145.189 107.543 145.292 107.582 145.399 107.6C145.507 107.618 145.617 107.615 145.723 107.59Z" fill="#4BA1BC"/>
<path d="M149.409 106.718C149.564 106.682 149.706 106.6 149.816 106.484C149.925 106.367 149.998 106.221 150.025 106.063C150.051 105.906 150.03 105.743 149.964 105.598C149.899 105.452 149.791 105.329 149.656 105.244C149.52 105.159 149.362 105.116 149.202 105.121C149.042 105.126 148.887 105.178 148.757 105.271C148.627 105.364 148.527 105.493 148.47 105.643C148.414 105.792 148.403 105.956 148.439 106.111C148.462 106.215 148.506 106.313 148.568 106.399C148.63 106.486 148.708 106.559 148.798 106.616C148.888 106.672 148.988 106.71 149.093 106.728C149.198 106.745 149.305 106.742 149.409 106.718Z" fill="#4BA1BC"/>
<path d="M153.092 105.837C153.242 105.802 153.378 105.724 153.484 105.612C153.589 105.5 153.659 105.359 153.684 105.208C153.71 105.056 153.69 104.9 153.627 104.76C153.563 104.62 153.46 104.501 153.33 104.42C153.199 104.338 153.048 104.297 152.894 104.302C152.74 104.306 152.591 104.357 152.466 104.446C152.341 104.535 152.245 104.66 152.19 104.803C152.136 104.947 152.125 105.104 152.16 105.254C152.183 105.353 152.225 105.447 152.284 105.531C152.343 105.614 152.419 105.684 152.505 105.739C152.592 105.793 152.688 105.829 152.789 105.846C152.89 105.863 152.993 105.86 153.092 105.837Z" fill="#4BA1BC"/>
<path d="M156.778 104.964C156.924 104.93 157.056 104.854 157.159 104.745C157.261 104.636 157.329 104.499 157.354 104.352C157.379 104.204 157.359 104.053 157.298 103.917C157.236 103.78 157.136 103.665 157.009 103.586C156.882 103.507 156.735 103.467 156.585 103.471C156.436 103.476 156.291 103.525 156.169 103.611C156.047 103.698 155.954 103.819 155.901 103.959C155.848 104.099 155.838 104.251 155.871 104.397C155.894 104.494 155.935 104.585 155.992 104.666C156.05 104.747 156.123 104.816 156.207 104.868C156.291 104.921 156.385 104.957 156.483 104.973C156.581 104.989 156.681 104.986 156.778 104.964Z" fill="#4BA1BC"/>
<path d="M118.956 117.93C119.169 117.881 119.362 117.77 119.511 117.611C119.661 117.452 119.76 117.253 119.796 117.037C119.832 116.822 119.803 116.601 119.714 116.402C119.624 116.203 119.478 116.036 119.293 115.92C119.108 115.804 118.893 115.746 118.675 115.753C118.457 115.759 118.245 115.83 118.068 115.957C117.89 116.084 117.754 116.26 117.677 116.464C117.599 116.668 117.584 116.89 117.633 117.103C117.699 117.388 117.875 117.635 118.123 117.79C118.371 117.945 118.671 117.996 118.956 117.93Z" fill="#4BA1BC"/>
<path d="M122.639 117.049C122.845 117.001 123.033 116.894 123.178 116.74C123.323 116.586 123.419 116.392 123.454 116.183C123.489 115.975 123.461 115.761 123.374 115.568C123.287 115.375 123.145 115.212 122.966 115.1C122.787 114.988 122.578 114.931 122.367 114.938C122.155 114.944 121.95 115.013 121.778 115.136C121.606 115.259 121.474 115.43 121.399 115.628C121.324 115.825 121.309 116.041 121.357 116.247C121.421 116.523 121.592 116.763 121.832 116.913C122.073 117.064 122.363 117.112 122.639 117.049Z" fill="#4BA1BC"/>
<path d="M126.325 116.177C126.528 116.13 126.712 116.025 126.854 115.873C126.996 115.722 127.091 115.532 127.125 115.327C127.159 115.122 127.132 114.912 127.047 114.722C126.962 114.533 126.822 114.373 126.646 114.263C126.47 114.153 126.265 114.097 126.057 114.104C125.85 114.11 125.649 114.178 125.48 114.298C125.31 114.419 125.181 114.587 125.107 114.781C125.034 114.975 125.019 115.187 125.066 115.39C125.128 115.661 125.296 115.896 125.533 116.044C125.769 116.192 126.054 116.239 126.325 116.177Z" fill="#4BA1BC"/>
<path d="M130.009 115.296C130.206 115.25 130.384 115.148 130.522 115.001C130.66 114.854 130.751 114.669 130.784 114.471C130.818 114.272 130.791 114.068 130.708 113.884C130.626 113.7 130.49 113.545 130.319 113.439C130.148 113.332 129.95 113.278 129.748 113.284C129.547 113.291 129.352 113.356 129.188 113.473C129.024 113.59 128.898 113.753 128.827 113.942C128.755 114.13 128.741 114.336 128.787 114.532C128.817 114.662 128.872 114.786 128.95 114.895C129.027 115.004 129.126 115.096 129.239 115.167C129.353 115.238 129.48 115.286 129.612 115.308C129.744 115.33 129.879 115.326 130.009 115.296Z" fill="#4BA1BC"/>
<path d="M133.696 114.423C133.888 114.379 134.063 114.278 134.198 114.135C134.333 113.991 134.423 113.81 134.455 113.616C134.488 113.421 134.462 113.221 134.381 113.041C134.3 112.862 134.168 112.71 134 112.605C133.833 112.501 133.639 112.448 133.441 112.454C133.244 112.46 133.053 112.524 132.893 112.639C132.732 112.753 132.609 112.913 132.539 113.097C132.469 113.282 132.455 113.483 132.5 113.675C132.559 113.933 132.718 114.157 132.943 114.297C133.167 114.437 133.438 114.482 133.696 114.423Z" fill="#4BA1BC"/>
<path d="M137.376 113.532C137.56 113.489 137.728 113.393 137.858 113.256C137.988 113.118 138.074 112.945 138.105 112.758C138.136 112.572 138.112 112.38 138.034 112.207C137.956 112.035 137.829 111.889 137.669 111.789C137.508 111.689 137.322 111.638 137.133 111.644C136.944 111.65 136.76 111.711 136.606 111.821C136.452 111.931 136.334 112.084 136.267 112.261C136.201 112.438 136.188 112.631 136.23 112.815C136.287 113.062 136.44 113.277 136.655 113.411C136.87 113.545 137.129 113.589 137.376 113.532Z" fill="#4BA1BC"/>
<path d="M141.062 112.66C141.243 112.618 141.406 112.524 141.533 112.389C141.659 112.254 141.743 112.085 141.774 111.903C141.804 111.72 141.78 111.533 141.704 111.364C141.628 111.196 141.504 111.054 141.347 110.956C141.19 110.858 141.008 110.809 140.823 110.814C140.638 110.82 140.459 110.88 140.309 110.988C140.158 111.095 140.043 111.245 139.977 111.417C139.912 111.59 139.899 111.779 139.941 111.959C139.968 112.079 140.019 112.192 140.09 112.292C140.162 112.392 140.252 112.477 140.356 112.542C140.46 112.607 140.576 112.651 140.698 112.671C140.819 112.691 140.943 112.687 141.062 112.66Z" fill="#4BA1BC"/>
<path d="M144.746 111.78C144.92 111.74 145.078 111.649 145.201 111.519C145.323 111.389 145.405 111.225 145.434 111.049C145.464 110.872 145.441 110.691 145.367 110.528C145.294 110.365 145.174 110.228 145.022 110.133C144.871 110.038 144.694 109.99 144.516 109.996C144.337 110.001 144.164 110.06 144.018 110.164C143.873 110.267 143.761 110.412 143.698 110.579C143.635 110.746 143.623 110.929 143.663 111.103C143.69 111.218 143.739 111.328 143.807 111.424C143.876 111.521 143.963 111.603 144.064 111.666C144.164 111.729 144.276 111.771 144.393 111.791C144.51 111.81 144.63 111.806 144.746 111.78Z" fill="#4BA1BC"/>
<path d="M148.431 110.907C148.601 110.867 148.756 110.778 148.875 110.651C148.995 110.524 149.074 110.364 149.102 110.192C149.131 110.02 149.108 109.844 149.036 109.684C148.965 109.525 148.847 109.391 148.7 109.299C148.552 109.206 148.38 109.16 148.205 109.165C148.031 109.171 147.862 109.228 147.72 109.329C147.578 109.43 147.469 109.571 147.407 109.734C147.345 109.898 147.333 110.075 147.373 110.245C147.399 110.358 147.447 110.465 147.514 110.559C147.581 110.654 147.667 110.734 147.765 110.795C147.863 110.857 147.973 110.898 148.087 110.917C148.201 110.936 148.318 110.933 148.431 110.907Z" fill="#4BA1BC"/>
<path d="M152.12 110.046C152.288 110.007 152.441 109.919 152.559 109.794C152.678 109.668 152.756 109.51 152.784 109.34C152.813 109.17 152.79 108.995 152.719 108.838C152.649 108.68 152.533 108.547 152.386 108.456C152.24 108.365 152.07 108.319 151.897 108.324C151.725 108.329 151.558 108.386 151.417 108.486C151.277 108.586 151.169 108.726 151.108 108.887C151.047 109.049 151.035 109.225 151.074 109.393C151.1 109.504 151.148 109.61 151.214 109.703C151.281 109.796 151.365 109.875 151.462 109.936C151.559 109.997 151.667 110.038 151.78 110.056C151.893 110.075 152.009 110.072 152.12 110.046Z" fill="#4BA1BC"/>
<path d="M155.803 109.162C155.964 109.125 156.112 109.041 156.226 108.92C156.339 108.799 156.415 108.646 156.442 108.483C156.47 108.319 156.448 108.15 156.38 107.999C156.312 107.847 156.2 107.719 156.059 107.631C155.918 107.543 155.754 107.499 155.588 107.504C155.422 107.509 155.261 107.563 155.126 107.66C154.991 107.756 154.887 107.891 154.828 108.046C154.769 108.201 154.758 108.371 154.795 108.533C154.845 108.75 154.979 108.938 155.168 109.056C155.357 109.174 155.585 109.212 155.803 109.162Z" fill="#4BA1BC"/>
<path d="M126.715 154.591L119.68 142.084C112.176 148.337 101.441 150.943 97.012 151.464L104.047 167.097C115.928 166.472 124.11 158.499 126.715 154.591Z" fill="white" fill-opacity="0.32" stroke="#1D1D1B"/>
<path d="M43.8583 169.883C49.3306 167.538 61.5239 166.287 57.1466 176.918C51.6749 190.206 41.5133 181.608 48.5483 176.918C55.5833 172.228 61.0549 173.01 62.6182 179.263C64.1815 185.516 57.9282 201.149 51.6749 198.023C45.4216 194.896 46.985 179.263 65.7449 181.608C84.5047 183.953 64.9632 208.966 57.1466 205.839C56.3649 205.318 55.2706 204.12 57.1466 203.494C59.4916 202.713 68.8715 200.368 70.4348 189.424C71.9982 178.481 51.6749 183.171 50.8933 191.769C50.1116 200.368 59.4916 194.114 60.2732 186.298C61.0549 178.481 59.4916 174.573 53.2383 176.136C46.985 177.7 48.5489 183.171 51.6756 180.826C54.8022 178.481 59.4916 167.538 46.2033 170.665C43.8583 171.186 40.1063 171.759 43.8583 169.883Z" stroke="#1D1D1B" stroke-width="1.3"/>
<path fill-rule="evenodd" clip-rule="evenodd" d="M57.9891 174.054C59.1336 166.551 48.7789 167.774 43.8583 169.883C40.1063 171.759 43.8583 171.186 46.2033 170.665C53.1274 169.035 55.1704 171.226 55.0966 174.03C53.1567 174.359 50.9431 175.321 48.5483 176.918C41.5133 181.608 51.6749 190.206 57.1466 176.918C57.2645 176.632 57.3703 176.354 57.4646 176.085C59.29 176.759 60.1824 178.598 60.4033 181.428C46.7432 182.402 46.0769 195.224 51.6749 198.023C56.8715 200.621 62.068 190.264 62.7788 183.101C67.2695 182.677 71.1514 184.408 70.4348 189.424C68.9604 199.746 60.5329 202.418 57.612 203.345C57.436 203.4 57.2799 203.45 57.1466 203.494C55.2706 204.12 56.3649 205.318 57.1466 205.839C64.9632 208.966 84.5047 183.953 65.7449 181.608C64.7339 181.481 63.7729 181.407 62.8604 181.381C62.8519 180.6 62.7738 179.885 62.6182 179.263C61.8748 176.289 60.2478 174.553 57.9891 174.054ZM51.6759 180.826C48.5492 183.171 46.9853 177.699 53.2386 176.136C53.7943 175.997 54.313 175.901 54.7962 175.848C54.2001 177.919 52.8313 179.959 51.6759 180.826ZM60.2727 186.298C59.4911 194.114 50.1111 200.368 50.8928 191.769C51.2505 187.835 55.7006 184.718 60.2727 183.544V186.298Z" fill="#9277AA"/>
<path d="M237.064 191.04C240.766 195.092 234.898 205.504 231.679 207.435C228.553 209.311 226.989 205.872 228.553 201.963C231.236 195.254 234.286 192.1 237.064 191.04ZM237.064 191.04C236.27 190.171 235.036 189.595 233.243 189.457C223.081 188.675 218.391 194.928 219.954 203.527C221.078 209.71 221.778 212.386 222.299 212.907C222.299 213.689 221.987 214.939 220.736 213.689C216.828 205.351 213.076 188.363 229.335 187.112C249.658 185.549 235.932 208.547 230.898 210.562C226.989 212.126 223.081 205.09 227.771 198.055C232.461 191.02 237.151 187.893 241.841 189.457C246.531 191.02 250.439 198.837 245.749 201.964C241.059 205.09 234.806 192.584 247.312 190.239C259.819 187.894 256.692 199.619 255.129 199.619C253.878 199.619 254.087 198.055 254.347 197.273C255.129 195.449 255.285 191.802 249.657 191.802C247.366 191.802 245.655 192.382 244.416 193.219M237.064 191.04C240.131 189.87 242.867 191.252 244.416 193.219M244.416 193.219C245.223 194.244 245.707 195.427 245.749 196.492C245.943 201.451 242.622 200.4 241.841 198.837C241.314 197.783 241.853 194.952 244.416 193.219Z" stroke="#1D1D1B" stroke-width="1.3"/>
<path fill-rule="evenodd" clip-rule="evenodd" d="M229.335 187.112C213.076 188.363 216.828 205.351 220.736 213.689C221.987 214.94 222.299 213.689 222.299 212.907C221.778 212.386 221.078 209.71 219.954 203.527C218.391 194.928 223.081 188.675 233.243 189.457C234.209 189.531 235.013 189.733 235.673 190.039C233.039 191.386 230.405 194.104 227.771 198.055C223.081 205.09 226.989 212.126 230.898 210.562C234.516 209.114 242.073 197.273 239.354 190.61C240.72 190.617 241.959 191.098 242.975 191.833C237.5 196.5 241.743 204.634 245.749 201.964C248.952 199.828 248.145 195.505 245.816 192.48C246.86 192.06 248.13 191.802 249.657 191.802C255.285 191.802 255.129 195.45 254.347 197.273C254.087 198.055 253.878 199.619 255.129 199.619C256.692 199.619 259.819 187.894 247.312 190.239C246.238 190.44 245.302 190.717 244.492 191.052C243.681 190.329 242.776 189.769 241.841 189.457C240.647 189.059 239.453 188.965 238.259 189.162C236.629 187.613 233.806 186.768 229.335 187.112ZM228.552 201.963C226.989 205.872 228.552 209.311 231.679 207.435C234.897 205.504 240.766 195.092 237.063 191.04C234.285 192.1 231.236 195.254 228.552 201.963ZM241.84 198.837C242.622 200.4 245.943 201.451 245.749 196.492C245.707 195.428 245.222 194.244 244.416 193.22C241.852 194.952 241.313 197.783 241.84 198.837Z" fill="#9277AA"/>
<path d="M78.2232 123.72C68.843 121.375 68.0613 119.03 66.498 111.995C65.7163 119.03 60.2447 123.72 53.2097 123.72C61.0263 126.065 65.8469 133.882 66.4983 137.79C66.498 133.882 74.0543 126.847 78.2232 123.72Z" fill="#6AB5D2" stroke="#1D1D1B"/>
<path d="M243.935 55.7168C244.195 57.8012 245.967 62.1264 250.97 62.7518C248.53 63.4837 243.942 65.7236 243.882 69.0864C243.918 69.3428 243.935 69.5787 243.935 69.7867C243.895 69.5482 243.878 69.3147 243.882 69.0864C243.601 67.0946 242.114 63.8598 237.682 62.7518C239.766 61.9701 243.935 59.4688 243.935 55.7168Z" fill="#6AB5D2" stroke="#1D1D1B"/>
<path d="M293.181 86.9826C287.708 85.4193 287.708 85.4193 285.363 79.166C283.018 84.6377 279.11 86.201 276.765 86.9826C282.237 86.9826 284.321 91.6726 284.582 94.7993C285.832 89.7966 290.835 87.5037 293.181 86.9826Z" fill="#6AB5D2" stroke="#1D1D1B"/>
<path d="M161.108 77.9867L184 36L184.782 36.7817L162.671 79.55L161.108 77.9867Z" fill="white" fill-opacity="0.4" stroke="#1D1D1B"/>
<path d="M153.292 77.2062L162.671 28.7432L164.235 29.5248L155.636 76.4245L153.292 77.2062Z" fill="white" fill-opacity="0.4" stroke="#1D1D1B"/>
<path d="M147.038 78.7698L140.003 31.8701L138.44 32.6518L145.475 79.5515L147.038 78.7698Z" fill="white" fill-opacity="0.4" stroke="#1D1D1B"/>
<path d="M137.658 81.1145L111.082 43.5947L109.518 44.3764L136.095 81.8962L137.658 81.1145Z" fill="white" fill-opacity="0.4" stroke="#1D1D1B"/>
<path d="M126.715 84.2409L85.7817 57.9365L85.5 59L85 59.5L125.152 85.0226L126.715 84.2409Z" fill="white" fill-opacity="0.4" stroke="#1D1D1B"/>
<path d="M111.082 89.712L76 78.9993V77.8268V76.6543L111.863 88.9303L111.082 89.712Z" fill="white" fill-opacity="0.4" stroke="#1D1D1B"/>
<path d="M111.864 4.51152C150.165 -9.21969 177.784 20.6659 184.558 36.5597C178.304 25.929 168.404 26.9192 164.235 28.7432C143.6 5.60618 120.723 2.94832 111.864 4.51152Z" fill="#F2EE98" stroke="#1D1D1B"/>
<path d="M164.235 28.7443C152.979 24.367 142.87 29.5259 139.222 32.6526C137.972 16.3942 120.462 7.11829 111.864 4.51262C120.723 2.94943 143.6 5.60728 164.235 28.7443Z" fill="#D16C8C" stroke="#1D1D1B"/>
<path d="M139.222 32.6507C121.087 30.7747 112.385 39.6857 110.3 44.3756C99.6698 30.6186 106.913 12.0669 111.863 4.51074C120.462 7.11641 137.971 16.3923 139.222 32.6507Z" fill="#F2EE98" stroke="#1D1D1B"/>
<path d="M110.301 44.3756C93.4171 42.4997 86.5905 52.9739 85.2878 58.4456C75.2828 27.1793 98.8365 9.4614 111.864 4.51074C106.914 12.0669 99.6706 30.6186 110.301 44.3756Z" fill="#D16C8C" stroke="#1D1D1B"/>
<path d="M75.9068 79.5504C70.4352 59.7483 70.4353 19.3628 111.863 4.51074C98.8358 9.46139 75.2821 27.1793 85.2871 58.4456C75.9072 62.8229 75.1253 74.3393 75.9068 79.5504Z" fill="#F2EE98" stroke="#1D1D1B"/>
<path d="M111.863 4.51152C150.165 -9.21968 177.783 20.6659 184.558 36.5597C178.304 25.9289 168.404 26.9192 164.235 28.7432C152.979 24.3659 142.87 29.5248 139.222 32.6515C121.087 30.7755 112.385 39.6864 110.3 44.3764C93.4164 42.5004 86.5899 52.9747 85.2871 58.4463C75.9072 62.8236 75.1253 74.3401 75.9068 79.5512C70.4352 59.749 70.4353 19.3636 111.863 4.51152Z" stroke="#1D1D1B"/>
<path d="M176.741 95.1843L160.326 77.2061L158.763 110.818L116.553 120.197V123.324L157.2 113.163L170.488 117.852L173.615 125.669L159.545 123.324L157.981 114.726L152.51 124.106L111.863 132.704L109.518 134.267L111.863 135.049L134.531 130.359L140.003 131.922L157.2 123.324L157.981 125.669L175.96 128.014L172.051 117.852L176.741 95.1843Z" fill="#725990" stroke="#1D1D1B"/>
<path d="M213.48 106.128C203.474 118.009 188.466 117.071 182.213 113.945C182.213 114.726 185.34 124.106 186.903 128.796C203.787 141.303 219.993 128.275 225.986 120.198L213.48 106.128Z" fill="white" fill-opacity="0.32"/>
<path d="M186.903 128.796C186.676 128.116 186.417 127.337 186.139 126.5C185.875 125.707 185.595 124.862 185.31 124C183.823 119.494 182.213 114.505 182.213 113.945C187.872 116.774 200.698 117.811 210.5 109.18C211.531 108.273 212.528 107.258 213.48 106.128L214.699 107.5M222.699 116.5L224.343 118.349L225.986 120.198C223.43 123.644 219.014 127.991 213.48 130.872M190.098 130.872C194.913 133.571 199.623 134.322 204 133.848C205.019 133.738 206.02 133.561 207 133.327" stroke="#1D1D1B"/>
<path d="M199.527 105.668C193.861 108.326 189.39 108.189 186.893 107.515C185.884 107.242 184.397 107.29 184.719 108.284C184.843 108.667 185.112 109.026 185.34 109.254C190.03 113.944 200.973 108.472 201.755 106.909C202.208 106.002 201.594 105.589 200.923 105.43C200.451 105.318 199.966 105.462 199.527 105.668Z" fill="#D16C8C" stroke="#1D1D1B"/>
<path d="M191.437 99.9339C198.372 100.116 202.061 98.4476 203.753 96.8534C204.631 96.0252 206.176 95.2452 206.412 96.4296C206.468 96.7149 206.402 96.8917 206.29 97.1602C203.541 103.751 190.014 102.985 189.248 102.219C188.935 101.906 189 101.449 189.209 101.006C189.59 100.198 190.544 99.9104 191.437 99.9339Z" fill="#D16C8C" stroke="#1D1D1B"/>
<path d="M195.472 238.625C195.472 266.254 173.075 288.651 145.446 288.651C117.817 288.651 95.4197 266.254 95.4197 238.625C95.4197 210.996 117.817 188.599 145.446 188.599C173.075 188.599 195.472 210.996 195.472 238.625ZM107.714 238.625C107.714 259.464 124.607 276.357 145.446 276.357C166.285 276.357 183.178 259.464 183.178 238.625C183.178 217.786 166.285 200.893 145.446 200.893C124.607 200.893 107.714 217.786 107.714 238.625Z" fill="#BC466D" fill-opacity="0.55"/>
<mask id="path-67-inside-1_4808_101002" fill="white">
<path d="M195.472 238.625C195.472 266.254 173.075 288.651 145.446 288.651C117.817 288.651 95.4197 266.254 95.4197 238.625C95.4197 210.996 117.817 188.599 145.446 188.599C173.075 188.599 195.472 210.996 195.472 238.625ZM107.714 238.625C107.714 259.464 124.607 276.357 145.446 276.357C166.285 276.357 183.178 259.464 183.178 238.625C183.178 217.786 166.285 200.893 145.446 200.893C124.607 200.893 107.714 217.786 107.714 238.625Z"/>
</mask>
<path d="M195.472 238.625C195.472 266.254 173.075 288.651 145.446 288.651C117.817 288.651 95.4197 266.254 95.4197 238.625C95.4197 210.996 117.817 188.599 145.446 188.599C173.075 188.599 195.472 210.996 195.472 238.625ZM107.714 238.625C107.714 259.464 124.607 276.357 145.446 276.357C166.285 276.357 183.178 259.464 183.178 238.625C183.178 217.786 166.285 200.893 145.446 200.893C124.607 200.893 107.714 217.786 107.714 238.625Z" stroke="#252525" stroke-width="2.6" mask="url(#path-67-inside-1_4808_101002)"/>
<path d="M144.697 248.976L136.701 220.522L134.899 220.948C133.539 221.269 132.745 222.683 133.178 224.011L140.902 247.679C141.303 248.907 142.608 249.593 143.847 249.227L144.697 248.976Z" fill="#1D1D1B" stroke="#1D1D1B" stroke-width="0.795546"/>
<path d="M136.701 220.521L150.546 218.323C151.98 218.095 153.283 219.189 153.307 220.641L153.709 245.064C153.727 246.203 152.939 247.196 151.826 247.436L144.697 248.975L136.701 220.521Z" fill="white" stroke="#1D1D1B" stroke-width="0.795546"/>
<path d="M144.97 254.925C145.153 254.316 145.614 253.994 145.652 253.867L143.429 254.283C143.188 254.329 142.948 254.404 142.768 254.57C142.486 254.828 142.175 255.267 142.119 255.879C142.103 256.053 142.133 256.226 142.175 256.395L143.177 260.353C143.225 260.543 143.291 260.729 143.411 260.883C143.663 261.205 144.108 261.573 144.658 261.478L147.783 260.757C147.401 260.823 147.047 260.741 146.769 260.62C146.405 260.462 146.194 260.102 146.074 259.724C145.551 258.071 144.807 255.466 144.97 254.925Z" fill="#1D1D1B" stroke="#1D1D1B" stroke-width="0.795546"/>
<path d="M146.002 253.771L153.019 252.457C153.141 252.434 153.265 252.417 153.389 252.428C154.274 252.507 154.747 253.33 154.877 253.758L155.635 258.14C155.756 258.841 154.872 259.295 154.414 259.434L147.784 260.761C147.401 260.827 147.047 260.745 146.769 260.624C146.405 260.465 146.194 260.106 146.075 259.727C145.551 258.074 144.807 255.47 144.97 254.929C145.145 254.348 145.405 253.883 146.002 253.771Z" fill="white" stroke="#1D1D1B" stroke-width="0.795546"/>
<path d="M281.008 336.18C281.008 340.145 218.326 343.359 141.004 343.359C63.6819 343.359 1 340.145 1 336.18C1 333.158 37.4051 330.572 88.9512 329.513C105.042 329.182 122.609 329 141.004 329C175.577 329 207.223 329.643 231.647 330.708C261.848 332.025 281.008 333.987 281.008 336.18Z" fill="white" fill-opacity="0.16"/>
<path d="M141.004 343.358C218.326 343.358 281.008 340.144 281.008 336.179C281.008 333.987 261.848 332.024 231.647 330.707C208.313 330.163 161.646 329.896 157.158 336.179C152.671 342.461 110.191 334.101 88.9512 329.512C37.4051 330.571 1 333.157 1 336.179C1 340.144 63.6819 343.358 141.004 343.358Z" fill="white" fill-opacity="0.24"/>
<path d="M141.004 343.358C101.571 343.358 65.9455 342.522 40.5 341.177C16.0509 339.885 1 338.122 1 336.179C1 334.132 17.7028 332.285 44.5 330.977C57.2647 330.354 72.3198 329.854 88.9512 329.512C110.191 334.101 152.671 342.461 157.158 336.179C159.435 332.992 172.566 331.49 188 330.855" stroke="#1D1D1B" stroke-opacity="0.12" stroke-width="0.3"/>
</svg>
