                    <svg
                      width="22"
                      height="22"
                      viewBox="0 0 32 32"
                      fill="none"
                      xmlns="http://www.w3.org/2000/svg"
                    >
                      <path
                        d="M25.9518 9.13763H21.2249C21.5292 8.70809 21.6702 8.18396 21.6222 7.65968C21.5744 7.13548 21.3409 6.64557 20.9637 6.27826C20.5865 5.91095 20.0906 5.69039 19.5653 5.6563C19.0399 5.62222 18.5196 5.77685 18.0982 6.09235L15.2295 8.23933L13.4943 6.21632C13.3054 5.9961 13.075 5.81524 12.8163 5.68406C12.5575 5.55287 12.2754 5.47395 11.9861 5.45178C11.6969 5.4296 11.406 5.46461 11.1303 5.55482C10.8545 5.64502 10.5993 5.78865 10.379 5.97751C10.1588 6.16636 9.97788 6.39673 9.84675 6.65548C9.71555 6.91423 9.6366 7.19628 9.61442 7.48554C9.59224 7.77481 9.62722 8.06556 9.71749 8.34128C9.80768 8.617 9.95131 8.87226 10.1402 9.09246L10.179 9.13808H4.95154C4.72404 9.13808 4.50586 9.22842 4.34499 9.38924C4.18412 9.55014 4.09375 9.76826 4.09375 9.99575V13.3382C4.09387 13.5657 4.18435 13.7838 4.34528 13.9447C4.50622 14.1055 4.72446 14.1959 4.95199 14.1959H5.58554V27.5035C5.58554 27.8215 5.71188 28.1264 5.93676 28.3513C6.16165 28.5761 6.46666 28.7025 6.7847 28.7025H24.1209C24.4385 28.7025 24.7431 28.5764 24.9676 28.3519C25.1922 28.1273 25.3183 27.8228 25.3183 27.5053V14.1977H25.9518C26.1793 14.1977 26.3976 14.1073 26.5586 13.9465C26.7195 13.7857 26.81 13.5675 26.8101 13.34V9.99762C26.8103 9.88472 26.7883 9.77295 26.7453 9.66861C26.7023 9.56428 26.6391 9.46947 26.5593 9.38962C26.4796 9.30969 26.3849 9.24636 26.2807 9.20312C26.1764 9.15988 26.0647 9.13763 25.9518 9.13763Z"
                        fill="black"
                      />
                      <path
                        d="M13.0104 3.44793L10.067 5.97229C9.95364 6.06947 9.94062 6.24009 10.0378 6.35338L15.208 12.3808C15.3052 12.4941 15.4759 12.5071 15.5892 12.41L18.5326 9.88566C18.646 9.78847 18.659 9.61783 18.5618 9.50457L13.3915 3.47713C13.2944 3.36383 13.1237 3.35076 13.0104 3.44793Z"
                        fill="#E687A3"
                        stroke="black"
                        stroke-width="1.5"
                        stroke-miterlimit="10"
                      />
                      <path
                        d="M23.5121 6.82991L21.1887 3.72553C21.0993 3.60603 20.9299 3.58165 20.8104 3.67109L14.4521 8.42893C14.3326 8.51838 14.3082 8.68776 14.3977 8.8072L16.7211 11.9116C16.8105 12.0311 16.9799 12.0555 17.0994 11.966L23.4577 7.20821C23.5772 7.11878 23.6016 6.94941 23.5121 6.82991Z"
                        fill="#E687A3"
                        stroke="black"
                        stroke-width="1.5"
                        stroke-miterlimit="10"
                      />
                      <path
                        d="M26.4765 11.2348V26.2433C26.4765 26.5607 26.3504 26.8653 26.1259 27.0898C25.9013 27.3143 25.5968 27.4404 25.2792 27.4404H7.94528C7.62721 27.4404 7.32221 27.3142 7.09732 27.0893C6.87243 26.8644 6.74609 26.5594 6.74609 26.2414V11.233C6.74609 10.6946 6.95997 10.1784 7.34068 9.79766C7.72142 9.417 8.23774 9.20312 8.77616 9.20312H24.4447C24.9836 9.20312 25.5004 9.41723 25.8814 9.79818C26.2625 10.1792 26.4765 10.696 26.4765 11.2348Z"
                        fill="#F2EE98"
                        stroke="black"
                        stroke-width="1.5"
                        stroke-miterlimit="10"
                      />
                      <path
                        d="M27.1081 7.875H6.10824C5.63425 7.875 5.25 8.25922 5.25 8.7332V12.0747C5.25 12.5486 5.63425 12.9329 6.10824 12.9329H27.1081C27.5821 12.9329 27.9663 12.5486 27.9663 12.0747V8.7332C27.9663 8.25922 27.5821 7.875 27.1081 7.875Z"
                        fill="#F2EE98"
                        stroke="black"
                        stroke-width="1.5"
                        stroke-miterlimit="10"
                      />
                      <path
                        d="M18.2929 7.875H14.9219V27.4395H18.2929V7.875Z"
                        fill="#E687A3"
                        stroke="black"
                        stroke-width="1.5"
                        stroke-miterlimit="10"
                      />
                    </svg>