                      <svg
                        width="15"
                        height="14"
                        viewBox="0 0 17 16"
                        fill="none"
                        xmlns="http://www.w3.org/2000/svg"
                      >
                        <path
                          d="M11.832 5.9987C11.832 5.11464 11.4808 4.2668 10.8557 3.64168C10.2306 3.01655 9.38275 2.66536 8.4987 2.66536C7.61464 2.66536 6.7668 3.01655 6.14168 3.64168C5.51655 4.2668 5.16536 5.11464 5.16536 5.9987C5.16536 7.14936 6.27203 9.3527 8.4987 12.434C10.7254 9.3527 11.832 7.14936 11.832 5.9987ZM8.4987 14.6654C5.38736 10.6054 3.83203 7.7167 3.83203 5.9987C3.83203 4.76102 4.3237 3.57404 5.19887 2.69887C6.07404 1.8237 7.26102 1.33203 8.4987 1.33203C9.73637 1.33203 10.9234 1.8237 11.7985 2.69887C12.6737 3.57404 13.1654 4.76102 13.1654 5.9987C13.1654 7.7167 11.61 10.6054 8.4987 14.6654ZM8.4987 8.66536C7.79145 8.66536 7.11318 8.38441 6.61308 7.88432C6.11298 7.38422 5.83203 6.70594 5.83203 5.9987C5.83203 5.29145 6.11298 4.61318 6.61308 4.11308C7.11318 3.61298 7.79145 3.33203 8.4987 3.33203C9.20594 3.33203 9.88422 3.61298 10.3843 4.11308C10.8844 4.61318 11.1654 5.29145 11.1654 5.9987C11.1654 6.70594 10.8844 7.38422 10.3843 7.88432C9.88422 8.38441 9.20594 8.66536 8.4987 8.66536ZM8.4987 7.33203C8.85232 7.33203 9.19146 7.19156 9.44151 6.94151C9.69156 6.69146 9.83203 6.35232 9.83203 5.9987C9.83203 5.64508 9.69156 5.30594 9.44151 5.05589C9.19146 4.80584 8.85232 4.66536 8.4987 4.66536C8.14508 4.66536 7.80594 4.80584 7.55589 5.05589C7.30584 5.30594 7.16536 5.64508 7.16536 5.9987C7.16536 6.35232 7.30584 6.69146 7.55589 6.94151C7.80594 7.19156 8.14508 7.33203 8.4987 7.33203Z"
                          fill="white"
                        />
                      </svg>