<svg width="20" height="20" viewBox="0 0 20 20" fill="none" xmlns="http://www.w3.org/2000/svg">
<path d="M14.1641 7.50033C14.1641 6.39526 13.7251 5.33545 12.9437 4.55405C12.1623 3.77265 11.1025 3.33366 9.9974 3.33366C8.89233 3.33366 7.83252 3.77265 7.05112 4.55405C6.26972 5.33545 5.83073 6.39526 5.83073 7.50033C5.83073 8.93866 7.21406 11.6928 9.9974 15.5445C12.7807 11.6928 14.1641 8.93866 14.1641 7.50033ZM9.9974 18.3337C6.10823 13.2587 4.16406 9.64783 4.16406 7.50033C4.16406 5.95323 4.77864 4.4695 5.87261 3.37554C6.96657 2.28157 8.4503 1.66699 9.9974 1.66699C11.5445 1.66699 13.0282 2.28157 14.1222 3.37554C15.2161 4.4695 15.8307 5.95323 15.8307 7.50033C15.8307 9.64783 13.8866 13.2587 9.9974 18.3337ZM9.9974 10.8337C9.11334 10.8337 8.26549 10.4825 7.64037 9.85735C7.01525 9.23223 6.66406 8.38438 6.66406 7.50033C6.66406 6.61627 7.01525 5.76842 7.64037 5.1433C8.26549 4.51818 9.11334 4.16699 9.9974 4.16699C10.8815 4.16699 11.7293 4.51818 12.3544 5.1433C12.9795 5.76842 13.3307 6.61627 13.3307 7.50033C13.3307 8.38438 12.9795 9.23223 12.3544 9.85735C11.7293 10.4825 10.8815 10.8337 9.9974 10.8337ZM9.9974 9.16699C10.4394 9.16699 10.8633 8.9914 11.1759 8.67884C11.4885 8.36628 11.6641 7.94235 11.6641 7.50033C11.6641 7.0583 11.4885 6.63437 11.1759 6.32181C10.8633 6.00925 10.4394 5.83366 9.9974 5.83366C9.55537 5.83366 9.13145 6.00925 8.81888 6.32181C8.50632 6.63437 8.33073 7.0583 8.33073 7.50033C8.33073 7.94235 8.50632 8.36628 8.81888 8.67884C9.13145 8.9914 9.55537 9.16699 9.9974 9.16699Z" fill="#252525"/>
</svg>
