<svg width="12" height="17" viewBox="0 0 12 17" fill="none" xmlns="http://www.w3.org/2000/svg">
<path d="M10.166 6.0013C10.166 4.89623 9.72703 3.83643 8.94563 3.05502C8.16423 2.27362 7.10442 1.83464 5.99935 1.83464C4.89428 1.83464 3.83447 2.27362 3.05307 3.05502C2.27167 3.83643 1.83268 4.89623 1.83268 6.0013C1.83268 7.43964 3.21602 10.1938 5.99935 14.0455C8.78268 10.1938 10.166 7.43964 10.166 6.0013ZM5.99935 16.8346C2.11018 11.7596 0.166016 8.1488 0.166016 6.0013C0.166016 4.45421 0.780597 2.97047 1.87456 1.87651C2.96852 0.78255 4.45225 0.167969 5.99935 0.167969C7.54645 0.167969 9.03018 0.78255 10.1241 1.87651C11.2181 2.97047 11.8327 4.45421 11.8327 6.0013C11.8327 8.1488 9.88852 11.7596 5.99935 16.8346ZM5.99935 9.33463C5.11529 9.33463 4.26745 8.98345 3.64233 8.35833C3.0172 7.7332 2.66602 6.88536 2.66602 6.0013C2.66602 5.11725 3.0172 4.2694 3.64233 3.64428C4.26745 3.01916 5.11529 2.66797 5.99935 2.66797C6.8834 2.66797 7.73125 3.01916 8.35637 3.64428C8.98149 4.2694 9.33268 5.11725 9.33268 6.0013C9.33268 6.88536 8.98149 7.7332 8.35637 8.35833C7.73125 8.98345 6.8834 9.33463 5.99935 9.33463ZM5.99935 7.66797C6.44138 7.66797 6.8653 7.49237 7.17786 7.17981C7.49042 6.86725 7.66602 6.44333 7.66602 6.0013C7.66602 5.55927 7.49042 5.13535 7.17786 4.82279C6.8653 4.51023 6.44138 4.33464 5.99935 4.33464C5.55732 4.33464 5.1334 4.51023 4.82084 4.82279C4.50828 5.13535 4.33268 5.55927 4.33268 6.0013C4.33268 6.44333 4.50828 6.86725 4.82084 7.17981C5.1334 7.49237 5.55732 7.66797 5.99935 7.66797Z" fill="#E5E5E5"/>
</svg>
