<svg width="21" height="20" viewBox="0 0 21 20" fill="none" xmlns="http://www.w3.org/2000/svg">
<path d="M14.666 7.5013C14.666 6.39623 14.227 5.33643 13.4456 4.55502C12.6642 3.77362 11.6044 3.33464 10.4993 3.33464C9.39428 3.33464 8.33447 3.77362 7.55307 4.55502C6.77167 5.33643 6.33268 6.39623 6.33268 7.5013C6.33268 8.93964 7.71602 11.6938 10.4993 15.5455C13.2827 11.6938 14.666 8.93964 14.666 7.5013ZM10.4993 18.3346C6.61018 13.2596 4.66602 9.6488 4.66602 7.5013C4.66602 5.95421 5.2806 4.47047 6.37456 3.37651C7.46852 2.28255 8.95225 1.66797 10.4993 1.66797C12.0464 1.66797 13.5302 2.28255 14.6241 3.37651C15.7181 4.47047 16.3327 5.95421 16.3327 7.5013C16.3327 9.6488 14.3885 13.2596 10.4993 18.3346ZM10.4993 10.8346C9.61529 10.8346 8.76745 10.4834 8.14233 9.85833C7.5172 9.2332 7.16602 8.38536 7.16602 7.5013C7.16602 6.61725 7.5172 5.7694 8.14233 5.14428C8.76745 4.51916 9.61529 4.16797 10.4993 4.16797C11.3834 4.16797 12.2313 4.51916 12.8564 5.14428C13.4815 5.7694 13.8327 6.61725 13.8327 7.5013C13.8327 8.38536 13.4815 9.2332 12.8564 9.85833C12.2313 10.4834 11.3834 10.8346 10.4993 10.8346ZM10.4993 9.16797C10.9414 9.16797 11.3653 8.99237 11.6779 8.67981C11.9904 8.36725 12.166 7.94333 12.166 7.5013C12.166 7.05927 11.9904 6.63535 11.6779 6.32279C11.3653 6.01023 10.9414 5.83464 10.4993 5.83464C10.0573 5.83464 9.6334 6.01023 9.32084 6.32279C9.00828 6.63535 8.83268 7.05927 8.83268 7.5013C8.83268 7.94333 9.00828 8.36725 9.32084 8.67981C9.6334 8.99237 10.0573 9.16797 10.4993 9.16797Z" fill="white"/>
</svg>
