<svg width="2880" height="2309" viewBox="0 0 2880 2309" fill="none" xmlns="http://www.w3.org/2000/svg">
<path d="M505.47 650.98L387.95 315.2L886.02 522.26L1143.45 13L1496.02 567.03L1781.43 225.66L1898.96 555.84L2385.84 236.85L2363.45 701.35L2665.65 846.85L2464.19 1070.7L2867.12 1255.38L2452.99 1529.6L2710.42 1842.99L2212.35 1803.82L2083.63 2195.56L1809.42 1742.26L1551.98 2296.29L1249.78 1703.08L1003.55 2111.62L880.43 1764.65L404.74 2161.98L438.32 1546.39L13 1423.27L399.14 1137.86L119.33 818.87L505.47 650.98Z" fill="#EFD378"/>
<path d="M505.47 650.98L387.95 315.2L886.02 522.26L1143.45 13L1496.02 567.03L1781.43 225.66L1898.96 555.84L2385.84 236.85L2363.45 701.35L2665.65 846.85L2464.19 1070.7L2867.12 1255.38L2452.99 1529.6L2710.42 1842.99L2212.35 1803.82L2083.63 2195.56L1809.42 1742.26L1551.98 2296.29L1249.78 1703.08L1003.55 2111.62L880.43 1764.65L404.74 2161.98L438.32 1546.39L13 1423.27L399.14 1137.86L119.33 818.87L505.47 650.98Z" stroke="#1D1D1B" stroke-width="25" stroke-linecap="round" stroke-linejoin="round"/>
<path d="M803.881 808.66L882.451 956L909.451 1100.88L1029.78 1093.51C1029.78 1093.51 1039.6 904.43 1042.05 894.61C1044.5 884.79 1059.24 796.38 1078.89 786.61C1098.54 776.84 1209.04 774.33 1221.31 776.79C1225.52 777.63 1245.54 768.64 1254.47 773.45C1271.61 782.7 1281.65 807.08 1297.47 798.89C1321.47 786.43 1335.16 752.67 1413.74 747.76C1429.37 746.76 1445.87 738.64 1460.33 736.76C1518.59 729.14 1572.44 736.02 1611.79 749.76C1660.9 766.95 1692.79 774.31 1722.29 791.5C1751.79 808.69 1801.29 856.16 1801.29 856.16C1845.2 803.36 1852.46 816.06 1886.84 793.96C1921.22 771.86 1879.45 762.01 1960.45 762.01C2041.45 762.01 2118.56 757.2 2145.57 762.11C2172.58 767.02 2255.13 789.02 2279.68 813.57C2304.23 838.12 2341.07 884.79 2345.98 916.71C2350.89 948.63 2377.91 1010.02 2345.98 1049.31C2314.05 1088.6 2282.14 1135.31 2282.14 1135.31C2282.14 1135.31 2299.33 1177.05 2316.52 1204.07C2333.71 1231.09 2350.9 1201.61 2350.9 1282.64C2350.9 1363.67 2353.35 1395.64 2333.71 1439.8C2314.07 1483.96 2311.61 1518.38 2274.77 1540.48C2237.93 1562.58 2166.72 1577.32 2100.42 1574.86C2034.12 1572.4 1982.55 1584.68 1921.16 1560.13C1859.77 1535.58 1818.68 1498.25 1796.58 1498.25C1774.48 1498.25 1764 1528.25 1685.42 1547.85C1606.84 1567.45 1540.57 1587.95 1437.42 1560.94C1334.27 1533.93 1363.55 1532.14 1334.08 1532.14C1304.61 1532.14 1314.15 1547.9 1252.76 1562.63C1191.37 1577.36 1135.36 1577.32 1105.89 1555.22C1076.42 1533.12 1066.6 1550.31 1059.23 1491.37C1051.86 1432.43 1046.89 1369.98 1029.7 1367.52C1012.51 1365.06 934.291 1363.72 926.931 1376C919.571 1388.28 927.931 1503.2 915.631 1515.48C903.331 1527.76 906.991 1528.21 887.341 1547.85C867.691 1567.49 898.851 1572.11 828.451 1587.11C758.051 1602.11 762.151 1614.11 717.941 1599.39C673.731 1584.67 651.641 1582.2 634.451 1542.91C617.261 1503.62 592.711 1422.58 592.711 1378.38C592.711 1334.18 553.421 1164.75 558.331 1110.72C563.241 1056.69 553.421 931.46 560.791 911.82C568.161 892.18 575.521 828.33 609.901 818.5C644.281 808.67 710.581 801.31 722.901 801.31C735.221 801.31 803.881 808.66 803.881 808.66Z" fill="#DB7597"/>
<path d="M1564.43 847.949L1599.82 913.979L1674.75 922.469L1622.34 976.279L1637.3 1049.57L1569.52 1016.8L1503.84 1053.59L1514.36 979.539L1458.8 928.989L1533.09 915.989L1564.43 847.949Z" stroke="#1D1D1B" stroke-width="25" stroke-linecap="round" stroke-linejoin="round"/>
<path d="M1561.27 1174.39L1605.17 1256.97L1698.09 1267.63L1633.11 1334.9L1651.69 1426.56L1567.64 1385.55L1486.2 1431.55L1499.23 1338.94L1430.32 1275.7L1522.42 1259.47L1561.27 1174.39Z" stroke="#1D1D1B" stroke-width="25" stroke-linecap="round" stroke-linejoin="round"/>
<path d="M2097.48 864.24L2126.05 933.49L2199.75 949.48L2142.19 997.74L2149.71 1072.17L2085.57 1032.75L2016.52 1062.76L2034.43 990.13L1984.23 934.25L2059.45 928.79L2097.48 864.24Z" stroke="#1D1D1B" stroke-width="25" stroke-linecap="round" stroke-linejoin="round"/>
<path d="M2091.93 1182.03L2128.81 1267.98L2220.52 1286.32L2150.17 1347.96L2161.06 1440.85L2080.71 1392.99L1995.73 1432.05L2016.41 1340.84L1953 1272.09L2046.14 1263.58L2091.93 1182.03Z" stroke="#1D1D1B" stroke-width="25" stroke-linecap="round" stroke-linejoin="round"/>
<path d="M912.54 1105.6C912.54 1105.6 886.87 993.991 860.74 903.941C834.61 813.891 780.5 777.581 669.02 792.181C532.34 810.091 547.02 985.671 547.02 985.671C547.02 985.671 590.13 1458.37 611.44 1514.58C632.75 1570.79 692.7 1601.36 757.98 1602.12C791.6 1602.52 878.69 1592.22 908.17 1539.56C932.58 1495.95 925.06 1384 925.06 1384" stroke="#1D1D1B" stroke-width="25" stroke-linecap="round" stroke-linejoin="round"/>
<path d="M857.811 1117.2C857.811 1117.2 1013.18 1086.04 1104.07 1098.13" stroke="#1D1D1B" stroke-width="25" stroke-linecap="round" stroke-linejoin="round"/>
<path d="M874.039 1371.31C874.039 1371.31 1036.34 1371.01 1098.28 1355.53" stroke="#1D1D1B" stroke-width="25" stroke-linecap="round" stroke-linejoin="round"/>
<path d="M1037.34 1375.3C1037.34 1375.3 1042.01 1497.92 1081.96 1540.16C1096.25 1555.26 1120.72 1562.92 1148.69 1565.71C1148.69 1565.71 1241.69 1576.24 1312.79 1541.11C1349.79 1522.82 1357.32 1446.36 1354.5 1380.73C1352.3 1329.5 1338.5 897.981 1300.02 824.271C1266.24 759.641 1208.62 760.791 1148.39 764.931C1085.29 769.271 1051.49 809.061 1036.87 856.521C1022.25 903.981 1029.66 1081.08 1029.66 1081.08" stroke="#1D1D1B" stroke-width="25" stroke-linecap="round" stroke-linejoin="round"/>
<path d="M1297.57 814.45C1306.04 799.29 1307.01 797.11 1321.46 786.38C1404.25 724.96 1582.15 717.32 1706.46 773.48C1802.67 816.94 1918.04 1040.07 1742.4 1142.33C1742.4 1142.33 1869.49 1190.82 1866.62 1331.33C1864.04 1458.16 1819.33 1496.42 1726.67 1536.04C1646.06 1570.52 1516.02 1576.12 1401.67 1554.4C1372.84 1548.93 1353.23 1540.25 1337.81 1531.21" stroke="#1D1D1B" stroke-width="25" stroke-linecap="round" stroke-linejoin="round"/>
<path d="M1808.3 857.29C1819.72 827.49 1844.11 805.17 1873.55 787.17C1956.09 736.69 2152.31 746.82 2231.55 790.44C2293.55 824.58 2350.21 897.74 2354.88 966.15C2360.03 1041.74 2344.09 1108.79 2252.01 1150.38C2252.01 1150.38 2374.01 1210.45 2358.15 1348.14C2343.87 1472.41 2296.97 1525.23 2201.15 1555.06C2117.77 1581.06 1987.88 1573.78 1876.15 1541.25C1832.75 1528.61 1821.58 1518.15 1803.87 1503.25" stroke="#1D1D1B" stroke-width="25" stroke-linecap="round" stroke-linejoin="round"/>
</svg>
