<svg width="68" height="68" viewBox="0 0 68 68" fill="none" xmlns="http://www.w3.org/2000/svg">
<rect width="68" height="68" rx="34" fill="white"/>
<path d="M34 44.3327C29.04 44.3327 25 40.2927 25 35.3327V28.666C25 23.706 29.04 19.666 34 19.666C38.96 19.666 43 23.706 43 28.666V35.3327C43 40.2927 38.96 44.3327 34 44.3327ZM34 21.666C30.1467 21.666 27 24.7993 27 28.666V35.3327C27 39.1993 30.1467 42.3327 34 42.3327C37.8533 42.3327 41 39.1993 41 35.3327V28.666C41 24.7993 37.8533 21.666 34 21.666Z" fill="#E688A3"/>
<path d="M34 48.3327C26.8267 48.3327 21 42.506 21 35.3327V32.666C21 32.1193 21.4533 31.666 22 31.666C22.5467 31.666 23 32.1193 23 32.666V35.3327C23 41.3993 27.9333 46.3327 34 46.3327C40.0667 46.3327 45 41.3993 45 35.3327V32.666C45 32.1193 45.4533 31.666 46 31.666C46.5467 31.666 47 32.1193 47 32.666V35.3327C47 42.506 41.1733 48.3327 34 48.3327Z" fill="#E688A3"/>
<path d="M37.4805 28.9732C37.3738 28.9732 37.2538 28.9598 37.1338 28.9198C34.9872 28.1465 32.6272 28.1465 30.4805 28.9198C29.9738 29.1065 29.4005 28.8398 29.2138 28.3198C29.0272 27.7998 29.2938 27.2265 29.8138 27.0398C32.4005 26.1065 35.2405 26.1065 37.8272 27.0398C38.3472 27.2265 38.6138 27.7998 38.4272 28.3198C38.2805 28.7332 37.8938 28.9732 37.4805 28.9732Z" fill="#E688A3"/>
<path d="M36.2669 32.974C36.1869 32.974 36.0936 32.9606 36.0002 32.934C34.5736 32.5473 33.0669 32.5473 31.6402 32.934C31.0936 33.0806 30.5602 32.7606 30.4136 32.2273C30.2669 31.694 30.5869 31.1473 31.1202 31.0006C32.8936 30.5206 34.7602 30.5206 36.5336 31.0006C37.0669 31.1473 37.3869 31.694 37.2402 32.2273C37.1069 32.694 36.7069 32.974 36.2669 32.974Z" fill="#E688A3"/>
</svg>
