<svg width="124" height="124" viewBox="0 0 124 124" fill="none" xmlns="http://www.w3.org/2000/svg">
<path d="M40.6789 40.4316H93.6811C95.5263 40.4316 97.2959 41.1646 98.6006 42.4693C99.9053 43.7741 100.638 45.5437 100.638 47.3888V84.6506C100.638 86.0133 100.238 87.346 99.487 88.4832C98.7361 89.6205 97.6678 90.5121 96.4147 91.0476L101.546 106.732L84.4049 91.6637H40.7125C38.8674 91.6637 37.0978 90.9308 35.7931 89.626C34.4884 88.3213 33.7554 86.5517 33.7554 84.7066V47.3888C33.7553 45.5495 34.4837 43.785 35.7812 42.4812C37.0786 41.1774 38.8396 40.4405 40.6789 40.4316Z" fill="#1D1D1B"/>
<path d="M42.7068 37.8887H95.709C97.5541 37.8887 99.3237 38.6217 100.628 39.9264C101.933 41.2311 102.666 43.0007 102.666 44.8458V82.1076C102.666 83.4703 102.266 84.803 101.515 85.9403C100.764 87.0775 99.6957 87.9692 98.4425 88.5046L103.574 104.189L86.4327 89.0648H42.7404C40.8952 89.0648 39.1256 88.3318 37.8209 87.027C36.5162 85.7223 35.7832 83.9527 35.7832 82.1076V44.8458C35.7832 43.0065 36.5116 41.242 37.809 39.9382C39.1065 38.6345 40.8674 37.8976 42.7068 37.8887Z" fill="#9277AA" stroke="#1D1D1B" stroke-width="0.963473" stroke-miterlimit="10"/>
<path d="M85.9287 67.4205C84.8802 67.4205 83.8552 67.1094 82.9835 66.5266C82.1119 65.9439 81.4327 65.1156 81.0319 64.1466C80.6312 63.1777 80.5269 62.1117 80.7323 61.0834C80.9377 60.0552 81.4435 59.111 82.1857 58.3704C82.9279 57.6297 83.8731 57.1259 84.9018 56.9227C85.9305 56.7195 86.9963 56.8261 87.9644 57.2289C88.9325 57.6317 89.7593 58.3126 90.3402 59.1855C90.9211 60.0584 91.23 61.084 91.2278 62.1326C91.2249 63.536 90.6653 64.881 89.6718 65.8724C88.6784 66.8637 87.3322 67.4205 85.9287 67.4205Z" fill="#F2EE98"/>
<path d="M85.9285 57.315C86.8818 57.3128 87.8143 57.5935 88.608 58.1215C89.4017 58.6494 90.0209 59.401 90.3872 60.2811C90.7535 61.1612 90.8505 62.1301 90.6659 63.0653C90.4813 64.0005 90.0234 64.86 89.3501 65.5348C88.6768 66.2097 87.8185 66.6696 86.8837 66.8564C85.9489 67.0432 84.9797 66.9484 84.0988 66.5841C83.2179 66.2198 82.4649 65.6024 81.935 64.8099C81.4052 64.0175 81.1224 63.0857 81.1224 62.1324C81.1224 60.8567 81.6284 59.6331 82.5294 58.73C83.4304 57.8269 84.6528 57.318 85.9285 57.315ZM85.9285 56.3516C84.7852 56.3516 83.6675 56.6906 82.7169 57.3258C81.7662 57.961 81.0253 58.8639 80.5877 59.9202C80.1502 60.9765 80.0357 62.1388 80.2588 63.2602C80.4818 64.3816 81.0324 65.4116 81.8409 66.2201C82.6493 67.0285 83.6794 67.5791 84.8008 67.8022C85.9221 68.0252 87.0845 67.9107 88.1408 67.4732C89.1971 67.0357 90.0999 66.2947 90.7351 65.3441C91.3703 64.3934 91.7094 63.2757 91.7094 62.1324C91.7094 60.5992 91.1003 59.1288 90.0162 58.0447C88.9321 56.9606 87.4617 56.3516 85.9285 56.3516Z" fill="#1D1D1B"/>
<path d="M68.9443 67.4204C67.8943 67.427 66.8661 67.1216 65.99 66.5429C65.1139 65.9642 64.4295 65.1383 64.0236 64.1699C63.6177 63.2016 63.5086 62.1345 63.7101 61.1041C63.9117 60.0736 64.4148 59.1263 65.1557 58.3823C65.8966 57.6383 66.8417 57.1311 67.8713 56.9252C68.9009 56.7193 69.9684 56.8238 70.9385 57.2256C71.9085 57.6274 72.7374 58.3083 73.3198 59.1819C73.9022 60.0556 74.212 61.0825 74.2098 62.1325C74.2068 63.5301 73.6518 64.87 72.6657 65.8604C71.6795 66.8508 70.3419 67.4115 68.9443 67.4204Z" fill="#F2EE98"/>
<path d="M68.9444 57.315C69.8972 57.315 70.8286 57.5976 71.6208 58.1269C72.413 58.6562 73.0304 59.4086 73.3951 60.2889C73.7597 61.1691 73.8551 62.1377 73.6692 63.0722C73.4833 64.0067 73.0245 64.8651 72.3508 65.5388C71.6771 66.2125 70.8187 66.6713 69.8842 66.8572C68.9497 67.0431 67.9811 66.9477 67.1009 66.5831C66.2206 66.2184 65.4682 65.601 64.9389 64.8088C64.4096 64.0166 64.127 63.0852 64.127 62.1324C64.127 60.8567 64.633 59.6331 65.534 58.73C66.435 57.8269 67.6575 57.318 68.9332 57.315M68.9332 56.3516C67.7898 56.3516 66.6722 56.6906 65.7215 57.3258C64.7709 57.961 64.0299 58.8639 63.5924 59.9202C63.1548 60.9765 63.0404 62.1388 63.2634 63.2602C63.4865 64.3816 64.0371 65.4116 64.8455 66.2201C65.654 67.0285 66.684 67.5791 67.8054 67.8022C68.9268 68.0252 70.0891 67.9107 71.1454 67.4732C72.2017 67.0357 73.1046 66.2947 73.7398 65.3441C74.375 64.3934 74.714 63.2757 74.714 62.1324C74.7111 60.6001 74.1011 59.1315 73.0176 58.048C71.9341 56.9645 70.4654 56.3545 68.9332 56.3516Z" fill="#1D1D1B"/>
<path d="M52.0278 67.4205C50.9788 67.4227 49.9527 67.1135 49.0796 66.5321C48.2064 65.9506 47.5255 65.1232 47.123 64.1544C46.7206 63.1857 46.6147 62.1193 46.8188 61.0903C47.0229 60.0613 47.5278 59.1161 48.2696 58.3743C49.0114 57.6326 49.9566 57.1277 50.9856 56.9235C52.0145 56.7194 53.0809 56.8253 54.0497 57.2278C55.0184 57.6302 55.8459 58.3112 56.4273 59.1843C57.0087 60.0575 57.3179 61.0835 57.3157 62.1326C57.3128 63.5341 56.7547 64.8774 55.7637 65.8684C54.7726 66.8594 53.4294 67.4175 52.0278 67.4205Z" fill="#F2EE98"/>
<path d="M52.0276 57.315C52.9804 57.315 53.9118 57.5976 54.704 58.1269C55.4962 58.6563 56.1137 59.4086 56.4783 60.2889C56.8429 61.1691 56.9383 62.1378 56.7524 63.0722C56.5666 64.0067 56.1077 64.8651 55.434 65.5388C54.7603 66.2125 53.9019 66.6713 52.9675 66.8572C52.033 67.0431 51.0644 66.9477 50.1841 66.5831C49.3039 66.2185 48.5515 65.601 48.0221 64.8088C47.4928 64.0166 47.2103 63.0852 47.2103 62.1324C47.2103 60.8548 47.7178 59.6295 48.6212 58.726C49.5247 57.8226 50.75 57.315 52.0276 57.315ZM52.0276 56.3516C50.8838 56.3494 49.7651 56.6865 48.8129 57.3204C47.8608 57.9542 47.1181 58.8563 46.6789 59.9124C46.2396 60.9685 46.1235 62.1312 46.3453 63.2533C46.5671 64.3754 47.1168 65.4065 47.9248 66.2161C48.7328 67.0257 49.7628 67.5774 50.8845 67.8013C52.0062 68.0253 53.1691 67.9115 54.2261 67.4743C55.283 67.0371 56.1865 66.2961 56.8222 65.3452C57.4579 64.3943 57.7973 63.2762 57.7973 62.1324C57.7973 60.6012 57.1898 59.1325 56.1081 58.0487C55.0264 56.9649 53.5589 56.3545 52.0276 56.3516Z" fill="#1D1D1B"/>
<path d="M100.923 107.215C100.133 107.952 99.2056 108.525 98.194 108.902C97.1824 109.28 96.1065 109.455 95.0272 109.416C93.9482 109.378 92.8872 109.127 91.9051 108.679C90.9228 108.23 90.0386 107.592 89.303 106.802L63.4619 79.0528L76.9496 69.4902L101.336 95.5955C102.072 96.3855 102.646 97.3129 103.023 98.3244C103.401 99.336 103.575 100.412 103.537 101.491C103.498 102.57 103.248 103.631 102.799 104.613C102.351 105.596 101.713 106.48 100.923 107.215Z" fill="#1D1D1B"/>
<path d="M53.9597 16.9531C47.0374 16.9531 40.2706 19.0058 34.515 22.8516C28.7592 26.6975 24.2732 32.1638 21.6242 38.559C18.9751 44.9544 18.282 51.9917 19.6325 58.7809C20.983 65.5701 24.3164 71.8065 29.2112 76.7012C34.106 81.5963 40.3424 84.9297 47.1316 86.28C53.9208 87.6306 60.9581 86.9373 67.3535 84.2882C73.7487 81.6392 79.215 77.1534 83.0608 71.3975C86.9067 65.6419 88.9594 58.8751 88.9594 51.9528C88.9597 47.3564 88.0547 42.8051 86.296 38.5586C84.5373 34.3119 81.9591 30.4535 78.709 27.2034C75.4589 23.9533 71.6006 21.3753 67.3538 19.6165C63.1074 17.8577 58.5561 16.9527 53.9597 16.9531ZM53.9597 80.0657C48.5052 80.0645 43.1735 78.4459 38.6387 75.4149C34.1038 72.3836 30.5696 68.0759 28.4828 63.0364C26.396 57.9968 25.8503 52.4516 26.9147 47.1019C27.9791 41.7522 30.6059 36.8382 34.4628 32.9811C38.3198 29.1243 43.2338 26.4975 48.5835 25.4331C53.9333 24.3686 59.4784 24.9143 64.518 27.0011C69.5576 29.0879 73.8652 32.6222 76.8966 37.157C79.9276 41.6919 81.5461 47.0236 81.5473 52.478C81.5486 56.1014 80.836 59.6893 79.4499 63.037C78.0638 66.3844 76.032 69.4263 73.4699 71.9883C70.9079 74.5503 67.866 76.5822 64.5186 77.9683C61.1709 79.3543 57.583 80.0669 53.9597 80.0657Z" fill="#1D1D1B"/>
<path d="M103.156 93.4767L83.3382 72.1978C88.8887 65.7169 91.8721 57.4266 91.7245 48.8949C91.5769 40.3634 88.3085 32.1813 82.537 25.8962C76.7659 19.611 68.8917 15.6581 60.4038 14.7848C51.9155 13.9116 43.4015 16.1786 36.4715 21.1572C29.5416 26.1358 24.6759 33.4809 22.7943 41.8039C20.9128 50.1268 22.1458 58.8506 26.2604 66.326C30.3749 73.8014 37.0859 79.5101 45.1241 82.3733C53.1624 85.2362 61.971 85.0547 69.8847 81.863L91.1076 104.677C92.613 106.183 94.6433 107.046 96.7719 107.085C98.9004 107.124 100.961 106.336 102.521 104.887C104.08 103.438 105.017 101.44 105.134 99.3144C105.25 97.1887 104.538 95.1005 103.147 93.4892L103.156 93.4767ZM66.5842 75.7034C63.4581 76.9083 60.1359 77.5236 56.7854 77.5183C49.8831 77.5323 43.2247 74.9647 38.1186 70.3201C33.0122 65.6753 29.8274 59.2894 29.1893 52.4163C28.5512 45.5431 30.5061 38.6799 34.6699 33.1745C38.8337 27.6693 44.9057 23.9199 51.6927 22.6627C58.4798 21.4056 65.4918 22.7317 71.3512 26.3805C77.2103 30.0294 81.4937 35.7372 83.3596 42.3828C85.2252 49.0285 84.5387 56.1316 81.435 62.2968C78.331 68.4623 73.0341 73.2442 66.5842 75.7034Z" fill="#E687A3" stroke="#1D1D1B" stroke-width="4.42857" stroke-miterlimit="10"/>
</svg>
