<svg width="395" height="234" viewBox="0 0 395 234" fill="none" xmlns="http://www.w3.org/2000/svg">
<path d="M0 24C0 10.7452 10.7452 0 24 0H371C384.255 0 395 10.7452 395 24V210C395 223.255 384.255 234 371 234H24C10.7452 234 0 223.255 0 210V24Z" fill="white" fill-opacity="0.12"/>
<path d="M204.233 103.672H180.387C177.118 103.672 174.467 106.322 174.467 109.592V127.22C174.467 130.489 177.118 133.14 180.387 133.14H204.233C207.502 133.14 210.153 130.489 210.153 127.22V109.592C210.153 106.322 207.502 103.672 204.233 103.672Z" fill="black"/>
<path d="M217.689 110.236L214.393 112.858C213.947 113.213 213.586 113.664 213.338 114.177C213.09 114.691 212.962 115.254 212.962 115.824V122.057C212.962 122.715 213.133 123.363 213.46 123.935C213.787 124.507 214.257 124.985 214.824 125.32L217.822 127.091C217.999 127.197 218.2 127.253 218.406 127.255C218.612 127.257 218.815 127.204 218.993 127.102C219.172 127 219.321 126.853 219.424 126.675C219.527 126.497 219.581 126.295 219.581 126.089V111.147C219.581 110.927 219.52 110.712 219.403 110.526C219.286 110.34 219.12 110.191 218.922 110.096C218.724 110 218.503 109.963 218.285 109.988C218.067 110.013 217.86 110.099 217.689 110.236Z" fill="black"/>
<path d="M211.459 100.965H177.22C176.821 100.965 176.496 101.289 176.496 101.689V129.709C176.496 130.108 176.821 130.433 177.22 130.433H211.459C211.859 130.433 212.183 130.108 212.183 129.709V101.689C212.183 101.289 211.859 100.965 211.459 100.965Z" fill="#9277AA" stroke="black" stroke-width="1.95349" stroke-miterlimit="10"/>
<path d="M219.851 124.384L216.854 122.613C216.286 122.277 215.816 121.8 215.49 121.228C215.163 120.655 214.991 120.008 214.991 119.349V113.118C214.991 112.547 215.12 111.984 215.368 111.47C215.616 110.957 215.976 110.505 216.423 110.15L219.719 107.529C219.89 107.392 220.096 107.307 220.314 107.283C220.532 107.258 220.752 107.296 220.949 107.391C221.146 107.486 221.313 107.635 221.429 107.82C221.546 108.006 221.608 108.22 221.607 108.439V123.381C221.608 123.587 221.553 123.788 221.45 123.966C221.347 124.144 221.199 124.291 221.021 124.393C220.842 124.494 220.64 124.547 220.435 124.546C220.23 124.544 220.028 124.488 219.851 124.384Z" fill="#9277AA" stroke="black" stroke-width="1.95349" stroke-miterlimit="10"/>
<path d="M188.056 118.169C189.574 118.169 190.805 116.938 190.805 115.42C190.805 113.902 189.574 112.672 188.056 112.672C186.538 112.672 185.307 113.902 185.307 115.42C185.307 116.938 186.538 118.169 188.056 118.169Z" fill="#F2EE98"/>
<path d="M199.813 118.169C201.331 118.169 202.561 116.938 202.561 115.42C202.561 113.902 201.331 112.672 199.813 112.672C198.295 112.672 197.064 113.902 197.064 115.42C197.064 116.938 198.295 118.169 199.813 118.169Z" fill="#F2EE98"/>
<path fill-rule="evenodd" clip-rule="evenodd" d="M198 173C228.928 173 254 147.928 254 117C254 86.0721 228.928 61 198 61C167.072 61 142 86.0721 142 117C142 147.928 167.072 173 198 173ZM160.87 147.674C153.98 139.343 149.84 128.655 149.84 117C149.84 90.402 171.402 68.84 198 68.84C209.142 68.84 219.4 72.6236 227.56 78.976L160.87 147.674ZM166.977 153.838C175.357 160.903 186.181 165.16 198 165.16C224.598 165.16 246.16 143.598 246.16 117C246.16 104.977 241.754 93.9823 234.469 85.5435L166.977 153.838Z" fill="#F2C4D1"/>
</svg>
