<svg width="395" height="234" viewBox="0 0 395 234" fill="none" xmlns="http://www.w3.org/2000/svg">
<path d="M0 24C0 10.7452 10.7452 0 24 0H371C384.255 0 395 10.7452 395 24V210C395 223.255 384.255 234 371 234H24C10.7452 234 0 223.255 0 210V24Z" fill="white" fill-opacity="0.12"/>
<path d="M218.08 98.9397C216.631 95.6466 214.509 92.6933 211.85 90.2697C206.755 85.6069 200.02 83.1544 193.12 83.4497C191.379 83.5318 189.651 83.7864 187.96 84.2097C182.13 85.6615 176.982 89.0838 173.386 93.8967C169.79 98.7097 167.969 104.618 168.23 110.62C168.315 112.361 168.573 114.089 169 115.78C169.353 117.226 169.835 118.639 170.44 120C171.892 123.288 174.014 126.238 176.67 128.66C179.836 131.573 183.678 133.653 187.849 134.711C192.019 135.769 196.388 135.772 200.56 134.72C202.013 134.376 203.433 133.901 204.8 133.3C205.16 133.15 205.5 132.98 205.85 132.81L215.64 151.14C215.685 151.226 215.747 151.302 215.822 151.364C215.897 151.426 215.984 151.472 216.077 151.5C216.17 151.528 216.268 151.537 216.364 151.527C216.461 151.516 216.555 151.487 216.64 151.44C217 151.25 218.5 150.44 218.31 150.11L208.52 131.78C210.9 130.42 211.66 129.05 213.47 127.07C216.384 123.903 218.463 120.062 219.521 115.891C220.579 111.72 220.582 107.352 219.53 103.18C219.172 101.727 218.687 100.308 218.08 98.9397Z" fill="black"/>
<path d="M220 149L218.6 149.83C218.39 149.937 218.146 149.958 217.92 149.889C217.694 149.82 217.504 149.666 217.39 149.46L201.39 119.52L204.39 117.85L220.39 147.8C220.445 147.904 220.478 148.018 220.488 148.135C220.498 148.252 220.485 148.37 220.448 148.482C220.412 148.594 220.354 148.697 220.277 148.786C220.2 148.875 220.105 148.948 220 149Z" fill="#9277AA" stroke="black" stroke-width="1.06" stroke-miterlimit="10"/>
<path d="M196.1 132.998C189.477 132.986 183.1 130.488 178.23 125.998C175.526 123.538 173.369 120.536 171.9 117.188C171.281 115.798 170.785 114.356 170.42 112.878C169.99 111.158 169.732 109.4 169.65 107.628C169.497 104.002 170.096 100.382 171.41 96.9984C172.601 93.9186 174.354 91.0871 176.58 88.6484C179.044 85.9439 182.049 83.7873 185.4 82.3184C188.43 80.9724 191.687 80.2091 195 80.0684C195.39 80.0684 195.78 80.0684 196.18 80.0684C202.777 80.0745 209.133 82.5463 214 86.9984C216.704 89.4589 218.861 92.4605 220.33 95.8084C220.95 97.1985 221.445 98.6408 221.81 100.118C222.24 101.838 222.498 103.597 222.58 105.368C222.744 109.019 222.144 112.663 220.82 116.068C219.629 119.148 217.876 121.98 215.65 124.418C213.188 127.12 210.186 129.277 206.84 130.748C205.447 131.36 204.005 131.856 202.53 132.228C200.81 132.655 199.051 132.91 197.28 132.988L196.1 132.998Z" fill="#E687A3"/>
<path d="M196.14 80.4791C199.341 80.4788 202.515 81.0721 205.5 82.2291C211.948 84.7236 217.142 89.6765 219.94 95.9991C220.541 97.3729 221.026 98.7946 221.39 100.249C221.815 101.939 222.066 103.668 222.14 105.409C222.303 109 221.717 112.586 220.42 115.939C219.244 118.963 217.518 121.743 215.33 124.139C212.906 126.798 209.953 128.92 206.66 130.369C205.293 130.979 203.874 131.464 202.42 131.819C200.729 132.242 199.001 132.497 197.26 132.579C196.87 132.579 196.48 132.579 196.1 132.579C192.895 132.58 189.718 131.986 186.73 130.829C183.702 129.654 180.919 127.929 178.52 125.739C175.864 123.313 173.743 120.36 172.29 117.069C171.688 115.699 171.203 114.281 170.84 112.829C170.415 111.139 170.164 109.41 170.09 107.669C169.927 104.078 170.513 100.492 171.81 97.1391C172.987 94.1153 174.712 91.3352 176.9 88.9391C179.326 86.2825 182.278 84.1607 185.57 82.7091C186.937 82.0995 188.356 81.6142 189.81 81.2591C191.511 80.8353 193.249 80.5807 195 80.4991C195.39 80.4991 195.78 80.4991 196.17 80.4991M196.17 79.6291C195.77 79.6291 195.37 79.6291 194.97 79.6291C193.168 79.7094 191.379 79.9707 189.63 80.4091C188.131 80.7871 186.666 81.2888 185.25 81.9091C181.832 83.4011 178.765 85.5952 176.25 88.3491C173.989 90.8253 172.208 93.701 171 96.8291C168.431 103.49 168.612 110.899 171.504 117.426C174.395 123.954 179.761 129.066 186.42 131.639C189.505 132.842 192.789 133.455 196.1 133.449C196.5 133.449 196.9 133.449 197.3 133.449C199.098 133.369 200.884 133.108 202.63 132.669C204.126 132.284 205.588 131.776 207 131.149C210.418 129.657 213.485 127.463 216 124.709C218.265 122.234 220.049 119.358 221.26 116.229C222.592 112.764 223.185 109.057 223 105.349C222.923 103.545 222.665 101.752 222.23 99.9991C221.861 98.4974 221.359 97.0316 220.73 95.6191C218.618 90.8597 215.171 86.815 210.806 83.9752C206.442 81.1353 201.347 79.6222 196.14 79.6191L196.17 79.6291Z" fill="black"/>
<path d="M193 105C193.951 105.581 194.956 106.07 196 106.46C192.849 103.668 190.776 99.86 190.142 95.698C189.508 91.536 190.353 87.2835 192.53 83.68C193.234 82.5326 194.062 81.4661 195 80.5C193.259 80.5836 191.531 80.8381 189.84 81.26C188.386 81.615 186.967 82.1003 185.6 82.71C183.971 86.6972 183.822 91.1355 185.179 95.2232C186.536 99.3109 189.31 102.779 193 105Z" fill="#F2EE98"/>
<path d="M195 103.249C195.267 104.338 195.639 105.4 196.11 106.419C195.968 103.997 196.316 101.572 197.133 99.288C197.949 97.004 199.218 94.908 200.862 93.1252C202.507 91.3424 204.494 89.9093 206.705 88.9117C208.916 87.914 211.305 87.3722 213.73 87.3185C211.333 85.1271 208.549 83.401 205.52 82.2285C201.546 83.9 198.302 86.9378 196.372 90.7928C194.443 94.6479 193.956 99.0659 195 103.249Z" fill="#F2EE98"/>
<path d="M196.17 106.43C198.977 103.284 202.796 101.22 206.966 100.594C211.135 99.9671 215.392 100.818 219 103C220.146 103.691 221.212 104.506 222.18 105.43C222.106 103.689 221.855 101.96 221.43 100.27C221.054 98.8071 220.556 97.3787 219.94 95.9997C215.95 94.3717 211.509 94.2227 207.418 95.5795C203.328 96.9363 199.856 99.7097 197.63 103.4C197.055 104.365 196.567 105.379 196.17 106.43Z" fill="#F2EE98"/>
<path d="M214.79 120.158C215.118 121.468 215.299 122.809 215.33 124.158C217.518 121.762 219.243 118.982 220.42 115.958C218.751 111.987 215.717 108.743 211.866 106.812C208.015 104.881 203.601 104.391 199.42 105.428C198.329 105.702 197.264 106.073 196.24 106.538C200.433 106.299 204.578 107.528 207.964 110.014C211.349 112.499 213.763 116.086 214.79 120.158Z" fill="#F2EE98"/>
<path d="M197.26 132.56C199.001 132.478 200.729 132.223 202.42 131.8C203.874 131.445 205.293 130.96 206.66 130.35C208.3 126.36 208.454 121.915 207.092 117.822C205.73 113.729 202.944 110.261 199.24 108.05C198.291 107.465 197.286 106.976 196.24 106.59C199.391 109.382 201.464 113.19 202.098 117.352C202.732 121.514 201.887 125.766 199.71 129.37C199.013 130.52 198.191 131.59 197.26 132.56Z" fill="#F2EE98"/>
<path d="M178.52 125.738C180.919 127.928 183.702 129.653 186.73 130.828C190.699 129.157 193.941 126.123 195.87 122.272C197.799 118.421 198.289 114.008 197.25 109.828C196.983 108.738 196.611 107.677 196.14 106.658C196.289 109.081 195.946 111.509 195.132 113.796C194.318 116.083 193.05 118.182 191.404 119.967C189.758 121.751 187.768 123.184 185.554 124.179C183.34 125.174 180.947 125.712 178.52 125.758V125.738Z" fill="#F2EE98"/>
<path d="M170.84 112.828C171.202 114.28 171.687 115.698 172.29 117.068C176.281 118.699 180.724 118.849 184.816 117.49C188.907 116.131 192.378 113.353 194.6 109.658C195.173 108.703 195.662 107.699 196.06 106.658C193.256 109.795 189.445 111.855 185.284 112.483C181.124 113.111 176.875 112.268 173.27 110.098C172.124 109.407 171.058 108.592 170.09 107.668C170.164 109.409 170.415 111.138 170.84 112.828Z" fill="#F2EE98"/>
<path d="M171.81 97.1384C173.481 101.108 176.515 104.351 180.365 106.282C184.216 108.212 188.629 108.704 192.81 107.668C193.905 107.396 194.972 107.024 196 106.558C191.8 106.798 187.648 105.565 184.26 103.071C180.872 100.577 178.46 96.9798 177.44 92.8984C177.117 91.5884 176.936 90.2473 176.9 88.8984C174.708 91.3065 172.982 94.1005 171.81 97.1384Z" fill="#F2EE98"/>
<path d="M193.56 107.17C193.682 107.676 193.953 108.135 194.336 108.488C194.719 108.84 195.199 109.071 195.714 109.151C196.229 109.231 196.756 109.156 197.228 108.936C197.7 108.715 198.096 108.36 198.366 107.914C198.636 107.469 198.767 106.953 198.744 106.433C198.72 105.912 198.542 105.411 198.233 104.991C197.924 104.572 197.497 104.254 197.007 104.077C196.517 103.901 195.985 103.874 195.48 104C194.806 104.168 194.226 104.596 193.867 105.189C193.507 105.783 193.397 106.495 193.56 107.17Z" fill="#E687A3"/>
</svg>
