<svg width="210" height="158" viewBox="0 0 210 158" fill="none" xmlns="http://www.w3.org/2000/svg">
<path d="M66.0988 84.5781H84.5211V156.886C84.5211 157.152 84.4154 157.407 84.2271 157.596C84.0388 157.784 83.7834 157.89 83.5171 157.89H67.0982C66.832 157.89 66.5766 157.784 66.3883 157.596C66.2 157.407 66.0942 157.152 66.0942 156.886V84.5781H66.0988Z" fill="#1D1D1B"/>
<path d="M134.013 90.1367H17.902C16.6938 90.1367 15.7144 91.1162 15.7144 92.3244V106.721C15.7144 107.93 16.6938 108.909 17.902 108.909H134.013C135.221 108.909 136.201 107.93 136.201 106.721V92.3244C136.201 91.1162 135.221 90.1367 134.013 90.1367Z" fill="#1D1D1B"/>
<path d="M154.531 60.1941V94.5195C154.531 96.072 153.914 97.5609 152.816 98.6586C151.719 99.7564 150.23 100.373 148.677 100.373H5.85829C5.08919 100.374 4.3275 100.223 3.61677 99.9289C2.90604 99.635 2.26019 99.2039 1.71613 98.6603C1.17208 98.1166 0.740491 97.4711 0.446028 96.7606C0.151565 96.0501 -2.38048e-07 95.2886 0 94.5195V60.1941C0.000604351 55.3793 0.949791 50.6117 2.79334 46.1637C4.63688 41.7158 7.33867 37.6746 10.7444 34.2711C14.1501 30.8675 18.1929 28.1683 22.642 26.3275C27.0911 24.4867 31.8593 23.5406 36.6742 23.543H117.861C118.087 23.543 118.294 23.543 118.52 23.543C128.13 23.7073 137.291 27.6416 144.027 34.4977C150.764 41.3538 154.536 50.5825 154.531 60.1941Z" fill="#1D1D1B"/>
<path d="M72.0492 157.014C71.5219 157.012 71.0165 156.802 70.6437 156.43C70.2708 156.057 70.0608 155.551 70.0596 155.024V79.0781H90.4577V155.024C90.4564 155.551 90.2464 156.057 89.8736 156.43C89.5007 156.802 88.9953 157.012 88.468 157.014H72.0492Z" fill="#F2EE98"/>
<path d="M89.4677 80.0637V155.024C89.4677 155.155 89.4418 155.285 89.3916 155.406C89.3414 155.528 89.2678 155.638 89.175 155.731C89.0822 155.823 88.972 155.897 88.8507 155.947C88.7295 155.998 88.5995 156.023 88.4683 156.023H72.0494C71.7844 156.023 71.5302 155.918 71.3427 155.731C71.1553 155.543 71.05 155.289 71.05 155.024V80.0637H89.4723M91.4481 78.0879H69.0742V155.024C69.0754 155.813 69.3893 156.569 69.947 157.126C70.5047 157.684 71.2607 157.998 72.0494 157.999H88.4683C89.257 157.998 90.013 157.684 90.5707 157.126C91.1284 156.569 91.4423 155.813 91.4435 155.024V78.1109L91.4481 78.0879Z" fill="#1D1D1B"/>
<path d="M138.959 85.2637H22.8527C21.0976 85.2637 19.6748 86.6864 19.6748 88.4415V102.834C19.6748 104.589 21.0976 106.012 22.8527 106.012H138.959C140.714 106.012 142.137 104.589 142.137 102.834V88.4415C142.137 86.6864 140.714 85.2637 138.959 85.2637Z" fill="#F2EE98"/>
<path d="M138.964 86.2484C139.544 86.2484 140.101 86.4789 140.511 86.8891C140.921 87.2994 141.152 87.8558 141.152 88.436V102.833C141.152 103.413 140.921 103.97 140.511 104.38C140.101 104.79 139.544 105.021 138.964 105.021H22.853C22.2728 105.021 21.7164 104.79 21.3061 104.38C20.8959 103.97 20.6654 103.413 20.6654 102.833V88.4545C20.6654 87.8743 20.8959 87.3178 21.3061 86.9076C21.7164 86.4973 22.2728 86.2668 22.853 86.2668H138.964M138.964 84.291H22.853C21.7537 84.291 20.6994 84.7277 19.9221 85.5051C19.1447 86.2824 18.708 87.3367 18.708 88.436V102.833C18.708 103.932 19.1447 104.987 19.9221 105.764C20.6994 106.541 21.7537 106.978 22.853 106.978H138.964C140.063 106.978 141.118 106.541 141.895 105.764C142.672 104.987 143.109 103.932 143.109 102.833V88.4545C143.102 87.3574 142.663 86.3073 141.887 85.5315C141.111 84.7557 140.061 84.3167 138.964 84.3094V84.291Z" fill="#1D1D1B"/>
<path d="M11.6889 96.847C9.64122 96.8445 7.67812 96.03 6.2302 94.5821C4.78228 93.1342 3.96777 91.1711 3.96533 89.1234V55.6824C3.97875 45.7002 7.95135 36.131 15.0116 29.0742C22.0718 22.0175 31.6429 18.0495 41.6251 18.041H122.808C123.033 18.041 123.268 18.041 123.521 18.041C133.381 18.2185 142.778 22.2597 149.688 29.2951C156.599 36.3305 160.471 45.7977 160.472 55.6593V89.1004C160.469 91.1489 159.654 93.1127 158.205 94.5607C156.757 96.0088 154.792 96.8227 152.744 96.824L11.6889 96.847Z" fill="#6AB5D2"/>
<path d="M122.808 19.0299C123.033 19.0299 123.24 19.0299 123.466 19.0299C133.074 19.193 142.233 23.1242 148.97 29.9765C155.707 36.8287 159.482 46.0534 159.482 55.6627V89.1037C159.482 90.8907 158.772 92.6046 157.508 93.8682C156.245 95.1318 154.531 95.8417 152.744 95.8417H11.6888C9.90183 95.8417 8.188 95.1318 6.92439 93.8682C5.66078 92.6046 4.95089 90.8907 4.95089 89.1037V55.6811C4.95149 50.8662 5.90068 46.0986 7.74422 41.6507C9.58777 37.2027 12.2896 33.1616 15.6952 29.758C19.1009 26.3545 23.1438 23.6552 27.5929 21.8144C32.042 19.9737 36.8102 19.0275 41.6251 19.0299H122.808ZM122.808 17.0495H41.6251C31.3806 17.0593 21.5583 21.1319 14.3127 28.3741C7.06705 35.6163 2.98973 45.4367 2.9751 55.6811V89.1221C2.97754 91.4324 3.89637 93.6474 5.52999 95.281C7.1636 96.9146 9.37856 97.8334 11.6888 97.8359H152.744C155.054 97.8334 157.269 96.9146 158.903 95.281C160.536 93.6474 161.455 91.4324 161.457 89.1221V55.6811C161.459 45.5643 157.491 35.8509 150.405 28.63C143.319 21.409 133.682 17.2574 123.567 17.068C123.287 17.0449 123.042 17.0449 122.808 17.0449V17.0495Z" fill="#1D1D1B"/>
<path d="M93.1433 96.8469C91.3729 96.8445 89.6757 96.1401 88.4239 94.8882C87.172 93.6364 86.4676 91.9392 86.4652 90.1688V55.6823C86.4106 50.7882 87.3274 45.9319 89.1625 41.3945C90.9976 36.8571 93.7146 32.7289 97.1561 29.2488C100.598 25.7687 104.695 23.0058 109.212 21.1202C113.728 19.2346 118.574 18.2637 123.469 18.2637C128.363 18.2637 133.209 19.2346 137.725 21.1202C142.242 23.0058 146.34 25.7687 149.781 29.2488C153.223 32.7289 155.94 36.8571 157.775 41.3945C159.61 45.9319 160.527 50.7882 160.472 55.6823V90.1688C160.47 91.9408 159.764 93.6394 158.51 94.8915C157.256 96.1436 155.557 96.8469 153.785 96.8469H93.1433Z" fill="#1D1D1B"/>
<path d="M87.5512 91.8417C87.6463 91.767 87.8309 91.6587 88.1467 91.5306C88.8273 91.2545 89.912 90.9665 91.4234 90.6804C94.4325 90.1107 98.9155 89.5878 104.626 89.1457C110.332 88.7039 117.13 88.3528 124.628 88.1131C132.125 87.8734 140.171 87.75 148.297 87.75C156.424 87.75 164.469 87.8734 171.967 88.1131C179.465 88.3528 186.263 88.7039 191.968 89.1457C197.679 89.5878 202.162 90.1107 205.171 90.6804C206.683 90.9665 207.767 91.2545 208.448 91.5306C208.764 91.6587 208.948 91.767 209.044 91.8417V95.6898C208.977 95.705 208.898 95.7212 208.807 95.7379C208.292 95.8329 207.509 95.9244 206.476 96.0034C204.417 96.1608 201.613 96.25 198.68 96.25H97.8996C97.8996 96.25 97.8995 96.25 97.8995 96.25C94.9694 96.2497 92.169 96.1603 90.1136 96.0029C89.0824 95.924 88.3005 95.8326 87.7862 95.7377C87.6959 95.721 87.6179 95.705 87.5512 95.6898V91.8417ZM87.2627 95.6061C87.2628 95.6061 87.2635 95.6065 87.2649 95.6072C87.2634 95.6065 87.2627 95.6061 87.2627 95.6061Z" fill="#F2EE98" stroke="#1D1D1B" stroke-width="1.5"/>
<path d="M86.5512 91.8435C86.6477 91.7683 86.8346 91.6596 87.1535 91.5313C87.8405 91.2549 88.9348 90.9668 90.4588 90.6806C93.4929 90.1108 98.0129 89.5879 103.77 89.1457C109.522 88.7039 116.376 88.3528 123.935 88.1131C131.494 87.8734 139.604 87.75 147.797 87.75C155.99 87.75 164.101 87.8734 171.66 88.1131C179.219 88.3528 186.072 88.7039 191.824 89.1457C197.582 89.5879 202.102 90.1108 205.136 90.6806C206.66 90.9668 207.754 91.2549 208.441 91.5313C208.76 91.6596 208.947 91.7683 209.044 91.8435V95.6888C208.975 95.7042 208.895 95.7207 208.801 95.7377C208.281 95.8328 207.491 95.9243 206.45 96.0033C204.374 96.1608 201.546 96.25 198.59 96.25H96.9899C96.9898 96.25 96.9898 96.25 96.9898 96.25C94.0356 96.2497 91.2122 96.1603 89.1396 96.0029C88.0999 95.9239 87.3111 95.8325 86.792 95.7375C86.6993 95.7205 86.6194 95.7042 86.5512 95.6888V91.8435ZM86.2618 95.6051C86.2618 95.6051 86.2626 95.6054 86.264 95.6062C86.2625 95.6055 86.2618 95.6051 86.2618 95.6051Z" fill="#F2EE98" stroke="#1D1D1B" stroke-width="1.5"/>
<path d="M46.5435 57.9058C49.9519 57.9058 52.715 54.4396 52.715 50.1638C52.715 45.8881 49.9519 42.4219 46.5435 42.4219C43.1351 42.4219 40.3721 45.8881 40.3721 50.1638C40.3721 54.4396 43.1351 57.9058 46.5435 57.9058Z" fill="#F2EE98" stroke="#1D1D1B" stroke-width="1.97579" stroke-miterlimit="10"/>
<path d="M46.5439 42.4226V10.6211" stroke="#1D1D1B" stroke-width="1.97579" stroke-miterlimit="10"/>
<path d="M55.9023 1H37.1898C36.6379 1 36.1904 1.44745 36.1904 1.99941V9.62624C36.1904 10.1782 36.6379 10.6256 37.1898 10.6256H55.9023C56.4542 10.6256 56.9017 10.1782 56.9017 9.62624V1.99941C56.9017 1.44745 56.4542 1 55.9023 1Z" fill="#F2EE98" stroke="#1D1D1B" stroke-width="1.97579" stroke-miterlimit="10"/>
<path d="M123.471 19.0488C113.866 19.2178 104.712 23.1505 97.9781 30.0008C91.243 36.8521 87.4674 46.0741 87.4641 55.6815V90.168C87.4639 90.444 87.4837 90.718 87.5228 90.988C87.006 91.2433 86.7634 91.5021 86.8012 91.7617V94.4558C85.9525 93.1982 85.4892 91.7071 85.4883 90.168V55.6815C85.4916 45.5556 89.4709 35.8359 96.5696 28.615C103.668 21.394 113.318 17.2492 123.443 17.073H123.475L123.498 17.0684C133.625 17.2399 143.278 21.3838 150.378 28.6068C157.478 35.8298 161.455 45.5534 161.453 55.6815V86V87.109C160.798 87.098 160.141 87.0879 159.481 87.0785V86V55.6815C159.482 46.0722 155.707 36.8476 148.97 29.9953C142.234 23.1442 133.077 19.2131 123.471 19.0488Z" fill="#1D1D1B"/>
<path d="M157.26 97H97.8995C94.9573 96.9997 92.1368 96.9101 90.0563 96.7508C89.7077 96.7241 89.3846 96.6958 89.0883 96.6661C90.2969 97.4231 91.7031 97.8346 93.152 97.8363H153.784C155.004 97.8348 156.193 97.5433 157.26 97Z" fill="#1D1D1B"/>
<circle cx="184" cy="66" r="15.25" fill="white" stroke="#1D1D1B" stroke-width="1.5"/>
<path d="M183.996 72.6208C182.474 72.6208 181.258 72.1904 180.347 71.3298C179.449 70.4567 179 69.147 179 67.4007V64.22C179 62.5112 179.449 61.214 180.347 60.3284C181.258 59.4428 182.474 59 183.996 59C185.53 59 186.746 59.4428 187.644 60.3284C188.554 61.214 189.01 62.5112 189.01 64.22V67.4007C189.01 69.147 188.554 70.4567 187.644 71.3298C186.746 72.1904 185.53 72.6208 183.996 72.6208ZM183.996 70.862C185.031 70.862 185.798 70.5689 186.297 69.9827C186.796 69.384 187.045 68.5483 187.045 67.4756V64.1078C187.045 63.0351 186.777 62.2119 186.241 61.6381C185.704 61.0518 184.956 60.7587 183.996 60.7587C183.023 60.7587 182.274 61.0581 181.75 61.6568C181.226 62.243 180.965 63.06 180.965 64.1078V67.4756C180.965 68.5732 181.214 69.4151 181.713 70.0014C182.224 70.5752 182.985 70.862 183.996 70.862Z" fill="#1D1D1B"/>
</svg>
