<svg width="24" height="24" viewBox="0 0 24 24" fill="none" xmlns="http://www.w3.org/2000/svg">
<path d="M2.646 8.37157C2.67644 8.2351 2.70213 8.09716 2.73828 7.96256C2.82866 7.6234 2.97899 7.30947 3.22492 7.0588C3.77102 6.50324 4.31522 5.9453 4.88701 5.41686C5.44928 4.89697 6.14238 4.89364 6.7056 5.41448C7.36207 6.02426 7.98567 6.66972 8.61651 7.30661C8.85907 7.55158 9.116 7.79371 9.30668 8.0772C9.65542 8.59658 9.60353 9.18066 9.17922 9.64015C8.73542 10.1216 8.26396 10.5772 7.80252 11.0424C7.49907 11.3477 7.50096 11.3535 7.6803 11.7445C8.1612 12.7932 8.88858 13.6642 9.66155 14.5032C10.4346 15.3423 11.2828 16.0819 12.2456 16.6878C12.5733 16.8943 12.9282 17.0579 13.2683 17.2454C13.4301 17.3348 13.558 17.2991 13.6827 17.173C14.1266 16.724 14.5719 16.2774 15.0184 15.8332C15.2534 15.5996 15.5155 15.4107 15.8518 15.3461C16.25 15.2695 16.601 15.3817 16.9055 15.6286C17.1205 15.8036 17.3141 16.0058 17.5116 16.1994C18.0995 16.783 18.6913 17.3633 19.2669 17.9593C19.4454 18.1376 19.5941 18.3435 19.7074 18.5691C19.9319 19.0395 19.8406 19.5104 19.5057 19.8819C18.96 20.4869 18.3882 21.071 17.7932 21.627C17.2057 22.1726 16.4655 22.2606 15.6949 22.1931C14.1579 22.0589 12.7931 21.432 11.474 20.6957C8.78342 19.1964 6.61427 17.1283 4.88939 14.5879C4.05358 13.3564 3.38428 12.0384 2.94854 10.6119C2.82677 10.2133 2.77016 9.79518 2.6831 9.38617C2.67407 9.34431 2.65979 9.30384 2.6479 9.26252L2.646 8.37157Z" fill="black"/>
<path d="M13.434 3.09558C15.0548 3.48914 16.5583 4.26351 17.8199 5.35444C19.5115 6.80946 20.6693 8.61409 21.2592 10.7731C21.3025 10.9315 21.3406 11.0913 21.3777 11.2544C21.3928 11.3223 21.3941 11.3926 21.3813 11.461C21.3685 11.5294 21.342 11.5944 21.3033 11.6523C21.2646 11.7101 21.2145 11.7595 21.1562 11.7974C21.0978 11.8353 21.0324 11.8609 20.9638 11.8727L20.5257 11.9479C20.4 11.9697 20.2707 11.9437 20.1631 11.8752C20.0555 11.8067 19.9774 11.7005 19.9439 11.5774C18.8922 7.68228 16.4085 5.29547 12.4545 4.38317C12.3549 4.36056 12.2674 4.30152 12.2091 4.21763C12.1508 4.13375 12.126 4.0311 12.1396 3.92988C12.1686 3.71631 12.1986 3.49798 12.2281 3.27919C12.2356 3.22365 12.2546 3.17027 12.2836 3.12236C12.3128 3.07445 12.3514 3.03303 12.3972 3.00068C12.4429 2.96834 12.4949 2.94575 12.5497 2.93434C12.6046 2.92292 12.6613 2.92293 12.7162 2.93434C12.9621 2.98762 13.2585 3.0523 13.434 3.09558Z" fill="black"/>
<path d="M15.9895 11.6307C15.4187 9.78613 14.2032 8.61176 12.3408 8.09331C12.1994 8.0544 12.077 7.96539 11.9964 7.84283C11.9157 7.72032 11.8825 7.57265 11.9028 7.42739L11.9418 7.1496C11.9529 7.06719 11.9811 6.98799 12.0245 6.917C12.0678 6.84601 12.1255 6.78479 12.1936 6.73719C12.2618 6.68959 12.3392 6.65664 12.4208 6.64044C12.5024 6.62423 12.5864 6.62512 12.6677 6.64304C14.9577 7.16292 16.851 9.05836 17.4275 11.2535C17.4486 11.3344 17.4528 11.4188 17.4396 11.5015C17.4264 11.584 17.3962 11.663 17.3509 11.7333C17.3056 11.8036 17.2462 11.8637 17.1764 11.9099C17.1067 11.956 17.0281 11.9871 16.9456 12.0012L16.6688 12.0488C16.5241 12.0734 16.3754 12.0445 16.2504 11.9675C16.1255 11.8906 16.0327 11.7709 15.9895 11.6307Z" fill="black"/>
<path d="M2.56444 6.8887C2.59489 6.75266 2.62057 6.61473 2.65673 6.48012C2.7471 6.14098 2.89743 5.82705 3.14336 5.57638C3.68899 5.02082 4.23367 4.46288 4.80546 3.93444C5.36772 3.41455 6.06082 3.41121 6.62404 3.93205C7.28051 4.54184 7.90416 5.1873 8.53445 5.82419C8.77756 6.06916 9.03441 6.31126 9.22517 6.59475C9.57383 7.11416 9.52202 7.69826 9.09764 8.15773C8.65383 8.63913 8.18245 9.09474 7.71815 9.55998C7.41513 9.8653 7.41703 9.87105 7.59637 10.262C8.07682 11.3108 8.80466 12.1817 9.57764 13.0208C10.3507 13.8599 11.1988 14.5994 12.1616 15.2054C12.4894 15.4119 12.8443 15.5755 13.1844 15.7629C13.3461 15.8523 13.4736 15.8167 13.5988 15.6906C14.0427 15.2416 14.4879 14.7949 14.9345 14.3507C15.1695 14.1167 15.4316 13.9283 15.7679 13.8637C16.1661 13.7871 16.5171 13.8993 16.8216 14.1462C17.0366 14.3208 17.2302 14.5234 17.4271 14.717C18.0156 15.3006 18.6068 15.8808 19.1829 16.4769C19.3615 16.6552 19.5102 16.8611 19.6235 17.0867C19.848 17.557 19.7567 18.0279 19.4218 18.3994C18.8761 19.0045 18.3043 19.5886 17.7092 20.1446C17.1217 20.6902 16.3816 20.7782 15.611 20.7107C14.0735 20.5765 12.7091 19.9496 11.3901 19.2133C8.69903 17.714 6.53033 15.6459 4.80546 13.1055C3.96965 11.874 3.29986 10.5559 2.8646 9.12946C2.74282 8.73086 2.68622 8.31276 2.59916 7.90375C2.59012 7.86189 2.57586 7.82142 2.56396 7.7801L2.56444 6.8887Z" fill="#F2EE98" stroke="black" stroke-miterlimit="10"/>
<path d="M13.5089 1.9608C15.1286 2.35482 16.6312 3.12916 17.892 4.21967C19.584 5.67468 20.7418 7.4793 21.3317 9.63824C21.375 9.79669 21.4131 9.95645 21.4502 10.1196C21.4653 10.1876 21.4666 10.2579 21.4538 10.3263C21.4409 10.3947 21.4144 10.4598 21.3756 10.5176C21.3369 10.5755 21.2868 10.6248 21.2284 10.6627C21.17 10.7006 21.1045 10.7262 21.0358 10.738L20.5982 10.8136C20.4724 10.8352 20.343 10.8092 20.2353 10.7406C20.1277 10.672 20.0495 10.5658 20.0159 10.4426C18.9642 6.54751 16.4806 4.16069 12.5271 3.24839C12.4275 3.22589 12.3399 3.16692 12.2816 3.08313C12.2234 2.99932 12.1985 2.89674 12.2121 2.79558C12.2412 2.58153 12.2706 2.3632 12.3006 2.14487C12.3081 2.0893 12.327 2.03586 12.3561 1.9879C12.3851 1.93993 12.4238 1.89847 12.4695 1.86607C12.5154 1.83367 12.5673 1.81106 12.6221 1.79961C12.6771 1.78817 12.7338 1.78815 12.7887 1.79956C13.037 1.85284 13.3334 1.91752 13.5089 1.9608Z" fill="#6AB5D2" stroke="black" stroke-miterlimit="10"/>
<path d="M16.1256 10.637C15.5547 8.79195 14.3388 7.61808 12.4765 7.09915C12.3352 7.06007 12.2128 6.97101 12.1323 6.84852C12.0517 6.72604 12.0184 6.57847 12.0384 6.43324L12.0774 6.15592C12.0886 6.07345 12.1168 5.99418 12.1602 5.92314C12.2035 5.8521 12.2612 5.79083 12.3294 5.74318C12.3977 5.69554 12.4751 5.66255 12.5567 5.64632C12.6384 5.63009 12.7225 5.63097 12.8038 5.64889C15.0933 6.16877 16.9871 8.06427 17.5631 10.2594C17.5841 10.3402 17.5881 10.4245 17.5748 10.507C17.5615 10.5894 17.5312 10.6682 17.4859 10.7384C17.4407 10.8086 17.3813 10.8686 17.3116 10.9147C17.2421 10.9607 17.1635 10.9919 17.0813 11.0062L16.8044 11.0537C16.66 11.0782 16.5116 11.0496 16.3867 10.9729C16.2618 10.8963 16.169 10.777 16.1256 10.637Z" fill="#6AB5D2" stroke="black" stroke-miterlimit="10"/>
</svg>
