<svg width="32" height="32" viewBox="0 0 32 32" fill="none" xmlns="http://www.w3.org/2000/svg">
<rect width="32" height="32" rx="4" fill="#F8F6F3"/>
<path d="M19.8044 7H16.7709V19.2608C16.7709 20.7218 15.6041 21.9218 14.1522 21.9218C12.7003 21.9218 11.5335 20.7218 11.5335 19.2608C11.5335 17.8261 12.6743 16.6522 14.0744 16.6V13.5217C10.989 13.5739 8.5 16.1044 8.5 19.2608C8.5 22.4435 11.0409 25 14.1781 25C17.3153 25 19.8562 22.4174 19.8562 19.2608V12.9739C20.997 13.8087 22.3971 14.3043 23.875 14.3305V11.2522C21.5934 11.1739 19.8044 9.29565 19.8044 7Z" fill="#E688A3"/>
</svg>
