<svg width="32" height="32" viewBox="0 0 32 32" fill="none" xmlns="http://www.w3.org/2000/svg">
<path d="M24.5847 7.31368L22.8641 6.20117L20.9766 9.1198L22.697 10.2323L24.5847 7.31368Z" fill="black"/>
<path d="M27.6596 6.77396L22.1564 3.21555C22.0809 3.16676 21.9802 3.18837 21.9314 3.26383L20.6179 5.2948C20.5691 5.37025 20.5907 5.47099 20.6662 5.51978L26.1693 9.07822C26.2448 9.12701 26.3455 9.10537 26.3943 9.02992L27.7078 6.99895C27.7566 6.92349 27.735 6.82276 27.6596 6.77396Z" fill="black"/>
<path d="M15.3848 30.2137C21.8513 30.2137 27.0934 24.9721 27.0934 18.5062C27.0934 12.0404 21.8513 6.79883 15.3848 6.79883C8.91842 6.79883 3.67627 12.0404 3.67627 18.5062C3.67627 24.9721 8.91842 30.2137 15.3848 30.2137Z" fill="black"/>
<path d="M20.3069 16.8208H16.8518V13.4024C16.8519 13.2942 16.8306 13.187 16.7892 13.087C16.7478 12.987 16.6872 12.8961 16.6106 12.8196C16.5341 12.743 16.4433 12.6823 16.3433 12.6409C16.2434 12.5994 16.1362 12.5781 16.0279 12.5781H14.5649C14.4567 12.5781 14.3495 12.5994 14.2495 12.6409C14.1495 12.6823 14.0587 12.743 13.9822 12.8196C13.9057 12.8961 13.845 12.987 13.8036 13.087C13.7622 13.187 13.741 13.2942 13.7411 13.4024V16.8208H10.4318C10.2133 16.8208 10.0037 16.9076 9.84921 17.0621C9.69472 17.2166 9.60791 17.4262 9.60791 17.6447V19.109C9.60783 19.2172 9.62913 19.3244 9.67049 19.4244C9.71185 19.5244 9.77251 19.6153 9.84904 19.6918C9.92557 19.7683 10.0164 19.8291 10.1164 19.8705C10.2164 19.912 10.3235 19.9333 10.4318 19.9333H13.7411V23.2786C13.7411 23.4971 13.8278 23.7066 13.9824 23.8611C14.1369 24.0156 14.3464 24.1024 14.5649 24.1024H16.0305C16.249 24.1024 16.4585 24.0156 16.6131 23.8611C16.7676 23.7066 16.8544 23.4971 16.8544 23.2786V19.9333H20.3094C20.5281 19.9333 20.7378 19.8465 20.8924 19.6919C21.047 19.5372 21.1338 19.3276 21.1338 19.109V17.6441C21.1338 17.5357 21.1123 17.4284 21.0707 17.3283C21.0291 17.2282 20.9681 17.1373 20.8913 17.0609C20.8144 16.9843 20.7233 16.9238 20.623 16.8826C20.5227 16.8414 20.4153 16.8204 20.3069 16.8208Z" fill="black"/>
<path d="M25.116 5.94064L23.3955 4.82812L21.5078 7.74677L23.2284 8.85927L25.116 5.94064Z" fill="#F2EE98" stroke="black" stroke-miterlimit="10"/>
<path d="M28.1908 5.40091L22.6877 1.8425C22.6122 1.79371 22.5115 1.81532 22.4627 1.89078L21.1491 3.92175C21.1003 3.99721 21.122 4.09794 21.1974 4.14674L26.7006 7.70515C26.776 7.75394 26.8768 7.73233 26.9256 7.65687L28.2391 5.6259C28.2879 5.55044 28.2663 5.44972 28.1908 5.40091Z" fill="#E687A3" stroke="black" stroke-miterlimit="10"/>
<path d="M15.9166 28.8406C22.3831 28.8406 27.6252 23.5991 27.6252 17.1332C27.6252 10.6674 22.3831 5.42578 15.9166 5.42578C9.45013 5.42578 4.20801 10.6674 4.20801 17.1332C4.20801 23.5991 9.45013 28.8406 15.9166 28.8406Z" fill="#F2EE98" stroke="black" stroke-miterlimit="10"/>
<path d="M20.8388 15.4492H17.3837V12.0308C17.3837 11.9226 17.3624 11.8154 17.3209 11.7154C17.2795 11.6154 17.2187 11.5246 17.1422 11.4482C17.0656 11.3716 16.9748 11.311 16.8748 11.2696C16.7748 11.2283 16.6676 11.2069 16.5593 11.207H15.0942C14.8757 11.207 14.6662 11.2938 14.5117 11.4483C14.3572 11.6028 14.2704 11.8124 14.2704 12.0308V15.4492H10.9611C10.7425 15.4492 10.5328 15.5361 10.3782 15.6907C10.2236 15.8453 10.1367 16.0549 10.1367 16.2736V17.7385C10.1369 17.9569 10.2238 18.1665 10.3783 18.321C10.5329 18.4755 10.7425 18.5623 10.9611 18.5623H14.2704V21.9075C14.2703 22.0158 14.2915 22.1229 14.333 22.2229C14.3743 22.3229 14.435 22.4138 14.5115 22.4903C14.588 22.5669 14.6789 22.6276 14.7789 22.669C14.8788 22.7105 14.986 22.7318 15.0942 22.7318H16.5609C16.7794 22.7318 16.9891 22.645 17.1437 22.4903C17.2984 22.3358 17.3852 22.1261 17.3852 21.9075V18.5623H20.8403C21.0588 18.5623 21.2685 18.4755 21.423 18.321C21.5777 18.1665 21.6646 17.9569 21.6647 17.7385V16.2736C21.6647 16.1652 21.6433 16.0578 21.6018 15.9577C21.5603 15.8576 21.4994 15.7667 21.4227 15.6901C21.346 15.6136 21.2549 15.5529 21.1547 15.5116C21.0546 15.4702 20.9472 15.4491 20.8388 15.4492Z" fill="#6AB5D2" stroke="black" stroke-miterlimit="10"/>
</svg>
