<svg width="16" height="16" viewBox="0 0 16 16" fill="none" xmlns="http://www.w3.org/2000/svg">
<g clip-path="url(#clip0_5351_37979)">
<path fill-rule="evenodd" clip-rule="evenodd" d="M14.006 5.51366C14.7973 6.08366 15.3346 6.96699 15.3346 8.00033C15.3346 9.03366 14.7973 9.91766 14.006 10.487C14.166 11.4483 13.9166 12.459 13.188 13.187C12.458 13.917 11.448 14.1597 10.4906 14.0037C9.9233 14.7977 9.03197 15.3337 8.0013 15.3337C6.96797 15.3337 6.08264 14.7957 5.51397 14.003C4.5553 14.1597 3.54464 13.9177 2.81397 13.187C2.08397 12.457 1.8413 11.4463 2.00264 10.487C1.21197 9.91833 0.667969 9.03433 0.667969 8.00033C0.667969 6.96633 1.21197 6.08166 2.00264 5.51366C1.8413 4.55433 2.08397 3.54366 2.81464 2.81366C3.5433 2.08433 4.55464 1.83566 5.5193 1.99566C6.08464 1.20299 6.96997 0.666992 8.0013 0.666992C9.0313 0.666992 9.9213 1.20233 10.4893 1.99566C11.4506 1.83566 12.46 2.08566 13.188 2.81366C13.9166 3.54166 14.1666 4.55233 14.006 5.51366ZM11.0553 5.45766C11.1266 5.50852 11.1871 5.57292 11.2335 5.64719C11.2799 5.72145 11.3112 5.80412 11.3256 5.89048C11.34 5.97685 11.3373 6.0652 11.3176 6.15051C11.2978 6.23581 11.2615 6.3164 11.2106 6.38766L7.8773 11.0543C7.82103 11.1331 7.74827 11.1987 7.66408 11.2466C7.57988 11.2944 7.48628 11.3233 7.38977 11.3313C7.29326 11.3393 7.19618 11.3262 7.10526 11.2929C7.01434 11.2595 6.93177 11.2068 6.8633 11.1383L4.8633 9.13833C4.74186 9.01259 4.67467 8.84419 4.67619 8.66939C4.6777 8.49459 4.74782 8.32739 4.87142 8.20378C4.99503 8.08017 5.16224 8.01006 5.33704 8.00854C5.51183 8.00702 5.68023 8.07422 5.80597 8.19566L7.2493 9.63899L10.1253 5.61233C10.2281 5.4685 10.3839 5.3714 10.5583 5.34239C10.7327 5.31339 10.9115 5.35485 11.0553 5.45766Z" fill="#E688A3"/>
</g>
<defs>
<clipPath id="clip0_5351_37979">
<rect width="16" height="16" fill="white"/>
</clipPath>
</defs>
</svg>
