<svg width="40" height="40" viewBox="0 0 40 40" fill="none" xmlns="http://www.w3.org/2000/svg">
<path d="M25.6999 19.1685L12.3583 21.139C11.3718 21.2848 10.3676 21.033 9.56663 20.439C8.76563 19.8449 8.2333 18.9572 8.0866 17.9707L7.69897 15.3662L7.2873 12.5654C7.24824 12.3032 7.23758 12.0376 7.25551 11.7732C7.31093 10.9155 7.65892 10.1028 8.24136 9.47075C8.82381 8.8387 9.60545 8.42555 10.4558 8.30029L23.8037 6.33287C24.6077 6.21156 25.4295 6.35562 26.1443 6.74323C26.8592 7.13085 27.4282 7.74089 27.7652 8.48092C27.9158 8.80213 28.0182 9.1438 28.0691 9.49487L28.4428 12.0421L28.8677 14.9002C29.0124 15.8861 28.7602 16.8891 28.1663 17.6892C27.5725 18.4895 26.6854 19.0214 25.6999 19.1685Z" fill="black"/>
<path d="M28.443 12.0398L7.69993 15.3669L7.28828 12.5661C7.24921 12.3039 7.23855 12.0383 7.25649 11.7738L27.7654 8.47852C27.916 8.79973 28.0184 9.14139 28.0693 9.49248L28.443 12.0398Z" fill="black"/>
<path d="M31.1875 12.2148H3.13906C2.80338 12.2148 2.53125 12.4869 2.53125 12.8225V35.6767C2.53125 36.0124 2.80338 36.2844 3.13906 36.2844H31.1875C31.5232 36.2844 31.7953 36.0124 31.7953 35.6767V12.8225C31.7953 12.4869 31.5232 12.2148 31.1875 12.2148Z" fill="black"/>
<path d="M34.5437 20.7891H24.4862C24.2656 20.7891 24.0869 20.9678 24.0869 21.1883V27.6263C24.0869 27.8468 24.2656 28.0255 24.4862 28.0255H34.5437C34.7643 28.0255 34.943 27.8468 34.943 27.6263V21.1883C34.943 20.9678 34.7643 20.7891 34.5437 20.7891Z" fill="black"/>
<path d="M27.64 26.219C28.653 26.219 29.4743 25.3979 29.4743 24.385C29.4743 23.3719 28.653 22.5508 27.64 22.5508C26.6269 22.5508 25.8057 23.3719 25.8057 24.385C25.8057 25.3979 26.6269 26.219 27.64 26.219Z" fill="black"/>
<path d="M28.1141 16.5504L14.7734 18.5211C13.7868 18.667 12.7825 18.4154 11.9815 17.8213C11.1804 17.2271 10.6481 16.3393 10.5016 15.3528L10.114 12.7482L9.70235 9.9474C9.66328 9.68523 9.65261 9.41962 9.67057 9.15516C9.72612 8.29754 10.0741 7.48492 10.6566 6.8529C11.239 6.22089 12.0206 5.80771 12.8708 5.68232L26.2178 3.71177C27.022 3.59047 27.8438 3.73454 28.5586 4.12215C29.2735 4.50977 29.8425 5.1198 30.1795 5.85982C30.3301 6.18104 30.4325 6.5227 30.4834 6.87378L30.857 9.42106L31.2819 12.2792C31.4278 13.2655 31.176 14.2694 30.5821 15.0703C29.9882 15.8713 29.1005 16.4036 28.1141 16.5504Z" fill="#F2EE98" stroke="black" stroke-width="1.5" stroke-miterlimit="10"/>
<path d="M30.8584 9.42257L10.1169 12.7497L9.70528 9.94891C9.66619 9.68673 9.65554 9.42111 9.67349 9.15666L30.1824 5.86133C30.3329 6.18254 30.4354 6.5242 30.4864 6.87528L30.8584 9.42257Z" fill="#9277AA" stroke="black" stroke-width="1.5" stroke-miterlimit="10"/>
<path d="M33.6035 9.59766H5.55508C5.21939 9.59766 4.94727 9.86974 4.94727 10.2054V33.0595C4.94727 33.3952 5.21939 33.6673 5.55508 33.6673H33.6035C33.9392 33.6673 34.2113 33.3952 34.2113 33.0595V10.2054C34.2113 9.86974 33.9392 9.59766 33.6035 9.59766Z" fill="#F2EE98" stroke="black" stroke-width="1.5" stroke-miterlimit="10"/>
<path d="M36.9588 18.1719H26.9012C26.6807 18.1719 26.502 18.3506 26.502 18.5711V25.009C26.502 25.2295 26.6807 25.4082 26.9012 25.4082H36.9588C37.1793 25.4082 37.358 25.2295 37.358 25.009V18.5711C37.358 18.3506 37.1793 18.1719 36.9588 18.1719Z" fill="#9277AA" stroke="black" stroke-width="1.5" stroke-miterlimit="10"/>
<path d="M30.056 23.6018C31.069 23.6018 31.8903 22.7807 31.8903 21.7678C31.8903 20.7549 31.069 19.9336 30.056 19.9336C29.0429 19.9336 28.2217 20.7549 28.2217 21.7678C28.2217 22.7807 29.0429 23.6018 30.056 23.6018Z" fill="#F2EE98"/>
</svg>
